<svg xmlns="http://www.w3.org/2000/svg" xmlns:xlink="http://www.w3.org/1999/xlink" width="137" height="137" viewBox="0 0 137 137"><defs><clipPath id="a"><rect width="65" height="65" transform="translate(0.333 0.332)" fill="#12263f"/></clipPath></defs><g transform="translate(-732 -2213)"><g transform="translate(732 2213)" fill="#fff" stroke="#361d90" stroke-width="4"><circle cx="68.5" cy="68.5" r="68.5" stroke="none"/><circle cx="68.5" cy="68.5" r="66.5" fill="none"/></g><g transform="translate(767.667 2247.667)"><g transform="translate(0 0)"><g clip-path="url(#a)"><path d="M63.437,58.363H59.358a3.465,3.465,0,0,0,.371-1.562V28.463a3.489,3.489,0,0,0-3.485-3.485h-4.4a19.742,19.742,0,0,0,.691-5.19,19.968,19.968,0,0,0-.215-2.919,19.535,19.535,0,0,0-2.657-7.342H64.7a.962.962,0,1,0,0-1.923H48.327a19.916,19.916,0,0,0-8.715-6.367A19.634,19.634,0,0,0,23.3,2.5a.953.953,0,0,0-.22-.026H.966a.962.962,0,1,0,0,1.923H20.5A19.811,19.811,0,0,0,13.82,24.979H9.42a3.489,3.489,0,0,0-3.484,3.485V56.8a3.458,3.458,0,0,0,.371,1.562H2.228A2.226,2.226,0,0,0,0,60.587a4.847,4.847,0,0,0,4.746,5.1H49.064a.962.962,0,1,0,0-1.923H42.147a7.483,7.483,0,0,0-1.391-3.477h22.68a.3.3,0,0,1,.3.3,2.905,2.905,0,0,1-2.823,3.177H53.3a.962.962,0,1,0,0,1.923h7.612a4.84,4.84,0,0,0,4.747-5.1,2.226,2.226,0,0,0-2.224-2.223M56.244,26.9a1.562,1.562,0,0,1,1.561,1.561V56.8a1.563,1.563,0,0,1-1.561,1.562H38.7A7.456,7.456,0,0,0,35.5,57.247v-.821H54.937a.962.962,0,0,0,.962-.962V29.8a.962.962,0,0,0-.962-.961h-4.6a19.853,19.853,0,0,0,.87-1.937ZM20.966,35.549A19.635,19.635,0,0,0,49.2,30.763h4.771V54.5H35.5V51.838H49.434a2.667,2.667,0,0,0,1.6-4.8,4.448,4.448,0,0,0,1.069-3.121,2.247,2.247,0,0,0-2.244-2.244H40.542A2.247,2.247,0,0,0,38.3,43.915a4.353,4.353,0,0,0,.659,2.582H35.5a2.325,2.325,0,0,0-2.244-2.462h-.853A2.33,2.33,0,0,0,30.162,46.5H26.708a4.353,4.353,0,0,0,.659-2.582,2.247,2.247,0,0,0-2.244-2.244H15.8a2.247,2.247,0,0,0-2.244,2.244,4.443,4.443,0,0,0,1.069,3.121,2.667,2.667,0,0,0,1.6,4.8H30.162V54.5H11.689V30.763h4.774a19.988,19.988,0,0,0,4.5,4.786m10.9-.377V37.6a17.527,17.527,0,0,1-8.95-3.013L24.4,32.667a15.223,15.223,0,0,0,7.467,2.5M48.19,19.788c0-.419-.017-.834-.05-1.244l2.39-.413c.051.552.078,1.106.078,1.658A17.824,17.824,0,0,1,33.794,37.6V35.172a15.41,15.41,0,0,0,14.4-15.384M40.222,44.253v-.338a.322.322,0,0,1,.321-.321h9.318a.321.321,0,0,1,.321.321A2.332,2.332,0,0,1,47.938,46.5H42.466a2.247,2.247,0,0,1-2.244-2.244m9.213,4.168a.747.747,0,0,1,0,1.494H35.5V48.42ZM25.443,44.253A2.247,2.247,0,0,1,23.2,46.5H17.728a2.351,2.351,0,0,1-2.244-2.583.322.322,0,0,1,.321-.321h9.318a.321.321,0,0,1,.321.321ZM16.231,48.42H30.162v1.494H16.231a.747.747,0,1,1,0-1.494m15.855-2.142a.321.321,0,0,1,.321-.321h.853a.321.321,0,0,1,.321.321V57.2H32.085ZM47.665,9.972a17.633,17.633,0,0,1,2.585,6.254l-2.383.412A15.463,15.463,0,0,0,39.035,5.688l.814-2.281a18.009,18.009,0,0,1,7.817,6.566M32.832,1.954a17.623,17.623,0,0,1,5.213.782l-.814,2.282A15.314,15.314,0,0,0,23.524,7.528a.962.962,0,1,0,1.17,1.527A13.273,13.273,0,0,1,32.832,6.3,13.469,13.469,0,1,1,22.18,11.568a.962.962,0,0,0-1.527-1.17,15.441,15.441,0,0,0,2.215,21.11l-1.482,1.914A17.839,17.839,0,0,1,32.832,1.954M7.859,56.8V28.463A1.563,1.563,0,0,1,9.42,26.9h5.035a19.9,19.9,0,0,0,.813,1.825l.059.112h-4.6a.962.962,0,0,0-.962.961V55.464a.962.962,0,0,0,.962.962H30.162v.821a7.457,7.457,0,0,0-3.192,1.116H9.42A1.563,1.563,0,0,1,7.859,56.8M1.928,60.941v-.354a.3.3,0,0,1,.3-.3h22.68a7.48,7.48,0,0,0-1.39,3.477H4.75a2.826,2.826,0,0,1-2.823-2.823M25.46,63.764a5.608,5.608,0,0,1,5.517-4.638h3.711A5.609,5.609,0,0,1,40.2,63.764Z" transform="translate(-0.001 -0.026)" fill="#12263f"/></g></g><g transform="translate(0 0)"><g clip-path="url(#a)"><path d="M140.072,74.208A10.749,10.749,0,1,0,129.363,63.46a10.741,10.741,0,0,0,10.709,10.749m0-19.574a8.825,8.825,0,1,1-8.786,8.825,8.815,8.815,0,0,1,8.786-8.825" transform="translate(-107.241 -43.697)" fill="#12263f"/><path d="M176.083,86.708h-1.972a.579.579,0,0,1-.575-.582.962.962,0,0,0-1.923,0,2.5,2.5,0,0,0,2.5,2.505h.024v.574a.962.962,0,0,0,1.924,0v-.574h.024a2.5,2.5,0,0,0,2.5-2.505V85.109a2.5,2.5,0,0,0-2.5-2.5h-1.972a.579.579,0,0,1-.575-.582V81.006a.579.579,0,0,1,.575-.581h1.972a.579.579,0,0,1,.575.581.962.962,0,0,0,1.924,0,2.5,2.5,0,0,0-2.5-2.505h-.024v-.574a.962.962,0,0,0-1.924,0V78.5h-.024a2.5,2.5,0,0,0-2.5,2.505v1.017a2.5,2.5,0,0,0,2.5,2.5h1.972a.579.579,0,0,1,.575.581v1.017a.579.579,0,0,1-.575.582" transform="translate(-142.266 -63.804)" fill="#12263f"/><path d="M337.7,67.809h-7.421a.962.962,0,1,0,0,1.923H337.7a.962.962,0,1,0,0-1.923" transform="translate(-272.998 -56.213)" fill="#12263f"/><path d="M341.426,90.957h-6.653a.962.962,0,0,0,0,1.924h6.653a.962.962,0,0,0,0-1.924" transform="translate(-276.728 -75.403)" fill="#12263f"/><path d="M.982,39.736H10.07a.962.962,0,0,0,0-1.924H.982a.962.962,0,0,0,0,1.924" transform="translate(-0.017 -31.346)" fill="#12263f"/><path d="M.982,62.885h7.55a.962.962,0,0,0,0-1.924H.982a.962.962,0,0,0,0,1.924" transform="translate(-0.017 -50.536)" fill="#12263f"/></g></g></g></g></svg>