<svg xmlns="http://www.w3.org/2000/svg" xmlns:xlink="http://www.w3.org/1999/xlink" width="503.667" height="639.657" viewBox="0 0 503.667 639.657"><defs><clipPath id="a"><rect width="503.667" height="639.657" fill="none"/></clipPath><clipPath id="c"><rect width="423.08" height="321.489" fill="none"/></clipPath></defs><g transform="translate(-287 -1412)"><g transform="translate(287 1412)"><g clip-path="url(#a)"><path d="M202.26,187.8,81.38,479.672H323.14Z" transform="translate(49.573 114.403)" fill="#642d79"/><rect width="241.762" height="45.583" transform="translate(130.953 594.074)" fill="#813b9d"/><g clip-path="url(#a)"><path d="M196.325,464.814a250.776,250.776,0,0,0,105.2-23.035L196.325,187.8,91.123,441.779a250.777,250.777,0,0,0,105.2,23.035" transform="translate(55.508 114.403)" fill="#4b225c"/><rect width="241.76" height="10.073" transform="translate(130.953 629.583)" fill="#642d79"/><path d="M251.833,31.3C112.749,31.3,0,144.049,0,283.133S112.749,534.967,251.833,534.967,503.667,422.216,503.667,283.133,390.918,31.3,251.833,31.3" transform="translate(0 19.067)" fill="#813b9d"/><path d="M190.479,31.3A251.116,251.116,0,0,0,100.72,47.831l82.111,95.8a10.077,10.077,0,0,0,15.3,0l82.111-95.8A251.116,251.116,0,0,0,190.479,31.3" transform="translate(61.354 19.067)" fill="#642d79"/><path d="M244.207,43.82C116.25,43.82,12.52,147.55,12.52,275.507S116.25,507.193,244.207,507.193s231.687-103.73,231.687-231.687S372.164,43.82,244.207,43.82" transform="translate(7.627 26.693)" fill="#fffff5"/><path d="M185.174,43.82a231.214,231.214,0,0,0-75.745,12.733L177.525,136a10.077,10.077,0,0,0,15.3,0l68.1-79.447A231.214,231.214,0,0,0,185.174,43.82" transform="translate(66.66 26.693)" fill="#d1d1d1"/><path d="M877.344,10261.4a211.919,211.919,0,0,1,76.811,105.787L753,10432.549ZM753,10221a211.755,211.755,0,0,1,124.345,40.4L753,10432.549Z" transform="translate(-501.167 -10130.34)" fill="#361d90" stroke="rgba(0,0,0,0)" stroke-miterlimit="10" stroke-width="1"/><path d="M753,10497.907v-211.55L954.155,10221a210.525,210.525,0,0,1,.032,130.728L753,10286.357l201.186,65.37a211.7,211.7,0,0,1-201.149,146.18Z" transform="translate(-501.167 -9984.149)" fill="#0a80d8" stroke="rgba(0,0,0,0)" stroke-miterlimit="10" stroke-width="1"/><path d="M954.186,10432.549,753,10367.18A211.717,211.717,0,0,1,954.186,10221Z" transform="translate(-702.353 -10130.34)" fill="#ffd947" stroke="rgba(0,0,0,0)" stroke-miterlimit="10" stroke-width="1"/><path d="M899.207,10487.558a211.262,211.262,0,0,1-58.976-30.04l124.344-171.148h0l-124.342,171.145A211.7,211.7,0,0,1,763.39,10221l201.182,65.367,0,0,0,0h0v211.55A211.274,211.274,0,0,1,899.207,10487.558Z" transform="translate(-712.742 -9984.161)" fill="#9d39e3" stroke="rgba(0,0,0,0)" stroke-miterlimit="10" stroke-width="1"/><path d="M35.407,147.182s-9.917,25.988-10.389,65.375l211.575-.006,0-7.077Z" transform="translate(15.24 89.657)" fill="#ffd947"/><path d="M156.5,205.992l0,10.26,211.54-.008s.764-44.566-13.75-75.136Z" transform="translate(95.333 85.957)" fill="#361d90"/><g transform="translate(40.293 90.66)" opacity="0.5" style="mix-blend-mode:multiply;isolation:isolate"><g clip-path="url(#c)"><path d="M271.838,275.435a35.257,35.257,0,1,1-35.257-35.257,35.256,35.256,0,0,1,35.257,35.257M448.12,267.88c0-116.83-94.71-211.54-211.54-211.54S25.04,151.05,25.04,267.88A210.531,210.531,0,0,0,55.831,377.829a205.514,205.514,0,0,1-25.755-99.876c0-96.45,66.127-177.44,155.514-200.144l43.341,50.565a10.077,10.077,0,0,0,15.3,0l43.341-50.566c89.387,22.7,155.514,103.7,155.514,200.146a205.519,205.519,0,0,1-25.753,99.874A210.539,210.539,0,0,0,448.12,267.88" transform="translate(-25.04 -56.34)" fill="#8c8c8c"/></g></g><path d="M167.94,169.02a30.22,30.22,0,1,0,30.22,30.22,30.22,30.22,0,0,0-30.22-30.22" transform="translate(83.893 102.96)" fill="#d1d1d1"/><path d="M162.22,178.41a15.11,15.11,0,1,0,15.11,15.11,15.11,15.11,0,0,0-15.11-15.11" transform="translate(89.613 108.68)" fill="#fffff5"/><path d="M233.915,50.367V20.147A20.148,20.148,0,0,0,213.768,0H163.4a20.148,20.148,0,0,0-20.147,20.147v30.22h-34.38a5.036,5.036,0,0,0-3.823,8.315l83.533,97.455,83.533-97.455a5.037,5.037,0,0,0-3.823-8.315Z" transform="translate(63.248)" fill="#813b9d"/><path d="M120.577,40.69l57.806,67.445,57.8-67.445Z" transform="translate(73.45 24.787)" fill="#f0e579"/><path d="M227.553,50.763l8.633-10.073H120.577l8.633,10.073Z" transform="translate(73.45 24.787)" fill="#f5ba33"/><path d="M139.77,12.52a30.22,30.22,0,0,0-30.22,30.22h30.22Z" transform="translate(66.733 7.627)" fill="#4b225c"/><path d="M184.67,12.52a30.22,30.22,0,0,1,30.22,30.22H184.67Z" transform="translate(112.493 7.627)" fill="#4b225c"/></g></g></g><path d="M11.32-4.333a4.673,4.673,0,0,1-.721,2.36A4.35,4.35,0,0,1,8.75-.387a6.3,6.3,0,0,1-2.72.563A5.025,5.025,0,0,1,2.057-1.468,6.786,6.786,0,0,1,.606-6.108v-.633a7.746,7.746,0,0,1,.655-3.292,4.961,4.961,0,0,1,1.885-2.18,5.26,5.26,0,0,1,2.848-.769,5.516,5.516,0,0,1,3.744,1.226,4.844,4.844,0,0,1,1.608,3.379H8.271a2.292,2.292,0,0,0-.589-1.679,2.422,2.422,0,0,0-1.687-.51A1.843,1.843,0,0,0,4.307-9.7a5.536,5.536,0,0,0-.562,2.751v.905A6.125,6.125,0,0,0,4.258-3.12a1.882,1.882,0,0,0,1.771.879,2.369,2.369,0,0,0,1.626-.5,2.126,2.126,0,0,0,.6-1.591ZM23.476,0H20.408V-5.344H15.864V0H12.779V-12.8h3.085v5.08h4.544V-12.8h3.067Zm9.378-2.391H28.626L27.888,0h-3.3l4.693-12.8h2.9L36.914,0H33.6ZM29.364-4.772h2.751l-1.38-4.438ZM48.533,0H45.466L40.931-7.963V0H37.846V-12.8h3.085l4.526,7.963V-12.8h3.076Zm12.3-4.333a4.673,4.673,0,0,1-.721,2.36,4.35,4.35,0,0,1-1.85,1.586,6.3,6.3,0,0,1-2.72.563,5.025,5.025,0,0,1-3.973-1.644,6.786,6.786,0,0,1-1.45-4.641v-.633a7.746,7.746,0,0,1,.655-3.292,4.961,4.961,0,0,1,1.885-2.18,5.26,5.26,0,0,1,2.848-.769,5.516,5.516,0,0,1,3.744,1.226,4.844,4.844,0,0,1,1.608,3.379H57.788a2.292,2.292,0,0,0-.589-1.679,2.422,2.422,0,0,0-1.687-.51,1.843,1.843,0,0,0-1.687.861,5.536,5.536,0,0,0-.562,2.751v.905a6.126,6.126,0,0,0,.514,2.927,1.882,1.882,0,0,0,1.771.879,2.369,2.369,0,0,0,1.626-.5,2.126,2.126,0,0,0,.6-1.591Zm9.4-1.1H65.382v3.059h5.73V0H62.3V-12.8H71.13v2.382H65.382v2.7h4.852Z" transform="translate(404 1636)" fill="#12263f"/><path d="M5.722-4.526H4.052V0H.967V-12.8H6a5.621,5.621,0,0,1,3.56,1.01,3.421,3.421,0,0,1,1.283,2.853,4.155,4.155,0,0,1-.541,2.213A3.837,3.837,0,0,1,8.613-5.3L11.285-.132V0H7.98ZM4.052-6.9H6a1.751,1.751,0,0,0,1.323-.463A1.788,1.788,0,0,0,7.77-8.653a1.809,1.809,0,0,0-.448-1.3A1.735,1.735,0,0,0,6-10.424H4.052ZM16,0H12.92V-12.8H16ZM26.2-5.1H21.226V0H18.141V-12.8H26.7v2.382H21.226v2.944H26.2Zm7.365,2.707H29.338L28.6,0H25.3L30-12.8h2.9L37.626,0H34.313ZM30.076-4.772h2.751l-1.38-4.438ZM45.158-3.4a1.268,1.268,0,0,0-.479-1.055A5.954,5.954,0,0,0,43-5.238a16.147,16.147,0,0,1-1.969-.782Q38.54-7.242,38.54-9.378a3.011,3.011,0,0,1,.62-1.876,4.008,4.008,0,0,1,1.753-1.266,6.823,6.823,0,0,1,2.549-.453,5.969,5.969,0,0,1,2.474.492,3.917,3.917,0,0,1,1.7,1.4A3.661,3.661,0,0,1,48.243-9H45.167a1.547,1.547,0,0,0-.479-1.213,1.867,1.867,0,0,0-1.3-.431,2.106,2.106,0,0,0-1.305.365,1.119,1.119,0,0,0-.479.927,1.127,1.127,0,0,0,.527.892,6.65,6.65,0,0,0,1.854.826,11.36,11.36,0,0,1,2.18.918,3.663,3.663,0,0,1,2.074,3.3A3.125,3.125,0,0,1,46.978-.782a5.629,5.629,0,0,1-3.472.958,6.888,6.888,0,0,1-2.817-.558,4.247,4.247,0,0,1-1.9-1.529,3.985,3.985,0,0,1-.637-2.237h3.094a1.963,1.963,0,0,0,.532,1.516,2.513,2.513,0,0,0,1.727.488,1.985,1.985,0,0,0,1.208-.33A1.088,1.088,0,0,0,45.158-3.4Z" transform="translate(414 1804)" fill="#fff"/><path d="M4.052-2.373h5.37V0H.967V-12.8H4.052ZM21-6.135A7.546,7.546,0,0,1,20.3-2.821,5.132,5.132,0,0,1,18.33-.6a5.494,5.494,0,0,1-2.914.778,5.572,5.572,0,0,1-2.9-.751,5.123,5.123,0,0,1-1.973-2.149A7.329,7.329,0,0,1,9.8-5.933v-.721a7.58,7.58,0,0,1,.69-3.318,5.119,5.119,0,0,1,1.978-2.219,5.533,5.533,0,0,1,2.931-.782,5.479,5.479,0,0,1,2.9.773A5.211,5.211,0,0,1,20.281-10,7.362,7.362,0,0,1,21-6.724Zm-3.138-.536a5.381,5.381,0,0,0-.637-2.9,2.044,2.044,0,0,0-1.824-.989q-2.32,0-2.452,3.48l-.009.94a5.535,5.535,0,0,0,.624,2.892,2.041,2.041,0,0,0,1.854,1.011,2.016,2.016,0,0,0,1.8-.993,5.383,5.383,0,0,0,.642-2.856Zm14.027-3.744H28.046V0H24.961V-10.415H21.19V-12.8h10.7Zm9.237,4.983H36.272v3.059H42V0H33.188V-12.8h8.833v2.382H36.272v2.7h4.852Zm6.891.905h-1.67V0H43.26V-12.8H48.3a5.621,5.621,0,0,1,3.56,1.01,3.421,3.421,0,0,1,1.283,2.853A4.155,4.155,0,0,1,52.6-6.721,3.837,3.837,0,0,1,50.906-5.3L53.578-.132V0h-3.3ZM46.345-6.9H48.3a1.751,1.751,0,0,0,1.323-.463,1.788,1.788,0,0,0,.444-1.291,1.809,1.809,0,0,0-.448-1.3,1.735,1.735,0,0,0-1.318-.471H46.345ZM58.289,0H55.213V-12.8h3.076ZM57.12-16.225h3.129l-2.443,2.76-2.417,0ZM67.7-2.391H63.475L62.736,0h-3.3l4.693-12.8h2.9L71.763,0H68.449ZM64.213-4.772h2.751l-1.38-4.438ZM79.295-3.4a1.268,1.268,0,0,0-.479-1.055,5.954,5.954,0,0,0-1.683-.782,16.147,16.147,0,0,1-1.969-.782q-2.487-1.222-2.487-3.357a3.011,3.011,0,0,1,.62-1.876A4.008,4.008,0,0,1,75.05-12.52a6.823,6.823,0,0,1,2.549-.453,5.969,5.969,0,0,1,2.474.492,3.917,3.917,0,0,1,1.7,1.4A3.661,3.661,0,0,1,82.38-9H79.3a1.547,1.547,0,0,0-.479-1.213,1.867,1.867,0,0,0-1.3-.431,2.106,2.106,0,0,0-1.305.365,1.119,1.119,0,0,0-.479.927,1.127,1.127,0,0,0,.527.892,6.65,6.65,0,0,0,1.854.826,11.36,11.36,0,0,1,2.18.918,3.663,3.663,0,0,1,2.074,3.3A3.125,3.125,0,0,1,81.114-.782a5.629,5.629,0,0,1-3.472.958,6.888,6.888,0,0,1-2.817-.558,4.247,4.247,0,0,1-1.9-1.529,3.985,3.985,0,0,1-.637-2.237h3.094a1.963,1.963,0,0,0,.532,1.516,2.513,2.513,0,0,0,1.727.488,1.985,1.985,0,0,0,1.208-.33A1.088,1.088,0,0,0,79.295-3.4Z" transform="translate(600 1636)" fill="#fff"/><path d="M-39.555-2.391h-4.228L-44.521,0h-3.3l4.693-12.8h2.9L-35.495,0h-3.313Zm-3.489-2.382h2.751l-1.38-4.438Zm11.566.431V0h-3.085V-12.8h5.106a5.948,5.948,0,0,1,2.6.541,4.074,4.074,0,0,1,1.749,1.538,4.2,4.2,0,0,1,.62,2.263,3.7,3.7,0,0,1-1.34,2.993,5.561,5.561,0,0,1-3.678,1.121Zm0-2.382h2.021a1.906,1.906,0,0,0,1.367-.448,1.665,1.665,0,0,0,.47-1.266A2.059,2.059,0,0,0-28.1-9.87a1.712,1.712,0,0,0-1.318-.545h-2.057ZM-12.81-12.8v8.376a4.814,4.814,0,0,1-.606,2.465,3.929,3.929,0,0,1-1.74,1.586,6.131,6.131,0,0,1-2.681.545A5.3,5.3,0,0,1-21.52-1.037a4.326,4.326,0,0,1-1.371-3.322V-12.8h3.1v8.5q.053,2.1,1.951,2.1a1.889,1.889,0,0,0,1.45-.527A2.465,2.465,0,0,0-15.9-4.438V-12.8Zm9.861,7.365H-7.8v3.059h5.73V0h-8.815V-12.8h8.833v2.382H-7.8v2.7h4.852ZM5.788-3.4a1.268,1.268,0,0,0-.479-1.055,5.954,5.954,0,0,0-1.683-.782,16.147,16.147,0,0,1-1.969-.782Q-.831-7.242-.831-9.378a3.011,3.011,0,0,1,.62-1.876A4.008,4.008,0,0,1,1.542-12.52a6.823,6.823,0,0,1,2.549-.453,5.969,5.969,0,0,1,2.474.492,3.917,3.917,0,0,1,1.7,1.4A3.661,3.661,0,0,1,8.873-9H5.8a1.547,1.547,0,0,0-.479-1.213,1.867,1.867,0,0,0-1.3-.431,2.106,2.106,0,0,0-1.305.365,1.119,1.119,0,0,0-.479.927,1.127,1.127,0,0,0,.527.892,6.65,6.65,0,0,0,1.854.826,11.36,11.36,0,0,1,2.18.918,3.663,3.663,0,0,1,2.074,3.3A3.125,3.125,0,0,1,7.607-.782,5.629,5.629,0,0,1,4.135.176,6.888,6.888,0,0,1,1.318-.382,4.247,4.247,0,0,1-.58-1.912a3.985,3.985,0,0,1-.637-2.237H1.876a1.963,1.963,0,0,0,.532,1.516,2.513,2.513,0,0,0,1.727.488,1.985,1.985,0,0,0,1.208-.33A1.088,1.088,0,0,0,5.788-3.4ZM20.5-10.415H16.66V0H13.575V-10.415H9.8V-12.8H20.5Zm7.515,8.024H23.788L23.049,0h-3.3l4.693-12.8h2.9L32.076,0H28.762ZM24.526-4.772h2.751L25.9-9.211ZM39.608-3.4a1.268,1.268,0,0,0-.479-1.055,5.954,5.954,0,0,0-1.683-.782,16.147,16.147,0,0,1-1.969-.782Q32.99-7.242,32.99-9.378a3.011,3.011,0,0,1,.62-1.876,4.008,4.008,0,0,1,1.753-1.266,6.823,6.823,0,0,1,2.549-.453,5.969,5.969,0,0,1,2.474.492,3.917,3.917,0,0,1,1.7,1.4A3.661,3.661,0,0,1,42.693-9H39.617a1.547,1.547,0,0,0-.479-1.213,1.867,1.867,0,0,0-1.3-.431,2.106,2.106,0,0,0-1.305.365,1.119,1.119,0,0,0-.479.927,1.127,1.127,0,0,0,.527.892,6.65,6.65,0,0,0,1.854.826,11.36,11.36,0,0,1,2.18.918,3.663,3.663,0,0,1,2.074,3.3A3.125,3.125,0,0,1,41.427-.782a5.629,5.629,0,0,1-3.472.958,6.888,6.888,0,0,1-2.817-.558,4.247,4.247,0,0,1-1.9-1.529A3.985,3.985,0,0,1,32.6-4.148H35.7a1.963,1.963,0,0,0,.532,1.516,2.513,2.513,0,0,0,1.727.488,1.985,1.985,0,0,0,1.208-.33A1.088,1.088,0,0,0,39.608-3.4ZM-53.38,25V12.2h4.122a6.064,6.064,0,0,1,3.05.769,5.406,5.406,0,0,1,2.114,2.171,6.554,6.554,0,0,1,.769,3.142v.589a6.592,6.592,0,0,1-.743,3.151A5.429,5.429,0,0,1-46.16,24.2a5.93,5.93,0,0,1-3.01.8ZM-50.3,14.585v8.042h1.072a2.4,2.4,0,0,0,2.039-.945,4.63,4.63,0,0,0,.712-2.808V18.32a4.592,4.592,0,0,0-.712-2.795,2.442,2.442,0,0,0-2.074-.94Zm16.488,4.983h-4.852v3.059h5.73V25h-8.815V12.2h8.833v2.382h-5.748v2.7h4.852Zm5.221,1.09V25h-3.085V12.2h5.106a5.948,5.948,0,0,1,2.6.541,4.074,4.074,0,0,1,1.749,1.538,4.2,4.2,0,0,1,.62,2.263,3.7,3.7,0,0,1-1.34,2.993,5.561,5.561,0,0,1-3.678,1.121Zm0-2.382h2.021a1.906,1.906,0,0,0,1.367-.448,1.665,1.665,0,0,0,.47-1.266,2.059,2.059,0,0,0-.483-1.433,1.712,1.712,0,0,0-1.318-.545h-2.057Zm19.468.589a7.546,7.546,0,0,1-.694,3.313A5.132,5.132,0,0,1-11.786,24.4a5.494,5.494,0,0,1-2.914.778,5.572,5.572,0,0,1-2.9-.751,5.123,5.123,0,0,1-1.973-2.149,7.329,7.329,0,0,1-.743-3.208v-.721a7.58,7.58,0,0,1,.69-3.318,5.119,5.119,0,0,1,1.978-2.219,5.533,5.533,0,0,1,2.931-.782,5.479,5.479,0,0,1,2.9.773A5.211,5.211,0,0,1-9.835,15a7.362,7.362,0,0,1,.716,3.274Zm-3.138-.536a5.381,5.381,0,0,0-.637-2.9,2.044,2.044,0,0,0-1.824-.989q-2.32,0-2.452,3.48l-.009.94a5.535,5.535,0,0,0,.624,2.892A2.041,2.041,0,0,0-14.7,22.768a2.016,2.016,0,0,0,1.8-.993,5.383,5.383,0,0,0,.642-2.856Zm9.483,2.145h-1.67V25H-7.528V12.2h5.036a5.621,5.621,0,0,1,3.56,1.01,3.421,3.421,0,0,1,1.283,2.853,4.155,4.155,0,0,1-.541,2.213A3.837,3.837,0,0,1,.119,19.7l2.672,5.167V25h-3.3ZM-4.443,18.1h1.951a1.751,1.751,0,0,0,1.323-.463,1.788,1.788,0,0,0,.444-1.291,1.809,1.809,0,0,0-.448-1.3,1.735,1.735,0,0,0-1.318-.471H-4.443Zm18.264-3.516H9.98V25H6.9V14.585H3.125V12.2h10.7ZM18.409,25H15.333V12.2h3.076Zm7.11-3.48L28.068,12.2h3.445L27.207,25H23.832L19.56,12.2h3.419Zm13.535,1.09H34.827L34.088,25h-3.3l4.693-12.8h2.9L43.115,25H39.8Zm-3.489-2.382h2.751l-1.38-4.438ZM50.647,21.6a1.268,1.268,0,0,0-.479-1.055,5.954,5.954,0,0,0-1.683-.782,16.147,16.147,0,0,1-1.969-.782q-2.487-1.222-2.487-3.357a3.011,3.011,0,0,1,.62-1.876A4.008,4.008,0,0,1,46.4,12.48a6.823,6.823,0,0,1,2.549-.453,5.969,5.969,0,0,1,2.474.492,3.917,3.917,0,0,1,1.7,1.4A3.661,3.661,0,0,1,53.732,16H50.656a1.547,1.547,0,0,0-.479-1.213,1.867,1.867,0,0,0-1.3-.431,2.106,2.106,0,0,0-1.305.365,1.074,1.074,0,0,0,.048,1.819,6.65,6.65,0,0,0,1.854.826,11.36,11.36,0,0,1,2.18.918,3.663,3.663,0,0,1,2.074,3.3,3.125,3.125,0,0,1-1.266,2.637,5.629,5.629,0,0,1-3.472.958,6.888,6.888,0,0,1-2.817-.558,4.247,4.247,0,0,1-1.9-1.529,3.985,3.985,0,0,1-.637-2.237h3.094a1.963,1.963,0,0,0,.532,1.516,2.513,2.513,0,0,0,1.727.488,1.985,1.985,0,0,0,1.208-.33A1.088,1.088,0,0,0,50.647,21.6Z" transform="translate(631 1796)" fill="#fff"/><path d="M21.248,23.142H13.789L17.714,32.7a1.306,1.306,0,0,1-.664,1.687L13.593,35.9a1.244,1.244,0,0,1-1.641-.683l-3.73-9.08L2.129,32.4A1.244,1.244,0,0,1,0,31.5V1.287a1.244,1.244,0,0,1,2.129-.9l20,20.569A1.289,1.289,0,0,1,21.248,23.142Z" transform="translate(472.5 1655.672)"/></g></svg>