<svg xmlns="http://www.w3.org/2000/svg" xmlns:xlink="http://www.w3.org/1999/xlink" width="63.889" height="75" viewBox="0 0 63.889 75"><defs><clipPath id="a"><rect width="63.889" height="75" fill="none"/></clipPath></defs><g transform="translate(0 0)" clip-path="url(#a)"><path d="M63.889,31.945a32,32,0,0,1-13.541,26.1,1.214,1.214,0,0,1-.715.229,1.273,1.273,0,0,1-1.015-.515,1.249,1.249,0,0,1,.3-1.73A29.463,29.463,0,0,0,32.031,2.474h-.086A29.463,29.463,0,0,0,14.971,56.025a1.234,1.234,0,0,1,.286,1.73,1.19,1.19,0,0,1-1,.515,1.214,1.214,0,0,1-.715-.229,31.94,31.94,0,1,1,50.348-26.1" transform="translate(0 0)"/><path d="M52.063,66.592a1.244,1.244,0,1,1,0,2.488H6.92a1.244,1.244,0,0,1,0-2.488h1.13V61.43a8.9,8.9,0,0,1,8.908-8.908h6.034v-3.06c-3.832-2.216-6.892-6.306-8.522-11.4h-.014c-2.717,0-4.847-2.7-4.847-6.149,0-3.031,1.644-5.491,3.875-6.034v-.029a1.246,1.246,0,0,1,1.23-1.072H16.6V21.32a7.564,7.564,0,0,1,7.564-7.55H34.832A7.564,7.564,0,0,1,42.4,21.32v3.46h1.888A1.232,1.232,0,0,1,45.5,25.853c0,.014,0,.014.014.029,2.231.543,3.875,3,3.875,6.034,0,3.446-2.131,6.149-4.847,6.149h-.029A19.957,19.957,0,0,1,36,49.461v3.06h6.034a9.063,9.063,0,0,1,3.46.7,8.952,8.952,0,0,1,5.448,8.208v5.162Zm-3.589,0V61.43a6.444,6.444,0,0,0-6.435-6.435h-6.32c-.043.086-.1.157-.143.229a2.329,2.329,0,0,1-.157.243,2.851,2.851,0,0,1-.386.458c-.057.057-.1.114-.157.172a4.483,4.483,0,0,1-.715.543,1.559,1.559,0,0,0-.157.086c-.229.129-.458.257-.715.372-.114.043-.214.086-.329.129-.214.071-.443.157-.686.214a3.834,3.834,0,0,1-.386.1,6.958,6.958,0,0,1-.786.157l-.372.043a11.317,11.317,0,0,1-1.23.086,11.585,11.585,0,0,1-1.244-.086L27.9,57.7a6.377,6.377,0,0,1-.786-.157,3.045,3.045,0,0,1-.386-.1c-.243-.057-.472-.143-.686-.214-.114-.043-.229-.086-.329-.129-.257-.114-.486-.243-.715-.372a1.561,1.561,0,0,1-.157-.086,3.921,3.921,0,0,1-.715-.543l-.172-.172a3.85,3.85,0,0,1-.386-.458,2.153,2.153,0,0,1-.143-.243c-.043-.071-.1-.143-.143-.229h-6.32a6.444,6.444,0,0,0-6.435,6.435v5.162H18.1V61.744a1.237,1.237,0,1,1,2.474,0v4.847H38.407V61.744a1.237,1.237,0,1,1,2.474,0v4.847ZM46.915,31.916a4.434,4.434,0,0,0-1.158-3.146c.014.343.029.672.029.987,0,.9-.057,1.773-.143,2.645-.014.186-.043.357-.057.543-.086.786-.214,1.544-.357,2.3-.014.057-.014.129-.029.186a3.859,3.859,0,0,0,1.716-3.518m-3.675-.4c.043-.586.071-1.173.071-1.759,0-.643-.057-1.3-.1-1.973-.014-.172-.029-.329-.043-.515H15.828c-.014.186-.029.343-.043.515-.057.672-.1,1.33-.1,1.973,0,.586.029,1.173.071,1.759.014.372.057.744.1,1.13.029.172.043.343.057.515.071.5.157,1.015.257,1.516a.053.053,0,0,0,.014.043c.1.543.229,1.072.372,1.6v.014c1.4,5.234,4.418,9.366,8.208,11.282h.029a10.253,10.253,0,0,0,1.158.515,8.313,8.313,0,0,0,1.115.343,1.211,1.211,0,0,1,.243.057c.315.071.643.129.958.172.2.029.4.029.6.043a9.239,9.239,0,0,0,1.258,0c.2-.014.4-.014.6-.043.315-.043.629-.1.958-.172a1.339,1.339,0,0,1,.229-.057,10.374,10.374,0,0,0,2.288-.858h.014c3.8-1.916,6.821-6.049,8.222-11.282V36.32c.143-.529.272-1.058.372-1.6,0-.014.014-.029.014-.043.1-.5.172-1.015.243-1.516.029-.172.043-.343.057-.515.043-.386.086-.758.114-1.13M39.908,24.78V21.32a5.077,5.077,0,0,0-5.076-5.076H24.165a5.09,5.09,0,0,0-5.091,5.076v3.46h2.431V22.922a1.237,1.237,0,0,1,2.474,0V24.78H35V22.922a1.237,1.237,0,0,1,2.474,0V24.78ZM33.517,53.765V50.591a3.106,3.106,0,0,0-.343.1c-.186.057-.386.129-.586.172-.415.114-.829.186-1.244.257l-.429.043a10.627,10.627,0,0,1-1.344.1h-.143a10.853,10.853,0,0,1-1.358-.1l-.415-.043c-.415-.071-.829-.143-1.244-.257-.2-.043-.4-.114-.586-.172a3.34,3.34,0,0,0-.357-.1v3.174c0,.558,1.53,1.573,4.032,1.573s4.018-1.015,4.018-1.573M13.8,35.433c-.014-.057-.014-.129-.029-.186-.157-.758-.272-1.516-.357-2.3-.029-.186-.043-.357-.057-.543-.086-.872-.143-1.745-.143-2.645,0-.315,0-.643.014-.987a4.491,4.491,0,0,0-1.144,3.146A3.859,3.859,0,0,0,13.8,35.433" transform="translate(2.446 5.92)"/><path d="M47.02,49.035V54.2H39.427V49.349a1.237,1.237,0,1,0-2.474,0V54.2H19.122V49.349a1.237,1.237,0,1,0-2.474,0V54.2H9.07V49.035A6.444,6.444,0,0,1,15.5,42.6h6.32c.043.086.1.157.143.229a2.153,2.153,0,0,0,.143.243,3.85,3.85,0,0,0,.386.458l.172.172a3.921,3.921,0,0,0,.715.543,1.561,1.561,0,0,0,.157.086c.229.129.458.257.715.372.1.043.214.086.329.129.214.071.443.157.686.214a3.045,3.045,0,0,0,.386.1,6.377,6.377,0,0,0,.786.157l.357.043a11.585,11.585,0,0,0,1.244.086,11.317,11.317,0,0,0,1.23-.086l.372-.043a6.958,6.958,0,0,0,.786-.157,3.834,3.834,0,0,0,.386-.1c.243-.057.472-.143.686-.214.114-.043.214-.086.329-.129.257-.114.486-.243.715-.372a1.559,1.559,0,0,1,.157-.086,4.483,4.483,0,0,0,.715-.543c.057-.057.1-.114.157-.172a2.851,2.851,0,0,0,.386-.458,2.329,2.329,0,0,0,.157-.243c.043-.071.1-.143.143-.229h6.32a6.444,6.444,0,0,1,6.435,6.435" transform="translate(3.899 18.315)" fill="#a6fff6"/><path d="M33.878,24.26a4.434,4.434,0,0,1,1.158,3.146,3.859,3.859,0,0,1-1.716,3.518c.014-.057.014-.129.029-.186.143-.758.272-1.516.357-2.3.014-.186.043-.357.057-.543.086-.872.143-1.745.143-2.645,0-.315-.014-.643-.029-.987" transform="translate(14.325 10.43)" fill="#ffe68a"/><path d="M40.306,25.7c0,.586-.029,1.173-.071,1.759-.029.372-.071.744-.114,1.13-.014.172-.029.343-.057.515-.071.5-.143,1.015-.243,1.516,0,.014-.014.029-.014.043-.1.543-.229,1.072-.372,1.6v.014c-1.4,5.234-4.418,9.366-8.222,11.282H31.2a10.374,10.374,0,0,1-2.288.858,1.339,1.339,0,0,0-.229.057c-.329.071-.643.129-.958.172-.2.029-.4.029-.6.043a9.239,9.239,0,0,1-1.258,0c-.2-.014-.4-.014-.6-.043-.315-.043-.643-.1-.958-.172a1.211,1.211,0,0,0-.243-.057,8.313,8.313,0,0,1-1.115-.343,10.253,10.253,0,0,1-1.158-.515H21.76c-3.789-1.916-6.806-6.049-8.208-11.282v-.014c-.143-.529-.272-1.058-.372-1.6a.053.053,0,0,1-.014-.043c-.1-.5-.186-1.015-.257-1.516-.014-.172-.029-.343-.057-.515-.043-.386-.086-.758-.1-1.13-.043-.586-.071-1.173-.071-1.759,0-.643.043-1.3.1-1.973.014-.172.029-.329.043-.515h27.34c.014.186.029.343.043.515.043.672.1,1.33.1,1.973" transform="translate(5.452 9.979)" fill="#fff0bf"/><path d="M35.884,20.576v3.46H33.453V22.178a1.237,1.237,0,0,0-2.474,0v1.859H19.955V22.178a1.237,1.237,0,0,0-2.474,0v1.859H15.05v-3.46A5.09,5.09,0,0,1,20.141,15.5H30.808a5.077,5.077,0,0,1,5.076,5.076" transform="translate(6.47 6.664)" fill="#ffe68a"/><path d="M24.318,3.7a6.585,6.585,0,1,1-6.578,6.578A6.588,6.588,0,0,1,24.318,3.7m4.1,6.578a4.1,4.1,0,1,0-4.1,4.1,4.113,4.113,0,0,0,4.1-4.1" transform="translate(7.627 1.591)"/><path d="M27.571,39.52v3.174c0,.558-1.516,1.573-4.018,1.573s-4.032-1.015-4.032-1.573V39.52a3.341,3.341,0,0,1,.357.1c.186.057.386.129.586.172.415.114.829.186,1.244.257l.415.043a10.853,10.853,0,0,0,1.358.1h.143a10.627,10.627,0,0,0,1.344-.1l.429-.043c.415-.071.829-.143,1.244-.257.2-.043.4-.114.586-.172a3.107,3.107,0,0,1,.343-.1" transform="translate(8.392 16.991)" fill="#ffe68a"/><path d="M23.574,5.43a4.1,4.1,0,1,1-4.1,4.1,4.113,4.113,0,0,1,4.1-4.1" transform="translate(8.371 2.335)" fill="#fff0bf"/><path d="M11.847,30.738c.014.057.014.129.029.186a3.859,3.859,0,0,1-1.716-3.518A4.491,4.491,0,0,1,11.3,24.26c-.014.343-.014.672-.014.987,0,.9.057,1.773.143,2.645.014.186.029.357.057.543.086.786.2,1.544.357,2.3" transform="translate(4.368 10.43)" fill="#ffe68a"/></g></svg>