<svg xmlns="http://www.w3.org/2000/svg" xmlns:xlink="http://www.w3.org/1999/xlink" width="76.499" height="76.499" viewBox="0 0 76.499 76.499"><defs><clipPath id="a"><path d="M1734.532,82.644a.792.792,0,0,0-.227-.556c-4.215-4.273-6.352-8.443-6.352-12.4,0-9.3,6.879-16.864,15.334-16.864s15.334,7.565,15.334,16.864v.567a.791.791,0,0,0,.141.451l4.2,6.052a.044.044,0,0,0,.006.009,4.946,4.946,0,0,1-.51.023h-3.045a.791.791,0,0,0-.791.791v9.45a1.212,1.212,0,0,1-.249.766.727.727,0,0,1-.584.191h0c-.9,0-8.166,0-8.166,0a.791.791,0,0,0-.791.791v5.951h-14.3Zm-8.161-12.954c0,4.311,2.213,8.776,6.58,13.276V95.522a.791.791,0,0,0,.791.791h15.878a.791.791,0,0,0,.791-.791V89.571h7.377a2.3,2.3,0,0,0,1.733-.684A2.76,2.76,0,0,0,1760.2,87V78.373h2.254c.522,0,1.908,0,2.273-.965a1.553,1.553,0,0,0-.519-1.621L1760.2,70.01v-.32c0-10.171-7.588-18.445-16.916-18.445s-16.915,8.274-16.915,18.445" transform="translate(-1726.371 -51.245)" fill="#361d90"/></clipPath><clipPath id="b"><path d="M1761.06,85.41a6.015,6.015,0,0,1,1.587-.786.794.794,0,0,0,.52-.54l.343-1.223c.143-.019.284-.034.422-.044s.275-.013.428-.014l.508,1.164a.79.79,0,0,0,.585.463,6.224,6.224,0,0,1,1.683.567.791.791,0,0,0,.743-.017l1.107-.624a7.7,7.7,0,0,1,.646.563l-.463,1.185a.79.79,0,0,0,.087.74,6.055,6.055,0,0,1,.791,1.591.79.79,0,0,0,.537.517l1.223.345c.019.143.034.284.044.425s.014.289.014.428l-1.163.5a.792.792,0,0,0-.466.591,5.809,5.809,0,0,1-.564,1.678.79.79,0,0,0,.014.751l.622,1.105a7.3,7.3,0,0,1-.561.645l-1.183-.465a.788.788,0,0,0-.744.088,5.931,5.931,0,0,1-1.584.787.789.789,0,0,0-.519.539l-.344,1.223c-.149.02-.29.034-.425.043s-.278.015-.423.017l-.5-1.164a.791.791,0,0,0-.589-.464,5.972,5.972,0,0,1-1.679-.561.786.786,0,0,0-.36-.087.8.8,0,0,0-.387.1l-1.109.622a7.728,7.728,0,0,1-.642-.561l.464-1.185a.791.791,0,0,0-.09-.744,5.744,5.744,0,0,1-.79-1.588.79.79,0,0,0-.544-.523l-1.22-.336q-.03-.222-.044-.42c-.009-.141-.013-.285-.014-.431l1.166-.51a.792.792,0,0,0,.462-.59,5.845,5.845,0,0,1,.563-1.675.79.79,0,0,0-.012-.747l-.62-1.116a7.935,7.935,0,0,1,.562-.644l1.184.464a.789.789,0,0,0,.739-.086m2.759-4.172a10,10,0,0,0-1.084.145.793.793,0,0,0-.614.564l-.368,1.316a7.5,7.5,0,0,0-1.234.613l-1.278-.5a.79.79,0,0,0-.822.153,9.412,9.412,0,0,0-1.434,1.648.79.79,0,0,0-.037.829l.667,1.2a7.384,7.384,0,0,0-.442,1.314l-1.252.548a.791.791,0,0,0-.473.683,9.8,9.8,0,0,0,0,1.1,9.907,9.907,0,0,0,.143,1.085.793.793,0,0,0,.568.62l1.313.361a7.387,7.387,0,0,0,.619,1.244l-.5,1.272a.792.792,0,0,0,.146.815,9.125,9.125,0,0,0,1.647,1.444.789.789,0,0,0,.836.039l1.2-.671a7.447,7.447,0,0,0,1.31.438l.542,1.252a.791.791,0,0,0,.688.475c.172.009.337.013.5.013.207,0,.406-.007.6-.021a8.979,8.979,0,0,0,1.088-.143.791.791,0,0,0,.616-.563l.369-1.314a7.487,7.487,0,0,0,1.237-.615l1.272.5a.789.789,0,0,0,.816-.146,8.93,8.93,0,0,0,1.445-1.66.791.791,0,0,0,.035-.831l-.669-1.188a7.39,7.39,0,0,0,.442-1.314l1.249-.541a.79.79,0,0,0,.476-.68,9.393,9.393,0,0,0,0-1.1s0-.009,0-.013a9.559,9.559,0,0,0-.145-1.087.791.791,0,0,0-.562-.612l-1.316-.371a7.583,7.583,0,0,0-.617-1.24l.5-1.277a.79.79,0,0,0-.149-.817,9.275,9.275,0,0,0-1.652-1.442.8.8,0,0,0-.836-.037l-1.2.674a7.843,7.843,0,0,0-1.3-.44l-.547-1.253a.791.791,0,0,0-.691-.474c-.186-.008-.358-.012-.52-.012-.2,0-.39.006-.576.018" transform="translate(-1755.434 -81.22)" fill="#361d90"/></clipPath><clipPath id="c"><path d="M1775.17,103.334a2.245,2.245,0,0,1,2.072-2.384c.051,0,.1,0,.151,0a2.231,2.231,0,0,1,.156,4.457c-.063.005-.126.008-.187.008a2.219,2.219,0,0,1-2.193-2.076m1.962-3.962a3.814,3.814,0,0,0,.261,7.619c.088,0,.178,0,.267-.009a3.818,3.818,0,0,0,3.541-4.064h0a3.828,3.828,0,0,0-3.787-3.555c-.093,0-.187,0-.281.011" transform="translate(-1773.582 -99.361)" fill="#361d90"/></clipPath><clipPath id="d"><path d="M1652.95,38.251A36.949,36.949,0,1,1,1689.9,75.2a36.992,36.992,0,0,1-36.949-36.949M1689.9,0a38.249,38.249,0,1,0,38.249,38.249A38.293,38.293,0,0,0,1689.9,0Z" transform="translate(-1651.65 -0.002)" fill="#361d90"/></clipPath></defs><g transform="translate(-967.574 -1344)"><g transform="translate(988.957 1358.665)"><g clip-path="url(#a)"><rect width="38.588" height="45.068" transform="translate(0 0)" fill="#361d90"/></g></g><g transform="translate(997.274 1367.243)"><g clip-path="url(#b)"><rect width="18.025" height="18.016" transform="translate(-0.006 0)" fill="#361d90"/></g></g><g transform="translate(1002.468 1372.435)"><g clip-path="url(#c)"><rect width="7.893" height="7.629" transform="translate(-0.131 0)" fill="#361d90"/></g></g><g transform="translate(967.574 1344)"><g clip-path="url(#d)"><rect width="76.499" height="76.499" transform="translate(0 0)" fill="#361d90"/></g></g></g></svg>