<svg xmlns="http://www.w3.org/2000/svg" xmlns:xlink="http://www.w3.org/1999/xlink" width="76.499" height="76.499" viewBox="0 0 76.499 76.499"><defs><clipPath id="a"><path d="M217.306,38.251A36.949,36.949,0,1,1,254.255,75.2a36.991,36.991,0,0,1-36.949-36.949M254.255,0A38.249,38.249,0,1,0,292.5,38.251,38.293,38.293,0,0,0,254.255,0Z" transform="translate(-216.006 -0.002)" fill="#361d90"/></clipPath><clipPath id="b"><path d="M301.033,67.957c1.783-2.169,3.091-2.884,4.037-2.884,1.833,0,2.308,2.684,2.248,2.684h0s-.005,23.819,0,26.539a2,2,0,0,1-2.128,2.186,6.72,6.72,0,0,1-4.429-2.368c-5.3-5.415-21.632-5.755-21.632-5.755a7.605,7.605,0,1,1,0-15.211s1.256.092,3.188.092c5.1,0,14.9-.638,18.717-5.282m4.037-4.387c-1.6,0-3.3,1.123-5.2,3.433-3.511,4.273-13.447,4.734-17.556,4.734-1.846,0-3.067-.087-3.08-.088-.036,0-.073,0-.109,0a9.108,9.108,0,0,0,0,18.217c4.342.092,16.566,1.227,20.558,5.3a8.129,8.129,0,0,0,5.5,2.819A3.589,3.589,0,0,0,307.8,96.97a3.679,3.679,0,0,0,1.023-2.677c-.005-2.687,0-26.3,0-26.536h-.01a5.156,5.156,0,0,0-.7-2.275,3.476,3.476,0,0,0-3.037-1.913Z" transform="translate(-270.02 -63.57)" fill="#361d90"/></clipPath><clipPath id="c"><path d="M328.98,95.163v15.028a.751.751,0,1,0,1.5,0V95.163a.751.751,0,1,0-1.5,0" transform="translate(-328.98 -94.411)" fill="#361d90"/></clipPath><clipPath id="d"><path d="M380.541,121.047v15a.751.751,0,1,0,1.5,0v-15a.751.751,0,1,0-1.5,0" transform="translate(-380.541 -120.295)" fill="#361d90"/></clipPath><clipPath id="e"><path d="M413.757,121.568a.752.752,0,1,0,0,1.5h5.464a.752.752,0,0,0,0-1.5Z" transform="translate(-413.005 -121.568)" fill="#361d90"/></clipPath><clipPath id="f"><path d="M417.129,82.788,413.3,85.672a.751.751,0,1,0,.9,1.2l3.825-2.883a.752.752,0,1,0-.9-1.2" transform="translate(-413.005 -82.637)" fill="#361d90"/></clipPath><clipPath id="g"><path d="M413.156,148.176a.751.751,0,0,0,.147,1.053l3.825,2.884a.751.751,0,0,0,.9-1.2l-3.825-2.884a.751.751,0,0,0-1.052.148" transform="translate(-413.005 -147.877)" fill="#361d90"/></clipPath><clipPath id="h"><path d="M300.734,165.927a1.5,1.5,0,0,0,1.233.643h4.979a1.5,1.5,0,0,0,1.4-2.046,26.81,26.81,0,0,1-1.9-8.618q-.766-.052-1.515-.111a28.078,28.078,0,0,0,2.017,9.272h-4.979a22.372,22.372,0,0,1-3.371-9.951q-.784-.108-1.537-.226a23.994,23.994,0,0,0,3.675,11.036" transform="translate(-297.059 -154.891)" fill="#361d90"/></clipPath></defs><g transform="translate(-556.726 -1344)"><g transform="translate(556.726 1344)"><g clip-path="url(#a)"><rect width="76.499" height="76.499" transform="translate(0 0)" fill="#361d90"/></g></g><g transform="translate(572.184 1362.192)"><g clip-path="url(#b)"><rect width="38.812" height="34.415" transform="translate(0 0)" fill="#361d90"/></g></g><g transform="translate(589.057 1371.018)"><g clip-path="url(#c)"><rect width="1.502" height="16.532" transform="translate(0 0)" fill="#361d90"/></g></g><g transform="translate(603.812 1378.426)"><g clip-path="url(#d)"><rect width="1.502" height="16.502" transform="translate(0 0)" fill="#361d90"/></g></g><g transform="translate(613.103 1378.79)"><g clip-path="url(#e)"><rect width="6.967" height="1.503" transform="translate(0 0)" fill="#361d90"/></g></g><g transform="translate(613.103 1367.648)"><g clip-path="url(#f)"><rect width="5.525" height="4.387" transform="translate(-0.098 0)" fill="#361d90"/></g></g><g transform="translate(613.103 1386.318)"><g clip-path="url(#g)"><rect width="5.525" height="4.387" transform="translate(-0.098 0)" fill="#361d90"/></g></g><g transform="translate(579.922 1388.326)"><g clip-path="url(#h)"><rect width="11.467" height="11.679" transform="translate(0 0)" fill="#361d90"/></g></g></g></svg>