<svg xmlns="http://www.w3.org/2000/svg" xmlns:xlink="http://www.w3.org/1999/xlink" width="76.499" height="76.498" viewBox="0 0 76.499 76.498"><defs><clipPath id="a"><path d="M1.3,652.031A36.949,36.949,0,1,1,38.249,688.98,36.991,36.991,0,0,1,1.3,652.031m-1.3,0a38.249,38.249,0,1,0,38.249-38.249A38.293,38.293,0,0,0,0,652.031" transform="translate(0 -613.782)" fill="#361d90"/></clipPath></defs><g transform="translate(-495 -1520)"><g transform="translate(495 1520)"><g clip-path="url(#a)"><rect width="76.499" height="76.498" fill="#361d90"/></g></g><g transform="translate(516 1539)"><path d="M8.365,0V19.6H9.54V1.175H30.5L34.523,5.4V35.72H19.5V36.9H35.7V4.93L31,0Z" transform="translate(-2.007)" fill="#361d90"/><path d="M37.665,5.84H39.88V7.015H36.49V3.954h1.175Z" transform="translate(-8.755 -0.948)" fill="#361d90"/><rect width="14.178" height="1.175" transform="translate(12.771 10.551)" fill="#361d90"/><rect width="14.178" height="1.175" transform="translate(12.771 13.958)" fill="#361d90"/><rect width="10.212" height="1.175" transform="translate(16.901 17.219)" fill="#361d90"/><path d="M1.662,30.607l2.123-2.122,8.8,8.8,3.264-3.264,1.656,1.655-5.387,5.387ZM0,30.607,12.122,42.729,19.17,35.68l-3.318-3.318-3.264,3.265-8.8-8.8Z" transform="translate(0 -6.435)" fill="#361d90"/></g></g></svg>