<svg xmlns="http://www.w3.org/2000/svg" xmlns:xlink="http://www.w3.org/1999/xlink" width="76.499" height="76.498" viewBox="0 0 76.499 76.498"><defs><clipPath id="a"><rect width="50.927" height="46.102" fill="none" stroke="#361d90" stroke-width="1"/></clipPath></defs><g transform="translate(6303 9944.249)"><path d="M1903.121,662.86a38.249,38.249,0,1,1,38.249-38.249,38.293,38.293,0,0,1-38.249,38.249m0-75.2a36.949,36.949,0,1,0,36.949,36.949,36.991,36.991,0,0,0-36.949-36.949" transform="translate(-8167.871 -10530.61)" fill="#361d90"/><g transform="translate(-6291 -9929.249)"><g transform="translate(0 0)" clip-path="url(#a)"><path d="M49,34.165a9.294,9.294,0,0,0-.394-1.892l1.529-1.321a10.7,10.7,0,0,0-.841-1.662l-1.969.441a9.313,9.313,0,0,0-1.287-1.441l.665-1.909a10.945,10.945,0,0,0-1.556-1.024l-1.484,1.372a8.879,8.879,0,0,0-1.834-.608l-.38-1.983c-.3-.042-.612-.08-.926-.1s-.622-.02-.929-.01l-.6,1.925a9.084,9.084,0,0,0-1.9.4L35.78,24.821a10.884,10.884,0,0,0-1.662.836l.442,1.973a9.074,9.074,0,0,0-1.441,1.287l-.4-.14a18.1,18.1,0,0,0,1.337-2.023L31.8,24.311a14.645,14.645,0,0,0,1-3.011l3.253-.62c.067-.5.122-1,.158-1.517s.027-1.03.016-1.536l-3.156-.984a15.2,15.2,0,0,0-.648-3.107l2.51-2.168a17.567,17.567,0,0,0-1.381-2.728l-3.232.724A15.275,15.275,0,0,0,28.206,7L29.3,3.864a17.9,17.9,0,0,0-2.554-1.681L24.307,4.436a14.565,14.565,0,0,0-3.009-1L20.675.183c-.5-.069-1.007-.131-1.521-.156s-1.02-.033-1.526-.018l-.989,3.16a14.96,14.96,0,0,0-3.111.649L11.365,1.3A17.884,17.884,0,0,0,8.638,2.676l.727,3.239A14.855,14.855,0,0,0,7,8.027L3.865,6.934A17.533,17.533,0,0,0,2.19,9.488l2.244,2.445a14.862,14.862,0,0,0-1,3.009l-3.253.613c-.068.5-.126,1.014-.156,1.525S0,18.107.008,18.61l3.16.989A15.511,15.511,0,0,0,3.816,22.7L1.3,24.873A17.685,17.685,0,0,0,2.681,27.6l3.233-.728a14.429,14.429,0,0,0,2.113,2.369l-1.1,3.137a18.476,18.476,0,0,0,2.555,1.679l2.442-2.249a15.072,15.072,0,0,0,3.012.991l.612,3.255c.51.074,1.014.132,1.529.163s1.022.028,1.53.017l.987-3.16a14.783,14.783,0,0,0,3.108-.649l2.165,2.515A18.363,18.363,0,0,0,27.6,33.562l-.728-3.238a14.971,14.971,0,0,0,2.367-2.109l1.627.564a10.4,10.4,0,0,0-.674,1.027l1.368,1.49a8.977,8.977,0,0,0-.608,1.832l-1.983.373c-.041.308-.076.618-.1.929s-.018.627-.011.933l1.925.6a9.4,9.4,0,0,0,.4,1.892l-1.534,1.321a10.847,10.847,0,0,0,.843,1.661l1.969-.444a8.759,8.759,0,0,0,1.287,1.443l-.67,1.911a11.239,11.239,0,0,0,1.557,1.022l1.488-1.37a9.152,9.152,0,0,0,1.834.6l.373,1.983c.311.045.618.08.931.1s.623.017.932.01l.6-1.925a8.967,8.967,0,0,0,1.892-.395L44,45.311a11.14,11.14,0,0,0,1.664-.84L45.225,42.5a9.171,9.171,0,0,0,1.441-1.285l1.909.663A11.3,11.3,0,0,0,49.6,40.324l-1.373-1.487A8.924,8.924,0,0,0,48.836,37l1.981-.378c.041-.307.075-.612.1-.925s.016-.627.01-.935ZM17.7,25.432a7.323,7.323,0,1,1,7.734-6.891A7.325,7.325,0,0,1,17.7,25.432M39.637,39.52a4.461,4.461,0,1,1,4.711-4.2,4.462,4.462,0,0,1-4.711,4.2" transform="translate(0 0)" fill="none" stroke="#361d90" stroke-width="1"/></g></g></g></svg>