<svg xmlns="http://www.w3.org/2000/svg" xmlns:xlink="http://www.w3.org/1999/xlink" width="364.441" height="366.333" viewBox="0 0 364.441 366.333"><defs><clipPath id="a"><path d="M49.729,72.93C-10.3,145.91-19.96,269.87,42.749,329.172c32.654,30.879,74.475,34.34,95.26,36.062q8.093.669,16.458.685h.811c72.948-.145,158.75-37.729,192.823-117.371,23-53.762,20.3-120.878-10.445-168.953a168,168,0,0,0-34.184-38.787c-5.211-4.3-48.063-38.784-109.114-39.4Q193.525,1.4,192.7,1.4c-82.437,0-135.291,62.2-142.97,71.531" transform="translate(0 -1.399)" fill="none"/></clipPath><linearGradient id="b" x1="0.172" y1="0.842" x2="0.174" y2="0.842" gradientUnits="objectBoundingBox"><stop offset="0" stop-color="#dae3fe"/><stop offset="1" stop-color="#e9effd"/></linearGradient><clipPath id="c"><rect width="29.641" height="183.01" fill="none"/></clipPath><clipPath id="d"><rect width="23.542" height="129.468" fill="none"/></clipPath><clipPath id="e"><rect width="266.882" height="252.118" fill="none"/></clipPath><clipPath id="f"><rect width="308.435" height="308.555" fill="none"/></clipPath><clipPath id="g"><rect width="87.041" height="307.703" fill="none"/></clipPath><clipPath id="h"><rect width="236.202" height="308.555" fill="none"/></clipPath><clipPath id="i"><rect width="283.801" height="1.468" fill="none"/></clipPath><clipPath id="j"><rect width="201.563" height="1.469" fill="none"/></clipPath><clipPath id="k"><rect width="308.435" height="1.469" fill="none"/></clipPath><clipPath id="l"><rect width="283.801" height="1.469" fill="none"/></clipPath><clipPath id="m"><rect width="202.395" height="1.087" fill="none"/></clipPath><clipPath id="n"><path d="M27.561,0h103.2A27.562,27.562,0,0,1,158.32,27.562V47.669a27.562,27.562,0,0,1-27.562,27.562H27.562A27.562,27.562,0,0,1,0,47.669V27.561A27.561,27.561,0,0,1,27.561,0Z" fill="none"/></clipPath><linearGradient id="o" x1="-0.126" y1="1.837" x2="-0.118" y2="1.837" gradientUnits="objectBoundingBox"><stop offset="0" stop-color="#ff928e"/><stop offset="1" stop-color="#fe7062"/></linearGradient><clipPath id="p"><rect width="364.441" height="366.333" fill="none"/></clipPath><clipPath id="q"><rect width="150.598" height="69.509" fill="none"/></clipPath><clipPath id="r"><path d="M48.282,119.772l24.34,16.471A29.4,29.4,0,0,0,62.167,93.87Z" transform="translate(-48.282 -93.87)" fill="none"/></clipPath><linearGradient id="s" x1="-1.038" y1="4.869" x2="-1.012" y2="4.869" xlink:href="#o"/><clipPath id="t"><path d="M43.708,91.781l5.927,28.786,13.885-25.9a29.257,29.257,0,0,0-13.885-3.483,29.574,29.574,0,0,0-5.927.6" transform="translate(-43.708 -91.182)" fill="none"/></clipPath><linearGradient id="u" x1="-1.415" y1="8.392" x2="-1.378" y2="8.392" gradientUnits="objectBoundingBox"><stop offset="0" stop-color="#4f52ff"/><stop offset="1" stop-color="#4042e2"/></linearGradient><clipPath id="w"><path d="M27.6,125.93a29.4,29.4,0,0,0,51.14,4.4L54.4,113.861Z" transform="translate(-27.598 -113.861)" fill="none"/></clipPath><linearGradient id="x" x1="-0.699" y1="7.446" x2="-0.674" y2="7.446" xlink:href="#b"/><clipPath id="z"><rect width="30.881" height="37.836" fill="none"/></clipPath><clipPath id="aa"><rect width="30.882" height="37.836" fill="none"/></clipPath><clipPath id="ab"><path d="M128.148,227.632s-2.968-7.813-6.434-7.1a23.7,23.7,0,0,0-7.26,3.378l-5.569,7.532s15.634,6.158,21.133,2.629a120.276,120.276,0,0,0,36.133-.549,78.96,78.96,0,0,1-5.682-17.123c-10.213,5.781-21.214,10.1-32.321,11.23" transform="translate(-108.885 -216.402)" fill="none"/></clipPath><linearGradient id="ac" x1="-2.464" y1="4.052" x2="-2.441" y2="4.052" gradientUnits="objectBoundingBox"><stop offset="0" stop-color="#a22b25"/><stop offset="1" stop-color="#c0423c"/></linearGradient><clipPath id="ad"><path d="M148.7,226.772a78.96,78.96,0,0,0,5.682,17.123c15.252-2.5,32.9-8.476,47.868-21.747l-1.285-40.814S178.1,210.13,148.7,226.772" transform="translate(-148.697 -181.333)" fill="none"/></clipPath><linearGradient id="ae" x1="-2.225" y1="1.718" x2="-2.209" y2="1.718" xlink:href="#o"/><clipPath id="af"><path d="M58.2,222.394a104.8,104.8,0,0,0,11.524,3.272c2.287-7.361,7.322-16.394,11.444-23.111-15.145-5.354-24.386-18.282-24.386-18.282Z" transform="translate(-56.786 -184.272)" fill="none"/></clipPath><linearGradient id="ag" x1="-1.339" y1="2.807" x2="-1.312" y2="2.807" xlink:href="#u"/><clipPath id="ah"><path d="M78.219,202.7c-4.122,6.717-9.157,15.75-11.444,23.111,55.482,12.231,68.546-38.772,68.546-38.772l-5.875-3.27C108.671,206.2,91.856,207.524,78.219,202.7" transform="translate(-66.775 -183.771)" fill="none"/></clipPath><linearGradient id="ai" x1="-0.912" y1="1.778" x2="-0.897" y2="1.778" gradientUnits="objectBoundingBox"><stop offset="0" stop-color="#febbba"/><stop offset="1" stop-color="#ff928e"/></linearGradient><clipPath id="aj"><path d="M136.349,180.771c-2.76,2.347-6.7.809-11.131,0a7.608,7.608,0,0,0-6.822,1.762l13.42,5.321,8.263-6.282s-.514-1.671-1.861-1.671a2.987,2.987,0,0,0-1.868.869" transform="translate(-118.396 -179.902)" fill="none"/></clipPath><linearGradient id="ak" x1="-7.42" y1="6.612" x2="-7.357" y2="6.612" xlink:href="#ai"/><clipPath id="al"><path d="M114.581,186.695c5.644,5.329,26.553,7.423,26.553,7.423l14.292-8.044c-1.478-3.045-10.066,1.91-10.066,1.91l3.34-4.153c-1.9-.951-5.594,1.739-8.486,2.863s-14.109-4.977-19.052-5.917a4.905,4.905,0,0,0-.91-.088c-4.236,0-5.671,6.006-5.671,6.006" transform="translate(-114.581 -180.689)" fill="none"/></clipPath><linearGradient id="am" x1="-3.469" y1="4.655" x2="-3.439" y2="4.655" xlink:href="#ai"/><clipPath id="an"><path d="M45.941,179.4C-5.735,210.875,1.354,312.079,1.354,312.079h47.3C44.994,294.1,60.382,261.97,75.49,243.985s20.906-37.175,2.9-55.646c-8.857-9.088-16.852-11.4-22.692-11.4a18.957,18.957,0,0,0-9.759,2.462" transform="translate(-1.025 -176.943)" fill="none"/></clipPath><linearGradient id="ao" x1="0.231" y1="0.926" x2="0.238" y2="0.926" xlink:href="#u"/><clipPath id="ap"><path d="M42.5,183.216s3.089,6.085,17.834,11.022l12.729-26.17-13.34-10.5c-.014,1.206-17.222,25.648-17.222,25.648" transform="translate(-42.501 -157.568)" fill="none"/></clipPath><linearGradient id="aq" x1="-1.065" y1="3.982" x2="-1.036" y2="3.982" xlink:href="#ai"/><clipPath id="ar"><path d="M50.569,227.037s32.649,27.343,67.9,15.412a8.392,8.392,0,0,1,6.62.5l10.134,5.353a9.048,9.048,0,0,0,11.992-3.357,19.044,19.044,0,0,0,2.849-7.623l-19.832-8.029,1.462-2.432s-9.683-.82-12.217,6.12c0,0-18.444,7.671-49.547-26.54,0,0-14.114,12-19.364,20.6" transform="translate(-50.569 -206.439)" fill="none"/></clipPath><linearGradient id="as" x1="-0.562" y1="1.267" x2="-0.55" y2="1.267" xlink:href="#ai"/><clipPath id="at"><path d="M33.6,202.52a.722.722,0,0,0-.384.947c.063.15,6.55,15.186,20.337,24.5a.717.717,0,0,0,.4.124.723.723,0,0,0,.4-1.322C40.941,217.7,34.612,203.049,34.548,202.9a.718.718,0,0,0-.946-.382" transform="translate(-33.162 -202.462)" fill="none"/></clipPath><linearGradient id="au" x1="-1.124" y1="3.38" x2="-1.085" y2="3.38" xlink:href="#u"/><clipPath id="av"><path d="M37.509,184.336a.722.722,0,0,0,.714,1.256c.062-.035,6.256-3.482,12.674-1.684,3.872,1.085,7.069,3.847,9.507,8.211,8,14.329,12.205,20.871,12.247,20.935a.722.722,0,1,0,1.214-.783c-.043-.063-4.224-6.576-12.2-20.857-2.634-4.716-6.13-7.711-10.391-8.9a16.048,16.048,0,0,0-4.321-.577,20.874,20.874,0,0,0-9.444,2.4" transform="translate(-37.145 -181.936)" fill="none"/></clipPath><linearGradient id="aw" x1="-0.953" y1="2.902" x2="-0.925" y2="2.902" xlink:href="#u"/><clipPath id="ax"><path d="M47.5,155.775c-1.371,4.641,4.734,15.972,4.734,15.972,3.895,7.354,11.086,11.607,19.622,10.119s6.945-6.276,6.535-13.659-6.535-21.449-6.535-21.449-22.988,4.377-24.356,9.017" transform="translate(-47.296 -146.758)" fill="none"/></clipPath><linearGradient id="ay" x1="-1.062" y1="3.664" x2="-1.036" y2="3.664" xlink:href="#ai"/><clipPath id="az"><path d="M76.238,135.214l-.355.675a.581.581,0,0,1-1.072-.11.576.576,0,0,0-1.043-.149c-1.027,1.643-3.8,4.306-11.208,5.673-10.531,1.945-17.493,6.205-17.667,13.483a.58.58,0,0,1-.9.478c-.777-.473-2.023-.7-3.685.7-2.892,2.432-1.709,8.739,4.632,13.93a.577.577,0,0,1-.027.929c-1.149.749-2.863,2.528,1.577,4.9,4.592,2.454,8.02,2.253,9.342,2.036a.578.578,0,0,0,.468-.7l-1.41-6.4a.58.58,0,0,1,.568-.7h2.195l.486-.215a1.173,1.173,0,0,0,.573-1.609c-1.2-2.327-3.552-7.655-.52-8.9,3.907-1.6,19.382-4.759,22.721-10.249,3.209-5.277.365-12.09-3.908-14.028a.617.617,0,0,0-.255-.056.577.577,0,0,0-.514.306" transform="translate(-38.817 -134.908)" fill="none"/></clipPath><linearGradient id="ba" x1="-0.639" y1="3.204" x2="-0.619" y2="3.204" gradientUnits="objectBoundingBox"><stop offset="0" stop-color="#09005d"/><stop offset="1" stop-color="#1a0f91"/></linearGradient><clipPath id="bb"><path d="M48.952,158.115c-4.03,2.52,2.09,10.069,5.329,10.4l1.034-3.938s-1.8-6.911-4.956-6.911a2.634,2.634,0,0,0-1.407.444" transform="translate(-47.624 -157.671)" fill="none"/></clipPath><linearGradient id="bc" x1="-3.824" y1="10.987" x2="-3.737" y2="10.987" xlink:href="#ai"/><clipPath id="bd"><path d="M111.227,230.947a10.247,10.247,0,0,0-3.141,5.159s8.3,8.115,9.9,6.933a28.968,28.968,0,0,0,3.4-3.647,3.56,3.56,0,0,0,.242-4.2l-1.957-3.019a5.69,5.69,0,0,0-4.782-2.6,5.543,5.543,0,0,0-3.66,1.37" transform="translate(-108.086 -229.577)" fill="none"/></clipPath><linearGradient id="be" x1="-9.737" y1="4.7" x2="-9.647" y2="4.7" xlink:href="#ac"/><clipPath id="bf"><path d="M189.73,182.36l-2.323,15A60.345,60.345,0,0,0,194.33,236.2c21.2,37.65,22.217,75.6,22.217,75.6h49.36c29.885-94.4-14.832-129.862-14.832-129.862a105.081,105.081,0,0,0-29.458-4.085,109.368,109.368,0,0,0-31.887,4.5" transform="translate(-186.681 -177.86)" fill="none"/></clipPath><linearGradient id="bg" x1="-1.25" y1="0.897" x2="-1.242" y2="0.897" xlink:href="#o"/><clipPath id="bh"><path d="M192.856,167.656,200.4,185.78a3.61,3.61,0,0,0,2.729,2.17c4.35.746,14.868,1.911,21.778-2.632a1.758,1.758,0,0,0,.47-2.47L211.439,162.84Z" transform="translate(-192.856 -162.84)" fill="none"/></clipPath><linearGradient id="bi" x1="-6.172" y1="4.429" x2="-6.14" y2="4.429" xlink:href="#ac"/><clipPath id="bk"><path d="M287.161,216.452,215.975,227.28a2.166,2.166,0,0,0-1.785,2.63l11.867,51.233a2.166,2.166,0,0,0,2.712,1.592l70.1-20.24a2.166,2.166,0,0,0,1.5-2.623l-10.78-41.819a2.167,2.167,0,0,0-2.424-1.6" transform="translate(-214.134 -216.427)" fill="none"/></clipPath><linearGradient id="bl" x1="-2.733" y1="1.126" x2="-2.719" y2="1.126" xlink:href="#u"/><clipPath id="bm"><path d="M224.562,205.741c14.306,17.831,21.107,34.173,24.213,47.007,4.12-1.2,14.04-3.1,20.862,3.725,5.441-41.1-26.231-72.7-26.231-72.7Z" transform="translate(-224.562 -183.771)" fill="none"/></clipPath><linearGradient id="bn" x1="-3.253" y1="1.539" x2="-3.238" y2="1.539" xlink:href="#o"/><clipPath id="bo"><path d="M224.37,200.461a.48.48,0,0,0-.074.676c12.152,15.148,20.269,30.9,24.121,46.82a.483.483,0,0,0,.468.368.429.429,0,0,0,.114-.014.482.482,0,0,0,.355-.582c-3.887-16.058-12.064-31.936-24.306-47.2a.483.483,0,0,0-.678-.073" transform="translate(-224.19 -200.355)" fill="none"/></clipPath><linearGradient id="bp" x1="-5.108" y1="2.255" x2="-5.084" y2="2.255" gradientUnits="objectBoundingBox"><stop offset="0" stop-color="#e1473d"/><stop offset="1" stop-color="#e9605a"/></linearGradient><clipPath id="bq"><path d="M247.638,237.277a75.444,75.444,0,0,1,2.144,25.078,3.308,3.308,0,0,1-3.058,2.966c-1.827.127-4.309.294-6.529.422-2.44.14-5.148-1.4-6.959-2.69a1.089,1.089,0,0,0-1.6,1.377c1.351,2.643,4.782,5,7.146,6.383a1.128,1.128,0,0,1-.26,2.06l-10.11,2.866c16.613,15.652,27.582-1.861,27.582-1.861A79.228,79.228,0,0,0,268.5,241a17.629,17.629,0,0,0-12.844-4.911,29.363,29.363,0,0,0-8.018,1.186" transform="translate(-228.407 -236.091)" fill="none"/></clipPath><linearGradient id="br" x1="-4.836" y1="1.217" x2="-4.815" y2="1.217" xlink:href="#ac"/><clipPath id="bs"><path d="M201.93,145.38c-.316.3-13.372,25.936-13.372,25.936l14.8,7.143L219.339,156s-9-11.6-14.877-11.6a3.563,3.563,0,0,0-2.532.985" transform="translate(-188.558 -144.395)" fill="none"/></clipPath><linearGradient id="bt" x1="-6.204" y1="5" x2="-6.17" y2="5" xlink:href="#ac"/><clipPath id="bu"><path d="M197.689,144.332c-1.423,4.829,5.715,8.241,10.2,8.809,3.3.419,5.108,4.019,5.835,5.9a2.362,2.362,0,0,1-.178,2.073l-7.379,12.3a2.3,2.3,0,0,1-.4.5c-.88.818-3.884,3.2-6.209-.041-1.98-2.76-3.839-5.268-5.829-6.3a2.359,2.359,0,0,0-3.185,1.048,88.181,88.181,0,0,0-5.051,11.98,2.35,2.35,0,0,0,1.368,2.882,65.521,65.521,0,0,0,14.172,4.135,2.361,2.361,0,0,0,2.231-.95c2.261-3.1,8.633-11.752,10.809-13.917,2.019-2.014,5.749-1.256,7.428-.772a2.368,2.368,0,0,0,1.887-.247c1.7-1.026,4.679-3.584,1.958-7.913a2.36,2.36,0,0,1,.729-3.208c1.9-1.253,3.969-3.6,2-7.409-1.993-3.853-5.551-4.2-7.972-3.9a2.451,2.451,0,0,1-2.571-1.43,1.562,1.562,0,0,0-1.219-.959,2.293,2.293,0,0,1-1.854-2.691,6.046,6.046,0,0,0-3.374-6.927,8.215,8.215,0,0,0-3.987-1.085c-4.617,0-8.3,4.335-9.412,8.123" transform="translate(-185.385 -136.209)" fill="none"/></clipPath><linearGradient id="bv" x1="-3.357" y1="2.904" x2="-3.338" y2="2.904" xlink:href="#ba"/><clipPath id="bw"><path d="M205.387,169.726s2.861,5.056,8.463-.006c4.5-4.07,1.643-7.691-1.991-8-.065-.005-.131-.008-.2-.008-3.54,0-6.276,8.01-6.276,8.01" transform="translate(-205.387 -161.716)" fill="none"/></clipPath><linearGradient id="bx" x1="-19.528" y1="11.621" x2="-19.432" y2="11.621" xlink:href="#ac"/><clipPath id="by"><path d="M91.738,149.386l1.092,33.978a11.057,11.057,0,0,0,11.008,10.675l81.367.479a7.977,7.977,0,0,0,7.953-6.788c1.272-8.581,2.893-23.934,1.068-38.345Z" transform="translate(-91.738 -149.386)" fill="none"/></clipPath><linearGradient id="bz" x1="-1.139" y1="3.826" x2="-1.127" y2="3.826" xlink:href="#u"/><clipPath id="cb"><path d="M111.915,127.516a2.018,2.018,0,0,0-1.528,1.176l-.245,2.62,14.074.4-.452-3.045c-1.646-1.23-4.255-1.581-6.7-1.581a33.952,33.952,0,0,0-5.148.431" transform="translate(-110.142 -127.085)" fill="none"/></clipPath><linearGradient id="cc" x1="-10.007" y1="38.825" x2="-9.916" y2="38.825" xlink:href="#u"/><clipPath id="cd"><path d="M113.967,120.883v8.206a1.583,1.583,0,0,0,1.208,1.535,3.653,3.653,0,0,0,1.754,0,1.591,1.591,0,0,0,1.214-1.543v-8.2Z" transform="translate(-113.967 -120.883)" fill="none"/></clipPath><linearGradient id="ce" x1="-30.222" y1="20.656" x2="-29.956" y2="20.656" xlink:href="#u"/><clipPath id="cf"><path d="M143.13,127.516a2.018,2.018,0,0,0-1.528,1.176l-.245,2.62,14.074.4-.454-3.045c-1.646-1.23-4.255-1.581-6.7-1.581a33.921,33.921,0,0,0-5.148.431" transform="translate(-141.358 -127.085)" fill="none"/></clipPath><linearGradient id="cg" x1="-12.845" y1="38.825" x2="-12.754" y2="38.825" xlink:href="#u"/><clipPath id="ch"><path d="M145.183,120.216v9.07a1.583,1.583,0,0,0,1.208,1.535,3.653,3.653,0,0,0,1.754,0,1.593,1.593,0,0,0,1.214-1.543v-9.065Z" transform="translate(-145.183 -120.216)" fill="none"/></clipPath><linearGradient id="ci" x1="-38.029" y1="19.118" x2="-37.766" y2="19.118" xlink:href="#u"/><clipPath id="cj"><path d="M114.77,116.61a4.108,4.108,0,0,0-2.48,2.849,9.941,9.941,0,0,0-.108,4.56,1.932,1.932,0,0,0,1.951,1.476l44.909-1.487a2.163,2.163,0,0,0,2.068-1.776,18.314,18.314,0,0,0,.14-5.692,5.178,5.178,0,0,0-5.021-4.383c-1.43-.035-3.239-.062-5.311-.062-10.069,0-26.4.661-36.149,4.517" transform="translate(-111.964 -112.093)" fill="none"/></clipPath><linearGradient id="ck" x1="-7.975" y1="4.692" x2="-7.91" y2="4.692" xlink:href="#u"/><clipPath id="cm"><rect width="14.821" height="8.821" fill="none"/></clipPath><clipPath id="cn"><path d="M95.159,129.615a3.835,3.835,0,0,0-3.729,3.165c-1.526,8.521-1.075,21.759-.788,27.4a3.466,3.466,0,0,0,2.795,3.219l44.344,8.815h14.783l41.615-7.874a3.249,3.249,0,0,0,2.661-3.1,122.537,122.537,0,0,0-2.989-27.4,3.711,3.711,0,0,0-3.19-2.875c-10.614-1.28-36.32-1.592-58.812-1.592-16.14,0-30.629.161-36.69.238" transform="translate(-90.349 -129.377)" fill="none"/></clipPath><linearGradient id="co" x1="-2.651" y1="2.095" x2="-2.627" y2="2.095" xlink:href="#u"/><clipPath id="cq"><path d="M126.9,152.461a3.343,3.343,0,0,0-3.327,3.732l1.5,12.463a3.346,3.346,0,0,0,3.327,2.94h12.95a3.345,3.345,0,0,0,3.339-3.042l1.112-12.461a3.344,3.344,0,0,0-3.339-3.632Z" transform="translate(-123.553 -152.461)" fill="none"/></clipPath><linearGradient id="cr" x1="-5.681" y1="5.978" x2="-5.634" y2="5.978" xlink:href="#ba"/><clipPath id="cs"><path d="M128.182,154.135a2.677,2.677,0,0,0-2.667,2.988l1.2,9.981a2.679,2.679,0,0,0,2.665,2.354h10.371a2.679,2.679,0,0,0,2.674-2.435l.89-9.981a2.677,2.677,0,0,0-2.674-2.908Z" transform="translate(-125.496 -154.135)" fill="none"/></clipPath><linearGradient id="ct" x1="-8.96" y1="10.874" x2="-8.889" y2="10.874" xlink:href="#u"/></defs><g transform="translate(-304.229 -4217.667)"><g transform="translate(304.229 4219.479)" clip-path="url(#a)"><rect width="534.605" height="533.173" transform="matrix(0.734, -0.68, 0.68, 0.734, -201.69, 168.368)" fill="url(#b)"/></g><path d="M44.133,1.724A1.572,1.572,0,0,1,46.879.538C57.1,12.144,81.049,46.27,69.074,100.776c-15.025,68.386-3.019,95.006,13.455,112.115,0,0-23.948-9.589-37.008-36.685C13.457,109.68,46.973,28.65,44.133,1.724" transform="translate(313.555 4217.667)" fill="#91b3fa"/><g transform="translate(359.144 4241.373)" style="mix-blend-mode:soft-light;isolation:isolate"><g transform="translate(0 0)"><g clip-path="url(#c)"><path d="M47.406,18.739c.67,7.836,1.184,15.682,1.411,23.535q.4,11.774.084,23.549c-.244,7.843-.636,15.681-1.36,23.49-.688,7.812-1.712,15.585-2.768,23.386-1.011,7.8-2.073,15.657-2.335,23.644a79.744,79.744,0,0,0,2.554,23.867c.536,1.936,1.109,3.869,1.792,5.749.648,1.893,1.379,3.759,2.143,5.61A82.716,82.716,0,0,0,69.468,200.9a1.52,1.52,0,0,0,2.1-2.194l0,0c-1.384-1.363-2.749-2.739-4.048-4.171-.662-.706-1.291-1.441-1.933-2.163-.613-.745-1.257-1.465-1.848-2.23a80.086,80.086,0,0,1-6.561-9.514,87.833,87.833,0,0,1-8.956-21.283A76.53,76.53,0,0,1,46.1,148.005a86.971,86.971,0,0,1-.442-11.572c.2-7.759,1.183-15.542,2.138-23.351s1.841-15.669,2.413-23.551q.443-5.91.675-11.831c.089-1.972.14-3.947.193-5.92q.052-2.962.067-5.923.027-11.844-.678-23.663c-.511-7.873-1.23-15.728-2.249-23.544a.408.408,0,0,0-.811.088" transform="translate(-42.383 -18.296)" fill="#fff"/></g></g></g><path d="M42.987,223.19a3.952,3.952,0,0,1-6.423,1.333c-11.091-10.8-39.686-44.179-34.893-97.409C5.718,82.162,3.641,57.4,1.92,46.23a2.477,2.477,0,0,1,4.2-2.133C24.829,62.687,80.94,128.868,42.987,223.19" transform="translate(304.564 4230.49)" fill="#bdd0fb"/><g transform="translate(320.734 4324.262)" style="mix-blend-mode:soft-light;isolation:isolate"><g transform="translate(0 0)"><g clip-path="url(#d)"><path d="M35.758,211.576a1.181,1.181,0,0,1-.19.093,1.1,1.1,0,0,1-1.41-.643c-.24-.643-23.994-64.957-21.19-127.712a1.1,1.1,0,1,1,2.19.1c-2.784,62.3,20.814,126.207,21.052,126.846a1.1,1.1,0,0,1-.452,1.316" transform="translate(-12.738 -82.269)" fill="#fff"/></g></g></g><path d="M358.735,178.669c-3.816,86.927-82.973,154.056-176.8,149.937S15.136,250.678,18.952,163.753,101.924,9.7,195.753,13.816s166.8,77.926,162.982,164.853" transform="translate(309.79 4221.699)" fill="#7d97f4"/><g transform="translate(355.989 4255.484)" opacity="0.2"><g transform="translate(-0.001 0)"><g clip-path="url(#e)"><path d="M306.829,155.245c0,69.62-59.743,126.06-133.441,126.06s-133.44-56.439-133.44-126.06S99.691,29.186,173.388,29.186,306.829,85.625,306.829,155.245" transform="translate(-39.948 -29.187)" fill="#fff"/></g></g></g><g transform="translate(343.962 4239.452)" opacity="0.68"><g transform="translate(0.001 0)"><g clip-path="url(#f)"><g transform="translate(111.074 0.851)" style="mix-blend-mode:soft-light;isolation:isolate"><g clip-path="url(#g)"><path d="M203.432,170.837c-.04,27.786-1.946,55.631-6.843,83.023-1.24,6.843-2.677,13.653-4.39,20.4a196.217,196.217,0,0,1-6.129,19.961,94.646,94.646,0,0,1-9.142,18.815,37.589,37.589,0,0,1-6.863,8,19.529,19.529,0,0,1-4.491,2.895,13.449,13.449,0,0,1-5.245,1.236,13.226,13.226,0,0,1-5.3-.976,18.406,18.406,0,0,1-4.6-2.735,35.676,35.676,0,0,1-7.01-7.879,91.488,91.488,0,0,1-9.276-18.749,192.3,192.3,0,0,1-6.195-19.941c-1.728-6.742-3.181-13.548-4.431-20.389-2.494-13.684-4.2-27.5-5.343-41.352s-1.712-27.756-1.782-41.658c-.034-6.95.156-13.9.4-20.844s.643-13.885,1.153-20.815c1.029-13.86,2.564-27.689,4.846-41.4,1.145-6.856,2.481-13.683,4.088-20.45a196.62,196.62,0,0,1,5.8-20.039c1.166-3.279,2.442-6.524,3.9-9.693a70.661,70.661,0,0,1,4.988-9.194,34.273,34.273,0,0,1,6.858-7.93,17.507,17.507,0,0,1,4.534-2.716,12.8,12.8,0,0,1,5.214-.926,13.8,13.8,0,0,1,5.152,1.208,20.081,20.081,0,0,1,4.477,2.794,38.212,38.212,0,0,1,7.006,7.792A93.831,93.831,0,0,1,184.422,47.8a190.136,190.136,0,0,1,6.585,19.8c1.855,6.7,3.425,13.483,4.784,20.3,5.378,27.3,7.562,55.145,7.642,82.936m-2.056,0q.039-20.769-1.652-41.492a399.375,399.375,0,0,0-5.412-41.159c-1.279-6.8-2.768-13.565-4.54-20.252a188.93,188.93,0,0,0-6.328-19.746,92.887,92.887,0,0,0-9.308-18.447,37.469,37.469,0,0,0-6.776-7.711,19.474,19.474,0,0,0-4.294-2.747,12.837,12.837,0,0,0-4.9-1.2,12.032,12.032,0,0,0-4.947.93,16.815,16.815,0,0,0-4.328,2.66,33.556,33.556,0,0,0-6.613,7.823,70.033,70.033,0,0,0-4.825,9.133c-1.406,3.152-2.637,6.384-3.759,9.652a195.386,195.386,0,0,0-5.551,19.982c-1.524,6.749-2.779,13.561-3.846,20.4-2.124,13.683-3.5,27.478-4.376,41.3s-1.187,27.675-1.162,41.522q-.054,20.767,1.455,41.5c1.038,13.806,2.626,27.576,5,41.211,1.191,6.815,2.582,13.6,4.25,20.309a190.577,190.577,0,0,0,5.993,19.833,90.305,90.305,0,0,0,8.992,18.547,34.525,34.525,0,0,0,6.708,7.667,17.281,17.281,0,0,0,4.291,2.6,11.855,11.855,0,0,0,4.852.923,12.329,12.329,0,0,0,4.8-1.175,18.387,18.387,0,0,0,4.2-2.76,36.456,36.456,0,0,0,6.572-7.8,93.366,93.366,0,0,0,8.857-18.617,194.4,194.4,0,0,0,5.923-19.855c1.649-6.716,3.024-13.5,4.2-20.318,2.362-13.639,3.931-27.409,4.974-41.215s1.544-27.655,1.539-41.5" transform="translate(-116.391 -17.471)" fill="#fff"/></g></g><g transform="translate(32.009)" style="mix-blend-mode:soft-light;isolation:isolate"><g clip-path="url(#h)"><path d="M291.574,171.032a202.56,202.56,0,0,1-7.187,53.052,170.758,170.758,0,0,1-22.2,48.648,139.976,139.976,0,0,1-16.953,20.76,118.908,118.908,0,0,1-20.867,16.8,100.6,100.6,0,0,1-24.35,11.133,91.056,91.056,0,0,1-52.945.025,100.638,100.638,0,0,1-24.368-11.116,119.078,119.078,0,0,1-20.9-16.787A140.188,140.188,0,0,1,84.826,272.79a171.043,171.043,0,0,1-22.254-48.666,192.564,192.564,0,0,1-5.388-26.3,210.465,210.465,0,0,1-1.814-26.788,210.424,210.424,0,0,1,1.83-26.786,192.628,192.628,0,0,1,5.407-26.3A170.979,170.979,0,0,1,84.891,69.316a140.262,140.262,0,0,1,16.988-20.732,118.632,118.632,0,0,1,20.891-16.757,101.044,101.044,0,0,1,24.349-11.073,90.425,90.425,0,0,1,52.863.021A100.958,100.958,0,0,1,224.31,31.867a118.519,118.519,0,0,1,20.862,16.77,140.054,140.054,0,0,1,16.954,20.736,170.769,170.769,0,0,1,22.226,48.616,202.588,202.588,0,0,1,7.221,53.042m-2.358,0a200.346,200.346,0,0,0-6.9-52.478,170.081,170.081,0,0,0-21.49-48.315,138.77,138.77,0,0,0-16.569-20.7,115.785,115.785,0,0,0-20.5-16.805,99.035,99.035,0,0,0-24.039-11.112,88.2,88.2,0,0,0-52.336.021,98.942,98.942,0,0,0-24.018,11.133A115.632,115.632,0,0,0,102.9,49.593,138.494,138.494,0,0,0,86.365,70.3a169.769,169.769,0,0,0-21.432,48.3,193.943,193.943,0,0,0-5.153,25.993,202.235,202.235,0,0,0,.016,52.886,193.888,193.888,0,0,0,5.172,25.985A169.693,169.693,0,0,0,86.43,271.723,138.35,138.35,0,0,0,102.968,292.4a115.253,115.253,0,0,0,20.462,16.788,99.328,99.328,0,0,0,24,11.09,87.559,87.559,0,0,0,52.253.025A99.417,99.417,0,0,0,223.7,309.233a115.406,115.406,0,0,0,20.49-16.775,138.489,138.489,0,0,0,16.572-20.677,169.991,169.991,0,0,0,21.52-48.282,200.275,200.275,0,0,0,6.932-52.468" transform="translate(-55.37 -16.814)" fill="#fff"/></g></g><g transform="translate(12.317 92.567)" style="mix-blend-mode:soft-light;isolation:isolate"><g clip-path="url(#i)"><path d="M40.326,88.835l35.442-.286,35.444-.162,70.886-.131,70.886.144,35.442.178,35.444.308a.1.1,0,0,1,.1.1.1.1,0,0,1-.1.1l-35.444.31-35.442.176-70.886.145-70.886-.131-35.444-.163-35.442-.286a.155.155,0,0,1,0-.31" transform="translate(-40.172 -88.256)" fill="#fff"/></g></g><g transform="translate(53.436 33.202)" style="mix-blend-mode:soft-light;isolation:isolate"><g clip-path="url(#j)"><path d="M72.06,43.018c8.388-.133,16.775-.189,25.164-.286l25.164-.162c8.387-.07,16.775-.062,25.164-.082l25.162-.049,50.327.144,25.164.179c8.388.1,16.775.165,25.164.307a.106.106,0,0,1,.1.106.107.107,0,0,1-.1.1c-8.388.143-16.775.2-25.164.31l-25.164.176-50.327.145-25.162-.049c-8.388-.021-16.777-.014-25.164-.084l-25.164-.162c-8.388-.1-16.775-.152-25.164-.285a.156.156,0,0,1,0-.311" transform="translate(-71.908 -42.439)" fill="#fff"/></g></g><g transform="translate(0 151.931)" style="mix-blend-mode:soft-light;isolation:isolate"><g clip-path="url(#k)"><path d="M30.82,134.651l38.522-.285,38.522-.163,77.045-.131,77.045.144,38.522.178L339,134.7a.106.106,0,0,1,.1.1.1.1,0,0,1-.1.1l-38.522.308-38.522.178-77.045.144-77.045-.131-38.522-.163-38.522-.285a.155.155,0,0,1,0-.31" transform="translate(-30.666 -134.072)" fill="#fff"/></g></g><g transform="translate(12.317 211.294)" style="mix-blend-mode:soft-light;isolation:isolate"><g clip-path="url(#l)"><path d="M40.326,180.468l35.442-.286,35.444-.162,70.886-.131,70.886.144,35.442.178,35.444.308a.1.1,0,0,1,.1.1.1.1,0,0,1-.1.1l-35.444.31-35.442.176-70.886.145-70.886-.131-35.444-.163-35.442-.286a.155.155,0,0,1,0-.31" transform="translate(-40.172 -179.888)" fill="#fff"/></g></g><g transform="translate(58.117 270.85)" style="mix-blend-mode:soft-light;isolation:isolate"><g clip-path="url(#m)"><path d="M277.371,226.939H76.063a.544.544,0,0,1,0-1.087H277.371a.544.544,0,0,1,0,1.087" transform="translate(-75.52 -225.853)" fill="#fff"/></g></g></g></g></g><path d="M117.715,77.91a.656.656,0,0,1-.371-1.2q.9-.62,1.789-1.245a.657.657,0,1,1,.759,1.072q-.894.634-1.807,1.258a.663.663,0,0,1-.371.114" transform="translate(338.842 4239.946)" fill="#fff"/><path d="M121.686,84.529a.656.656,0,0,1-.4-1.18c1.1-.833,2.191-1.69,3.242-2.546a.657.657,0,1,1,.831,1.018c-1.064.866-2.166,1.732-3.278,2.575a.653.653,0,0,1-.4.133m6.425-5.237a.657.657,0,0,1-.434-1.151c1.04-.913,2.063-1.849,3.04-2.779a.657.657,0,1,1,.906.951c-.989.942-2.025,1.889-3.079,2.816a.656.656,0,0,1-.433.163m6-5.719a.657.657,0,0,1-.473-1.113c.958-1,1.9-2.014,2.787-3.027a.656.656,0,1,1,.986.867c-.9,1.029-1.855,2.063-2.827,3.071a.653.653,0,0,1-.473.2m5.468-6.228a.656.656,0,0,1-.513-1.065c.856-1.075,1.691-2.179,2.479-3.281a.657.657,0,1,1,1.068.764c-.8,1.119-1.648,2.242-2.519,3.334a.655.655,0,0,1-.514.247M144.4,60.6a.656.656,0,0,1-.553-1.009c.736-1.156,1.446-2.343,2.111-3.527a.657.657,0,0,1,1.147.643c-.678,1.206-1.4,2.414-2.15,3.59a.657.657,0,0,1-.555.3m4.053-7.231a.649.649,0,0,1-.288-.066.658.658,0,0,1-.3-.878c.6-1.228,1.165-2.488,1.686-3.743a.657.657,0,0,1,1.214.5c-.531,1.28-1.109,2.563-1.718,3.816a.659.659,0,0,1-.591.369m3.174-7.654a.657.657,0,0,1-.621-.872c.444-1.284.856-2.6,1.224-3.917a.657.657,0,1,1,1.265.354c-.376,1.341-.8,2.685-1.248,3.993a.657.657,0,0,1-.621.442" transform="translate(340.017 4229.626)" fill="#fff"/><path d="M146.518,39.141a.644.644,0,0,1-.14-.016.656.656,0,0,1-.5-.78c.152-.706.294-1.421.424-2.126a.657.657,0,1,1,1.292.236c-.131.719-.276,1.449-.431,2.168a.658.658,0,0,1-.641.518" transform="translate(347.359 4228.217)" fill="#fff"/><path d="M151.139,40.674a.659.659,0,0,1-.461-.189q-.779-.768-1.556-1.557a.656.656,0,0,1,.937-.92q.768.781,1.542,1.542a.657.657,0,0,1-.461,1.125" transform="translate(348.268 4228.847)" fill="#fff"/><path d="M200.707,65.662a.508.508,0,0,1-.064,0c-1.384-.131-2.781-.307-4.151-.522a.656.656,0,0,1,.2-1.3c1.345.21,2.716.382,4.072.512a.657.657,0,0,1-.061,1.311m-8.186-1.283a.664.664,0,0,1-.141-.016c-1.35-.3-2.717-.637-4.058-1.017a.657.657,0,0,1,.358-1.265c1.316.373,2.656.709,3.982,1a.657.657,0,0,1-.14,1.3m-7.976-2.251a.658.658,0,0,1-.215-.036c-1.3-.451-2.617-.95-3.913-1.481a.657.657,0,1,1,.5-1.215c1.271.522,2.564,1.012,3.843,1.455a.657.657,0,0,1-.215,1.278m-7.672-3.147a.651.651,0,0,1-.282-.065c-1.241-.591-2.5-1.226-3.725-1.89a.657.657,0,1,1,.625-1.156c1.21.653,2.444,1.279,3.666,1.861a.657.657,0,0,1-.282,1.25m-7.293-3.934a.659.659,0,0,1-.339-.095c-1.175-.71-2.359-1.464-3.523-2.242a.657.657,0,0,1,.731-1.092c1.147.766,2.314,1.509,3.471,2.209a.657.657,0,0,1-.339,1.219m-6.893-4.6a.654.654,0,0,1-.387-.127c-1.107-.811-2.222-1.662-3.316-2.533a.657.657,0,0,1,.819-1.027c1.079.859,2.181,1.7,3.273,2.5a.657.657,0,0,1-.389,1.187M156.2,45.285a.655.655,0,0,1-.428-.158c-1.035-.889-2.082-1.822-3.114-2.773a.657.657,0,0,1,.89-.965c1.021.941,2.056,1.862,3.08,2.742a.657.657,0,0,1-.429,1.154" transform="translate(349.306 4229.854)" fill="#fff"/><path d="M195.227,60.632h0c-.732,0-1.476-.016-2.209-.043a.657.657,0,0,1-.634-.679.649.649,0,0,1,.68-.634c.719.025,1.449.039,2.168.041a.657.657,0,0,1,0,1.314" transform="translate(361.115 4235.194)" fill="#fff"/><path d="M194.916,60.982a.661.661,0,0,1-.6-.377q-.466-.989-.926-1.994a.657.657,0,0,1,1.195-.547q.457,1,.92,1.981a.658.658,0,0,1-.592.937" transform="translate(361.396 4234.722)" fill="#fff"/><path d="M253.139,122.841a.682.682,0,0,1-.25-.049c-1.367-.562-2.738-1.169-4.075-1.8a.657.657,0,1,1,.564-1.187c1.315.623,2.665,1.221,4.012,1.774a.657.657,0,0,1-.25,1.265m-7.989-3.783a.66.66,0,0,1-.311-.079c-1.294-.7-2.6-1.441-3.868-2.212a.657.657,0,1,1,.682-1.123c1.253.759,2.534,1.493,3.809,2.179a.657.657,0,0,1-.312,1.235m-7.563-4.582a.652.652,0,0,1-.367-.113c-1.218-.823-2.438-1.691-3.628-2.581a.657.657,0,1,1,.788-1.051c1.171.876,2.375,1.732,3.576,2.545a.656.656,0,0,1-.369,1.2m-7.08-5.293a.648.648,0,0,1-.416-.149c-1.132-.932-2.267-1.909-3.373-2.9a.656.656,0,1,1,.878-.976c1.091.982,2.212,1.946,3.329,2.865a.656.656,0,0,1-.419,1.164m-6.572-5.91a.654.654,0,0,1-.46-.188c-1.043-1.022-2.091-2.09-3.114-3.174a.657.657,0,1,1,.956-.9c1.011,1.073,2.046,2.128,3.077,3.138a.656.656,0,0,1-.46,1.126m-6.066-6.431a.653.653,0,0,1-.495-.225c-.963-1.1-1.925-2.245-2.862-3.4a.656.656,0,1,1,1.018-.828c.928,1.143,1.881,2.274,2.834,3.365a.657.657,0,0,1-.495,1.088m-5.577-6.861a.658.658,0,0,1-.523-.26c-.882-1.166-1.766-2.371-2.625-3.584a.657.657,0,1,1,1.072-.759c.851,1.2,1.727,2.4,2.6,3.55a.657.657,0,0,1-.523,1.053m-5.113-7.213a.658.658,0,0,1-.548-.294c-.806-1.213-1.614-2.468-2.4-3.733a.657.657,0,0,1,1.116-.7c.781,1.254,1.585,2.5,2.383,3.7a.657.657,0,0,1-.546,1.021m-4.687-7.5a.656.656,0,0,1-.566-.325c-.739-1.256-1.48-2.551-2.2-3.853a.657.657,0,1,1,1.148-.637c.717,1.292,1.452,2.578,2.186,3.826a.658.658,0,0,1-.566.99M198.2,67.54a.654.654,0,0,1-.582-.352c-.682-1.3-1.359-2.626-2.017-3.951a.657.657,0,1,1,1.178-.584c.653,1.315,1.327,2.635,2,3.925a.658.658,0,0,1-.582.963" transform="translate(362.047 4236.085)" fill="#fff"/><path d="M245.42,111.24a.652.652,0,0,1-.2-.032q-1.05-.338-2.09-.7a.656.656,0,1,1,.435-1.239q1.024.36,2.059.692a.657.657,0,0,1-.2,1.283" transform="translate(375.991 4249.964)" fill="#fff"/><path d="M146.8,10.4a12.231,12.231,0,0,0-12.231,12.231c0,4.377,5.136,14.561,8.752,21.187a3.962,3.962,0,0,0,6.958,0c3.616-6.626,8.752-16.81,8.752-21.187A12.231,12.231,0,0,0,146.8,10.4m0,18.8a6.567,6.567,0,1,1,6.567-6.567,6.567,6.567,0,0,1-6.567,6.567" transform="translate(344.021 4220.74)" fill="#fff"/><path d="M199.694,28.146a15.4,15.4,0,0,0-15.4,15.4c0,5.512,6.467,18.334,11.02,26.678a4.99,4.99,0,0,0,8.761,0c4.553-8.344,11.02-21.166,11.02-26.678a15.4,15.4,0,0,0-15.4-15.4m0,23.67a8.269,8.269,0,1,1,8.269-8.269,8.269,8.269,0,0,1-8.269,8.269" transform="translate(358.723 4225.989)" fill="#fff"/><path d="M120.77,50.971a12.684,12.684,0,0,0-12.684,12.685c0,4.54,5.327,15.1,9.075,21.971a4.11,4.11,0,0,0,7.217,0c3.748-6.871,9.076-17.431,9.076-21.971A12.685,12.685,0,0,0,120.77,50.971m0,19.5a6.81,6.81,0,1,1,6.81-6.81,6.81,6.81,0,0,1-6.81,6.81" transform="translate(336.189 4232.738)" fill="#fff"/><path d="M251.747,90.159a12.684,12.684,0,0,0-12.684,12.685c0,4.54,5.327,15.1,9.075,21.971a4.11,4.11,0,0,0,7.217,0c3.748-6.871,9.076-17.431,9.076-21.971a12.685,12.685,0,0,0-12.685-12.685m0,19.5a6.81,6.81,0,1,1,6.81-6.81,6.81,6.81,0,0,1-6.81,6.81" transform="translate(374.919 4244.326)" fill="#fff"/><rect width="364.441" height="366.333" transform="translate(304.229 4217.667)" fill="none"/><g transform="translate(330.122 4329.684)"><g transform="translate(0 0)" clip-path="url(#n)"><rect width="167.848" height="162.038" transform="matrix(0.741, -0.671, 0.671, 0.741, -37.431, 33.9)" fill="url(#o)"/></g></g><g transform="translate(304.229 4217.667)" clip-path="url(#p)"><g transform="translate(29.465 114.493)" opacity="0.5"><g clip-path="url(#q)"><path d="M138.584,157.873H57.494a34.754,34.754,0,0,1,0-69.509h81.09a34.754,34.754,0,1,1,0,69.509" transform="translate(-22.741 -88.364)" fill="#fff"/></g></g></g><g transform="translate(366.787 4339.293)"><g transform="translate(0 0)" clip-path="url(#r)"><rect width="50.225" height="51.133" transform="translate(-21.083 19.094) rotate(-42.166)" fill="url(#s)"/></g></g><g transform="translate(360.86 4335.811)"><g transform="translate(0 0)" clip-path="url(#t)"><rect width="34.739" height="29.576" transform="matrix(0.384, -0.923, 0.923, 0.384, -10.418, 25.053)" fill="url(#u)"/></g></g><g transform="translate(304.229 4217.667)" clip-path="url(#p)"><path d="M47.507,91.644a29.361,29.361,0,0,0-16.646,9.976L53.433,120.43Z" transform="translate(9.125 27.099)" fill="#7d97f4"/></g><g transform="translate(339.987 4365.195)"><g transform="translate(0 0)" clip-path="url(#w)"><rect width="51.14" height="29.385" transform="translate(0 0)" fill="url(#x)"/></g></g><g transform="translate(304.229 4217.667)" clip-path="url(#p)"><path d="M31.9,99.343a29.36,29.36,0,0,0-4.56,7.514c10.4,4.074,27.133,11.3,27.133,11.3Z" transform="translate(8.085 29.375)" fill="#91b3fa"/><path d="M27.855,105.143a29.466,29.466,0,0,0,.333,23.367l26.8-12.069s-16.73-7.224-27.133-11.3" transform="translate(7.571 31.09)" fill="#bdd0fb"/><g transform="translate(99.273 129.006)" opacity="0.78"><g clip-path="url(#z)"><path d="M105.467,99.565H78.649a1.62,1.62,0,1,0,0,3.134h26.818a1.62,1.62,0,1,0,0-3.134" transform="translate(-76.618 -99.565)" fill="#fff"/><path d="M105.467,104.921H78.649a1.62,1.62,0,1,0,0,3.134h26.818a1.62,1.62,0,1,0,0-3.134" transform="translate(-76.618 -97.981)" fill="#fff"/><path d="M105.467,126.346H78.649a1.62,1.62,0,1,0,0,3.134h26.818a1.62,1.62,0,1,0,0-3.134" transform="translate(-76.618 -91.646)" fill="#fff"/><path d="M105.467,120.99H78.649a1.62,1.62,0,1,0,0,3.134h26.818a1.62,1.62,0,1,0,0-3.134" transform="translate(-76.618 -93.23)" fill="#fff"/><path d="M105.467,115.634H78.649a1.62,1.62,0,1,0,0,3.134h26.818a1.62,1.62,0,1,0,0-3.134" transform="translate(-76.618 -94.813)" fill="#fff"/></g></g><g transform="translate(143.163 129.152)" opacity="0.78"><g clip-path="url(#aa)"><path d="M139.341,99.678H112.523a1.62,1.62,0,1,0,0,3.134h26.818a1.62,1.62,0,1,0,0-3.134" transform="translate(-110.491 -99.678)" fill="#fff"/><path d="M139.341,105.035H112.523a1.62,1.62,0,1,0,0,3.134h26.818a1.62,1.62,0,1,0,0-3.134" transform="translate(-110.491 -98.094)" fill="#fff"/><path d="M139.341,126.46H112.523a1.62,1.62,0,1,0,0,3.134h26.818a1.62,1.62,0,1,0,0-3.134" transform="translate(-110.491 -91.759)" fill="#fff"/><path d="M139.341,121.1H112.523a1.62,1.62,0,1,0,0,3.134h26.818a1.62,1.62,0,1,0,0-3.134" transform="translate(-110.491 -93.342)" fill="#fff"/><path d="M139.341,115.747H112.523a1.62,1.62,0,1,0,0,3.134h26.818a1.62,1.62,0,1,0,0-3.134" transform="translate(-110.491 -94.926)" fill="#fff"/></g></g></g><g transform="translate(445.311 4498.057)"><g transform="translate(0 0)" clip-path="url(#ab)"><rect width="57.266" height="21.201" fill="url(#ac)"/></g></g><g transform="translate(496.895 4452.619)"><g transform="translate(0 0)" clip-path="url(#ad)"><rect width="80.52" height="82.22" transform="translate(-30.168 23.013) rotate(-37.337)" fill="url(#ae)"/></g></g><g transform="translate(377.806 4456.427)"><g transform="translate(0.001 0)" clip-path="url(#af)"><rect width="46.633" height="46.39" transform="matrix(0.7, -0.714, 0.714, 0.7, -20.693, 21.115)" fill="url(#ag)"/></g></g><g transform="translate(390.748 4455.778)"><g transform="translate(0 0)" clip-path="url(#ah)"><rect width="85.545" height="79.123" transform="translate(-21.643 10.766) rotate(-26.448)" fill="url(#ai)"/></g></g><g transform="translate(457.634 4450.765)"><g transform="translate(0 0)" clip-path="url(#aj)"><rect width="20.739" height="21.161" transform="translate(-3.973 4.149) rotate(-46.245)" fill="url(#ak)"/></g></g><g transform="translate(452.69 4451.785)"><g transform="translate(0 0)" clip-path="url(#al)"><rect width="42.55" height="30.214" transform="matrix(0.895, -0.445, 0.445, 0.895, -5.355, 2.664)" fill="url(#am)"/></g></g><g transform="translate(305.558 4446.931)"><g transform="translate(-0.001 0)" clip-path="url(#an)"><rect width="169.388" height="163.028" transform="matrix(0.604, -0.797, 0.797, 0.604, -71.819, 85.81)" fill="url(#ao)"/></g></g><g transform="translate(359.297 4421.827)"><g transform="translate(0 0)" clip-path="url(#ap)"><rect width="44.944" height="41.309" transform="translate(-11.841 32.335) rotate(-69.887)" fill="url(#aq)"/></g></g><g transform="translate(369.751 4485.148)"><g transform="translate(0 0)" clip-path="url(#ar)"><rect width="108.561" height="97.566" transform="matrix(0.806, -0.592, 0.592, 0.806, -22.88, 16.824)" fill="url(#as)"/></g></g><g transform="translate(347.196 4479.996)"><g transform="translate(0 0)" clip-path="url(#at)"><rect width="33.075" height="31.659" transform="matrix(0.503, -0.865, 0.865, 0.503, -11.235, 19.156)" fill="url(#au)"/></g></g><g transform="translate(352.357 4453.4)"><g transform="translate(0 0)" clip-path="url(#av)"><rect width="45.803" height="47.825" transform="translate(-13.767 23.503) rotate(-59.827)" fill="url(#aw)"/></g></g><g transform="translate(365.51 4407.82)"><g transform="translate(0.001 0)" clip-path="url(#ax)"><rect width="49.45" height="49.885" transform="matrix(0.794, -0.608, 0.608, 0.794, -18.832, 13.514)" fill="url(#ay)"/></g></g><g transform="translate(354.523 4392.466)"><g transform="translate(0 0)" clip-path="url(#az)"><rect width="63.43" height="62.825" transform="translate(-22.361 16.282) rotate(-37.836)" fill="url(#ba)"/></g></g><g transform="translate(365.935 4421.96)"><g transform="translate(0 0)" clip-path="url(#bb)"><rect width="14.846" height="14.931" transform="translate(-7.937 4.006) rotate(-37.421)" fill="url(#bc)"/></g></g><g transform="translate(444.275 4515.128)"><g transform="translate(0 0)" clip-path="url(#bd)"><rect width="14.384" height="14.644" transform="translate(0)" fill="url(#be)"/></g></g><g transform="translate(546.11 4448.119)"><g transform="translate(0 0)" clip-path="url(#bf)"><rect width="169.058" height="173.489" transform="translate(-65.933 49.272) rotate(-37.337)" fill="url(#bg)"/></g></g><g transform="translate(554.111 4428.658)"><g transform="translate(0 0)" clip-path="url(#bh)"><rect width="39.932" height="36.097" transform="matrix(0.949, -0.316, 0.316, 0.949, -8.107, 2.702)" fill="url(#bi)"/></g></g><g transform="translate(304.229 4217.667)" clip-path="url(#p)"><path d="M207.5,237.177a1.676,1.676,0,0,0-1.059,2.394l21.826,41.85a1.675,1.675,0,0,0,1.95.834l71.393-20.612a1.675,1.675,0,0,0,1.144-2.074L290.459,217a1.676,1.676,0,0,0-2.037-1.154Z" transform="translate(60.988 63.807)" fill="#7d97f4"/><path d="M211.079,232.793a1.753,1.753,0,0,0-1.239,2.312l17.47,47.457a1.755,1.755,0,0,0,2.133,1.079l71.177-20.551a1.752,1.752,0,0,0,1.228-2.054l-9.864-45.676a1.754,1.754,0,0,0-2.121-1.336Z" transform="translate(62.017 63.272)" fill="#bdd0fb"/></g><g transform="translate(581.681 4498.09)"><g transform="translate(0 0)" clip-path="url(#bk)"><rect width="99.179" height="83.937" transform="matrix(0.976, -0.218, 0.218, 0.976, -14.387, 3.157)" fill="url(#bl)"/></g></g><g transform="translate(595.193 4455.778)"><g transform="translate(0 0)" clip-path="url(#bm)"><rect width="84.257" height="88.441" transform="matrix(0.795, -0.607, 0.607, 0.795, -35.058, 26.743)" fill="url(#bn)"/></g></g><g transform="translate(594.711 4477.266)"><g transform="translate(0 0)" clip-path="url(#bo)"><rect width="54.038" height="47.14" transform="matrix(0.539, -0.843, 0.843, 0.539, -21.828, 34.059)" fill="url(#bp)"/></g></g><g transform="translate(600.174 4523.568)"><g transform="translate(0 0)" clip-path="url(#bq)"><rect width="59.214" height="45.693" transform="matrix(0.105, -0.994, 0.994, 0.105, -5.79, 54.687)" fill="url(#br)"/></g></g><g transform="translate(548.542 4404.758)"><g transform="translate(0)" clip-path="url(#bs)"><rect width="38.739" height="36.052" transform="translate(-5.626 33.108) rotate(-80.355)" fill="url(#bt)"/></g></g><g transform="translate(544.431 4394.152)"><g transform="translate(0 0)" clip-path="url(#bu)"><rect width="68.028" height="68.31" transform="translate(-25.978 24.208) rotate(-43.27)" fill="url(#bv)"/></g></g><g transform="translate(570.348 4427.201)"><g transform="translate(0 0)" clip-path="url(#bw)"><rect width="13.611" height="13.516" transform="translate(-0.561 13.042) rotate(-87.535)" fill="url(#bx)"/></g></g><g transform="translate(423.093 4411.226)"><g transform="translate(0 0)" clip-path="url(#by)"><rect width="104.314" height="45.156" transform="translate(0 0)" fill="url(#bz)"/></g></g><g transform="translate(304.229 4217.667)" clip-path="url(#p)"><path d="M183.007,192.63a.243.243,0,0,1-.009-.486,7.313,7.313,0,0,0,1.4-.185.243.243,0,1,1,.11.473,7.867,7.867,0,0,1-1.489.2Zm-3.4-.013h0l-1.458-.008a.243.243,0,0,1,0-.486h0l1.456.009a.242.242,0,0,1,0,.485m-4.856-.029h0l-1.456-.008a.243.243,0,0,1,0-.486h0l1.456.009a.242.242,0,0,1,0,.485m-4.856-.029h0l-1.456-.009a.242.242,0,0,1,0-.485h0l1.458.008a.243.243,0,0,1,0,.486m-4.855-.029h0l-1.456-.008a.242.242,0,0,1-.241-.245.254.254,0,0,1,.244-.241l1.458.008a.243.243,0,0,1,0,.486m-4.856-.029h0l-1.458-.008a.243.243,0,0,1,0-.486h0l1.456.008a.243.243,0,0,1,0,.486m-4.856-.028h0l-1.456-.009a.243.243,0,1,1,0-.486h0l1.456.009a.243.243,0,0,1,0,.486m-4.856-.029h0l-1.456-.009a.242.242,0,1,1,0-.485h0l1.456.008a.243.243,0,0,1,0,.486m-4.856-.029h0l-1.456-.009a.242.242,0,0,1,0-.485h0l1.456.008a.243.243,0,1,1,0,.486m-4.855-.029h0l-1.456-.009a.243.243,0,0,1,0-.486h0l1.458.009a.243.243,0,0,1,0,.486m-4.856-.029h0l-1.458-.009a.243.243,0,0,1,0-.486h0l1.458.009a.243.243,0,0,1,0,.486m-4.856-.028h0l-1.456-.009a.243.243,0,0,1,0-.486h0l1.456.009a.243.243,0,0,1,0,.486m-4.856-.03h0l-1.456-.008a.243.243,0,1,1,0-.486h0l1.456.009a.242.242,0,0,1,0,.485m-4.856-.029h0l-1.456-.008a.243.243,0,1,1,0-.486h0l1.456.009a.242.242,0,1,1,0,.485m-4.855-.028h0l-1.456-.008a.243.243,0,0,1-.241-.245.268.268,0,0,1,.244-.241l1.458.009a.242.242,0,0,1,0,.485m-4.856-.029h0l-1.458-.008a.243.243,0,0,1,0-.486h0l1.458.008a.243.243,0,0,1,0,.486m-4.856-.029h0l-1.458-.008a.243.243,0,0,1,0-.486h0l1.456.008a.243.243,0,0,1,0,.486m-4.8-.543a.22.22,0,0,1-.076-.012,10.657,10.657,0,0,1-1.379-.565.243.243,0,0,1,.215-.435,10.308,10.308,0,0,0,1.315.539.243.243,0,0,1-.075.473m85.512-.679a.243.243,0,0,1-.153-.433,7.3,7.3,0,0,0,1.011-.98.243.243,0,1,1,.371.315,7.967,7.967,0,0,1-1.077,1.044.24.24,0,0,1-.152.053m-89.614-1.835a.243.243,0,0,1-.171-.07,10.872,10.872,0,0,1-.985-1.118.243.243,0,0,1,.386-.294,10.322,10.322,0,0,0,.941,1.068.242.242,0,0,1-.171.415m92.211-2.168a.254.254,0,0,1-.061-.008.242.242,0,0,1-.174-.3A7.369,7.369,0,0,0,190,185.9l.095-.645a.242.242,0,0,1,.275-.206.244.244,0,0,1,.206.276l-.095.647a7.585,7.585,0,0,1-.166.812.242.242,0,0,1-.235.183m-94.77-1.91a.243.243,0,0,1-.229-.165,10.454,10.454,0,0,1-.38-1.44.243.243,0,0,1,.477-.091,9.978,9.978,0,0,0,.363,1.375.242.242,0,0,1-.152.307.235.235,0,0,1-.079.013m95.476-2.893-.03,0a.242.242,0,0,1-.211-.271q.087-.706.174-1.445a.243.243,0,0,1,.482.057q-.085.74-.174,1.447a.243.243,0,0,1-.241.214m-96.082-1.9a.242.242,0,0,1-.242-.236l-.047-1.456a.241.241,0,0,1,.235-.25.248.248,0,0,1,.25.235l.047,1.456a.244.244,0,0,1-.235.251Zm96.614-2.93h-.023a.243.243,0,0,1-.219-.266q.068-.713.132-1.449a.246.246,0,0,1,.263-.22.242.242,0,0,1,.222.262q-.064.739-.133,1.454a.243.243,0,0,1-.241.22m-96.77-1.925a.243.243,0,0,1-.242-.235l-.047-1.456a.243.243,0,0,1,.235-.25.248.248,0,0,1,.251.236l.047,1.455a.243.243,0,0,1-.236.25Zm97.163-2.915h-.017a.244.244,0,0,1-.227-.258q.049-.719.089-1.452a.243.243,0,0,1,.485.027q-.041.735-.089,1.458a.243.243,0,0,1-.241.227M94.39,170.554a.242.242,0,0,1-.242-.235l-.047-1.456a.242.242,0,1,1,.485-.014l.047,1.455a.242.242,0,0,1-.235.25Zm97.562-2.913h-.009a.244.244,0,0,1-.235-.251q.025-.721.043-1.454A.261.261,0,0,1,192,165.7a.245.245,0,0,1,.237.249q-.017.735-.043,1.459a.243.243,0,0,1-.242.235M94.234,165.7a.243.243,0,0,1-.242-.236l-.047-1.456a.243.243,0,0,1,.235-.25.254.254,0,0,1,.251.236l.047,1.456a.244.244,0,0,1-.235.25Zm97.8-2.917a.243.243,0,0,1-.244-.242q0-.723-.01-1.454a.244.244,0,0,1,.24-.246.255.255,0,0,1,.246.24c.006.488.009.974.01,1.459A.243.243,0,0,1,192.034,162.785Zm-97.956-1.937a.242.242,0,0,1-.242-.236l-.047-1.456a.241.241,0,0,1,.235-.25.256.256,0,0,1,.25.235l.047,1.456a.242.242,0,0,1-.235.251Zm97.854-2.917a.243.243,0,0,1-.242-.233c-.021-.483-.044-.968-.07-1.451a.243.243,0,1,1,.485-.027c.026.486.049.973.07,1.459a.244.244,0,0,1-.232.253Zm-98.009-1.937a.244.244,0,0,1-.244-.236l-.047-1.455a.244.244,0,0,1,.235-.251.249.249,0,0,1,.251.236l.047,1.455a.244.244,0,0,1-.235.251Zm97.7-2.909a.245.245,0,0,1-.242-.222q-.064-.725-.139-1.447a.243.243,0,0,1,.483-.049q.074.725.14,1.454a.243.243,0,0,1-.22.263h-.022M93.766,151.14a.243.243,0,0,1-.242-.236l-.047-1.456a.242.242,0,0,1,.235-.25.257.257,0,0,1,.25.236l.047,1.455a.242.242,0,0,1-.235.251Zm96.054-1.456h-1.458a.243.243,0,0,1,0-.486h1.458a.243.243,0,0,1,0,.486m-4.856,0h-1.458a.243.243,0,0,1,0-.486h1.458a.243.243,0,0,1,0,.486m-4.856,0H178.65a.243.243,0,0,1,0-.486h1.458a.243.243,0,0,1,0,.486m-4.856,0h-1.456a.243.243,0,1,1,0-.486h1.456a.243.243,0,0,1,0,.486m-4.856,0h-1.456a.243.243,0,1,1,0-.486h1.456a.243.243,0,0,1,0,.486m-4.856,0h-1.456a.243.243,0,1,1,0-.486h1.456a.243.243,0,1,1,0,.486m-4.856,0h-1.456a.243.243,0,0,1,0-.486h1.456a.243.243,0,1,1,0,.486m-4.856,0H154.37a.243.243,0,0,1,0-.486h1.456a.243.243,0,1,1,0,.486m-4.855,0h-1.458a.243.243,0,0,1,0-.486h1.458a.243.243,0,0,1,0,.486m-4.856,0h-1.458a.243.243,0,0,1,0-.486h1.458a.243.243,0,0,1,0,.486m-4.856,0H139.8a.243.243,0,0,1,0-.486h1.458a.243.243,0,0,1,0,.486m-4.856,0h-1.456a.243.243,0,1,1,0-.486H136.4a.243.243,0,0,1,0,.486m-4.856,0H130.09a.243.243,0,1,1,0-.486h1.456a.243.243,0,1,1,0,.486m-4.856,0h-1.456a.243.243,0,1,1,0-.486h1.456a.243.243,0,1,1,0,.486m-4.856,0h-1.456a.243.243,0,0,1,0-.486h1.456a.243.243,0,1,1,0,.486m-4.856,0h-1.456a.243.243,0,0,1,0-.486h1.456a.243.243,0,1,1,0,.486m-4.855,0h-1.458a.243.243,0,0,1,0-.486h1.458a.243.243,0,0,1,0,.486m-4.856,0h-1.458a.243.243,0,0,1,0-.486h1.458a.243.243,0,0,1,0,.486m-4.856,0h-1.456a.243.243,0,1,1,0-.486h1.456a.243.243,0,0,1,0,.486m-4.856,0H96.1a.243.243,0,1,1,0-.486h1.456a.243.243,0,0,1,0,.486" transform="translate(27.641 44.117)" fill="#fff"/></g><g transform="translate(446.939 4382.33)"><g transform="translate(0 0)" clip-path="url(#cb)"><rect width="14.253" height="5.202" transform="matrix(0.999, -0.041, 0.041, 0.999, -0.19, 0.008)" fill="url(#cc)"/></g></g><g transform="translate(451.896 4374.294)"><g transform="translate(0 0)" clip-path="url(#cd)"><rect width="4.875" height="10.159" transform="translate(-0.707 0.051) rotate(-4.115)" fill="url(#ce)"/></g></g><g transform="translate(487.386 4382.33)"><g transform="translate(0 0)" clip-path="url(#cf)"><rect width="14.252" height="5.202" transform="translate(-0.19 0.008) rotate(-2.361)" fill="url(#cg)"/></g></g><g transform="translate(492.342 4373.43)"><g transform="translate(0 0)" clip-path="url(#ch)"><rect width="4.937" height="11.021" transform="translate(-0.769 0.055) rotate(-4.115)" fill="url(#ci)"/></g></g><g transform="translate(449.3 4362.905)"><g transform="translate(0 0)" clip-path="url(#cj)"><rect width="20.034" height="51.141" transform="translate(-1.972 13.186) rotate(-82.235)" fill="url(#ck)"/></g></g><g transform="translate(304.229 4217.667)" clip-path="url(#p)"><g transform="translate(145.945 147.773)" opacity="0.7"><g clip-path="url(#cm)"><path d="M113.157,122.87a.487.487,0,0,1-.483-.437,10.9,10.9,0,0,1,.279-3.488,4.034,4.034,0,0,1,2.747-2.794,49.717,49.717,0,0,1,11.261-2.1.486.486,0,0,1,.027.972,48.552,48.552,0,0,0-11.015,2.064,3.058,3.058,0,0,0-2.083,2.113,10,10,0,0,0-.249,3.138.485.485,0,0,1-.434.531l-.049,0" transform="translate(-112.638 -114.049)" fill="#fff"/></g></g></g><g transform="translate(421.293 4385.3)"><g transform="translate(0 0)" clip-path="url(#cn)"><rect width="54.014" height="111.147" transform="translate(-4.984 42.352) rotate(-83.884)" fill="url(#co)"/></g></g><g transform="translate(304.229 4217.667)" clip-path="url(#p)"><path d="M137.37,168.108a.313.313,0,0,1-.048,0l-1.428-.285a.242.242,0,0,1,.095-.475l1.416.281h1.489a.242.242,0,1,1,0,.485H137.37m11.236,0H147.15a.242.242,0,1,1,0-.485h1.456a.242.242,0,1,1,0,.485m-4.856,0h-1.456a.242.242,0,1,1,0-.485h1.456a.242.242,0,0,1,0,.485m8.246-.1a.243.243,0,0,1-.045-.482l1.432-.271a.243.243,0,0,1,.091.477l-1.432.271a.187.187,0,0,1-.045.005m-19.389-.846a.208.208,0,0,1-.048-.005l-1.428-.284a.243.243,0,0,1,.095-.477l1.429.285a.243.243,0,0,1-.048.481m24.16-.057a.243.243,0,0,1-.044-.482l1.432-.271a.243.243,0,1,1,.089.478l-1.432.271a.258.258,0,0,1-.045,0m-28.923-.89a.191.191,0,0,1-.047-.005l-1.429-.284a.242.242,0,1,1,.095-.475l1.429.284a.243.243,0,0,1-.048.481m33.695-.013a.242.242,0,0,1-.045-.481l1.432-.271a.243.243,0,1,1,.091.477l-1.432.271a.269.269,0,0,1-.045,0m4.772-.9a.243.243,0,0,1-.045-.482l1.432-.271a.243.243,0,1,1,.089.477l-1.43.271a.288.288,0,0,1-.045.005m-43.23-.032a.283.283,0,0,1-.047,0l-1.429-.285a.242.242,0,1,1,.095-.476l1.429.284a.243.243,0,0,1-.048.481m48-.871a.242.242,0,0,1-.045-.481l1.432-.271a.243.243,0,1,1,.091.477l-1.432.271a.268.268,0,0,1-.045,0m-52.763-.076a.283.283,0,0,1-.047,0l-1.429-.284a.243.243,0,0,1,.095-.477l1.429.284a.243.243,0,0,1-.048.481m57.535-.827a.242.242,0,0,1-.045-.481l1.432-.271a.243.243,0,1,1,.089.477l-1.43.271a.28.28,0,0,1-.045,0m-62.3-.119a.191.191,0,0,1-.047-.005l-1.429-.284a.242.242,0,1,1,.095-.476l1.429.284a.243.243,0,0,1-.048.481m67.069-.783a.243.243,0,0,1-.044-.482l1.43-.271a.243.243,0,0,1,.091.477l-1.432.271a.18.18,0,0,1-.045.005m-71.832-.165a.281.281,0,0,1-.047,0l-1.429-.285a.242.242,0,0,1,.095-.476l1.429.284a.243.243,0,0,1-.048.481m76.6-.739a.243.243,0,0,1-.045-.482l1.432-.271a.245.245,0,0,1,.284.194.242.242,0,0,1-.194.282l-1.43.271a.187.187,0,0,1-.045.005m-81.366-.209a.287.287,0,0,1-.048,0l-1.429-.284a.244.244,0,0,1-.19-.286.241.241,0,0,1,.285-.19l1.429.284a.243.243,0,0,1-.047.481m86.137-.694a.242.242,0,0,1-.044-.481l1.43-.271a.243.243,0,0,1,.091.477l-1.432.271a.269.269,0,0,1-.045,0m-90.9-.251a.2.2,0,0,1-.048-.005l-1.429-.284a.243.243,0,0,1-.19-.285.239.239,0,0,1,.285-.19l1.429.284a.243.243,0,0,1-.047.481m-4.763-.947a.3.3,0,0,1-.048,0l-1.235-.246-.029-.577a.242.242,0,0,1,.231-.254.231.231,0,0,1,.254.231l.01.2.863.171a.243.243,0,0,1-.047.481m98-1.727a.243.243,0,0,1-.244-.24c-.006-.486-.016-.969-.03-1.452a.244.244,0,0,1,.236-.25.253.253,0,0,1,.249.236q.021.729.031,1.46a.243.243,0,0,1-.24.246ZM93.3,155.6a.243.243,0,0,1-.242-.236c-.016-.466-.031-.954-.044-1.458a.243.243,0,0,1,.236-.249.257.257,0,0,1,.25.236c.013.5.029.989.044,1.455a.245.245,0,0,1-.235.251Zm99.018-2.586a.243.243,0,0,1-.242-.227q-.047-.731-.1-1.451a.243.243,0,0,1,.485-.038q.056.723.1,1.458a.243.243,0,0,1-.227.258h-.016m-99.129-2.27a.242.242,0,0,1-.244-.24c-.005-.479-.009-.967-.012-1.459a.243.243,0,1,1,.486,0c0,.491.006.977.012,1.455a.243.243,0,0,1-.24.245Zm98.707-2.571a.243.243,0,0,1-.241-.216q-.08-.731-.166-1.445a.242.242,0,0,1,.212-.27.239.239,0,0,1,.271.211q.086.715.166,1.451a.243.243,0,0,1-.216.267h-.026m-98.7-2.286h0a.243.243,0,0,1-.238-.246c.008-.485.017-.972.03-1.46a.247.247,0,0,1,.249-.236.241.241,0,0,1,.236.249c-.012.486-.022.97-.029,1.454a.243.243,0,0,1-.244.24m98.087-2.532a.244.244,0,0,1-.241-.209c-.071-.49-.145-.97-.219-1.438a.243.243,0,0,1,.479-.075q.113.7.22,1.443a.244.244,0,0,1-.2.276l-.035,0M93.35,141.028h-.013a.243.243,0,0,1-.231-.255q.039-.735.087-1.458a.24.24,0,0,1,.258-.227.243.243,0,0,1,.227.259q-.049.719-.086,1.451a.243.243,0,0,1-.242.229m97.136-2.471a.242.242,0,0,1-.238-.2q-.138-.752-.271-1.429a.243.243,0,0,1,.477-.093q.132.68.271,1.436a.243.243,0,0,1-.194.282.262.262,0,0,1-.044,0m-96.755-2.37-.027,0a.242.242,0,0,1-.215-.267q.082-.742.178-1.452a.239.239,0,0,1,.273-.209.243.243,0,0,1,.209.273q-.1.7-.176,1.441a.244.244,0,0,1-.241.216m95.586-2.2h-.029q-.674-.08-1.443-.155a.243.243,0,1,1,.047-.483c.517.051,1,.1,1.454.155a.243.243,0,0,1-.028.485m-4.837-.438h-.017c-.468-.034-.951-.066-1.452-.1a.243.243,0,1,1,.031-.485c.5.032.987.065,1.456.1a.243.243,0,0,1-.018.485m-4.847-.289h-.013l-1.454-.07a.243.243,0,1,1,.022-.485c.5.023.982.045,1.456.07a.243.243,0,0,1-.012.486m-4.852-.213h-.009L173.316,133a.243.243,0,0,1-.235-.251.254.254,0,0,1,.251-.235l1.456.053a.243.243,0,0,1-.009.486m-4.854-.162h-.006l-1.456-.041a.243.243,0,0,1-.236-.25.235.235,0,0,1,.249-.236l1.458.041a.243.243,0,0,1-.008.486m-4.855-.126h-.005l-1.456-.032a.243.243,0,0,1,.005-.486h.005l1.456.032a.243.243,0,0,1-.005.486m-4.855-.1h-.005l-1.456-.025a.243.243,0,0,1,.005-.486h0l1.456.026a.242.242,0,0,1,0,.485m-64.6,0a.242.242,0,0,1-.242-.24.245.245,0,0,1,.24-.246l1.458-.017h0a.242.242,0,0,1,0,.485l-1.458.018Zm4.859-.056a.243.243,0,0,1,0-.486l1.458-.014h0a.243.243,0,0,1,0,.486l-1.458.014Zm54.883-.021h0l-1.456-.018a.243.243,0,0,1,0-.486h0l1.458.019a.242.242,0,0,1,0,.485m-50.024-.026a.243.243,0,0,1,0-.486l1.458-.013h0a.243.243,0,0,1,0,.486l-1.458.013Zm45.168-.031h0l-1.458-.013a.243.243,0,0,1,0-.486h0l1.456.013a.243.243,0,0,1,0,.486m-40.31-.008a.243.243,0,0,1,0-.486l1.458-.01h0a.243.243,0,0,1,0,.486l-1.458.01Zm35.454-.034h0l-1.456-.009a.243.243,0,0,1,0-.486h0l1.458.01a.242.242,0,0,1,0,.485m-30.6,0a.242.242,0,1,1,0-.485l1.458-.009h0a.243.243,0,0,1,0,.486l-1.456.008Zm4.858-.023a.243.243,0,0,1,0-.486l1.458-.006a.243.243,0,0,1,0,.486l-1.456.006Zm20.883,0h0l-1.458-.006a.242.242,0,0,1,0-.485h0l1.456.005a.243.243,0,1,1,0,.486m-16.025-.013a.243.243,0,0,1,0-.486l1.458,0a.242.242,0,1,1,0,.485Zm11.169,0h0l-1.456,0a.243.243,0,1,1,0-.486l1.458,0a.243.243,0,1,1,0,.486m-6.313-.005a.243.243,0,0,1,0-.486h1.452a.245.245,0,0,1,.245.244.241.241,0,0,1-.241.242Z" transform="translate(27.479 39.019)" fill="#fff"/></g><g transform="translate(464.316 4415.209)"><g transform="translate(0 0)" clip-path="url(#cq)"><rect width="27.696" height="29.068" transform="translate(-8.314 14.659) rotate(-61.077)" fill="url(#cr)"/></g></g><g transform="translate(466.833 4417.379)"><g transform="translate(0 0)" clip-path="url(#cs)"><rect width="18.128" height="15.323" transform="translate(-0.17)" fill="url(#ct)"/></g></g><rect width="364.441" height="366.333" transform="translate(304.229 4217.667)" fill="none"/></g></svg>