<svg xmlns="http://www.w3.org/2000/svg" xmlns:xlink="http://www.w3.org/1999/xlink" width="340" height="337.587" viewBox="0 0 340 337.587"><defs><clipPath id="a"><rect width="340" height="337.587" fill="none"/></clipPath><clipPath id="b"><path d="M150.972.913c-1.081.114-2.315.238-3.97.453C79.375,10.207,37.05,72.947,32.023,80.626-10.365,145.39-13.065,249.944,42.411,300.061,66.824,322.119,95.238,326.539,128.9,332.8c20.864,3.884,88.346,15.244,147.381-24.173a129.881,129.881,0,0,0,22.794-18.5C351.587,236,351.456,137.233,310.165,73.464a157.691,157.691,0,0,0-31.038-35.216C239.616,5.145,193.424.05,168.24.051a162.9,162.9,0,0,0-17.267.862" transform="translate(-0.461 -0.051)" fill="none"/></clipPath><linearGradient id="c" x1="0.148" y1="0.835" x2="0.151" y2="0.835" gradientUnits="objectBoundingBox"><stop offset="0" stop-color="#dae3fe"/><stop offset="1" stop-color="#e9effd"/></linearGradient><clipPath id="e"><rect width="63.377" height="222.92" fill="none"/></clipPath><clipPath id="f"><rect width="52.934" height="156.497" fill="none"/></clipPath><clipPath id="g"><path d="M181.061,60.81l60.546,165.379L76.9,248.652ZM66.348,255.873l183.087-24.968-67.3-183.84Z" transform="translate(-66.348 -47.066)" fill="none"/></clipPath><linearGradient id="h" x1="-0.429" y1="1.35" x2="-0.422" y2="1.35" gradientUnits="objectBoundingBox"><stop offset="0" stop-color="#ff928e"/><stop offset="1" stop-color="#fe7062"/></linearGradient><clipPath id="j"><path d="M224.454,263.531a53.463,53.463,0,1,1,8.786.724,53.52,53.52,0,0,1-8.786-.724m1.9-126.483-2.809,6.74a6.039,6.039,0,0,1-4.3,3.56,64.457,64.457,0,0,0-13.911,4.77,6.042,6.042,0,0,1-5.587-.174l-6.356-3.607a7.222,7.222,0,0,0-8.34.865l-6.9,6.083a7.22,7.22,0,0,0-1.9,8.164l2.782,6.759a6.043,6.043,0,0,1-.525,5.565,64.364,64.364,0,0,0-6.474,13.2,6.036,6.036,0,0,1-4.071,3.821l-7.038,1.943a7.222,7.222,0,0,0-5.287,6.508l-.576,9.179a7.223,7.223,0,0,0,4.429,7.118l6.741,2.807a6.041,6.041,0,0,1,3.56,4.3,64.489,64.489,0,0,0,4.77,13.91,6.036,6.036,0,0,1-.175,5.586l-3.606,6.358a7.22,7.22,0,0,0,.865,8.339l6.082,6.9a7.224,7.224,0,0,0,8.165,1.9l6.759-2.784a6.047,6.047,0,0,1,5.565.525,64.364,64.364,0,0,0,13.2,6.474,6.041,6.041,0,0,1,3.821,4.071l1.943,7.039a7.223,7.223,0,0,0,6.508,5.286l9.179.577a7.223,7.223,0,0,0,7.117-4.429l2.808-6.741a6.041,6.041,0,0,1,4.3-3.561,64.405,64.405,0,0,0,13.91-4.77,6.045,6.045,0,0,1,5.587.175l6.358,3.607a7.22,7.22,0,0,0,8.339-.865l6.9-6.083A7.221,7.221,0,0,0,290.1,258l-2.782-6.759a6.042,6.042,0,0,1,.526-5.564,64.43,64.43,0,0,0,6.472-13.2,6.04,6.04,0,0,1,4.071-3.82l7.039-1.944a7.222,7.222,0,0,0,5.286-6.508l.576-9.179a7.223,7.223,0,0,0-4.428-7.117l-6.741-2.809a6.038,6.038,0,0,1-3.561-4.3,64.426,64.426,0,0,0-4.77-13.91,6.042,6.042,0,0,1,.175-5.587l3.607-6.356a7.224,7.224,0,0,0-.865-8.339l-6.083-6.9a7.219,7.219,0,0,0-8.165-1.9l-6.759,2.782a6.041,6.041,0,0,1-5.564-.526,64.4,64.4,0,0,0-13.2-6.474,6.037,6.037,0,0,1-3.82-4.071l-1.944-7.039a7.22,7.22,0,0,0-6.508-5.285l-9.179-.576c-.153-.011-.305-.015-.455-.015a7.22,7.22,0,0,0-6.662,4.445" transform="translate(-155.053 -132.603)" fill="none"/></clipPath><linearGradient id="k" x1="-0.699" y1="0.97" x2="-0.694" y2="0.97" gradientUnits="objectBoundingBox"><stop offset="0" stop-color="#e1473d"/><stop offset="1" stop-color="#e9605a"/></linearGradient><clipPath id="l"><path d="M168.188,174.828c-4.028,10.808,8.514,14.124,8.514,14.124s-7.82,21.622,9.588,33.617,29.615.374,29.615.374l5.244-28.733s-14.653,25.379-28.135,18.921-11.66-17.845-10.566-26.419a5.541,5.541,0,0,0-1.957-6.037,5.763,5.763,0,0,1-2.326-3.446s-1.9,2.843-.431,4.566a2.027,2.027,0,0,1,.477,1.785c-.194-.066-.394-.131-.6-.193-4.168-1.24-6.666-5.888-7.8-8.59a.873.873,0,0,0-1.624.031" transform="translate(-167.391 -174.26)" fill="none"/></clipPath><linearGradient id="m" x1="-2.214" y1="1.725" x2="-2.2" y2="1.725" gradientUnits="objectBoundingBox"><stop offset="0" stop-color="#febbba"/><stop offset="1" stop-color="#ff928e"/></linearGradient><clipPath id="n"><path d="M224.147,144.96c-19.108-1.957-13.457,13.8-13.457,13.8s11.592,3.561,1.769,18.828,2.076,20.99,2.076,20.99c1.628,16.774,24.9,10.672,24.9,10.672,9.333,7.052,22.822.588,24.764-6.42a7.276,7.276,0,0,0-4.3-9.218c6.975-3.081,12.843-12.276,3.419-26.464s-25.853-5.348-25.853-5.348c3.328-7.9-2.963-10.994-2.963-10.994-.944-5.227-4.681-6.223-7.4-6.223a11.567,11.567,0,0,0-2.958.379" transform="translate(-208.573 -144.581)" fill="none"/></clipPath><linearGradient id="o" x1="-2.232" y1="1.798" x2="-2.22" y2="1.798" gradientUnits="objectBoundingBox"><stop offset="0" stop-color="#09005d"/><stop offset="1" stop-color="#1a0f91"/></linearGradient><clipPath id="p"><path d="M215.179,188.754a3.871,3.871,0,0,0-1.889,1.8c-2.676,5.282-13.136,27.072-7.208,33.759,6.627,7.474,13.248,23.146,15.924,29.908a56.4,56.4,0,0,0,13.906-1.166c3.547-.751,6.863-1.453,9.96-2.216-7.119-12.977-3.764-42.487-2.32-52.724a6.456,6.456,0,0,0-2.646-6.145,26.628,26.628,0,0,0-15.693-5.293,25.209,25.209,0,0,0-10.033,2.076" transform="translate(-204.29 -186.678)" fill="none"/></clipPath><linearGradient id="q" x1="-2.746" y1="1.707" x2="-2.732" y2="1.707" gradientUnits="objectBoundingBox"><stop offset="0" stop-color="#4f52ff"/><stop offset="1" stop-color="#4042e2"/></linearGradient><clipPath id="r"><path d="M214.036,173.312c1.222,2.682,3.786,18.2,3.786,18.2a11.893,11.893,0,0,0,12.085.418c-1.281-6.833-8.761-21.746-8.761-21.746Z" transform="translate(-214.036 -170.179)" fill="none"/></clipPath><linearGradient id="s" x1="-8.557" y1="5.971" x2="-8.516" y2="5.971" xlink:href="#m"/><clipPath id="t"><path d="M212.252,153.111s-11.893,22.013-2.529,26.794,17.835-10.863,17.835-10.863,1.959-11.477-2.015-14.785c-1.721-1.435-4.447-1.841-6.982-1.841a31.375,31.375,0,0,0-6.309.694" transform="translate(-206.129 -152.417)" fill="none"/></clipPath><linearGradient id="u" x1="-5.542" y1="3.795" x2="-5.513" y2="3.795" xlink:href="#m"/><clipPath id="v"><path d="M217.522,148.327s-6.432,2.405-6.985,5.522,10.13,4.6,13.04,4.371l3.855,11.813s5.463-12.255,1.9-18.488a7.972,7.972,0,0,0-7.365-3.947,14.43,14.43,0,0,0-4.451.729" transform="translate(-210.517 -147.598)" fill="none"/></clipPath><linearGradient id="w" x1="-7.623" y1="5.249" x2="-7.586" y2="5.249" xlink:href="#o"/><clipPath id="x"><path d="M221.719,166.2l.66,3.045c2.785,1.765,9.676-2.335,6.909-6.3a2.4,2.4,0,0,0-2-1.188c-2.61,0-5.565,4.439-5.565,4.439" transform="translate(-221.719 -161.759)" fill="none"/></clipPath><linearGradient id="y" x1="-19.073" y1="11.134" x2="-18.987" y2="11.134" xlink:href="#m"/><clipPath id="z"><path d="M233.228,205.7a9.133,9.133,0,0,0,3.09,3.262c22.069,14.116,18.608,25.694,11.225,30.225-4.792,2.941-5.729,2.094-7.206,1.249a5.711,5.711,0,0,0-3.993-.732c-5.686.69-8.959,10.854-4.307,8.614,3.958-1.9,7.926.746,9.021,1.579a60.366,60.366,0,0,0,13.794-4.823c6.839-3.881,13.022-10.311,9.476-20.326-6.89-19.468-26.36-31.9-26.36-31.9a8.915,8.915,0,0,0-3.426-.812c-4.712,0-5.544,5.979-1.313,13.665" transform="translate(-229.822 -192.033)" fill="none"/></clipPath><linearGradient id="aa" x1="-3.698" y1="1.648" x2="-3.681" y2="1.648" xlink:href="#m"/><clipPath id="ac"><path d="M88.876,284.176a55.266,55.266,0,1,1,9.083.749,55.329,55.329,0,0,1-9.083-.749m1.967-130.755-2.9,6.967a6.242,6.242,0,0,1-4.445,3.682A66.594,66.594,0,0,0,69.115,169a6.242,6.242,0,0,1-5.776-.181l-6.572-3.728a7.465,7.465,0,0,0-8.621.893l-7.131,6.288a7.464,7.464,0,0,0-1.965,8.441l2.877,6.987a6.251,6.251,0,0,1-.544,5.753A66.694,66.694,0,0,0,34.692,207.1a6.242,6.242,0,0,1-4.208,3.949l-7.276,2.008a7.465,7.465,0,0,0-5.464,6.728l-.6,9.489a7.465,7.465,0,0,0,4.579,7.358l6.967,2.9a6.24,6.24,0,0,1,3.68,4.446,66.694,66.694,0,0,0,4.932,14.38,6.251,6.251,0,0,1-.181,5.777L33.4,270.713a7.461,7.461,0,0,0,.894,8.62l6.287,7.131a7.465,7.465,0,0,0,8.442,1.966L56,285.553a6.247,6.247,0,0,1,5.754.544,66.652,66.652,0,0,0,13.65,6.692A6.242,6.242,0,0,1,79.358,297l2.008,7.276a7.465,7.465,0,0,0,6.729,5.463l9.488.6a7.461,7.461,0,0,0,7.358-4.578l2.9-6.967a6.236,6.236,0,0,1,4.445-3.68,66.757,66.757,0,0,0,14.38-4.932,6.244,6.244,0,0,1,5.777.181l6.572,3.729a7.465,7.465,0,0,0,8.621-.894l7.13-6.288a7.463,7.463,0,0,0,1.966-8.441l-2.876-6.987a6.244,6.244,0,0,1,.544-5.754,66.59,66.59,0,0,0,6.691-13.65,6.245,6.245,0,0,1,4.208-3.949l7.277-2.008a7.467,7.467,0,0,0,5.463-6.728l.6-9.489a7.465,7.465,0,0,0-4.578-7.358l-6.968-2.9a6.242,6.242,0,0,1-3.68-4.446,66.692,66.692,0,0,0-4.931-14.38,6.247,6.247,0,0,1,.18-5.777l3.729-6.571a7.468,7.468,0,0,0-.893-8.622l-6.289-7.13a7.461,7.461,0,0,0-8.441-1.965l-6.987,2.876a6.242,6.242,0,0,1-5.752-.544,66.695,66.695,0,0,0-13.651-6.692,6.24,6.24,0,0,1-3.949-4.208l-2.009-7.276a7.462,7.462,0,0,0-6.728-5.463l-9.489-.6c-.157-.011-.315-.015-.471-.015a7.465,7.465,0,0,0-6.888,4.594" transform="translate(-17.132 -148.827)" fill="none"/></clipPath><linearGradient id="ad" x1="0.036" y1="0.871" x2="0.042" y2="0.871" xlink:href="#h"/><clipPath id="ae"><path d="M113.4,258.62a12.464,12.464,0,0,0,3.039.115c10.335-.933,12.4-11.233,12.4-11.233l-2.054-4.658c-4.526,2.342-8.395,1.351-11.615-1.243-3,3.365-6.559,9.549-1.767,17.019" transform="translate(-111.053 -241.601)" fill="none"/></clipPath><linearGradient id="af" x1="-6.374" y1="3.005" x2="-6.316" y2="3.005" gradientUnits="objectBoundingBox"><stop offset="0" stop-color="#a22b25"/><stop offset="1" stop-color="#c0423c"/></linearGradient><clipPath id="ag"><path d="M100.147,251.831s6.89,9,15.247,10.3c-4.791-7.47-1.235-13.654,1.767-17.019-7.891-6.359-11.886-22.364-12.081-22.669Z" transform="translate(-100.147 -222.439)" fill="none"/></clipPath><linearGradient id="ah" x1="-2.443" y1="2.181" x2="-2.416" y2="2.181" xlink:href="#q"/><clipPath id="ai"><path d="M68.285,210.453l-2.774,59.129a65.039,65.039,0,0,0,12.758,3.673c6.947.245,15.388.374,21.841-.059.357-.069.716-.141,1.073-.217,2.125-.451,4.277-.877,6.432-1.3,1.424-3.787,8.686-26.925,10.15-41.186.943-9.179-5.391-22.389-7.842-22.74a101.652,101.652,0,0,0-14.393-1.015,94.509,94.509,0,0,0-27.245,3.716" transform="translate(-65.511 -206.737)" fill="none"/></clipPath><linearGradient id="aj" x1="-0.746" y1="1.269" x2="-0.732" y2="1.269" xlink:href="#q"/><clipPath id="ak"><path d="M83,195.025l1.013,15.747a3.418,3.418,0,0,0,2.372,3.1c3.062.907,8.844,2,14.513-.284a2.256,2.256,0,0,0,1.221-2.767l-7.5-24.082Z" transform="translate(-83.001 -186.74)" fill="none"/></clipPath><linearGradient id="al" x1="-4.925" y1="3.971" x2="-4.866" y2="3.971" xlink:href="#af"/><clipPath id="am"><path d="M78.989,186.755c.317,3.771,7.976,10.306,7.976,10.306,4.921,4.259,11.37,5.324,17.173,1.822s3.286-6.543.9-11.809S94.2,173.286,94.2,173.286s-15.522,9.7-15.208,13.469" transform="translate(-78.984 -173.286)" fill="none"/></clipPath><linearGradient id="an" x1="-2.11" y1="3.295" x2="-2.081" y2="3.295" xlink:href="#af"/><clipPath id="ao"><path d="M92.6,163.626l-.069.592a.454.454,0,0,1-.812.222.451.451,0,0,0-.8.179c-.28,1.487-1.541,4.217-6.566,7.317-7.13,4.4-11,9.48-9.063,14.836a.455.455,0,0,1-.519.6c-.7-.127-1.672.064-2.489,1.554-1.418,2.592,1.229,6.857,7.322,8.844a.45.45,0,0,1,.243.685c-.626.872-1.37,2.655,2.539,3.128,4,.484,5.882-.47,6.548-.945a.454.454,0,0,0,.15-.563l-2.116-4.59a.453.453,0,0,1,.247-.613l1.676-.651.787-.305s-5.823-5.391-3.428-7.666,12.785-8.957,13.664-13.906c.849-4.771-3.181-8.944-6.854-9.122h-.021a.451.451,0,0,0-.435.4" transform="translate(-71.905 -163.221)" fill="none"/></clipPath><linearGradient id="ap" x1="-1.533" y1="3.241" x2="-1.508" y2="3.241" xlink:href="#o"/><clipPath id="aq"><path d="M81.348,187.862c-2.223,2.978,4.375,6.749,6.832,6.077l-.361-3.165s-2.706-3.753-4.93-3.753a1.867,1.867,0,0,0-1.541.84" transform="translate(-80.897 -187.022)" fill="none"/></clipPath><linearGradient id="ar" x1="-8.154" y1="10.069" x2="-8.05" y2="10.069" xlink:href="#af"/><clipPath id="as"><path d="M52.879,259.379q.209.738.468,1.434,1.517,1.129,3.107,2.17c2.352-6.049,10.254-7.491,14.464-7.823-.983-6.946,6.209-17.154,9.184-21.027a6.442,6.442,0,0,0,1.338-3.861c.088-9.834-4.042-16.152-10.66-20.393,0,0-24.015,27.98-17.9,49.5" transform="translate(-51.882 -209.878)" fill="none"/></clipPath><linearGradient id="at" x1="-0.669" y1="1.647" x2="-0.65" y2="1.647" xlink:href="#q"/><clipPath id="au"><path d="M88.254,156.456c-32.657,6.925-72.67,30.8-65.744,63.454,2,9.443,19.387,32.883,25,39.967,13.806,17.414,38.47,27.459,61.685,22.535,18.086-3.835,38.108-5.875,46.241-20.968,6.553-12.16,12-42.348,8.911-56.919-6.071-28.634-34.885-49.333-63.906-49.332a58.767,58.767,0,0,0-12.189,1.262" transform="translate(-21.72 -155.194)" fill="none"/></clipPath><clipPath id="av"><path d="M55.747,255.977a64.26,64.26,0,0,0,39.663,10.5v-4.529s-22.688-4.215-25.01-12.836a8.038,8.038,0,0,1-.189-.962c-4.209.332-12.112,1.775-14.464,7.823" transform="translate(-55.747 -248.154)" fill="none"/></clipPath><linearGradient id="aw" x1="-1.451" y1="1.566" x2="-1.424" y2="1.566" xlink:href="#af"/><clipPath id="ax"><path d="M87.019,264.825A57.762,57.762,0,0,0,97.246,263.6c2.352-.5,4.738-.968,7.125-1.437A19.644,19.644,0,0,0,98.894,259a11.71,11.71,0,0,0-4.494-1.027c-5.13,0-6.882,4.873-7.381,6.85" transform="translate(-87.019 -257.975)" fill="none"/></clipPath><linearGradient id="ay" x1="-5.484" y1="2.806" x2="-5.42" y2="2.806" xlink:href="#af"/><clipPath id="ba"><rect width="20.64" height="13.013" fill="none"/></clipPath><clipPath id="bb"><path d="M122.526,235.563c-2.8,1.973,1.767,13.875,3.412,15.037s7.264-8.072,3.976-14.373a10.484,10.484,0,0,0-4.747-1.44,4.5,4.5,0,0,0-2.641.775" transform="translate(-121.638 -234.788)" fill="none"/></clipPath><linearGradient id="bc" x1="-10.538" y1="3.521" x2="-10.45" y2="3.521" xlink:href="#af"/><clipPath id="be"><path d="M149.383,77.958c22.785,36.643,67.266,27.957,67.266,27.957l-1.72-4.854c-32.279-2.948-54.81-43.689-54.81-43.689Z" transform="translate(-149.383 -57.372)" fill="none"/></clipPath><linearGradient id="bf" x1="-1.901" y1="3.348" x2="-1.888" y2="3.348" xlink:href="#h"/><clipPath id="bg"><path d="M216.387,91.7c-1.423.972-5.274,1.558-9.071,1.417-.118,0-.233-.006-.345,0a3.122,3.122,0,0,0-2.677,4.522l.411.833a4.163,4.163,0,0,0,2.186,2.036c10.547,4.187,18.023,1.214,21.524-1.759,2.814-2.389,3.061-4.776.277-3.453-6.414,3.049-14.38-.054-14.38-.054,3.6-1.57,3.911-2.648,3.518-3.283a.957.957,0,0,0-.827-.444,1.087,1.087,0,0,0-.615.19" transform="translate(-203.965 -91.512)" fill="none"/></clipPath><linearGradient id="bh" x1="-8.207" y1="14.72" x2="-8.167" y2="14.72" xlink:href="#m"/><clipPath id="bi"><path d="M119.948,57.126l2.045,52.472a39.394,39.394,0,0,0,6.921,8.4c6.406,1.1,17.569,1.888,30.657,2.129,4.481-13.65,16.61-55.015,2.941-65.819a115.543,115.543,0,0,0-16.578-1.156c-8.045,0-17.729.845-25.986,3.975" transform="translate(-119.948 -53.151)" fill="none"/></clipPath><linearGradient id="bj" x1="-1.532" y1="3.279" x2="-1.518" y2="3.279" xlink:href="#h"/><clipPath id="bk"><path d="M133.05,57.839a2.884,2.884,0,0,0,.756,3.1c3.859,3.521,10.2,3.166,14.028,2.53a4.106,4.106,0,0,0,3.413-3.5c.816-6.114,4.016-13.889,4.016-13.889L147.4,32.022c-4.5,2.842-12.765,21.368-14.354,25.817" transform="translate(-132.88 -32.022)" fill="none"/></clipPath><linearGradient id="bl" x1="-6.945" y1="9.239" x2="-6.892" y2="9.239" xlink:href="#m"/><clipPath id="bm"><path d="M114.213,103.549a22.408,22.408,0,0,0,9.979,6.14c1.107.243,2.313.489,3.626.749,10.725,1.35,20.644-4.6,20.644-4.6l10.656-1.706s-6.663-7.823-11.466-7.62-8.544,6.425-8.544,6.425-13.087-.925-13.019-10.6c0-.032,0-.067,0-.1-3.548.325-9.416,2.3-11.878,11.314" transform="translate(-114.213 -92.235)" fill="none"/></clipPath><linearGradient id="bn" x1="-3.009" y1="11.684" x2="-2.983" y2="11.684" xlink:href="#m"/><clipPath id="bo"><path d="M114.282,109.015c.324.375.652.729.982,1.073,2.462-9.018,8.33-10.989,11.878-11.314.109-9.7,6.2-27.211,6.2-27.211s1.911-10.369-11.294-15.052c0,0-24.413,33.217-7.767,52.5" transform="translate(-108.471 -56.511)" fill="none"/></clipPath><linearGradient id="bp" x1="-1.743" y1="4.228" x2="-1.723" y2="4.228" xlink:href="#h"/><clipPath id="bq"><path d="M129.326,70.981C127.7,76,123.9,88.5,123.819,96.185a.515.515,0,0,0,.509.519h0a.513.513,0,0,0,.513-.508c.084-7.547,3.845-19.927,5.456-24.9a.513.513,0,0,0-.33-.647.527.527,0,0,0-.159-.025.513.513,0,0,0-.487.355" transform="translate(-123.819 -70.626)" fill="none"/></clipPath><linearGradient id="br" x1="-10.741" y1="9.464" x2="-10.652" y2="9.464" xlink:href="#k"/><clipPath id="bs"><path d="M149.96,23.3l-4.8,24.049,13.65,5.23s8.647-24.09,8.647-24.477c0-4.27-7.593-5-12.773-5-2.683,0-4.72.2-4.72.2" transform="translate(-145.157 -23.108)" fill="none"/></clipPath><linearGradient id="bt" x1="-4.448" y1="8.811" x2="-4.416" y2="8.811" xlink:href="#m"/><clipPath id="bu"><path d="M148.53,16.634c-2.869,1.279-2.942,3.882-2.57,5.7a1.813,1.813,0,0,1-1.469,2.154c-4.847.838-4.5,4.636-4.1,6.315a1.778,1.778,0,0,0,.838,1.125c1.288.748,4.214,2.739,4.141,5.347-.079,2.779-1.86,12.475-2.458,15.662a1.806,1.806,0,0,0,.64,1.737,58.3,58.3,0,0,0,11.7,6.885,1.807,1.807,0,0,0,2.321-.744,78.1,78.1,0,0,0,4.915-11.1,1.806,1.806,0,0,0-.933-2.247c-1.879-.886-4.835-.541-8.068-.109-3.562.476-3.814-3.021-3.813-4.038a1.79,1.79,0,0,1,.069-.487l3.52-12.462a1.793,1.793,0,0,1,1.027-1.169c1.589-.671,5.185-1.835,7.548.112,3.107,2.561,9.67,5.1,11.931,1.239,1.885-3.223,2.4-8.7-1.052-11.59q-1.83-.488-3.718-.89-1.4-.3-2.8-.538a5.81,5.81,0,0,0-2.7,2.247,1.782,1.782,0,0,1-2.606.4,1.43,1.43,0,0,0-1.6-.287,1.812,1.812,0,0,1-2.244-.6,7.883,7.883,0,0,0-3.329-2.85H153.6q-2.554,0-5.072.181" transform="translate(-140.179 -16.453)" fill="none"/></clipPath><linearGradient id="bv" x1="-3.59" y1="6.194" x2="-3.564" y2="6.194" xlink:href="#o"/><clipPath id="bw"><path d="M139.774,34.385c.137,6.715,5.122,5.185,5.122,5.185s2.961-6.993.548-9.161a4.006,4.006,0,0,0-2.6-1.132c-1.689,0-3.141,1.534-3.068,5.108" transform="translate(-139.772 -29.277)" fill="none"/></clipPath><linearGradient id="bx" x1="-11.46" y1="21.574" x2="-11.377" y2="21.574" xlink:href="#m"/></defs><g clip-path="url(#a)"><g transform="translate(0.546 0.06)"><g clip-path="url(#b)"><rect width="481.575" height="488.003" transform="matrix(0.487, -0.873, 0.873, 0.487, -161.604, 265.367)" fill="url(#c)"/></g></g><g clip-path="url(#a)"><rect width="27.184" height="3.274" transform="translate(284.483 176.974) rotate(-66.307)" fill="#bdd0fb"/><path d="M229.539,114.932l.68,3.987a3.176,3.176,0,0,0,2.614,2.6l3.168.522a2.656,2.656,0,0,1,1.958,1.48,28.367,28.367,0,0,0,3.445,5.471,2.654,2.654,0,0,1,.49,2.409l-.9,3.085a3.173,3.173,0,0,0,1.213,3.48l3.3,2.338a3.174,3.174,0,0,0,3.686-.011l2.611-1.874a2.658,2.658,0,0,1,2.435-.336,28.391,28.391,0,0,0,6.3,1.436,2.656,2.656,0,0,1,2.045,1.357l1.543,2.816a3.175,3.175,0,0,0,3.318,1.6l3.987-.68a3.173,3.173,0,0,0,2.6-2.613l.522-3.168a2.655,2.655,0,0,1,1.481-1.958,28.34,28.34,0,0,0,5.47-3.446,2.658,2.658,0,0,1,2.409-.49l3.085.9a3.174,3.174,0,0,0,3.48-1.211l2.338-3.3a3.174,3.174,0,0,0-.011-3.686l-1.873-2.612a2.654,2.654,0,0,1-.337-2.435,28.3,28.3,0,0,0,1.437-6.3,2.654,2.654,0,0,1,1.356-2.045l2.816-1.543a3.174,3.174,0,0,0,1.6-3.318l-.679-3.986a3.175,3.175,0,0,0-2.614-2.6l-3.168-.522a2.657,2.657,0,0,1-1.958-1.48,28.313,28.313,0,0,0-3.446-5.471,2.657,2.657,0,0,1-.49-2.409l.9-3.084a3.174,3.174,0,0,0-1.211-3.482l-3.3-2.338a3.176,3.176,0,0,0-3.686.011L275.548,83.9a2.658,2.658,0,0,1-2.435.336,28.39,28.39,0,0,0-6.3-1.436,2.658,2.658,0,0,1-2.047-1.357l-1.541-2.816a3.175,3.175,0,0,0-3.32-1.6l-3.986.68a3.174,3.174,0,0,0-2.6,2.614l-.521,3.167a2.654,2.654,0,0,1-1.481,1.958,28.407,28.407,0,0,0-5.472,3.446,2.657,2.657,0,0,1-2.409.49l-3.084-.9a3.175,3.175,0,0,0-3.482,1.213l-2.338,3.3a3.176,3.176,0,0,0,.011,3.686l1.874,2.611a2.661,2.661,0,0,1,.337,2.435,28.3,28.3,0,0,0-1.437,6.3,2.654,2.654,0,0,1-1.356,2.045l-2.817,1.543a3.174,3.174,0,0,0-1.6,3.318m10.658-2.173a23.533,23.533,0,1,1,25.078,21.878A23.532,23.532,0,0,1,240.2,112.759" transform="translate(42.003 14.089)" fill="#91b3fa"/><rect width="3.274" height="44.432" transform="translate(283.579 54.551) rotate(-12.506)" fill="#bdd0fb"/><rect width="32.018" height="3.274" transform="translate(233.524 42.178) rotate(-6.327)" fill="#bdd0fb"/><path d="M220.415,33.945l.5,2.946a2.35,2.35,0,0,0,1.933,1.921l2.341.384a1.963,1.963,0,0,1,1.447,1.094,20.982,20.982,0,0,0,2.547,4.045,1.963,1.963,0,0,1,.362,1.779l-.666,2.28a2.344,2.344,0,0,0,.9,2.573l2.438,1.728a2.348,2.348,0,0,0,2.725-.008l1.931-1.384a1.963,1.963,0,0,1,1.8-.25,20.921,20.921,0,0,0,4.659,1.062,1.964,1.964,0,0,1,1.513,1l1.139,2.082a2.347,2.347,0,0,0,2.452,1.185l2.947-.5a2.345,2.345,0,0,0,1.92-1.932l.386-2.341a1.963,1.963,0,0,1,1.094-1.448,20.91,20.91,0,0,0,4.044-2.546,1.962,1.962,0,0,1,1.78-.362l2.28.666a2.348,2.348,0,0,0,2.573-.9l1.728-2.439a2.348,2.348,0,0,0-.008-2.725l-1.385-1.93a1.967,1.967,0,0,1-.248-1.8,20.98,20.98,0,0,0,1.062-4.66,1.961,1.961,0,0,1,1-1.512l2.081-1.14a2.347,2.347,0,0,0,1.187-2.452l-.5-2.946a2.347,2.347,0,0,0-1.932-1.921l-2.342-.386a1.963,1.963,0,0,1-1.447-1.094,21.009,21.009,0,0,0-2.547-4.044,1.965,1.965,0,0,1-.362-1.78l.667-2.28a2.348,2.348,0,0,0-.9-2.573l-2.438-1.727a2.346,2.346,0,0,0-2.725.008l-1.93,1.384a1.962,1.962,0,0,1-1.8.248,20.985,20.985,0,0,0-4.659-1.061,1.965,1.965,0,0,1-1.512-1l-1.14-2.082a2.346,2.346,0,0,0-2.452-1.185l-2.947.5a2.345,2.345,0,0,0-1.92,1.932L237.6,10.7a1.96,1.96,0,0,1-1.094,1.447,20.971,20.971,0,0,0-4.044,2.547,1.962,1.962,0,0,1-1.78.362l-2.28-.666a2.348,2.348,0,0,0-2.573.9l-1.728,2.439a2.348,2.348,0,0,0,.008,2.725l1.385,1.93a1.967,1.967,0,0,1,.248,1.8,20.982,20.982,0,0,0-1.062,4.66,1.961,1.961,0,0,1-1,1.512L221.6,31.491a2.35,2.35,0,0,0-1.187,2.454m7.878-1.607a17.393,17.393,0,1,1,18.536,16.171,17.393,17.393,0,0,1-18.536-16.171" transform="translate(40.335 1.079)" fill="#91b3fa"/><rect width="3.275" height="41.407" transform="translate(86.807 51.096) rotate(-73.267)" fill="#bdd0fb"/><path d="M12.189,27.008l-1.384,4.751a3.883,3.883,0,0,0,1.486,4.259L15.5,38.287a3.246,3.246,0,0,1,1.362,2.677,34.711,34.711,0,0,0,.865,7.865,3.254,3.254,0,0,1-.75,2.913l-2.643,2.911a3.885,3.885,0,0,0-.53,4.48l2.38,4.338a3.885,3.885,0,0,0,4.063,1.96l3.876-.664a3.248,3.248,0,0,1,2.859.932,34.674,34.674,0,0,0,6.168,4.955,3.25,3.25,0,0,1,1.526,2.587l.19,3.924a3.885,3.885,0,0,0,2.793,3.542l4.75,1.385a3.885,3.885,0,0,0,4.259-1.487L48.935,77.4a3.251,3.251,0,0,1,2.677-1.362,34.7,34.7,0,0,0,7.865-.865,3.251,3.251,0,0,1,2.913.751L65.3,78.567a3.885,3.885,0,0,0,4.479.529l4.338-2.38a3.886,3.886,0,0,0,1.961-4.063l-.665-3.876a3.253,3.253,0,0,1,.932-2.859A34.733,34.733,0,0,0,81.3,59.75a3.249,3.249,0,0,1,2.587-1.526l3.924-.19a3.883,3.883,0,0,0,3.541-2.793l1.385-4.75a3.884,3.884,0,0,0-1.486-4.259l-3.207-2.269a3.252,3.252,0,0,1-1.363-2.677,34.644,34.644,0,0,0-.864-7.865,3.254,3.254,0,0,1,.75-2.913L89.215,27.6a3.885,3.885,0,0,0,.529-4.48l-2.379-4.338a3.885,3.885,0,0,0-4.063-1.96l-3.876.664a3.254,3.254,0,0,1-2.861-.932A34.648,34.648,0,0,0,70.4,11.594a3.244,3.244,0,0,1-1.525-2.587l-.19-3.924a3.885,3.885,0,0,0-2.793-3.541L61.138.156a3.885,3.885,0,0,0-4.259,1.486L54.61,4.849a3.251,3.251,0,0,1-2.677,1.363,34.643,34.643,0,0,0-7.865.864,3.247,3.247,0,0,1-2.913-.75L38.244,3.683a3.887,3.887,0,0,0-4.48-.529L29.426,5.533A3.885,3.885,0,0,0,27.466,9.6l.664,3.877a3.25,3.25,0,0,1-.932,2.859A34.642,34.642,0,0,0,22.243,22.5a3.25,3.25,0,0,1-2.587,1.526l-3.924.189a3.886,3.886,0,0,0-3.542,2.793m12.891,3.312a28.8,28.8,0,1,1,15.888,37.5,28.8,28.8,0,0,1-15.888-37.5" transform="translate(1.949 0)" fill="#bdd0fb"/><path d="M44.983,43.8a1.97,1.97,0,0,1,3.189-1.97c14.777,12.546,50.674,50.535,45.7,120.314-6.245,87.549,13.472,118.392,37.005,136.63,0,0-31.442-7.556-52.551-38.8C26.5,183.266,53.386,76.683,44.983,43.8" transform="translate(8.221 7.569)" fill="#91b3fa"/><g transform="translate(65.292 77.379)" style="mix-blend-mode:soft-light;isolation:isolate"><g clip-path="url(#e)"><path d="M55.2,66.036c2.25,9.6,4.311,19.237,6.016,28.937q2.633,14.533,4.372,29.2c1.117,9.773,2.051,19.565,2.568,29.382.561,9.816.7,19.643.8,29.511.161,9.862.265,19.8,1.388,29.752a99.988,99.988,0,0,0,7.493,29.14c1.016,2.3,2.077,4.6,3.264,6.806,1.146,2.232,2.392,4.414,3.676,6.572a103.721,103.721,0,0,0,30.793,32.66,1.906,1.906,0,0,0,2.212-3.1l0,0c-1.963-1.439-3.906-2.9-5.777-4.44-.949-.756-1.861-1.552-2.788-2.331-.9-.813-1.825-1.591-2.7-2.431a100.47,100.47,0,0,1-9.864-10.614,110.178,110.178,0,0,1-14.966-24.776,96.059,96.059,0,0,1-4.685-13.676,108.8,108.8,0,0,1-2.645-14.274c-1.164-9.659-1.349-19.492-1.579-29.352s-.557-19.77-1.276-29.649q-.52-7.41-1.3-14.8c-.248-2.463-.543-4.921-.834-7.379q-.472-3.684-.99-7.358-2.113-14.7-5.128-29.229c-2.06-9.672-4.375-19.287-7.057-28.8a.511.511,0,0,0-.99.256" transform="translate(-55.191 -65.408)" fill="#fff"/></g></g><path d="M84.43,292.4a4.953,4.953,0,0,1-7.709,2.863C60.94,283.965,19.205,248,15.1,181.125,11.639,124.655,4.394,94.363.151,80.84a3.106,3.106,0,0,1,4.8-3.434c26.7,19.507,108.72,90.94,79.48,214.991" transform="translate(0 14.055)" fill="#7d97f4"/><g transform="translate(27.255 150.859)" style="mix-blend-mode:soft-light;isolation:isolate"><g clip-path="url(#f)"><path d="M75.486,283.691a1.3,1.3,0,0,1-.219.15,1.373,1.373,0,0,1-1.868-.529c-.419-.751-41.989-75.974-50.353-154.273a1.374,1.374,0,1,1,2.732-.292c8.3,77.731,49.6,152.481,50.019,153.226a1.372,1.372,0,0,1-.311,1.718" transform="translate(-23.038 -127.52)" fill="#fff"/></g></g></g><g transform="translate(78.491 55.68)"><g clip-path="url(#g)"><rect width="183.087" height="208.807" transform="translate(0 0)" fill="url(#h)"/></g></g><g clip-path="url(#a)"><path d="M293.5,207.741a61.127,61.127,0,1,1-61.127-61.127A61.127,61.127,0,0,1,293.5,207.741" transform="translate(31.342 26.834)" fill="#fff"/></g><g transform="translate(183.431 156.873)"><g clip-path="url(#j)"><rect width="218.087" height="218.13" transform="translate(-73.853 104.463) rotate(-54.806)" fill="url(#k)"/></g></g><g transform="translate(198.028 206.154)"><g clip-path="url(#l)"><rect width="82.264" height="82.744" transform="matrix(0.776, -0.631, 0.631, 0.776, -32.751, 24.013)" fill="url(#m)"/></g></g><g transform="translate(246.747 171.043)"><g clip-path="url(#n)"><rect width="100.974" height="101.3" transform="translate(-42.205 29.793) rotate(-40.86)" fill="url(#o)"/></g></g><g transform="translate(241.68 220.845)"><g clip-path="url(#p)"><rect width="80.21" height="68.565" transform="matrix(0.391, -0.92, 0.92, 0.391, -28.516, 57.362)" fill="url(#q)"/></g></g><g transform="translate(253.21 201.326)"><g clip-path="url(#r)"><rect width="28.832" height="22.595" transform="translate(-7.097 23.107) rotate(-72.927)" fill="url(#s)"/></g></g><g transform="translate(243.856 180.313)"><g clip-path="url(#t)"><rect width="41.82" height="42.814" transform="translate(-20.263 9.041) rotate(-31.959)" fill="url(#u)"/></g></g><g transform="translate(249.046 174.612)"><g clip-path="url(#v)"><rect width="32.005" height="31.956" transform="translate(-11.631 9.602) rotate(-40.86)" fill="url(#w)"/></g></g><g transform="translate(262.299 191.365)"><g clip-path="url(#x)"><rect width="13.665" height="13.318" transform="translate(-4.154 2.591) rotate(-31.959)" fill="url(#y)"/></g></g><g transform="translate(271.885 227.18)"><g clip-path="url(#z)"><rect width="69" height="70.708" transform="matrix(0.753, -0.658, 0.658, 0.753, -31.437, 25.352)" fill="url(#aa)"/></g></g><g clip-path="url(#a)"><path d="M160.979,226.318a65.454,65.454,0,1,1-65.454-65.454,65.454,65.454,0,0,1,65.454,65.454" transform="translate(5.504 29.442)" fill="#fff"/></g><g transform="translate(20.268 176.066)"><g clip-path="url(#ac)"><rect width="217.786" height="217.705" transform="translate(-65.767 33.564) rotate(-27.103)" fill="url(#ad)"/></g></g><g transform="translate(131.378 285.82)"><g clip-path="url(#ae)"><rect width="20.227" height="17.226" transform="translate(-2.446 0)" fill="url(#af)"/></g></g><g transform="translate(118.476 263.151)"><g clip-path="url(#ag)"><rect width="43.147" height="32.442" transform="matrix(0.43, -0.903, 0.903, 0.43, -15.421, 32.334)" fill="url(#ah)"/></g></g><g transform="translate(77.501 244.575)"><g clip-path="url(#ai)"><rect width="83.563" height="77.38" transform="translate(-26.628 53.685) rotate(-63.619)" fill="url(#aj)"/></g></g><g transform="translate(98.192 220.918)"><g clip-path="url(#ak)"><rect width="19.894" height="29.416" transform="translate(-0.428 0.006) rotate(-0.842)" fill="url(#al)"/></g></g><g transform="translate(93.44 205.002)"><g clip-path="url(#am)"><rect width="41.674" height="42.238" transform="translate(-13.874 19.812) rotate(-55.603)" fill="url(#an)"/></g></g><g transform="translate(85.066 193.094)"><g clip-path="url(#ao)"><rect width="48.691" height="45.617" transform="translate(-18.175 28.578) rotate(-59.059)" fill="url(#ap)"/></g></g><g transform="translate(95.703 221.252)"><g clip-path="url(#aq)"><rect width="11.377" height="11.759" transform="matrix(0.565, -0.825, 0.825, 0.565, -5.31, 5.167)" fill="url(#ar)"/></g></g><g transform="translate(61.378 248.291)"><g clip-path="url(#as)"><rect width="63.021" height="54.74" transform="matrix(0.444, -0.896, 0.896, 0.444, -26.257, 42.62)" fill="url(#at)"/></g></g><g transform="translate(25.696 183.598)"><g clip-path="url(#au)"><path d="M68.493,248.764l-.914-.1c.775-6.811,6.752-15.218,9.284-18.518l.731.562c-2.487,3.237-8.351,11.479-9.1,18.06" transform="translate(-13.327 -141.477)" fill="#7d97f4"/></g></g><g transform="translate(65.95 293.572)"><g clip-path="url(#av)"><rect width="43.966" height="32.22" transform="translate(-6.44 2.447) rotate(-20.807)" fill="url(#aw)"/></g></g><g transform="translate(102.946 305.191)"><g clip-path="url(#ax)"><rect width="18.654" height="12.567" transform="translate(-2.274 0.864) rotate(-20.807)" fill="url(#ay)"/></g></g><g transform="translate(25.696 183.598)"><g clip-path="url(#au)"><path d="M133.082,223.112l-5.255,32.039a1.456,1.456,0,0,1-1.037,1.17,21.164,21.164,0,0,1-12.038-.059,1.994,1.994,0,0,1-1.306-1.556l-5.567-32.287Z" transform="translate(-5.952 -142.89)" fill="#91b3fa"/><path d="M132.873,221.749l-1.2-2.674a.784.784,0,0,0-.647-.463c-2.335-.2-13.081-1.035-20.121-.062a1.208,1.208,0,0,0-.948.735l-.935,2.245Z" transform="translate(-5.742 -143.683)" fill="#7d97f4"/><path d="M134.2,221.377l.224,2.208a.959.959,0,0,1-.883,1.059c-4.067.279-19.658,1.183-25.987-.839a.908.908,0,0,1-.594-1.1l.3-1.135a1.429,1.429,0,0,1,1.385-1.074l24.686.078a.885.885,0,0,1,.872.8" transform="translate(-6.125 -143.241)" fill="#91b3fa"/><path d="M131.687,229.782s-14.425,2.313-22.436,0l-.122-.707-.427.45a.939.939,0,0,0-.241.816l2.345,12.786s10.1,2.429,19.221.155l2.277-12.939a1.265,1.265,0,0,0-.231-1.015l-.257-.336Z" transform="translate(-5.848 -141.687)" fill="#7d97f4"/><g transform="translate(103.683 89.095)" style="mix-blend-mode:soft-light;isolation:isolate"><g clip-path="url(#ba)"><path d="M122.152,243.518a.273.273,0,0,1-.269-.279l.216-11.693a.269.269,0,0,1,.279-.269.275.275,0,0,1,.269.279l-.217,11.693a.275.275,0,0,1-.274.269Zm-2.765-.034a.274.274,0,0,1-.269-.279l.214-11.562a.276.276,0,0,1,.279-.269.273.273,0,0,1,.269.278l-.214,11.563a.273.273,0,0,1-.273.269Zm5.531-.127a.275.275,0,0,1-.269-.279l.217-11.719a.26.26,0,0,1,.279-.269.275.275,0,0,1,.27.279l-.218,11.718a.273.273,0,0,1-.273.27Zm-8.814-.077a.275.275,0,0,1-.27-.279l.212-11.385a.3.3,0,0,1,.278-.27.275.275,0,0,1,.27.279l-.211,11.385a.275.275,0,0,1-.274.27Zm10.988-.185a.274.274,0,0,1-.267-.28l.257-11.663a.268.268,0,0,1,.28-.269.276.276,0,0,1,.269.28l-.258,11.663a.275.275,0,0,1-.274.269Zm-14.154-.472-.827-11.305a.275.275,0,0,1,.253-.293.269.269,0,0,1,.293.254l.827,11.3a.274.274,0,0,1-.253.293h-.02a.274.274,0,0,1-.273-.254m15.777.176a.273.273,0,0,1-.25-.3l.991-11.663a.274.274,0,1,1,.545.046l-.991,11.663a.273.273,0,0,1-.272.251h-.024m-17.926-.555-1.424-11.432a.276.276,0,0,1,.238-.305.272.272,0,0,1,.306.238l1.424,11.432a.275.275,0,0,1-.238.305.175.175,0,0,1-.034,0,.274.274,0,0,1-.272-.24" transform="translate(-109.363 -230.505)" fill="#fff"/></g></g></g></g><g transform="translate(143.901 277.76)"><g clip-path="url(#bb)"><rect width="13.475" height="16.974" transform="translate(-1.911 0)" fill="url(#bc)"/></g></g><g clip-path="url(#a)"><path d="M223.127,75.5A61.127,61.127,0,1,1,162,14.369,61.127,61.127,0,0,1,223.127,75.5" transform="translate(18.462 2.63)" fill="#fff"/><path d="M234.683,62.009l-6.856-1.893a5.878,5.878,0,0,1-3.964-3.721,62.718,62.718,0,0,0-6.306-12.861,5.888,5.888,0,0,1-.512-5.421l2.71-6.584a7.032,7.032,0,0,0-1.851-7.952l-6.718-5.925a7.032,7.032,0,0,0-8.123-.842l-6.192,3.514a5.887,5.887,0,0,1-5.442.169,62.781,62.781,0,0,0-13.549-4.646,5.881,5.881,0,0,1-4.188-3.467l-2.736-6.566A7.031,7.031,0,0,0,164.023,1.5l-8.94.562a7.033,7.033,0,0,0-6.339,5.147l-1.893,6.856a5.878,5.878,0,0,1-3.721,3.964,62.868,62.868,0,0,0-12.861,6.306,5.884,5.884,0,0,1-5.421.513l-6.582-2.71a7.033,7.033,0,0,0-7.953,1.851l-5.925,6.718a7.034,7.034,0,0,0-.842,8.123l3.514,6.192a5.887,5.887,0,0,1,.169,5.442,62.758,62.758,0,0,0-4.646,13.549A5.878,5.878,0,0,1,99.116,68.2l-6.565,2.735a7.034,7.034,0,0,0-4.314,6.933l.562,8.941a7.033,7.033,0,0,0,5.147,6.339l6.856,1.892a5.887,5.887,0,0,1,3.965,3.721,62.783,62.783,0,0,0,6.3,12.862,5.884,5.884,0,0,1,.513,5.421l-2.71,6.582a7.034,7.034,0,0,0,1.851,7.953l6.72,5.925a7.032,7.032,0,0,0,8.121.841l6.192-3.512a5.884,5.884,0,0,1,5.442-.17,62.781,62.781,0,0,0,13.549,4.646,5.882,5.882,0,0,1,4.188,3.469l2.735,6.565a7.034,7.034,0,0,0,6.934,4.313l8.94-.561a7.034,7.034,0,0,0,6.339-5.149l1.892-6.856a5.882,5.882,0,0,1,3.722-3.964,62.808,62.808,0,0,0,12.861-6.306,5.887,5.887,0,0,1,5.421-.512l6.582,2.71a7.034,7.034,0,0,0,7.953-1.851l5.925-6.72a7.034,7.034,0,0,0,.841-8.123l-3.512-6.191a5.884,5.884,0,0,1-.17-5.442,62.8,62.8,0,0,0,4.646-13.549,5.882,5.882,0,0,1,3.469-4.188l6.565-2.736a7.033,7.033,0,0,0,4.314-6.933l-.562-8.94a7.033,7.033,0,0,0-5.149-6.339m-61.872,67a52.129,52.129,0,1,1,42.937-59.927,52.128,52.128,0,0,1-42.937,59.927" transform="translate(16.147 0.272)" fill="#7d97f4"/></g><g transform="translate(176.724 67.872)"><g clip-path="url(#be)"><rect width="87.601" height="84.672" transform="translate(-26.178 17.06) rotate(-33.092)" fill="url(#bf)"/></g></g><g transform="translate(241.296 108.261)"><g clip-path="url(#bg)"><rect width="29.254" height="15.66" transform="matrix(0.996, -0.09, 0.09, 0.996, -1.855, 0.107)" fill="url(#bh)"/></g></g><g transform="translate(141.901 62.879)"><g clip-path="url(#bi)"><rect width="83.678" height="86.813" transform="translate(-30.636 19.965) rotate(-33.092)" fill="url(#bj)"/></g></g><g transform="translate(157.2 37.883)"><g clip-path="url(#bk)"><rect width="22.604" height="32.437" transform="translate(-0.22 0)" fill="url(#bl)"/></g></g><g transform="translate(135.117 109.116)"><g clip-path="url(#bm)"><rect width="44.904" height="19.553" transform="translate(0 0)" fill="url(#bn)"/></g></g><g transform="translate(128.324 66.854)"><g clip-path="url(#bo)"><rect width="60.768" height="65.425" transform="matrix(0.838, -0.546, 0.546, 0.838, -35.343, 15.971)" fill="url(#bp)"/></g></g><g transform="translate(146.481 83.552)"><g clip-path="url(#bq)"><rect width="13.323" height="26.886" transform="translate(-6.738 1.874) rotate(-15.55)" fill="url(#br)"/></g></g><g transform="translate(171.724 27.337)"><g clip-path="url(#bs)"><rect width="36.958" height="35.56" transform="translate(-14.179 18.757) rotate(-52.914)" fill="url(#bt)"/></g></g><g transform="translate(165.835 19.464)"><g clip-path="url(#bu)"><rect width="44.88" height="51.874" transform="translate(-9.437 1.815) rotate(-11.52)" fill="url(#bv)"/></g></g><g transform="translate(165.353 34.635)"><g clip-path="url(#bw)"><rect width="14.16" height="14.094" transform="translate(-5.98 6.063) rotate(-45.734)" fill="url(#bx)"/></g></g></g></svg>