<svg xmlns="http://www.w3.org/2000/svg" xmlns:xlink="http://www.w3.org/1999/xlink" width="298" height="132" viewBox="0 0 298 132"><defs><filter id="a" x="0" y="0" width="298" height="132" filterUnits="userSpaceOnUse"><feOffset dy="3" input="SourceAlpha"/><feGaussianBlur stdDeviation="3" result="b"/><feFlood flood-opacity="0.161"/><feComposite operator="in" in2="b"/><feComposite in="SourceGraphic"/></filter></defs><g transform="translate(2851 7819)"><g transform="matrix(1, 0, 0, 1, -2851, -7819)" filter="url(#a)"><rect width="280" height="114" rx="20" transform="translate(9 6)" fill="#fff"/></g><g transform="translate(773 1995)"><text transform="translate(-3574 -9785)" fill="#12263f" font-size="16" font-family="Roboto-Regular, Roboto"><tspan x="0" y="17">Decide por su propio criterio</tspan><tspan x="0" y="41">Difícil de convencer</tspan><tspan x="0" y="65">Tiene claro lo que quiere</tspan></text><g transform="translate(-3596.227 -9780)"><path d="M0,69.769l4.482,4.49,8.606-8.6-1.236-1.218L4.482,71.8,1.218,68.542Z" transform="translate(0 -64.443)" fill="#9d39e3"/><path d="M0,69.769l4.482,4.49,8.606-8.6-1.236-1.218L4.482,71.8,1.218,68.542Z" transform="translate(0 -40.442)" fill="#9d39e3"/><path d="M0,69.769l4.482,4.49,8.606-8.6-1.236-1.218L4.482,71.8,1.218,68.542Z" transform="translate(0 -16.441)" fill="#9d39e3"/></g></g></g></svg>