<svg xmlns="http://www.w3.org/2000/svg" xmlns:xlink="http://www.w3.org/1999/xlink" width="298" height="168" viewBox="0 0 298 168"><defs><filter id="a" x="0" y="0" width="298" height="168" filterUnits="userSpaceOnUse"><feOffset dy="3" input="SourceAlpha"/><feGaussianBlur stdDeviation="3" result="b"/><feFlood flood-opacity="0.161"/><feComposite operator="in" in2="b"/><feComposite in="SourceGraphic"/></filter></defs><g transform="translate(2845 7341)"><g transform="matrix(1, 0, 0, 1, -2845, -7341)" filter="url(#a)"><rect width="280" height="150" rx="20" transform="translate(9 6)" fill="#fff"/></g><text transform="translate(-2795 -7312.5)" fill="#12263f" font-size="16" font-family="Roboto-Regular, Roboto"><tspan x="0" y="17">Sociable </tspan><tspan x="0" y="41">Hablador</tspan><tspan x="0" y="65">Preguntón</tspan><tspan x="0" y="89">Permanece más tiempo que el </tspan><tspan x="0" y="113">promedio.</tspan></text><g transform="translate(-2817.227 -7303.621)"><path d="M0,69.769l4.482,4.49,8.606-8.6-1.236-1.218L4.482,71.8,1.218,68.542Z" transform="translate(0 -64.443)" fill="#9d39e3"/><path d="M0,69.769l4.482,4.49,8.606-8.6-1.236-1.218L4.482,71.8,1.218,68.542Z" transform="translate(0 -40.442)" fill="#9d39e3"/><path d="M0,69.769l4.482,4.49,8.606-8.6-1.236-1.218L4.482,71.8,1.218,68.542Z" transform="translate(0 -16.441)" fill="#9d39e3"/><path d="M0,69.769l4.482,4.49,8.606-8.6-1.236-1.218L4.482,71.8,1.218,68.542Z" transform="translate(0 5.559)" fill="#9d39e3"/></g></g></svg>