<svg xmlns="http://www.w3.org/2000/svg" xmlns:xlink="http://www.w3.org/1999/xlink" width="35" height="35" viewBox="0 0 35 35"><defs><clipPath id="a"><rect width="35" height="35" fill="#fff"/></clipPath></defs><g clip-path="url(#a)"><path d="M33.74,20.3a16.483,16.483,0,0,1-2.585,6.425l-2.7-1.836.013-.02q.081-.12.159-.242l.031-.048q.08-.127.158-.255l0-.006q.077-.127.15-.256l.027-.048q.072-.126.14-.254l.028-.052c.047-.088.093-.176.137-.264l.009-.018q.064-.128.126-.258l.022-.047q.061-.131.12-.264L29.6,22.8c.039-.09.078-.18.116-.271l.011-.028c.036-.087.07-.174.1-.261l.017-.045q.052-.136.1-.273l.02-.058q.048-.138.094-.277l.012-.036q.043-.133.083-.266l.013-.041q.041-.14.079-.281l.016-.059c.025-.094.049-.188.072-.283l.01-.041c.022-.091.043-.182.063-.274l.007-.034c.021-.1.04-.192.058-.289l.006-.031,3.134.331ZM25.37,31.978l-1.207-2.3-.311-.593.018-.01q.125-.069.248-.14l.047-.028q.127-.075.253-.152l.006,0q.124-.077.245-.156l.044-.029q.119-.078.236-.158L25,28.375c.08-.055.16-.111.239-.169l.013-.009q.115-.084.229-.17l.04-.03q.113-.087.225-.176l.044-.035q.114-.092.225-.185l.016-.014q.108-.091.214-.185l.035-.03q.107-.1.213-.193l.041-.038q.106-.1.211-.2l.018-.018q.1-.1.2-.2l.029-.03q.1-.1.2-.209l.038-.041q.1-.107.195-.216l.021-.024q.092-.1.182-.212l.026-.03q.093-.11.182-.223l.018-.022,2.71,1.84a16.627,16.627,0,0,1-5.185,4.426m-.913.462a16.264,16.264,0,0,1-6.445,1.529V30.7h.023l.277-.014.053,0c.095-.006.19-.013.284-.021h0q.143-.012.285-.028l.053-.006c.091-.01.182-.021.273-.033l.053-.007c.094-.013.188-.026.282-.041h0c.093-.015.185-.031.278-.048l.053-.01.268-.053.054-.011c.092-.02.184-.04.275-.061l.009,0c.09-.021.179-.044.268-.067l.052-.013q.132-.035.263-.072l.054-.016c.09-.026.18-.053.269-.081l.014,0q.13-.041.26-.085l.05-.017.258-.092.053-.02q.132-.049.264-.1l.016-.006q.127-.051.254-.1l.047-.02q.127-.054.254-.111l.022-.01,1.27,2.421ZM9.47,31.891,10.8,29.757l.4-.643.1.055.051.027.185.1.01.005.175.086.057.028.13.062.067.031.123.056.069.031.125.054.066.028.141.058.05.02.2.077h0l.189.071.057.021.138.049.068.024.129.044.071.023.131.042.068.021.146.044.052.016.2.057.007,0,.192.051.061.015.14.035.073.017.13.03.075.017.131.028.073.015.145.028.058.011.2.036.015,0,.188.03.067.01.137.02.078.01.129.016.08.009.13.014.078.008.142.013.065.006.206.016h.026l.181.011.072,0,.1,0v3.269A16.45,16.45,0,0,1,9.47,31.891M2.656,24.66l3.035-1.235,0,.006.032.062.077.15.043.081.07.13.047.085.07.124.048.084.073.124.049.081.079.129.045.073c.032.051.065.1.1.153l.029.046q.065.1.132.2l.029.042.106.152.048.066.091.126.054.072L7,25.525l.056.073.092.117.055.07.1.121.051.062.121.143.031.037q.078.09.157.178l.032.035.127.139.055.058.108.114.062.064.1.105.065.064.106.1.065.062.113.106.06.055.137.124.039.035c.059.052.119.1.179.156l.04.033L9.1,27.7l.064.052.12.1.072.057.116.09.075.057.118.087.075.055.125.089.069.049.15.1.046.032q.1.064.193.127L8.592,31.363a16.428,16.428,0,0,1-5.936-6.7m-1.62-7.812.637.067,2.621.277c0,.012,0,.023,0,.034q0,.138,0,.274t0,.3v.034q0,.143.01.285c0,.016,0,.032,0,.047q.007.14.017.279c0,.016,0,.032,0,.048q.011.14.023.28l0,.04q.014.145.031.289s0,.01,0,.015q.017.144.038.287c0,.009,0,.017,0,.026q.02.141.044.281l.007.044q.023.137.05.272l.009.048q.027.136.057.271l.01.042c.021.093.042.185.065.277l.006.024q.035.141.073.28l0,.015q.038.14.08.279l.011.037q.04.134.083.267l.015.045q.043.132.089.263l.015.042c.032.089.064.178.1.266l.011.029q.053.14.11.279L2.24,23.724A16.364,16.364,0,0,1,1.024,17.5c0-.216,0-.435.013-.652m2.3-7.774,2.71,1.84-.016.03q-.076.133-.15.268l-.012.022q-.07.131-.138.263l-.022.043q-.068.135-.133.271l-.026.055q-.065.138-.127.277l-.015.034q-.059.134-.115.269l-.016.037q-.058.141-.112.282l-.022.058q-.053.141-.1.283l-.016.045q-.048.139-.094.279l-.009.028c-.031.1-.061.195-.09.293l-.017.058q-.042.144-.081.289l-.014.052c-.026.1-.05.2-.074.294l0,.013q-.036.151-.067.3l-.012.057q-.03.147-.057.295l-.01.057c-.018.1-.036.2-.051.306,0,0,0,.008,0,.013-.015.1-.029.2-.042.3l-.007.054q-.019.149-.034.3c0,.009,0,.018,0,.027l-1.094-.115-2.156-.227A16.469,16.469,0,0,1,3.338,9.073m5.83-5.791,1.52,2.9-.03.018c-.089.054-.178.109-.266.166l-.021.014q-.128.082-.254.167l-.04.027q-.128.087-.253.177l-.05.035c-.084.061-.168.122-.25.185l-.03.023q-.121.092-.239.187L9.228,7.2q-.122.1-.241.2l-.045.038q-.118.1-.234.2l-.035.032q-.115.1-.228.21L8.432,7.9c-.077.073-.152.146-.227.221l-.041.041q-.109.109-.216.22l-.038.04q-.11.116-.218.235l0,0q-.107.118-.21.239l-.036.042q-.1.117-.2.236l-.038.048c-.066.081-.13.163-.194.246L7,9.489q-.092.119-.18.241l-.029.04q-.09.125-.177.252l-.018.026L3.89,8.211A16.6,16.6,0,0,1,9.168,3.282m7.82-2.251V4.3l-.068,0-.074,0-.132.007-.062,0-.193.014h-.016l-.177.016-.064.006-.13.013L16,4.376l-.123.015L15.8,4.4l-.127.017-.066.009-.155.023-.037.006-.191.032-.052.009-.139.025-.069.013-.122.024-.073.015-.12.026-.071.016-.131.03-.058.014-.187.046-.032.008-.155.041-.066.018-.12.034-.073.022-.114.034-.073.022-.118.037-.067.022-.144.048-.039.013-.18.063-.059.022-.122.045-.071.027-.111.043-.073.029-.11.045-.07.029-.122.052-.055.024-.175.077-.041.019-.135.063-.063.03-.112.054-.068.034-.052.026-.994-1.9-.524-1a16.51,16.51,0,0,1,6.922-1.76m9.064,2.383-.526.841-1.206,1.93-.14-.083-.037-.022-.2-.112-.062-.034-.137-.075-.078-.041-.123-.064-.083-.042-.12-.06-.084-.041-.123-.059-.081-.038-.138-.063-.068-.031-.2-.088-.049-.02-.158-.065-.08-.032-.129-.05-.088-.034-.123-.046-.09-.032-.124-.044-.089-.031-.131-.043L21.5,4.909l-.164-.051-.05-.015-.212-.061L21,4.761l-.142-.038L20.773,4.7l-.13-.033-.093-.022-.128-.03L20.33,4.6,20.2,4.567l-.088-.018-.15-.029-.071-.013-.22-.038-.049-.008-.174-.027-.082-.012-.143-.02-.09-.011L19,4.375l-.091-.01-.139-.014-.088-.008-.149-.012-.077-.006-.2-.013-.028,0-.213-.01V1.031a16.4,16.4,0,0,1,8.041,2.383m6.72,7.892-1.239.5-1.789.728q-.047-.116-.1-.232l-.03-.068c-.024-.054-.047-.108-.072-.162l-.038-.084-.068-.145L29.4,11.76l-.069-.139-.044-.088-.072-.14-.044-.084c-.026-.05-.053-.1-.08-.148l-.04-.073c-.035-.063-.071-.125-.106-.187l-.018-.031c-.042-.073-.086-.145-.129-.217L28.76,10.6c-.032-.053-.065-.105-.1-.158l-.049-.076-.088-.136-.054-.081-.087-.128-.057-.082-.09-.126-.057-.079-.1-.13-.054-.072-.116-.15-.037-.048q-.078-.1-.157-.2l-.035-.041c-.042-.051-.084-.1-.126-.151L27.5,8.877l-.107-.122-.066-.074-.1-.114-.069-.075-.1-.111-.07-.073-.11-.112L26.8,8.129,26.678,8l-.053-.051q-.091-.087-.183-.172l-.024-.022-.162-.147-.064-.056-.125-.109-.075-.063-.119-.1-.079-.064-.119-.1-.08-.063-.124-.1-.077-.058-.138-.1-.065-.048-.015-.011.937-1.5.8-1.276a16.64,16.64,0,0,1,5.863,7.333m-3.529,9.452q-.025.089-.051.177a12.2,12.2,0,0,1-1.873,3.779q-.322.438-.683.846-.12.136-.244.268t-.252.261q-.125.126-.254.248-.292.277-.6.535-.249.207-.51.4a12.155,12.155,0,0,1-1.844,1.137h0A12.062,12.062,0,0,1,17.5,29.686a12.191,12.191,0,0,1-1.225-.062q-.2-.02-.4-.048-.3-.041-.6-.1-.2-.037-.4-.081l-.2-.045a12.132,12.132,0,0,1-3.38-1.367,12.324,12.324,0,0,1-1.162-.781c-.089-.067-.177-.137-.264-.207a12.169,12.169,0,0,1-4.552-9.5c0-.238.007-.479.023-.736h0A12.177,12.177,0,0,1,7.17,11.034h0q.309-.493.664-.954A12.2,12.2,0,0,1,19.277,5.443q.24.035.479.08.174.032.346.07l.1.021a12.112,12.112,0,0,1,4,1.707h0a12.177,12.177,0,0,1,1.545,1.211q.356.328.684.683.1.109.2.219.312.354.6.73l.008.01q.173.23.335.468a12.127,12.127,0,0,1,1.4,2.739v0a12.149,12.149,0,0,1,.713,4.116q0,.228-.009.456a12.366,12.366,0,0,1-.127,1.363q-.082.546-.214,1.083-.044.179-.093.356M33.977,17.5a16.775,16.775,0,0,1-.1,1.784l-1.795-.19-1.455-.153c.007-.065.013-.13.02-.194l0-.048q.008-.088.015-.176l.005-.067q.006-.091.012-.183c0-.013,0-.027,0-.04,0-.073.007-.147.01-.22l0-.058c0-.057,0-.113,0-.17,0-.021,0-.043,0-.064,0-.074,0-.147,0-.221q0-.136,0-.272c0-.03,0-.06,0-.09,0-.061,0-.122-.006-.182,0-.035,0-.071,0-.106,0-.055-.006-.111-.009-.166,0-.037,0-.074-.007-.112q-.005-.08-.012-.159c0-.038-.006-.076-.01-.114s-.01-.105-.015-.158-.008-.075-.012-.113q-.009-.08-.019-.16c0-.036-.009-.072-.013-.108-.007-.057-.016-.114-.024-.171,0-.032-.009-.065-.014-.1-.011-.072-.023-.143-.035-.214,0-.017-.006-.035-.009-.052q-.023-.132-.049-.264c-.005-.027-.011-.054-.017-.081-.012-.061-.025-.122-.038-.183l-.023-.1c-.012-.054-.024-.107-.037-.161-.009-.036-.018-.073-.026-.109s-.026-.1-.039-.153l-.029-.111-.042-.151-.032-.11c-.015-.051-.03-.1-.046-.153l-.033-.106-.012-.04.051-.02,2.985-1.214a16.431,16.431,0,0,1,.849,5.233m.1-5.619.007,0-.172-.462v0l-.184-.495-.008,0A17.541,17.541,0,0,0,27.452,3.1l0-.007-.421-.274h0L26.6,2.54l0,.007A17.42,17.42,0,0,0,18.012.008V0H16.988V.008a17.535,17.535,0,0,0-7.4,1.878l0-.007-.457.249h0l-.44.24,0,.007A17.622,17.622,0,0,0,3.043,7.636l-.007,0-.282.44,0,0-.269.419.006,0a17.5,17.5,0,0,0-2.4,7.221H.082l-.038.528v0L.01,16.74H.017c-.011.254-.017.508-.017.76a17.378,17.378,0,0,0,1.292,6.61l-.008,0L1.5,24.6h0l.2.453.007,0a17.56,17.56,0,0,0,6.344,7.185l0,.007.444.267h0l.431.259,0-.007a17.473,17.473,0,0,0,8.061,2.233V35h1.024v-.007a17.276,17.276,0,0,0,6.921-1.645l0,.006.45-.227h0l.461-.233,0-.007A17.655,17.655,0,0,0,31.4,28.129l.006,0,.291-.4h0l.308-.427L32,27.3a17.509,17.509,0,0,0,2.758-6.892h.007l.068-.491h0l.072-.522H34.9A17.776,17.776,0,0,0,35,17.5a17.45,17.45,0,0,0-.923-5.619" fill="#fff"/><path d="M52.782,44.86a9.436,9.436,0,0,1-18.767-1.409c0-.184.006-.371.017-.57a9.435,9.435,0,0,1,18.854.57,9.569,9.569,0,0,1-.1,1.409M49.2,34.715a10.465,10.465,0,0,0-10.8-.424,10.457,10.457,0,0,0-5.39,8.529c-.013.217-.02.429-.02.631a10.462,10.462,0,0,0,15.123,9.363,10.45,10.45,0,0,0,5.8-9.363,10.426,10.426,0,0,0-.613-3.534,10.544,10.544,0,0,0-4.094-5.2" transform="translate(-25.951 -25.951)" fill="#fff"/><path d="M58.64,50.739a.594.594,0,0,1-.577-.456.508.508,0,0,0,.053-.417.593.593,0,1,1,.524.872m-6.527,1.719H52.09A2.4,2.4,0,0,1,49.7,50.1v-.007c0-.009,0-.019,0-.028a2.4,2.4,0,0,1,2.366-2.394h.028a2.4,2.4,0,0,1,2.394,2.379v0h0v.016a2.4,2.4,0,0,1-2.372,2.392m.018,5.24a.594.594,0,1,1,.594-.594.594.594,0,0,1-.594.594M45.09,50.739a.594.594,0,1,1,.594-.594.594.594,0,0,1-.594.594m6.918-8.105a.594.594,0,1,1-.594.594.594.594,0,0,1,.594-.594m6.632,5.895a1.619,1.619,0,0,0-1.487.981l-1.688.018a3.432,3.432,0,0,0-2.9-2.849l-.02-1.926a1.617,1.617,0,1,0-1.023.015l.02,1.921A3.419,3.419,0,0,0,48.7,49.6l-2.085.022a1.617,1.617,0,1,0,.009,1.023l2.09-.022a3.42,3.42,0,0,0,2.894,2.826l.022,2.118a1.617,1.617,0,1,0,1.024.01l-.023-2.137a3.421,3.421,0,0,0,2.839-2.888l1.6-.017a1.617,1.617,0,1,0,1.569-2.006" transform="translate(-34.195 -32.73)" fill="#fff"/></g></svg>