<svg xmlns="http://www.w3.org/2000/svg" xmlns:xlink="http://www.w3.org/1999/xlink" width="190" height="190" viewBox="0 0 190 190"><defs><clipPath id="a"><rect width="110.863" height="102.943" fill="none"/></clipPath></defs><g transform="translate(-390 -631)"><circle cx="95" cy="95" r="95" transform="translate(390 631)" fill="#fff"/><g transform="translate(429.137 674.271)"><rect width="94.222" height="13.816" transform="translate(0 0)" fill="#242d3c"/><rect width="94.222" height="80.403" transform="translate(0 13.817)" fill="#d9d8d7"/><rect width="85.01" height="71.191" transform="translate(4.605 18.426)" fill="#fff"/><rect width="43.554" height="4.605" transform="translate(34.544 4.607)" fill="#fff"/><rect width="4.607" height="4.605" transform="translate(6.907 4.607)" fill="#fff"/><rect width="4.605" height="4.605" transform="translate(16.123 4.607)" fill="#fff"/><rect width="4.607" height="4.605" transform="translate(25.335 4.607)" fill="#fff"/><rect width="9.212" height="4.605" transform="translate(78.099 4.607)" fill="#f15424"/><rect width="71.213" height="2.497" transform="translate(11.503 70.238)" fill="#f15424"/><rect width="71.213" height="2.493" transform="translate(11.503 65.254)" fill="#f15424"/><rect width="71.213" height="2.497" transform="translate(11.503 60.259)" fill="#f15424"/><rect width="71.213" height="2.497" transform="translate(11.503 75.231)" fill="#f15424"/><rect width="71.213" height="2.497" transform="translate(11.503 80.219)" fill="#f15424"/><rect width="71.213" height="32.441" transform="translate(11.503 25.322)" fill="#f15424"/><path d="M40.6,17.154H35.621l-1.466,7.271h7.9Z" transform="translate(39.893 20.035)" fill="#3e4959"/><path d="M31.712,18.613,27.4,21.091l2.37,7.024L36.6,24.172Z" transform="translate(32.007 21.739)" fill="#3e4959"/><path d="M24.755,23.751l-2.48,4.282,5.55,4.91,3.939-6.84Z" transform="translate(26.016 27.74)" fill="#3e4959"/><path d="M20.815,31.958l.011,5,7.25,1.45V30.492Z" transform="translate(24.312 35.613)" fill="#3e4959"/><path d="M22.275,41.546l2.48,4.295,7.009-2.365-3.939-6.827Z" transform="translate(26.017 42.803)" fill="#3e4959"/><path d="M27.4,48.659l4.308,2.48L36.6,45.571l-6.825-3.931Z" transform="translate(32.007 48.634)" fill="#3e4959"/><path d="M34.156,44.128,35.621,51.4H40.6l1.463-7.276Z" transform="translate(39.893 51.54)" fill="#3e4959"/><path d="M45.2,51.138l4.295-2.48-2.367-7.018-6.823,3.933Z" transform="translate(47.079 48.634)" fill="#3e4959"/><path d="M52.314,45.841l2.476-4.295-5.55-4.9L45.3,43.473Z" transform="translate(52.912 42.804)" fill="#3e4959"/><path d="M47.784,38.4l7.269-1.453V31.957l-7.269-1.466Z" transform="translate(55.809 35.613)" fill="#3e4959"/><path d="M54.79,28.032l-2.476-4.282L45.3,26.1l3.937,6.842Z" transform="translate(52.912 27.739)" fill="#3e4959"/><path d="M49.5,21.092l-4.3-2.478-4.887,5.559,6.82,3.941Z" transform="translate(47.079 21.74)" fill="#3e4959"/><g transform="translate(0 0)"><g clip-path="url(#a)"><path d="M49.92,20.369a25.9,25.9,0,1,0,25.937,25.9,25.908,25.908,0,0,0-25.937-25.9" transform="translate(28.066 23.789)" fill="#242d3c"/><path d="M66.986,43.17A20.149,20.149,0,1,1,46.837,23.023,20.151,20.151,0,0,1,66.986,43.17" transform="translate(31.171 26.889)" fill="#fff"/><path d="M35.982,23.023V43.17H56.131A20.148,20.148,0,0,0,35.982,23.023" transform="translate(42.026 26.889)" fill="#361d90"/><rect width="1.004" height="2.018" transform="translate(77.507 51.626)" fill="#242d3c"/><rect width="1.008" height="2.016" transform="translate(74.308 51.993) rotate(-10.03)" fill="#242d3c"/><rect width="1.009" height="2.016" transform="matrix(0.939, -0.344, 0.344, 0.939, 71.226, 52.912)" fill="#242d3c"/><rect width="1.011" height="2.015" transform="matrix(0.866, -0.501, 0.501, 0.866, 68.35, 54.348)" fill="#242d3c"/><path d="M31.632,27.844l-1.3-1.544.774-.646,1.3,1.541Z" transform="translate(35.431 29.962)" fill="#242d3c"/><rect width="1.007" height="2.015" transform="matrix(0.644, -0.765, 0.765, 0.644, 63.561, 58.595)" fill="#242d3c"/><rect width="1.008" height="2.014" transform="matrix(0.5, -0.866, 0.866, 0.5, 61.788, 61.281)" fill="#242d3c"/><rect width="1.008" height="2.015" transform="translate(60.509 64.23) rotate(-70.064)" fill="#242d3c"/><rect width="1.007" height="2.016" transform="translate(59.761 67.354) rotate(-79.899)" fill="#242d3c"/><rect width="2.021" height="1.007" transform="translate(59.567 69.559)" fill="#242d3c"/><path d="M27.74,34.746l-.173-.993,1.986-.349.173.993Z" transform="translate(32.196 39.014)" fill="#242d3c"/><rect width="2.018" height="1.01" transform="translate(60.509 75.892) rotate(-19.91)" fill="#242d3c"/><path d="M29.008,37.783l-.507-.869,1.745-1.01.5.874Z" transform="translate(33.287 41.933)" fill="#242d3c"/><path d="M29.966,39.074l-.648-.77,1.544-1.3.65.772Z" transform="translate(34.242 43.223)" fill="#242d3c"/><rect width="2.016" height="1.011" transform="translate(65.766 83.857) rotate(-49.879)" fill="#242d3c"/><path d="M32.4,41.01l-.876-.5,1.008-1.747.876.5Z" transform="translate(36.823 45.271)" fill="#242d3c"/><rect width="2.016" height="1.006" transform="translate(71.232 87.22) rotate(-70.28)" fill="#242d3c"/><path d="M35.27,41.9l-1-.178.351-1.984.991.178Z" transform="translate(40.032 46.41)" fill="#242d3c"/><path d="M36.756,41.908l-1.006,0,0-2.014h1.006Z" transform="translate(41.754 46.592)" fill="#242d3c"/><rect width="1.009" height="2.015" transform="translate(80.363 86.322) rotate(-10.03)" fill="#242d3c"/><path d="M39.041,41.593,38.356,39.7l.943-.345.687,1.9Z" transform="translate(44.798 45.965)" fill="#242d3c"/><rect width="1.003" height="2.015" transform="translate(85.785 84.534) rotate(-29.928)" fill="#242d3c"/><rect width="1.01" height="2.017" transform="translate(88.174 82.964) rotate(-39.987)" fill="#242d3c"/><path d="M43.179,39.076l-1.544-1.3.646-.772,1.544,1.3Z" transform="translate(48.629 43.223)" fill="#242d3c"/><rect width="1.005" height="2.016" transform="matrix(0.5, -0.866, 0.866, 0.5, 91.976, 78.708)" fill="#242d3c"/><rect width="1.008" height="2.015" transform="matrix(0.344, -0.939, 0.939, 0.344, 93.267, 76.149)" fill="#242d3c"/><path d="M45.386,34.746,43.4,34.4l.178-.991,1.986.351Z" transform="translate(50.69 39.014)" fill="#242d3c"/><rect width="2.018" height="1.008" transform="translate(94.428 69.557)" fill="#242d3c"/><rect width="2.017" height="1.009" transform="translate(94.091 66.715) rotate(-10.129)" fill="#242d3c"/><path d="M43.362,30.826l-.34-.945,1.893-.692.34.95Z" transform="translate(50.248 34.091)" fill="#242d3c"/><rect width="2.015" height="1.007" transform="translate(91.977 61.411) rotate(-29.838)" fill="#242d3c"/><rect width="2.016" height="1.008" transform="translate(90.262 59.117) rotate(-39.948)" fill="#242d3c"/><rect width="2.016" height="1.01" transform="matrix(0.645, -0.764, 0.764, 0.645, 88.171, 57.153)" fill="#242d3c"/><rect width="2.015" height="1.003" transform="matrix(0.501, -0.866, 0.866, 0.501, 85.783, 55.588)" fill="#242d3c"/><path d="M39.3,26.486l-.945-.347.692-1.893.941.347Z" transform="translate(44.796 28.318)" fill="#242d3c"/><rect width="2.017" height="1.008" transform="matrix(0.171, -0.985, 0.985, 0.171, 80.363, 53.805)" fill="#242d3c"/><path d="M39.7,33.617A2.416,2.416,0,1,1,37.286,31.2,2.415,2.415,0,0,1,39.7,33.617" transform="translate(40.723 36.442)" fill="#fff"/><path d="M37.72,37.276a3.223,3.223,0,1,1,3.226-3.226,3.232,3.232,0,0,1-3.226,3.226m0-4.839a1.614,1.614,0,1,0,1.613,1.613,1.618,1.618,0,0,0-1.613-1.613" transform="translate(40.288 36.009)" fill="#242d3c"/><rect width="2.825" height="1.613" transform="translate(72.765 69.256)" fill="#242d3c"/><rect width="9.275" height="1.613" transform="translate(80.423 69.256)" fill="#242d3c"/><path d="M37.72,41.808a3.223,3.223,0,1,1,3.226-3.226,3.231,3.231,0,0,1-3.226,3.226m0-4.837a1.612,1.612,0,1,0,1.613,1.611,1.616,1.616,0,0,0-1.613-1.611" transform="translate(40.288 41.302)" fill="#d9d8d7"/></g></g></g></g></svg>