<svg xmlns="http://www.w3.org/2000/svg" xmlns:xlink="http://www.w3.org/1999/xlink" width="190" height="190" viewBox="0 0 190 190"><defs><clipPath id="a"><rect width="150.833" height="95.472" fill="none"/></clipPath><clipPath id="b"><path d="M24.312,33.45A16.746,16.746,0,1,0,41.058,16.7,16.751,16.751,0,0,0,24.312,33.45" transform="translate(-24.312 -16.704)" fill="none"/></clipPath></defs><g transform="translate(-1020 -631)"><circle cx="95" cy="95" r="95" transform="translate(1020 631)" fill="#fff"/><g transform="translate(1039.833 678.045)"><rect width="18.841" height="18.841" transform="translate(131.993 51.322)" fill="#cccbca"/><rect width="2.51" height="2.51" transform="translate(119.434 59.491)" fill="#242d3c"/><rect width="2.512" height="2.51" transform="translate(124.458 59.491)" fill="#242d3c"/><rect width="2.512" height="2.51" transform="translate(129.48 59.491)" fill="#242d3c"/><rect width="18.841" height="18.841" transform="translate(0 51.322)" fill="#cccbca"/><rect width="2.512" height="2.51" transform="translate(18.841 59.491)" fill="#242d3c"/><rect width="2.512" height="2.51" transform="translate(23.865 59.491)" fill="#242d3c"/><rect width="2.51" height="2.51" transform="translate(28.89 59.491)" fill="#242d3c"/><rect width="18.841" height="18.841" transform="translate(65.995 0)" fill="#cccbca"/><rect width="2.51" height="2.512" transform="translate(74.162 18.84)" fill="#242d3c"/><rect width="2.51" height="2.512" transform="translate(74.162 23.865)" fill="#242d3c"/><rect width="2.51" height="2.512" transform="translate(74.162 28.89)" fill="#242d3c"/><rect width="2.51" height="2.512" transform="translate(106.836 18.84)" fill="#242d3c"/><rect width="2.51" height="2.512" transform="translate(106.836 23.865)" fill="#242d3c"/><rect width="2.51" height="2.512" transform="translate(106.836 28.89)" fill="#242d3c"/><rect width="2.512" height="2.512" transform="translate(116.883 18.84)" fill="#242d3c"/><rect width="2.515" height="2.512" transform="translate(111.858 18.84)" fill="#242d3c"/><rect width="2.51" height="2.512" transform="translate(106.836 18.84)" fill="#242d3c"/><g transform="translate(0 0.002)"><g clip-path="url(#a)"><path d="M68.276,13.843A9.419,9.419,0,1,1,58.86,4.424a9.417,9.417,0,0,1,9.417,9.419" transform="translate(69.872 6.251)" fill="#f15424"/><rect width="2.512" height="2.512" transform="translate(41.488 18.839)" fill="#242d3c"/><rect width="2.512" height="2.512" transform="translate(41.488 23.863)" fill="#242d3c"/><rect width="2.512" height="2.512" transform="translate(41.488 28.888)" fill="#242d3c"/><rect width="2.512" height="2.512" transform="translate(31.439 18.839)" fill="#242d3c"/><rect width="2.512" height="2.512" transform="translate(36.463 18.839)" fill="#242d3c"/><rect width="2.512" height="2.512" transform="translate(41.488 18.839)" fill="#242d3c"/><path d="M5.256,13.843a9.42,9.42,0,1,0,9.419-9.419,9.418,9.418,0,0,0-9.419,9.419" transform="translate(7.428 6.251)" fill="#f15424"/><path d="M13.011,71.7V15.944a2.946,2.946,0,0,1,2.937-2.932H98.112a2.933,2.933,0,0,1,2.935,2.932V71.7Z" transform="translate(18.389 18.389)" fill="#242d3c"/><rect width="78.25" height="48.906" transform="translate(36.289 36.289)" fill="#fff"/><path d="M33.194,14.74a1.225,1.225,0,1,1-1.228-1.221,1.229,1.229,0,0,1,1.228,1.221" transform="translate(43.452 19.106)" fill="#3e4959"/><path d="M32.029,14.309a.492.492,0,0,1-.495.487.486.486,0,1,1,.495-.487" transform="translate(43.883 19.537)" fill="#fff"/><rect width="107.594" height="1.96" transform="translate(21.621 90.09)" fill="#e6e5e5"/><path d="M116.553,38.143a3.436,3.436,0,0,1-3.429,3.422H12.379a3.419,3.419,0,0,1-3.42-3.422Z" transform="translate(12.662 53.908)" fill="#cccbca"/><rect width="19.56" height="0.98" transform="translate(65.638 90.09)" fill="#cccbca"/><path d="M44.468,36.329l-3.379-8.372,8.372,3.379L46.2,33.066Z" transform="translate(58.073 39.511)" fill="#242d3c"/><rect width="1.334" height="3.943" transform="translate(103.473 72.725) rotate(-45.073)" fill="#242d3c"/><rect width="7.537" height="1.46" transform="translate(95.812 40.308)" fill="#242d3c"/><rect width="15.071" height="1.455" transform="translate(95.812 43.223)" fill="#242d3c"/><rect width="15.071" height="1.458" transform="translate(95.812 46.133)" fill="#242d3c"/><rect width="15.071" height="1.458" transform="translate(95.812 49.046)" fill="#242d3c"/><path d="M57.8,33.45A16.746,16.746,0,1,1,41.06,16.7,16.748,16.748,0,0,1,57.8,33.45" transform="translate(34.36 23.607)" fill="#16c6cc"/></g></g><g transform="translate(58.673 40.313)"><g clip-path="url(#b)"><path d="M39.782,21.234H29.535l-.7,14.9H40.487Z" transform="translate(-17.915 -10.301)" fill="#242d3c"/><path d="M27.415,34.177l-.022.077-.7,2.223h0l-.917,2.9H52.213l-.917-2.9-1.009-3.186a3.743,3.743,0,0,0-2.165-2.343l-5.295-2.1a1.531,1.531,0,0,1-.681-.55,1.468,1.468,0,0,1-.256-.833v-2.58H36.1v2.58a1.47,1.47,0,0,1-.258.833,1.506,1.506,0,0,1-.676.55l-5.3,2.1a3.767,3.767,0,0,0-2.17,2.343Z" transform="translate(-22.249 -5.14)" fill="#f2f2f2"/><path d="M34.429,19.453c-3.171,0-5.425,2.31-5.425,7.2,0,4.139,2.425,7.629,5.425,7.629s5.425-3.49,5.425-7.629c0-4.892-2.261-7.2-5.425-7.2" transform="translate(-17.681 -12.819)" fill="#f2f2f2"/><path d="M39.12,19.564H29.385s-.69,4.858.191,5.852c.036-.4.4-.516,1.04-.519a5.494,5.494,0,0,0,.934-2.273,7.281,7.281,0,0,1,.162,2.319c.693.048,1.54.121,2.544.125.256,0,.5-.007.726-.012a1.1,1.1,0,0,0,.425-.618,1.208,1.208,0,0,1,.212.586c2.078-.113,3.241-.357,3.306.391.891-.994.2-5.852.2-5.852" transform="translate(-17.506 -12.662)" fill="#242d3c"/><path d="M31.773,37.633a1.506,1.506,0,0,0,.676-.55,1.489,1.489,0,0,0,.258-.833v-1.1H31.075a33.515,33.515,0,0,1-.328-4.491c0-4.247.292-5.838,1.467-7.274a6.555,6.555,0,0,1,3.391-2.228,6.55,6.55,0,0,1,3.383,2.228c1.18,1.436,1.465,3.026,1.465,7.274a32.748,32.748,0,0,1-.331,4.491H38.5v1.1a1.483,1.483,0,0,0,.253.833,1.55,1.55,0,0,0,.683.55l3.031,1.2a2.552,2.552,0,0,0,.562-1.593V35.152a58.52,58.52,0,0,0-.849-11.459c-.649-2.874-3.106-5.65-6.574-4.9-3.473-.751-5.925,2.025-6.581,4.9a58.151,58.151,0,0,0-.852,11.459v2.092a2.52,2.52,0,0,0,.572,1.593Z" transform="translate(-18.857 -13.925)" fill="#242d3c"/><path d="M27.675,36.545H44.93a16.678,16.678,0,0,1-1.306-6.772,19.6,19.6,0,0,1,.14-2.319h0l-1.417-.562-.613,2.452a5.544,5.544,0,0,1-1.979,3.063,5.778,5.778,0,0,1-6.9,0,5.575,5.575,0,0,1-1.974-3.063l-.611-2.452-1.414.562h-.012a20.13,20.13,0,0,1,.138,2.319,16.68,16.68,0,0,1-1.3,6.772" transform="translate(-19.559 -2.305)" fill="#242d3c"/></g></g><g transform="translate(0 0.002)"><g clip-path="url(#a)"><rect width="11.338" height="3.35" transform="translate(61.813 77.825)" fill="#242d3c"/><rect width="11.338" height="3.35" transform="translate(77.688 77.825)" fill="#f15424"/><rect width="15.071" height="1.458" transform="translate(39.946 57.773)" fill="#242d3c"/><rect width="15.071" height="1.458" transform="translate(39.946 54.862)" fill="#242d3c"/><rect width="15.071" height="1.453" transform="translate(39.946 51.959)" fill="#242d3c"/><rect width="15.071" height="1.455" transform="translate(39.946 60.691)" fill="#242d3c"/><rect width="15.071" height="1.458" transform="translate(39.946 63.601)" fill="#242d3c"/><rect width="7.534" height="1.458" transform="translate(39.946 66.509)" fill="#242d3c"/><rect width="15.071" height="7.283" transform="translate(39.946 40.31)" fill="#f15424"/></g></g></g></g></svg>