<svg xmlns="http://www.w3.org/2000/svg" xmlns:xlink="http://www.w3.org/1999/xlink" width="113.456" height="137.032" viewBox="0 0 113.456 137.032"><defs><clipPath id="a"><rect width="113.455" height="137.032" fill="#361d90"/></clipPath></defs><g transform="translate(0 0)" clip-path="url(#a)"><path d="M34.909,31.76a87.393,87.393,0,0,1-33.72-6.692,1.653,1.653,0,1,1,1.266-3.053,85.055,85.055,0,0,0,41.892,5.926A1.675,1.675,0,0,1,46.168,29.4,1.653,1.653,0,0,1,44.7,31.223a89.581,89.581,0,0,1-9.794.537" transform="translate(0.471 60.314)" fill="#361d90"/><path d="M54.923,121.841H15.814a12.034,12.034,0,0,1-11.747-10.8L.781,72.7C.353,67.523,0,59.118,0,53.962V16.49A10.982,10.982,0,0,1,10.958,5.513H59.786A10.994,10.994,0,0,1,70.767,16.49v6.121a1.651,1.651,0,1,1-3.3,0V16.49a7.683,7.683,0,0,0-7.68-7.672H10.958A7.673,7.673,0,0,0,3.3,16.49V53.962c0,5.077.349,13.358.774,18.458l3.286,38.339a8.659,8.659,0,0,0,8.453,7.778H54.923a8.661,8.661,0,0,0,8.476-7.774L65.645,84.6a1.637,1.637,0,0,1,1.784-1.506,1.659,1.659,0,0,1,1.51,1.788l-2.246,26.16a12.028,12.028,0,0,1-11.77,10.8" transform="translate(0 15.19)" fill="#361d90"/><path d="M28.927,21.607a1.646,1.646,0,0,1-1.649-1.649v-1A7.672,7.672,0,0,0,19.614,11.3a1.651,1.651,0,0,1,0-3.3A10.975,10.975,0,0,1,30.576,18.959v1a1.646,1.646,0,0,1-1.649,1.649" transform="translate(49.501 22.034)" fill="#361d90"/><path d="M22.088,43.753H18.719a1.651,1.651,0,1,1,0-3.3h3.369a7.673,7.673,0,0,0,7.661-7.669V29.156a1.651,1.651,0,0,1,3.3,0v3.628a10.981,10.981,0,0,1-10.962,10.97" transform="translate(47.027 75.793)" fill="#361d90"/><path d="M15.416,18.146a1.649,1.649,0,0,1-1.649-1.652V6.519a6.518,6.518,0,1,1,13.035,0V9.655a1.649,1.649,0,0,1-1.649,1.652H21.169a1.651,1.651,0,0,1,0-3.3H23.5V6.519a3.218,3.218,0,1,0-6.437,0v9.974a1.649,1.649,0,0,1-1.649,1.652" transform="translate(37.934 -0.001)" fill="#361d90"/><path d="M5.844,18.146a1.649,1.649,0,0,1-1.649-1.652V6.519A6.533,6.533,0,0,1,10.726,0H46.658a1.651,1.651,0,1,1,0,3.3H10.726A3.23,3.23,0,0,0,7.492,6.519v9.974a1.649,1.649,0,0,1-1.649,1.652" transform="translate(11.559 -0.001)" fill="#361d90"/><path d="M18.482,5.214H7.577a1.651,1.651,0,0,1,0-3.3H18.482a1.651,1.651,0,0,1,0,3.3" transform="translate(16.334 5.27)" fill="#361d90"/><path d="M25.933,6.931H7.577a1.651,1.651,0,0,1,0-3.3H25.933a1.651,1.651,0,0,1,0,3.3" transform="translate(16.334 10.001)" fill="#361d90"/><path d="M15.214,36.067c-.053,0-.109,0-.161-.008-3.47-.349-7-.883-10.5-1.581A1.649,1.649,0,0,1,3.223,32.86V26.585a1.646,1.646,0,0,1,1.972-1.619c3.391.676,6.82,1.194,10.188,1.532a1.653,1.653,0,0,1,1.483,1.645v6.272a1.649,1.649,0,0,1-1.652,1.652M6.524,31.5c2.347.439,4.706.8,7.041,1.078V29.623c-2.336-.27-4.694-.62-7.041-1.044Z" transform="translate(8.881 68.701)" fill="#361d90"/><path d="M14.466,35.169q-2.648,0-5.306-.131a1.651,1.651,0,0,1-1.57-1.649V27.124A1.644,1.644,0,0,1,8.1,25.93a1.67,1.67,0,0,1,1.217-.458q5.166.242,10.282,0a1.683,1.683,0,0,1,1.221.458,1.655,1.655,0,0,1,.507,1.194v6.264a1.648,1.648,0,0,1-1.57,1.649q-2.636.13-5.291.131M10.891,31.8q3.588.118,7.135,0V28.841q-3.549.113-7.135,0Z" transform="translate(20.914 70.181)" fill="#361d90"/><path d="M13.636,36.07a1.673,1.673,0,0,1-1.112-.428,1.65,1.65,0,0,1-.541-1.228c.008-2.088.008-4.172,0-6.264A1.651,1.651,0,0,1,13.467,26.5c3.406-.345,6.831-.86,10.192-1.536a1.655,1.655,0,0,1,1.972,1.622v6.272A1.649,1.649,0,0,1,24.3,34.478c-3.466.7-7,1.228-10.5,1.581a1.264,1.264,0,0,1-.165.011m1.652-6.444c0,.984,0,1.964,0,2.948C17.64,32.3,20,31.936,22.33,31.5V28.582c-2.332.424-4.687.774-7.041,1.044" transform="translate(33.021 68.701)" fill="#361d90"/><path d="M15.214,39.342c-.053,0-.113,0-.165-.008-3.511-.361-7.041-.894-10.5-1.585a1.649,1.649,0,0,1-1.329-1.619V29.863a1.646,1.646,0,0,1,1.972-1.619c3.4.668,6.835,1.183,10.188,1.532a1.649,1.649,0,0,1,1.483,1.641V37.69a1.655,1.655,0,0,1-1.652,1.652m-8.69-4.574c2.328.436,4.683.8,7.041,1.078V32.9c-2.332-.27-4.687-.62-7.041-1.044Z" transform="translate(8.881 77.736)" fill="#361d90"/><path d="M14.466,38.442c-1.765,0-3.526-.038-5.3-.116A1.652,1.652,0,0,1,7.59,36.677V30.4a1.65,1.65,0,0,1,1.727-1.649q5.16.242,10.282,0a1.733,1.733,0,0,1,1.221.454,1.662,1.662,0,0,1,.507,1.194v6.279a1.649,1.649,0,0,1-1.577,1.649q-2.636.118-5.284.116m-3.575-3.357q3.588.113,7.135,0V32.118q-3.549.113-7.135,0Z" transform="translate(20.914 79.211)" fill="#361d90"/><path d="M13.636,39.342a1.655,1.655,0,0,1-1.652-1.656q.011-3.138,0-6.26a1.651,1.651,0,0,1,1.483-1.649c3.391-.353,6.824-.868,10.192-1.532a1.646,1.646,0,0,1,1.972,1.619v6.268A1.649,1.649,0,0,1,24.3,37.75c-3.421.687-6.951,1.221-10.5,1.585-.053,0-.113.008-.165.008M15.289,32.9c0,.984,0,1.964,0,2.948,2.373-.282,4.732-.642,7.041-1.078v-2.91c-2.34.417-4.694.766-7.041,1.04" transform="translate(33.021 77.736)" fill="#361d90"/><path d="M15.214,42.625c-.053,0-.113,0-.165-.008-3.41-.349-6.94-.886-10.493-1.585a1.656,1.656,0,0,1-1.333-1.622V33.139a1.651,1.651,0,0,1,1.972-1.619c3.44.683,6.869,1.2,10.185,1.532a1.65,1.65,0,0,1,1.487,1.641v6.279a1.655,1.655,0,0,1-1.652,1.652m-8.69-4.578c2.377.439,4.736.8,7.041,1.082V36.177c-2.313-.267-4.672-.616-7.041-1.044Z" transform="translate(8.881 86.759)" fill="#361d90"/><path d="M14.466,41.72c-1.765,0-3.526-.038-5.3-.12A1.649,1.649,0,0,1,7.59,39.951V33.676a1.65,1.65,0,0,1,1.727-1.649q5.16.248,10.282,0a1.716,1.716,0,0,1,1.221.454,1.662,1.662,0,0,1,.507,1.194v6.275A1.647,1.647,0,0,1,19.75,41.6q-2.636.124-5.284.12m-3.575-3.357q3.588.113,7.135,0V35.4q-3.549.113-7.135,0Z" transform="translate(20.914 88.24)" fill="#361d90"/><path d="M13.636,42.623a1.649,1.649,0,0,1-1.652-1.656q.011-3.121,0-6.268a1.649,1.649,0,0,1,1.487-1.649c3.354-.338,6.779-.852,10.188-1.532a1.678,1.678,0,0,1,1.371.345,1.646,1.646,0,0,1,.6,1.273v6.272A1.657,1.657,0,0,1,24.3,41.031c-3.523.7-7.056,1.232-10.5,1.585-.053,0-.113.008-.165.008m1.652-6.448c0,.988,0,1.968,0,2.952,2.325-.282,4.683-.642,7.041-1.082v-2.91c-2.355.424-4.709.774-7.041,1.04" transform="translate(33.021 86.761)" fill="#361d90"/><path d="M19.274,59.753H6.509A4.632,4.632,0,0,1,1.875,55.13V12.018A4.633,4.633,0,0,1,6.509,7.391H53.925a4.632,4.632,0,0,1,4.63,4.627v2.246a1.651,1.651,0,0,1-3.3,0V12.018a1.329,1.329,0,0,0-1.329-1.326H6.509a1.329,1.329,0,0,0-1.333,1.326V55.13a1.329,1.329,0,0,0,1.333,1.322H19.274a1.651,1.651,0,0,1,0,3.3" transform="translate(5.166 20.364)" fill="#361d90"/><path d="M71.971,82.4a5.568,5.568,0,0,1-2.31-.5L10.5,55.261A5.657,5.657,0,0,1,7.67,47.777L23.725,12.089a5.8,5.8,0,0,1,7.5-2.839L90.365,35.872a5.687,5.687,0,0,1,2.854,7.5L77.15,79.059A5.682,5.682,0,0,1,71.971,82.4M28.907,12.051a2.373,2.373,0,0,0-2.167,1.393L10.679,49.132a2.363,2.363,0,0,0,1.168,3.117L71.017,78.887A2.409,2.409,0,0,0,74.134,77.7L90.2,42.016a2.373,2.373,0,0,0-1.194-3.132L29.865,12.258a2.336,2.336,0,0,0-.958-.207" transform="translate(19.74 24.184)" fill="#361d90"/><path d="M21.469,26.583a1.619,1.619,0,0,1-.676-.143l-8.637-3.868a1.653,1.653,0,0,1-.826-2.189L14.184,14.1a1.654,1.654,0,0,1,2.182-.822l8.592,3.883a1.652,1.652,0,0,1,.826,2.178L22.975,25.61a1.668,1.668,0,0,1-.92.868,1.649,1.649,0,0,1-.586.105m-6.448-6.347,5.614,2.516L22.1,19.489l-5.592-2.527Z" transform="translate(30.814 36.169)" fill="#361d90"/><path d="M21.53,23.69a1.674,1.674,0,0,1-.68-.143L11.53,19.356a1.653,1.653,0,0,1,1.356-3.016l9.325,4.191a1.652,1.652,0,0,1-.68,3.158" transform="translate(29.085 44.631)" fill="#361d90"/><path d="M25.44,25.47a1.619,1.619,0,0,1-.68-.146l-9.31-4.206a1.65,1.65,0,0,1,1.356-3.008l9.313,4.206a1.651,1.651,0,0,1-.68,3.155" transform="translate(39.886 49.491)" fill="#361d90"/><path d="M29.355,27.22a1.623,1.623,0,0,1-.683-.146l-9.3-4.187a1.651,1.651,0,0,1,1.356-3.012l9.306,4.191a1.651,1.651,0,0,1-.68,3.155" transform="translate(50.696 54.362)" fill="#361d90"/><path d="M33.292,28.986a1.674,1.674,0,0,1-.68-.143l-9.325-4.191a1.653,1.653,0,1,1,1.356-3.016l9.328,4.191a1.652,1.652,0,0,1-.68,3.158" transform="translate(61.484 59.224)" fill="#361d90"/><path d="M41.02,34.163a1.631,1.631,0,0,1-.68-.146L10.9,20.756a1.651,1.651,0,1,1,1.356-3.012L41.7,31.008a1.65,1.65,0,0,1-.68,3.155" transform="translate(27.348 48.493)" fill="#361d90"/></g></svg>