<svg xmlns="http://www.w3.org/2000/svg" xmlns:xlink="http://www.w3.org/1999/xlink" width="100.542" height="114.904" viewBox="0 0 100.542 114.904"><defs><clipPath id="a"><rect width="100.542" height="114.905" fill="#361d90"/></clipPath></defs><g clip-path="url(#a)"><path d="M79,55.658H64.633V50.271H79Zm17.955,5.386v48.474a1.8,1.8,0,0,1-1.8,1.795H5.386a1.8,1.8,0,0,1-1.8-1.795V61.044a1.8,1.8,0,0,1,1.8-1.8h7.181V66.43H8.977a1.794,1.794,0,0,0-1.8,1.795v7.181a1.794,1.794,0,0,0,1.8,1.795H41.293a1.794,1.794,0,0,0,1.8-1.795V68.225a1.794,1.794,0,0,0-1.8-1.795H37.7V59.248H95.155a1.8,1.8,0,0,1,1.8,1.8M5.386,43.091V39.5a3.59,3.59,0,1,1,7.181,0v3.592Zm25.134-7.182a3.6,3.6,0,0,1,3.592,3.59V66.43H16.158V39.5a7.134,7.134,0,0,0-.963-3.59ZM39.5,73.61H10.773V70.021H39.5ZM46.68,44.885V5.386a1.8,1.8,0,0,1,1.8-1.795h46.68a1.8,1.8,0,0,1,1.8,1.795v39.5a1.8,1.8,0,0,1-1.8,1.8H48.476a1.8,1.8,0,0,1-1.8-1.8m48.476,5.386a5.393,5.393,0,0,0,5.386-5.386V5.386A5.392,5.392,0,0,0,95.155,0H48.476a5.392,5.392,0,0,0-5.386,5.386v39.5a5.393,5.393,0,0,0,5.386,5.386H61.043v5.386H37.7V39.5a7.189,7.189,0,0,0-7.182-7.181H8.977A7.189,7.189,0,0,0,1.795,39.5v5.386a1.8,1.8,0,0,0,1.8,1.8h8.977v8.977H5.386A5.393,5.393,0,0,0,0,61.044v48.474A5.392,5.392,0,0,0,5.386,114.9H95.155a5.392,5.392,0,0,0,5.386-5.386V61.044a5.393,5.393,0,0,0-5.386-5.386H82.588V50.271Z" fill="#361d90"/><path d="M80.636,40.079h-39.5V7.762h39.5Zm3.59,1.8V5.968a1.8,1.8,0,0,0-1.8-1.8H39.342a1.794,1.794,0,0,0-1.795,1.8V41.875a1.794,1.794,0,0,0,1.795,1.8H82.431a1.8,1.8,0,0,0,1.8-1.8" transform="translate(10.929 1.214)" fill="#361d90"/><path d="M74.036,55.449V62.63H66.855V53.653h5.386a1.8,1.8,0,0,1,1.795,1.8M72.241,87.765H66.855V78.789h7.181V85.97a1.8,1.8,0,0,1-1.795,1.795M45.309,85.97V78.789h7.182v8.975H47.105a1.8,1.8,0,0,1-1.8-1.795m1.8-32.317h5.386V62.63H45.309V55.449a1.8,1.8,0,0,1,1.8-1.8m8.977,0h7.181V62.63H56.082ZM45.309,66.222h7.182V75.2H45.309ZM63.264,87.765H56.083V78.789h7.181Zm0-12.567H56.083V66.222h7.181Zm10.771,0H66.855V66.222h7.181ZM47.105,50.063a5.393,5.393,0,0,0-5.386,5.386V85.97a5.391,5.391,0,0,0,5.386,5.385H72.241a5.391,5.391,0,0,0,5.386-5.385V55.449a5.393,5.393,0,0,0-5.386-5.386Z" transform="translate(12.143 14.571)" fill="#361d90"/><path d="M29.08,82.327a1.8,1.8,0,0,1-1.8,1.795H16.511a1.8,1.8,0,0,1-1.795-1.795V67.964a1.8,1.8,0,0,1,1.795-1.8H27.284a1.8,1.8,0,0,1,1.8,1.8Zm-1.8-19.749H16.511a5.393,5.393,0,0,0-5.386,5.386V82.327a5.393,5.393,0,0,0,5.386,5.386H27.284a5.393,5.393,0,0,0,5.386-5.386V67.964a5.393,5.393,0,0,0-5.386-5.386" transform="translate(3.238 18.214)" fill="#361d90"/><path d="M24.274,70.922H17.093a1.8,1.8,0,1,0,0,3.59h7.181a1.8,1.8,0,1,0,0-3.59" transform="translate(4.452 20.643)" fill="#361d90"/><path d="M17.093,35.575h7.18a1.8,1.8,0,1,0,0-3.59h-7.18a1.8,1.8,0,1,0,0,3.59" transform="translate(4.452 9.31)" fill="#361d90"/><path d="M17.093,39.747h3.589a1.8,1.8,0,1,0,0-3.59H17.093a1.8,1.8,0,1,0,0,3.59" transform="translate(4.452 10.524)" fill="#361d90"/><path d="M17.093,43.918h7.18a1.8,1.8,0,1,0,0-3.59h-7.18a1.8,1.8,0,1,0,0,3.59" transform="translate(4.452 11.738)" fill="#361d90"/><path d="M17.093,49.481h7.18a1.8,1.8,0,1,0,0-3.59h-7.18a1.8,1.8,0,1,0,0,3.59" transform="translate(4.452 13.357)" fill="#361d90"/><path d="M53.249,26.07a1.79,1.79,0,0,0,1.269-.525L61.7,18.362a1.8,1.8,0,1,0-2.54-2.538L51.98,23a1.8,1.8,0,0,0,1.269,3.065" transform="translate(14.976 4.452)" fill="#361d90"/><path d="M53.249,18.882a1.789,1.789,0,0,0,1.274-3.052,1.859,1.859,0,0,0-2.549-.018,1.8,1.8,0,0,0,1.274,3.07" transform="translate(14.976 4.458)" fill="#361d90"/><path d="M57.536,21.375a1.877,1.877,0,0,0-.52,1.274,1.847,1.847,0,0,0,.52,1.276,1.8,1.8,0,1,0,0-2.55" transform="translate(16.595 6.076)" fill="#361d90"/><path d="M58.458,13.326A8.977,8.977,0,1,1,49.481,22.3a8.987,8.987,0,0,1,8.977-8.977m0,21.544A12.568,12.568,0,1,0,45.891,22.3,12.583,12.583,0,0,0,58.458,34.87" transform="translate(13.357 2.833)" fill="#361d90"/></g></svg>