<svg xmlns="http://www.w3.org/2000/svg" xmlns:xlink="http://www.w3.org/1999/xlink" width="131" height="131" viewBox="0 0 131 131"><defs><clipPath id="a"><rect width="46.183" height="69.408" fill="none"/></clipPath></defs><g transform="translate(-5070 8940)"><g transform="translate(5070 -8940)" fill="#fff" stroke="#9d39e3" stroke-width="4"><circle cx="65.5" cy="65.5" r="65.5" stroke="none"/><circle cx="65.5" cy="65.5" r="63.5" fill="none"/></g><g transform="translate(5112 -8909)"><g transform="translate(0 0)" clip-path="url(#a)"><path d="M11,21.887,9.353,22.95c-.1-.163-.206-.321-.31-.485C5.163,16.35,1.854,9.726,2.784,2.507A18.609,18.609,0,0,1,3.118.619C3.161.443,3.2.273,3.245.1L5.291,0C5.2.352,5.108.71,5.03,1.056,3.361,8.317,6.712,15.118,10.694,21.4c.1.163.207.321.31.485" transform="translate(-0.823 0)" fill="#5b595a"/><path d="M16.537,47.851,8.378,53.084,2.968,56.551l-.51-.8A15.529,15.529,0,0,1,7.144,34.306l1.386-.887,6.186,9.648a2.039,2.039,0,0,0,.091,2.089Z" transform="translate(0 -10.47)" fill="#666766"/><path d="M38.7,83.31l-2.119,1.36A15.524,15.524,0,0,1,18.333,83.6a14.854,14.854,0,0,1-2.1-2.1,15.022,15.022,0,0,1-1.1-1.505L5.692,65.278l13.569-8.706.887,1.384a2.076,2.076,0,0,0,1.257.9,1.848,1.848,0,0,0,1.463-.237Z" transform="translate(-1.783 -17.724)" fill="#666766"/><path d="M40.392,72.742,38.273,74.1,25.852,54.728,22.44,49.415a1.849,1.849,0,0,1-1.463.238,2.079,2.079,0,0,1-1.257-.905l-.887-1.384L11,52.39,5.264,56.07l-.941-1.475,5.411-3.467,8.158-5.233-1.73-2.7a2.039,2.039,0,0,1-.091-2.089L9.885,31.463l.26-.164L11.8,30.236l.942-.607A15.542,15.542,0,0,1,31.88,31.5l.437.437a15.77,15.77,0,0,1,1.87,2.38l4.14,6.454.577.905,6.175,9.617a15.526,15.526,0,0,1-4.687,21.451" transform="translate(-1.354 -8.513)" fill="#5b595a"/><rect width="18.044" height="1.75" transform="translate(2.966 46.076) rotate(-32.661)" fill="#6b6b6b"/><rect width="18.043" height="1.749" transform="translate(18.157 36.341) rotate(-32.711)" fill="#434343"/><path d="M19.22,42.187h0l-6.068-9.459-.736.472L18.6,42.846a1.858,1.858,0,0,1,.617-.659" transform="translate(-3.89 -10.254)" fill="#6b6b6b"/><path d="M21.932,46.5a1.858,1.858,0,0,0-.617.659,2.048,2.048,0,0,0,.092,2.089L24.968,54.8a2.071,2.071,0,0,0,1.251.9,1.853,1.853,0,0,0,1.465-.232Z" transform="translate(-6.602 -14.569)" fill="#f47b4d"/><path d="M20.412,41.686h0L14.225,32.04l-.736.472,6.068,9.459a1.854,1.854,0,0,1,.856-.286" transform="translate(-4.226 -10.038)" fill="#434343"/><path d="M28.6,52.591,25.04,47.039a2.071,2.071,0,0,0-1.251-.9,1.861,1.861,0,0,0-1.465.232l5.753,8.968a1.98,1.98,0,0,0,.525-2.747" transform="translate(-6.994 -14.436)" fill="#f15523"/></g></g></g></svg>