<svg xmlns="http://www.w3.org/2000/svg" xmlns:xlink="http://www.w3.org/1999/xlink" width="1240" height="610" viewBox="0 0 1240 610"><defs><linearGradient id="a" x1="0.5" x2="0.5" y2="1" gradientUnits="objectBoundingBox"><stop offset="0" stop-color="#1d4096" stop-opacity="0.102"/><stop offset="1" stop-color="#0f204b"/></linearGradient><clipPath id="b"><path d="M0,161.536A52.337,52.337,0,1,0,52.337,109.2,52.337,52.337,0,0,0,0,161.536" transform="translate(0 -109.198)" fill="#361d90"/></clipPath><clipPath id="c"><path d="M369.342,161.536A52.337,52.337,0,1,0,421.68,109.2a52.337,52.337,0,0,0-52.338,52.338" transform="translate(-369.342 -109.198)" fill="#6e05a5"/></clipPath><clipPath id="d"><rect width="399.549" height="278.956" fill="none"/></clipPath><filter id="e" x="759" y="68" width="225" height="105" filterUnits="userSpaceOnUse"><feOffset dx="10" dy="10" input="SourceAlpha"/><feGaussianBlur stdDeviation="5" result="f"/><feFlood flood-opacity="0.161"/><feComposite operator="in" in2="f"/><feComposite in="SourceGraphic"/></filter><filter id="g" x="272" y="68" width="225" height="105" filterUnits="userSpaceOnUse"><feOffset dx="10" dy="10" input="SourceAlpha"/><feGaussianBlur stdDeviation="5" result="h"/><feFlood flood-opacity="0.161"/><feComposite operator="in" in2="h"/><feComposite in="SourceGraphic"/></filter><clipPath id="i"><rect width="80" height="80" fill="none"/></clipPath><clipPath id="r"><rect width="152.152" height="152.136" fill="none"/></clipPath></defs><g transform="translate(-180 -1437)"><rect width="1240" height="610" rx="20" transform="translate(180 1437)" opacity="0.1" fill="url(#a)"/><g transform="translate(598.451 1616)"><g transform="translate(-0.451 87.001)"><g clip-path="url(#b)"><rect width="104.674" height="104.675" transform="translate(0 0)" fill="#361d90"/></g></g><g transform="translate(294.601 87.001)"><g clip-path="url(#c)"><rect width="104.674" height="104.675" transform="translate(0 0)" fill="#6e05a5"/></g></g><g clip-path="url(#d)"><path d="M308.215,139.519A57.456,57.456,0,0,1,345.189,85.9a138.382,138.382,0,0,0-66.528-70.279S214.687-21.465,151.8,18.648A138.39,138.39,0,0,0,91.092,85.9a57.36,57.36,0,0,1,0,107.232,138.38,138.38,0,0,0,66.453,70.241c2.14,1.218,63.775,35.66,124.982-1.933a138.386,138.386,0,0,0,62.662-68.308,57.456,57.456,0,0,1-36.974-53.616m-90.074,78.123a78.123,78.123,0,1,1,78.123-78.123,78.123,78.123,0,0,1-78.123,78.123" transform="translate(-18.366 0)" fill="#e33ffd" opacity="0.35"/></g></g><path d="M28.287,11.825V16H26.88V5.336h3.933a3.952,3.952,0,0,1,2.743.894A3.029,3.029,0,0,1,34.549,8.6a2.989,2.989,0,0,1-.97,2.391,4.128,4.128,0,0,1-2.78.839Zm0-1.15h2.527a2.526,2.526,0,0,0,1.729-.532,1.945,1.945,0,0,0,.6-1.537,2.009,2.009,0,0,0-.6-1.526,2.367,2.367,0,0,0-1.648-.594H28.287Zm7.39,1.289a4.681,4.681,0,0,1,.458-2.095,3.415,3.415,0,0,1,1.274-1.436,3.469,3.469,0,0,1,1.864-.505,3.342,3.342,0,0,1,2.618,1.121,4.311,4.311,0,0,1,1,2.981v.1a4.722,4.722,0,0,1-.443,2.076,3.365,3.365,0,0,1-1.267,1.432,3.509,3.509,0,0,1-1.893.513,3.334,3.334,0,0,1-2.611-1.121,4.29,4.29,0,0,1-1-2.966Zm1.362.161a3.39,3.39,0,0,0,.612,2.117,2.072,2.072,0,0,0,3.278-.011,3.707,3.707,0,0,0,.608-2.267,3.384,3.384,0,0,0-.619-2.113,1.968,1.968,0,0,0-1.644-.809,1.946,1.946,0,0,0-1.619.8A3.68,3.68,0,0,0,37.039,12.125ZM48.421,9.291a4.06,4.06,0,0,0-.667-.051,1.786,1.786,0,0,0-1.809,1.135V16H44.59V8.075h1.318l.022.916a2.11,2.11,0,0,1,1.89-1.062,1.384,1.384,0,0,1,.6.1ZM57.994,13.9a1,1,0,0,0-.414-.853,3.983,3.983,0,0,0-1.443-.524,6.822,6.822,0,0,1-1.633-.527,2.324,2.324,0,0,1-.894-.732,1.752,1.752,0,0,1-.289-1.011A2.056,2.056,0,0,1,54.145,8.6a3.218,3.218,0,0,1,2.106-.674,3.311,3.311,0,0,1,2.186.7,2.21,2.21,0,0,1,.839,1.78H57.913a1.223,1.223,0,0,0-.472-.959,1.77,1.77,0,0,0-1.19-.4,1.852,1.852,0,0,0-1.157.322,1.014,1.014,0,0,0-.417.842.822.822,0,0,0,.388.74,4.776,4.776,0,0,0,1.4.476,7.308,7.308,0,0,1,1.644.542,2.4,2.4,0,0,1,.934.758,1.864,1.864,0,0,1,.3,1.08,2.028,2.028,0,0,1-.85,1.7,3.564,3.564,0,0,1-2.2.641,3.991,3.991,0,0,1-1.685-.337,2.74,2.74,0,0,1-1.146-.941,2.268,2.268,0,0,1-.414-1.307H54.4a1.4,1.4,0,0,0,.546,1.08,2.117,2.117,0,0,0,1.344.4,2.185,2.185,0,0,0,1.234-.311A.956.956,0,0,0,57.994,13.9Zm8.013,1.318a2.878,2.878,0,0,1-2.322.93,2.464,2.464,0,0,1-1.93-.736,3.186,3.186,0,0,1-.67-2.179V8.075h1.355v5.12q0,1.8,1.465,1.8a2.028,2.028,0,0,0,2.065-1.157V8.075h1.355V16H66.036ZM11.459,32.125a4.745,4.745,0,0,1-.828,2.915A2.653,2.653,0,0,1,8.39,36.146a2.906,2.906,0,0,1-2.271-.916v3.816H4.765V28.075H6l.066.879a2.791,2.791,0,0,1,2.3-1.025,2.7,2.7,0,0,1,2.26,1.077,4.8,4.8,0,0,1,.831,3ZM10.1,31.972a3.5,3.5,0,0,0-.571-2.117,1.84,1.84,0,0,0-1.567-.776A1.992,1.992,0,0,0,6.12,30.17v3.787a2,2,0,0,0,1.86,1.084,1.832,1.832,0,0,0,1.549-.773A3.822,3.822,0,0,0,10.1,31.972Zm6.365,4.175a3.463,3.463,0,0,1-2.622-1.058,3.928,3.928,0,0,1-1.011-2.831v-.249a4.756,4.756,0,0,1,.45-2.106,3.514,3.514,0,0,1,1.26-1.45,3.167,3.167,0,0,1,1.754-.524,2.968,2.968,0,0,1,2.4,1.018,4.408,4.408,0,0,1,.857,2.915v.564H14.191a2.817,2.817,0,0,0,.685,1.893,2.153,2.153,0,0,0,1.666.721,2.36,2.36,0,0,0,1.216-.293,3.055,3.055,0,0,0,.872-.776l.828.645A3.328,3.328,0,0,1,16.469,36.146Zm-.168-7.1a1.807,1.807,0,0,0-1.377.6,2.9,2.9,0,0,0-.688,1.674H18.2v-.1a2.581,2.581,0,0,0-.557-1.6A1.7,1.7,0,0,0,16.3,29.042Zm8.657.249a4.06,4.06,0,0,0-.667-.051,1.786,1.786,0,0,0-1.809,1.135V36H21.127V28.075h1.318l.022.916a2.11,2.11,0,0,1,1.89-1.062,1.384,1.384,0,0,1,.6.1ZM30.817,33.9a1,1,0,0,0-.414-.853,3.983,3.983,0,0,0-1.443-.524,6.822,6.822,0,0,1-1.633-.527,2.324,2.324,0,0,1-.894-.732,1.752,1.752,0,0,1-.289-1.011,2.056,2.056,0,0,1,.824-1.648,3.218,3.218,0,0,1,2.106-.674,3.311,3.311,0,0,1,2.186.7A2.21,2.21,0,0,1,32.1,30.4H30.737a1.223,1.223,0,0,0-.472-.959,1.77,1.77,0,0,0-1.19-.4,1.852,1.852,0,0,0-1.157.322,1.014,1.014,0,0,0-.417.842.822.822,0,0,0,.388.74,4.776,4.776,0,0,0,1.4.476,7.308,7.308,0,0,1,1.644.542,2.4,2.4,0,0,1,.934.758,1.864,1.864,0,0,1,.3,1.08,2.028,2.028,0,0,1-.85,1.7,3.564,3.564,0,0,1-2.2.641,3.991,3.991,0,0,1-1.685-.337,2.74,2.74,0,0,1-1.146-.941,2.268,2.268,0,0,1-.414-1.307h1.355a1.4,1.4,0,0,0,.546,1.08,2.117,2.117,0,0,0,1.344.4,2.185,2.185,0,0,0,1.234-.311A.956.956,0,0,0,30.817,33.9Zm2.761-1.934a4.681,4.681,0,0,1,.458-2.095,3.415,3.415,0,0,1,1.274-1.436,3.469,3.469,0,0,1,1.864-.505,3.342,3.342,0,0,1,2.618,1.121,4.311,4.311,0,0,1,1,2.981v.1A4.722,4.722,0,0,1,40.35,34.2a3.365,3.365,0,0,1-1.267,1.432,3.509,3.509,0,0,1-1.893.513,3.334,3.334,0,0,1-2.611-1.121,4.29,4.29,0,0,1-1-2.966Zm1.362.161a3.39,3.39,0,0,0,.612,2.117,2.072,2.072,0,0,0,3.278-.011,3.707,3.707,0,0,0,.608-2.267,3.384,3.384,0,0,0-.619-2.113,1.968,1.968,0,0,0-1.644-.809,1.946,1.946,0,0,0-1.619.8A3.68,3.68,0,0,0,34.941,32.125Zm8.833-4.05.044,1a2.888,2.888,0,0,1,2.373-1.143q2.512,0,2.534,2.834V36H47.37V30.756a1.824,1.824,0,0,0-.392-1.267,1.57,1.57,0,0,0-1.2-.41,1.956,1.956,0,0,0-1.157.352,2.387,2.387,0,0,0-.776.923V36H42.492V28.075ZM55.661,36a2.846,2.846,0,0,1-.19-.835,3.023,3.023,0,0,1-2.256.981,2.8,2.8,0,0,1-1.923-.663,2.145,2.145,0,0,1-.751-1.681,2.24,2.24,0,0,1,.941-1.923A4.437,4.437,0,0,1,54.13,31.2h1.318v-.623a1.522,1.522,0,0,0-.425-1.132,1.707,1.707,0,0,0-1.252-.421,1.976,1.976,0,0,0-1.216.366,1.079,1.079,0,0,0-.491.886H50.7a1.87,1.87,0,0,1,.421-1.146,2.874,2.874,0,0,1,1.143-.875,3.844,3.844,0,0,1,1.586-.322A3.133,3.133,0,0,1,56,28.614,2.47,2.47,0,0,1,56.8,30.5v3.647a4.459,4.459,0,0,0,.278,1.736V36Zm-2.249-1.033a2.381,2.381,0,0,0,1.208-.33,1.994,1.994,0,0,0,.828-.857V32.155H54.386q-2.49,0-2.49,1.458a1.234,1.234,0,0,0,.425,1A1.633,1.633,0,0,0,53.412,34.967ZM60.4,36H59.045V24.75H60.4Zm3.64,0H62.685V28.075H64.04ZM62.575,25.973a.809.809,0,0,1,.2-.557.756.756,0,0,1,.6-.227.768.768,0,0,1,.6.227.8.8,0,0,1,.205.557.774.774,0,0,1-.205.549.782.782,0,0,1-.6.22.77.77,0,0,1-.6-.22A.782.782,0,0,1,62.575,25.973Zm3.3,6a4.642,4.642,0,0,1,.864-2.933,2.941,2.941,0,0,1,4.468-.157V24.75h1.355V36H71.32l-.066-.85a2.759,2.759,0,0,1-2.263,1,2.707,2.707,0,0,1-2.245-1.128,4.7,4.7,0,0,1-.868-2.944Zm1.355.154a3.515,3.515,0,0,0,.557,2.109A1.8,1.8,0,0,0,69.328,35a1.977,1.977,0,0,0,1.882-1.157V30.2a1.992,1.992,0,0,0-1.868-1.121,1.808,1.808,0,0,0-1.553.769A3.87,3.87,0,0,0,67.233,32.125ZM79.56,36a2.846,2.846,0,0,1-.19-.835,3.023,3.023,0,0,1-2.256.981,2.8,2.8,0,0,1-1.923-.663A2.145,2.145,0,0,1,74.44,33.8a2.24,2.24,0,0,1,.941-1.923,4.437,4.437,0,0,1,2.648-.685h1.318v-.623a1.522,1.522,0,0,0-.425-1.132,1.707,1.707,0,0,0-1.252-.421,1.976,1.976,0,0,0-1.216.366,1.079,1.079,0,0,0-.491.886H74.6a1.87,1.87,0,0,1,.421-1.146,2.874,2.874,0,0,1,1.143-.875,3.844,3.844,0,0,1,1.586-.322,3.133,3.133,0,0,1,2.146.685A2.47,2.47,0,0,1,80.7,30.5v3.647a4.459,4.459,0,0,0,.278,1.736V36Zm-2.249-1.033a2.381,2.381,0,0,0,1.208-.33,1.994,1.994,0,0,0,.828-.857V32.155H78.285q-2.49,0-2.49,1.458a1.234,1.234,0,0,0,.425,1A1.633,1.633,0,0,0,77.311,34.967Zm5.186-3a4.642,4.642,0,0,1,.864-2.933,2.941,2.941,0,0,1,4.468-.157V24.75h1.355V36H87.939l-.066-.85a2.759,2.759,0,0,1-2.263,1,2.707,2.707,0,0,1-2.245-1.128,4.7,4.7,0,0,1-.868-2.944Zm1.355.154a3.515,3.515,0,0,0,.557,2.109A1.8,1.8,0,0,0,85.947,35a1.977,1.977,0,0,0,1.882-1.157V30.2a1.992,1.992,0,0,0-1.868-1.121,1.808,1.808,0,0,0-1.553.769A3.87,3.87,0,0,0,83.852,32.125Z" transform="translate(604 1733)" fill="#fff"/><path d="M15.787,11.825V16H14.38V5.336h3.933a3.952,3.952,0,0,1,2.743.894A3.029,3.029,0,0,1,22.049,8.6a2.989,2.989,0,0,1-.97,2.391,4.128,4.128,0,0,1-2.78.839Zm0-1.15h2.527a2.526,2.526,0,0,0,1.729-.532,1.945,1.945,0,0,0,.6-1.537,2.009,2.009,0,0,0-.6-1.526,2.367,2.367,0,0,0-1.648-.594H15.787Zm7.39,1.289a4.681,4.681,0,0,1,.458-2.095,3.415,3.415,0,0,1,1.274-1.436,3.469,3.469,0,0,1,1.864-.505,3.342,3.342,0,0,1,2.618,1.121,4.311,4.311,0,0,1,1,2.981v.1a4.722,4.722,0,0,1-.443,2.076,3.365,3.365,0,0,1-1.267,1.432,3.509,3.509,0,0,1-1.893.513,3.334,3.334,0,0,1-2.611-1.121,4.29,4.29,0,0,1-1-2.966Zm1.362.161a3.39,3.39,0,0,0,.612,2.117,2.072,2.072,0,0,0,3.278-.011,3.707,3.707,0,0,0,.608-2.267,3.384,3.384,0,0,0-.619-2.113,1.968,1.968,0,0,0-1.644-.809,1.946,1.946,0,0,0-1.619.8A3.68,3.68,0,0,0,24.539,12.125ZM35.921,9.291a4.06,4.06,0,0,0-.667-.051,1.786,1.786,0,0,0-1.809,1.135V16H32.09V8.075h1.318l.022.916a2.11,2.11,0,0,1,1.89-1.062,1.384,1.384,0,0,1,.6.1ZM45.494,13.9a1,1,0,0,0-.414-.853,3.983,3.983,0,0,0-1.443-.524A6.822,6.822,0,0,1,42,11.994a2.324,2.324,0,0,1-.894-.732,1.752,1.752,0,0,1-.289-1.011A2.056,2.056,0,0,1,41.645,8.6a3.218,3.218,0,0,1,2.106-.674,3.311,3.311,0,0,1,2.186.7,2.21,2.21,0,0,1,.839,1.78H45.413a1.223,1.223,0,0,0-.472-.959,1.77,1.77,0,0,0-1.19-.4,1.852,1.852,0,0,0-1.157.322,1.014,1.014,0,0,0-.417.842.822.822,0,0,0,.388.74,4.776,4.776,0,0,0,1.4.476,7.308,7.308,0,0,1,1.644.542,2.4,2.4,0,0,1,.934.758,1.864,1.864,0,0,1,.3,1.08,2.028,2.028,0,0,1-.85,1.7,3.564,3.564,0,0,1-2.2.641,3.991,3.991,0,0,1-1.685-.337,2.74,2.74,0,0,1-1.146-.941,2.268,2.268,0,0,1-.414-1.307H41.9a1.4,1.4,0,0,0,.546,1.08,2.117,2.117,0,0,0,1.344.4,2.185,2.185,0,0,0,1.234-.311A.956.956,0,0,0,45.494,13.9Zm8.013,1.318a2.878,2.878,0,0,1-2.322.93,2.464,2.464,0,0,1-1.93-.736,3.186,3.186,0,0,1-.67-2.179V8.075h1.355v5.12q0,1.8,1.465,1.8a2.028,2.028,0,0,0,2.065-1.157V8.075h1.355V16H53.536ZM17.328,36a2.846,2.846,0,0,1-.19-.835,3.023,3.023,0,0,1-2.256.981,2.8,2.8,0,0,1-1.923-.663,2.145,2.145,0,0,1-.751-1.681,2.24,2.24,0,0,1,.941-1.923A4.437,4.437,0,0,1,15.8,31.2h1.318v-.623a1.522,1.522,0,0,0-.425-1.132,1.707,1.707,0,0,0-1.252-.421,1.976,1.976,0,0,0-1.216.366,1.079,1.079,0,0,0-.491.886H12.37a1.87,1.87,0,0,1,.421-1.146,2.874,2.874,0,0,1,1.143-.875,3.844,3.844,0,0,1,1.586-.322,3.133,3.133,0,0,1,2.146.685,2.47,2.47,0,0,1,.806,1.886v3.647a4.459,4.459,0,0,0,.278,1.736V36ZM15.08,34.967a2.381,2.381,0,0,0,1.208-.33,1.994,1.994,0,0,0,.828-.857V32.155H16.054q-2.49,0-2.49,1.458a1.234,1.234,0,0,0,.425,1A1.633,1.633,0,0,0,15.08,34.967Zm8.694.073a1.952,1.952,0,0,0,1.267-.439,1.546,1.546,0,0,0,.6-1.1h1.282a2.457,2.457,0,0,1-.469,1.3,3.087,3.087,0,0,1-1.154.981,3.329,3.329,0,0,1-1.527.366,3.265,3.265,0,0,1-2.574-1.08,4.3,4.3,0,0,1-.956-2.955v-.227a4.771,4.771,0,0,1,.425-2.058,3.236,3.236,0,0,1,1.219-1.4,3.464,3.464,0,0,1,1.879-.5,3.178,3.178,0,0,1,2.216.8,2.853,2.853,0,0,1,.941,2.073H25.641a1.867,1.867,0,0,0-.582-1.263,1.811,1.811,0,0,0-1.293-.494,1.9,1.9,0,0,0-1.6.743,3.491,3.491,0,0,0-.568,2.15v.256a3.422,3.422,0,0,0,.564,2.109A1.906,1.906,0,0,0,23.774,35.041Zm6.511-8.884v1.919h1.479v1.047H30.285v4.921a1.1,1.1,0,0,0,.2.715.832.832,0,0,0,.674.238,3.281,3.281,0,0,0,.645-.088V36a3.951,3.951,0,0,1-1.04.146,1.687,1.687,0,0,1-1.37-.549,2.36,2.36,0,0,1-.461-1.56V29.123H27.487V28.075H28.93V26.156ZM34.819,36H33.464V28.075h1.355ZM33.354,25.973a.809.809,0,0,1,.2-.557.756.756,0,0,1,.6-.227.768.768,0,0,1,.6.227.8.8,0,0,1,.205.557.774.774,0,0,1-.205.549.782.782,0,0,1-.6.22.77.77,0,0,1-.6-.22A.782.782,0,0,1,33.354,25.973Zm5.471.183v1.919H40.3v1.047H38.825v4.921a1.1,1.1,0,0,0,.2.715A.832.832,0,0,0,39.7,35a3.281,3.281,0,0,0,.645-.088V36a3.951,3.951,0,0,1-1.04.146,1.687,1.687,0,0,1-1.37-.549,2.36,2.36,0,0,1-.461-1.56V29.123H36.027V28.075H37.47V26.156Zm7.954,9.06a2.878,2.878,0,0,1-2.322.93,2.464,2.464,0,0,1-1.93-.736,3.186,3.186,0,0,1-.67-2.179V28.075h1.355v5.12q0,1.8,1.465,1.8a2.028,2.028,0,0,0,2.065-1.157V28.075H48.1V36H46.808Zm3.047-3.245a4.642,4.642,0,0,1,.864-2.933,2.941,2.941,0,0,1,4.468-.157V24.75h1.355V36H55.268l-.066-.85a2.759,2.759,0,0,1-2.263,1,2.707,2.707,0,0,1-2.245-1.128,4.7,4.7,0,0,1-.868-2.944Zm1.355.154a3.515,3.515,0,0,0,.557,2.109A1.8,1.8,0,0,0,53.276,35a1.977,1.977,0,0,0,1.882-1.157V30.2a1.992,1.992,0,0,0-1.868-1.121,1.808,1.808,0,0,0-1.553.769A3.87,3.87,0,0,0,51.181,32.125Z" transform="translate(911 1733)" fill="#fff"/><g transform="matrix(1, 0, 0, 1, 180, 1437)" filter="url(#e)"><rect width="195" height="75" rx="10" transform="translate(764 73)" fill="#9d39e3" opacity="0.1"/></g><path d="M-26.078-2.977h-4.766L-31.914,0h-1.547l4.344-11.375H-27.8L-23.453,0h-1.539ZM-30.391-4.2h3.867l-1.937-5.32Zm9.6-4.25.039.938a3.122,3.122,0,0,1,2.508-1.094A2.417,2.417,0,0,1-15.828-7.25a3.2,3.2,0,0,1,1.1-.984,3.242,3.242,0,0,1,1.6-.375q2.781,0,2.828,2.945V0H-11.75V-5.578a1.941,1.941,0,0,0-.414-1.355,1.823,1.823,0,0,0-1.391-.449,1.916,1.916,0,0,0-1.336.48,1.949,1.949,0,0,0-.617,1.293V0h-1.453V-5.539a1.613,1.613,0,0,0-1.8-1.844,1.934,1.934,0,0,0-1.945,1.211V0h-1.445V-8.453ZM-6.555,0H-8V-8.453h1.445ZM-8.117-10.7a.863.863,0,0,1,.215-.594.807.807,0,0,1,.637-.242.819.819,0,0,1,.641.242.854.854,0,0,1,.219.594.826.826,0,0,1-.219.586.834.834,0,0,1-.641.234.821.821,0,0,1-.637-.234A.834.834,0,0,1-8.117-10.7Zm3.531,6.4a4.968,4.968,0,0,1,.914-3.145A2.923,2.923,0,0,1-1.25-8.609,2.908,2.908,0,0,1,1.164-7.516l.07-.937h1.32V-.2a3.439,3.439,0,0,1-.973,2.586,3.589,3.589,0,0,1-2.613.945A4.348,4.348,0,0,1-2.82,2.938a3.08,3.08,0,0,1-1.336-1.07L-3.406,1A2.826,2.826,0,0,0-1.133,2.148,2.214,2.214,0,0,0,.512,1.555,2.269,2.269,0,0,0,1.1-.117V-.844a2.971,2.971,0,0,1-2.367,1,2.887,2.887,0,0,1-2.4-1.2A5.224,5.224,0,0,1-4.586-4.3Zm1.453.164a3.79,3.79,0,0,0,.586,2.246A1.9,1.9,0,0,0-.906-1.07,2.117,2.117,0,0,0,1.1-2.312V-6.172A2.142,2.142,0,0,0-.891-7.383a1.921,1.921,0,0,0-1.648.82A4.128,4.128,0,0,0-3.133-4.133ZM9.953,0a3.036,3.036,0,0,1-.2-.891A3.225,3.225,0,0,1,7.344.156,2.984,2.984,0,0,1,5.293-.551a2.287,2.287,0,0,1-.8-1.793,2.39,2.39,0,0,1,1-2.051,4.733,4.733,0,0,1,2.824-.73H9.727v-.664A1.623,1.623,0,0,0,9.273-7a1.821,1.821,0,0,0-1.336-.449,2.107,2.107,0,0,0-1.3.391,1.151,1.151,0,0,0-.523.945H4.664a2,2,0,0,1,.449-1.223,3.066,3.066,0,0,1,1.219-.934,4.1,4.1,0,0,1,1.691-.344,3.342,3.342,0,0,1,2.289.73,2.635,2.635,0,0,1,.859,2.012v3.891a4.757,4.757,0,0,0,.3,1.852V0Zm-2.4-1.1a2.54,2.54,0,0,0,1.289-.352,2.127,2.127,0,0,0,.883-.914V-4.1H8.594q-2.656,0-2.656,1.555a1.316,1.316,0,0,0,.453,1.063A1.742,1.742,0,0,0,7.555-1.1ZM20.594-4.133A5.026,5.026,0,0,1,19.7-1.02,2.846,2.846,0,0,1,17.313.156,2.947,2.947,0,0,1,14.836-.977L14.766,0H13.438V-12h1.445v4.477A2.93,2.93,0,0,1,17.3-8.609a2.863,2.863,0,0,1,2.418,1.164,5.177,5.177,0,0,1,.879,3.188ZM19.148-4.3a3.906,3.906,0,0,0-.57-2.281,1.888,1.888,0,0,0-1.641-.8,2.122,2.122,0,0,0-2.055,1.328V-2.4a2.181,2.181,0,0,0,2.07,1.328,1.878,1.878,0,0,0,1.617-.8A4.153,4.153,0,0,0,19.148-4.3ZM23.984,0H22.539V-12h1.445ZM29.8.156a3.693,3.693,0,0,1-2.8-1.129,4.19,4.19,0,0,1-1.078-3.02v-.266A5.073,5.073,0,0,1,26.41-6.5a3.748,3.748,0,0,1,1.344-1.547,3.378,3.378,0,0,1,1.871-.559,3.166,3.166,0,0,1,2.563,1.086A4.7,4.7,0,0,1,33.1-4.414v.6H27.375a3,3,0,0,0,.73,2.02,2.3,2.3,0,0,0,1.777.77,2.517,2.517,0,0,0,1.3-.312,3.259,3.259,0,0,0,.93-.828l.883.688A3.55,3.55,0,0,1,29.8.156Zm-.18-7.578a1.928,1.928,0,0,0-1.469.637A3.1,3.1,0,0,0,27.422-5h4.234v-.109a2.753,2.753,0,0,0-.594-1.707A1.815,1.815,0,0,0,29.625-7.422Z" transform="translate(1067 1554)" fill="#12263f"/><g transform="matrix(1, 0, 0, 1, 180, 1437)" filter="url(#g)"><rect width="195" height="75" rx="10" transform="translate(277 73)" fill="#361d90" opacity="0.1"/></g><path d="M-26.277-5.258h-4.93v4.031h5.727V0h-7.227V-11.375h7.148v1.227h-5.648v3.664h4.93Zm3.8-3.2.047,1.063a3.08,3.08,0,0,1,2.531-1.219q2.68,0,2.7,3.023V0h-1.445V-5.594a1.946,1.946,0,0,0-.418-1.352,1.675,1.675,0,0,0-1.277-.437,2.086,2.086,0,0,0-1.234.375,2.546,2.546,0,0,0-.828.984V0H-23.84V-8.453ZM-14.3,0V-7.336h-1.336V-8.453H-14.3V-9.32a2.878,2.878,0,0,1,.727-2.1,2.745,2.745,0,0,1,2.055-.742,3.816,3.816,0,0,1,.992.132l-.078,1.165a4.151,4.151,0,0,0-.781-.07,1.41,1.41,0,0,0-1.086.411,1.669,1.669,0,0,0-.383,1.18v.893h1.8v1.117h-1.8V0ZM-4.238,0a3.036,3.036,0,0,1-.2-.891A3.225,3.225,0,0,1-6.848.156,2.984,2.984,0,0,1-8.9-.551a2.287,2.287,0,0,1-.8-1.793,2.39,2.39,0,0,1,1-2.051,4.733,4.733,0,0,1,2.824-.73h1.406v-.664A1.623,1.623,0,0,0-4.918-7a1.821,1.821,0,0,0-1.336-.449,2.107,2.107,0,0,0-1.3.391,1.151,1.151,0,0,0-.523.945H-9.527a2,2,0,0,1,.449-1.223,3.066,3.066,0,0,1,1.219-.934,4.1,4.1,0,0,1,1.691-.344,3.342,3.342,0,0,1,2.289.73A2.635,2.635,0,0,1-3.02-5.867v3.891a4.757,4.757,0,0,0,.3,1.852V0Zm-2.4-1.1a2.54,2.54,0,0,0,1.289-.352,2.127,2.127,0,0,0,.883-.914V-4.1H-5.6q-2.656,0-2.656,1.555A1.316,1.316,0,0,0-7.8-1.484,1.742,1.742,0,0,0-6.637-1.1Zm5.531-3.2A4.952,4.952,0,0,1-.184-7.426,2.915,2.915,0,0,1,2.23-8.609,2.932,2.932,0,0,1,4.582-7.594V-12H6.027V0H4.7l-.07-.906A2.943,2.943,0,0,1,2.215.156,2.887,2.887,0,0,1-.18-1.047a5.008,5.008,0,0,1-.926-3.141ZM.34-4.133a3.749,3.749,0,0,0,.594,2.25,1.92,1.92,0,0,0,1.641.813A2.108,2.108,0,0,0,4.582-2.3V-6.187a2.125,2.125,0,0,0-1.992-1.2,1.929,1.929,0,0,0-1.656.82A4.128,4.128,0,0,0,.34-4.133ZM13.488,0a3.036,3.036,0,0,1-.2-.891A3.225,3.225,0,0,1,10.879.156,2.984,2.984,0,0,1,8.828-.551a2.287,2.287,0,0,1-.8-1.793,2.39,2.39,0,0,1,1-2.051,4.733,4.733,0,0,1,2.824-.73h1.406v-.664A1.623,1.623,0,0,0,12.809-7a1.821,1.821,0,0,0-1.336-.449,2.107,2.107,0,0,0-1.3.391,1.151,1.151,0,0,0-.523.945H8.2a2,2,0,0,1,.449-1.223,3.066,3.066,0,0,1,1.219-.934,4.1,4.1,0,0,1,1.691-.344,3.342,3.342,0,0,1,2.289.73,2.635,2.635,0,0,1,.859,2.012v3.891A4.757,4.757,0,0,0,15-.125V0Zm-2.4-1.1a2.54,2.54,0,0,0,1.289-.352,2.127,2.127,0,0,0,.883-.914V-4.1H12.129q-2.656,0-2.656,1.555a1.316,1.316,0,0,0,.453,1.063A1.742,1.742,0,0,0,11.09-1.1Zm5.531-3.2a4.952,4.952,0,0,1,.922-3.129,2.915,2.915,0,0,1,2.414-1.184,2.932,2.932,0,0,1,2.352,1.016V-12h1.445V0H22.426l-.07-.906A2.943,2.943,0,0,1,19.941.156a2.887,2.887,0,0,1-2.395-1.2,5.008,5.008,0,0,1-.926-3.141Zm1.445.164a3.749,3.749,0,0,0,.594,2.25A1.92,1.92,0,0,0,20.3-1.07,2.108,2.108,0,0,0,22.309-2.3V-6.187a2.125,2.125,0,0,0-1.992-1.2,1.929,1.929,0,0,0-1.656.82A4.128,4.128,0,0,0,18.066-4.133ZM25.613-4.3A4.993,4.993,0,0,1,26.1-6.539,3.643,3.643,0,0,1,27.461-8.07a3.7,3.7,0,0,1,1.988-.539,3.565,3.565,0,0,1,2.793,1.2,4.6,4.6,0,0,1,1.066,3.18v.1a5.036,5.036,0,0,1-.473,2.215A3.589,3.589,0,0,1,31.484-.391a3.743,3.743,0,0,1-2.02.547,3.556,3.556,0,0,1-2.785-1.2A4.575,4.575,0,0,1,25.613-4.2Zm1.453.172a3.616,3.616,0,0,0,.652,2.258,2.088,2.088,0,0,0,1.746.852,2.075,2.075,0,0,0,1.75-.863A3.955,3.955,0,0,0,31.863-4.3a3.61,3.61,0,0,0-.66-2.254,2.1,2.1,0,0,0-1.754-.863,2.075,2.075,0,0,0-1.727.852A3.925,3.925,0,0,0,27.066-4.133Z" transform="translate(529 1554)" fill="#361d90"/><rect width="195" height="75" rx="10" transform="translate(1033 1605)" fill="#9d39e3" opacity="0.1"/><path d="M-16.293-5.023h-4.773V0h-1.5V-11.375h7.047v1.227h-5.547v3.9h4.773Zm6.227-2.133a4.331,4.331,0,0,0-.711-.055A1.9,1.9,0,0,0-12.707-6V0h-1.445V-8.453h1.406l.023.977a2.251,2.251,0,0,1,2.016-1.133,1.477,1.477,0,0,1,.641.109ZM-7.168,0H-8.621V-8.453h1.453Zm.016-11.992H-5.4L-7.5-9.7l-1.164,0ZM-2-1.961.1-8.453H1.574L-1.457,0h-1.1L-5.621-8.453h1.477ZM2.465-4.3a4.993,4.993,0,0,1,.488-2.234A3.643,3.643,0,0,1,4.313-8.07,3.7,3.7,0,0,1,6.3-8.609a3.565,3.565,0,0,1,2.793,1.2,4.6,4.6,0,0,1,1.066,3.18v.1a5.036,5.036,0,0,1-.473,2.215A3.589,3.589,0,0,1,8.336-.391a3.743,3.743,0,0,1-2.02.547,3.556,3.556,0,0,1-2.785-1.2A4.575,4.575,0,0,1,2.465-4.2Zm1.453.172A3.616,3.616,0,0,0,4.57-1.875a2.088,2.088,0,0,0,1.746.852,2.075,2.075,0,0,0,1.75-.863A3.955,3.955,0,0,0,8.715-4.3a3.61,3.61,0,0,0-.66-2.254A2.1,2.1,0,0,0,6.3-7.422a2.075,2.075,0,0,0-1.727.852A3.925,3.925,0,0,0,3.918-4.133ZM13.543,0H12.1V-12h1.445Zm1.93-4.3a4.993,4.993,0,0,1,.488-2.234A3.643,3.643,0,0,1,17.32-8.07a3.7,3.7,0,0,1,1.988-.539,3.565,3.565,0,0,1,2.793,1.2,4.6,4.6,0,0,1,1.066,3.18v.1A5.036,5.036,0,0,1,22.7-1.918,3.589,3.589,0,0,1,21.344-.391a3.743,3.743,0,0,1-2.02.547,3.556,3.556,0,0,1-2.785-1.2A4.575,4.575,0,0,1,15.473-4.2Zm1.453.172a3.616,3.616,0,0,0,.652,2.258,2.088,2.088,0,0,0,1.746.852,2.075,2.075,0,0,0,1.75-.863A3.955,3.955,0,0,0,21.723-4.3a3.61,3.61,0,0,0-.66-2.254,2.1,2.1,0,0,0-1.754-.863,2.075,2.075,0,0,0-1.727.852A3.925,3.925,0,0,0,16.926-4.133Z" transform="translate(1162 1649)" fill="#12263f"/><rect width="195" height="75" rx="10" transform="translate(368 1605)" fill="#361d90" opacity="0.1"/><path d="M-43.309,0V-11.375H-40.1a5.169,5.169,0,0,1,2.625.656,4.438,4.438,0,0,1,1.762,1.867,6.078,6.078,0,0,1,.629,2.781v.727a6.1,6.1,0,0,1-.621,2.82A4.369,4.369,0,0,1-37.477-.664,5.5,5.5,0,0,1-40.16,0Zm1.5-10.148v8.922h1.578a3.434,3.434,0,0,0,2.7-1.079,4.458,4.458,0,0,0,.965-3.073v-.665a4.529,4.529,0,0,0-.91-3.014,3.239,3.239,0,0,0-2.582-1.091ZM-29.535.156a3.693,3.693,0,0,1-2.8-1.129,4.19,4.19,0,0,1-1.078-3.02v-.266A5.073,5.073,0,0,1-32.93-6.5a3.748,3.748,0,0,1,1.344-1.547,3.378,3.378,0,0,1,1.871-.559,3.166,3.166,0,0,1,2.563,1.086,4.7,4.7,0,0,1,.914,3.109v.6h-5.727a3,3,0,0,0,.73,2.02,2.3,2.3,0,0,0,1.777.77,2.517,2.517,0,0,0,1.3-.312,3.259,3.259,0,0,0,.93-.828l.883.688A3.55,3.55,0,0,1-29.535.156Zm-.18-7.578a1.928,1.928,0,0,0-1.469.637A3.1,3.1,0,0,0-31.918-5h4.234v-.109a2.753,2.753,0,0,0-.594-1.707A1.815,1.815,0,0,0-29.715-7.422Zm10.07,5.18a1.064,1.064,0,0,0-.441-.91,4.249,4.249,0,0,0-1.539-.559,7.277,7.277,0,0,1-1.742-.562,2.479,2.479,0,0,1-.953-.781,1.869,1.869,0,0,1-.309-1.078,2.193,2.193,0,0,1,.879-1.758A3.432,3.432,0,0,1-21.5-8.609a3.532,3.532,0,0,1,2.332.742,2.357,2.357,0,0,1,.895,1.9H-19.73a1.3,1.3,0,0,0-.5-1.023,1.888,1.888,0,0,0-1.27-.43,1.976,1.976,0,0,0-1.234.344,1.082,1.082,0,0,0-.445.9.877.877,0,0,0,.414.789,5.1,5.1,0,0,0,1.5.508A7.8,7.8,0,0,1-19.52-4.3a2.558,2.558,0,0,1,1,.809A1.988,1.988,0,0,1-18.2-2.344a2.163,2.163,0,0,1-.906,1.816,3.8,3.8,0,0,1-2.352.684,4.257,4.257,0,0,1-1.8-.359,2.922,2.922,0,0,1-1.223-1A2.42,2.42,0,0,1-24.918-2.6h1.445a1.5,1.5,0,0,0,.582,1.152,2.258,2.258,0,0,0,1.434.426,2.331,2.331,0,0,0,1.316-.332A1.02,1.02,0,0,0-19.645-2.242Zm6.719,1.219a2.082,2.082,0,0,0,1.352-.469,1.649,1.649,0,0,0,.641-1.172h1.367a2.621,2.621,0,0,1-.5,1.383A3.293,3.293,0,0,1-11.3-.234a3.55,3.55,0,0,1-1.629.391A3.482,3.482,0,0,1-15.672-1a4.59,4.59,0,0,1-1.02-3.152v-.242a5.089,5.089,0,0,1,.453-2.2,3.451,3.451,0,0,1,1.3-1.492,3.7,3.7,0,0,1,2-.531,3.39,3.39,0,0,1,2.363.852,3.043,3.043,0,0,1,1,2.211h-1.367a1.992,1.992,0,0,0-.621-1.348,1.932,1.932,0,0,0-1.379-.527,2.023,2.023,0,0,0-1.707.793,3.724,3.724,0,0,0-.605,2.293v.273a3.65,3.65,0,0,0,.6,2.25A2.033,2.033,0,0,0-12.926-1.023Zm4.6-3.281a4.993,4.993,0,0,1,.488-2.234A3.643,3.643,0,0,1-6.477-8.07a3.7,3.7,0,0,1,1.988-.539A3.565,3.565,0,0,1-1.7-7.414,4.6,4.6,0,0,1-.629-4.234v.1A5.036,5.036,0,0,1-1.1-1.918,3.589,3.589,0,0,1-2.453-.391a3.743,3.743,0,0,1-2.02.547,3.556,3.556,0,0,1-2.785-1.2A4.575,4.575,0,0,1-8.324-4.2Zm1.453.172a3.616,3.616,0,0,0,.652,2.258,2.088,2.088,0,0,0,1.746.852,2.075,2.075,0,0,0,1.75-.863A3.955,3.955,0,0,0-2.074-4.3a3.61,3.61,0,0,0-.66-2.254,2.1,2.1,0,0,0-1.754-.863,2.075,2.075,0,0,0-1.727.852A3.925,3.925,0,0,0-6.871-4.133Zm9.422-4.32L2.6-7.391A3.08,3.08,0,0,1,5.129-8.609q2.68,0,2.7,3.023V0H6.387V-5.594a1.946,1.946,0,0,0-.418-1.352,1.675,1.675,0,0,0-1.277-.437,2.086,2.086,0,0,0-1.234.375,2.546,2.546,0,0,0-.828.984V0H1.184V-8.453ZM10.5,0V-7.336H9.16V-8.453H10.5v-.719a2.937,2.937,0,0,1,.809-2.2,3.136,3.136,0,0,1,2.285-.789,6.881,6.881,0,0,1,2.211.477l-.242,1.219a5.008,5.008,0,0,0-1.859-.391,1.819,1.819,0,0,0-1.34.418,1.723,1.723,0,0,0-.41,1.254v.734h1.727v1.117H11.949V0ZM16.52,0H15.066V-8.453H16.52Zm7.57,0a3.036,3.036,0,0,1-.2-.891A3.225,3.225,0,0,1,21.48.156,2.984,2.984,0,0,1,19.43-.551a2.287,2.287,0,0,1-.8-1.793,2.39,2.39,0,0,1,1-2.051,4.733,4.733,0,0,1,2.824-.73h1.406v-.664A1.623,1.623,0,0,0,23.41-7a1.821,1.821,0,0,0-1.336-.449,2.108,2.108,0,0,0-1.3.391,1.151,1.151,0,0,0-.523.945H18.8a2,2,0,0,1,.449-1.223,3.066,3.066,0,0,1,1.219-.934,4.1,4.1,0,0,1,1.691-.344,3.342,3.342,0,0,1,2.289.73,2.635,2.635,0,0,1,.859,2.012v3.891a4.757,4.757,0,0,0,.3,1.852V0Zm-2.4-1.1a2.54,2.54,0,0,0,1.289-.352,2.127,2.127,0,0,0,.883-.914V-4.1H22.73q-2.656,0-2.656,1.555a1.316,1.316,0,0,0,.453,1.063A1.742,1.742,0,0,0,21.691-1.1Zm5.531-3.2a4.952,4.952,0,0,1,.922-3.129,2.915,2.915,0,0,1,2.414-1.184A2.932,2.932,0,0,1,32.91-7.594V-12h1.445V0H33.027l-.07-.906A2.943,2.943,0,0,1,30.543.156a2.887,2.887,0,0,1-2.395-1.2,5.008,5.008,0,0,1-.926-3.141Zm1.445.164a3.749,3.749,0,0,0,.594,2.25A1.92,1.92,0,0,0,30.9-1.07,2.108,2.108,0,0,0,32.91-2.3V-6.187a2.125,2.125,0,0,0-1.992-1.2,1.929,1.929,0,0,0-1.656.82A4.128,4.128,0,0,0,28.668-4.133ZM36.215-4.3A4.993,4.993,0,0,1,36.7-6.539,3.643,3.643,0,0,1,38.063-8.07a3.7,3.7,0,0,1,1.988-.539,3.565,3.565,0,0,1,2.793,1.2,4.6,4.6,0,0,1,1.066,3.18v.1a5.036,5.036,0,0,1-.473,2.215A3.589,3.589,0,0,1,42.086-.391a3.743,3.743,0,0,1-2.02.547,3.556,3.556,0,0,1-2.785-1.2A4.575,4.575,0,0,1,36.215-4.2Zm1.453.172a3.616,3.616,0,0,0,.652,2.258,2.088,2.088,0,0,0,1.746.852,2.075,2.075,0,0,0,1.75-.863A3.955,3.955,0,0,0,42.465-4.3a3.61,3.61,0,0,0-.66-2.254,2.1,2.1,0,0,0-1.754-.863,2.075,2.075,0,0,0-1.727.852A3.925,3.925,0,0,0,37.668-4.133Z" transform="translate(434 1649)" fill="#361d90"/><rect width="195" height="75" rx="10" transform="translate(1041 1700)" fill="#9d39e3" opacity="0.1"/><path d="M-15.6-10.148h-3.656V0h-1.492V-10.148h-3.648v-1.227h8.8ZM-12.566,0H-14.02V-8.453h1.453Zm.016-11.992h1.75l-2.094,2.3-1.164,0Zm3.727,3.539.039.938A3.122,3.122,0,0,1-6.277-8.609,2.417,2.417,0,0,1-3.863-7.25a3.2,3.2,0,0,1,1.1-.984,3.242,3.242,0,0,1,1.6-.375q2.781,0,2.828,2.945V0H.215V-5.578A1.941,1.941,0,0,0-.2-6.934,1.823,1.823,0,0,0-1.59-7.383a1.916,1.916,0,0,0-1.336.48,1.949,1.949,0,0,0-.617,1.293V0H-5V-5.539A1.613,1.613,0,0,0-6.8-7.383,1.934,1.934,0,0,0-8.746-6.172V0h-1.445V-8.453ZM5.41,0H3.965V-8.453H5.41ZM3.848-10.7a.863.863,0,0,1,.215-.594.807.807,0,0,1,.637-.242.819.819,0,0,1,.641.242.854.854,0,0,1,.219.594.826.826,0,0,1-.219.586.834.834,0,0,1-.641.234.821.821,0,0,1-.637-.234A.834.834,0,0,1,3.848-10.7ZM7.371-4.3a4.952,4.952,0,0,1,.922-3.129,2.915,2.915,0,0,1,2.414-1.184,2.932,2.932,0,0,1,2.352,1.016V-12H14.5V0H13.176l-.07-.906A2.943,2.943,0,0,1,10.691.156,2.887,2.887,0,0,1,8.3-1.047a5.008,5.008,0,0,1-.926-3.141Zm1.445.164a3.749,3.749,0,0,0,.594,2.25,1.92,1.92,0,0,0,1.641.813A2.108,2.108,0,0,0,13.059-2.3V-6.187a2.125,2.125,0,0,0-1.992-1.2,1.929,1.929,0,0,0-1.656.82A4.128,4.128,0,0,0,8.816-4.133ZM16.363-4.3a4.993,4.993,0,0,1,.488-2.234A3.643,3.643,0,0,1,18.211-8.07,3.7,3.7,0,0,1,20.2-8.609a3.565,3.565,0,0,1,2.793,1.2,4.6,4.6,0,0,1,1.066,3.18v.1a5.036,5.036,0,0,1-.473,2.215A3.589,3.589,0,0,1,22.234-.391a3.743,3.743,0,0,1-2.02.547,3.556,3.556,0,0,1-2.785-1.2A4.575,4.575,0,0,1,16.363-4.2Zm1.453.172a3.616,3.616,0,0,0,.652,2.258,2.088,2.088,0,0,0,1.746.852,2.075,2.075,0,0,0,1.75-.863A3.955,3.955,0,0,0,22.613-4.3a3.61,3.61,0,0,0-.66-2.254A2.1,2.1,0,0,0,20.2-7.422a2.075,2.075,0,0,0-1.727.852A3.925,3.925,0,0,0,17.816-4.133Z" transform="translate(1162 1744)" fill="#12263f"/><rect width="195" height="75" rx="10" transform="translate(944 1899)" fill="#9d39e3" opacity="0.1"/><path d="M-17.828-3.609A4.185,4.185,0,0,1-19.16-.824a4.365,4.365,0,0,1-2.98.98,4.008,4.008,0,0,1-3.23-1.445,5.815,5.815,0,0,1-1.215-3.867V-6.25a6.481,6.481,0,0,1,.566-2.789,4.231,4.231,0,0,1,1.605-1.848,4.47,4.47,0,0,1,2.406-.645A4.11,4.11,0,0,1-19.1-10.52a4.235,4.235,0,0,1,1.273,2.8h-1.508a3.268,3.268,0,0,0-.848-1.975,2.565,2.565,0,0,0-1.824-.611,2.684,2.684,0,0,0-2.254,1.063,4.882,4.882,0,0,0-.816,3.026v1.1A5.018,5.018,0,0,0-24.3-2.165,2.5,2.5,0,0,0-22.141-1.07a2.886,2.886,0,0,0,1.918-.566,3.143,3.143,0,0,0,.887-1.973Zm7.039,2.773a3.07,3.07,0,0,1-2.477.992,2.628,2.628,0,0,1-2.059-.785,3.4,3.4,0,0,1-.715-2.324v-5.5h1.445v5.461q0,1.922,1.563,1.922a2.163,2.163,0,0,0,2.2-1.234V-8.453h1.445V0h-1.375ZM-3.1-7.156a4.331,4.331,0,0,0-.711-.055A1.9,1.9,0,0,0-5.742-6V0H-7.187V-8.453h1.406l.023.977A2.251,2.251,0,0,1-3.742-8.609,1.477,1.477,0,0,1-3.1-8.5ZM-.2,0H-1.648V-8.453H-.2ZM-1.766-10.7a.863.863,0,0,1,.215-.594.807.807,0,0,1,.637-.242.819.819,0,0,1,.641.242.854.854,0,0,1,.219.594.826.826,0,0,1-.219.586.834.834,0,0,1-.641.234.821.821,0,0,1-.637-.234A.834.834,0,0,1-1.766-10.7ZM1.727-4.3a4.993,4.993,0,0,1,.488-2.234A3.643,3.643,0,0,1,3.574-8.07a3.7,3.7,0,0,1,1.988-.539,3.565,3.565,0,0,1,2.793,1.2,4.6,4.6,0,0,1,1.066,3.18v.1a5.036,5.036,0,0,1-.473,2.215A3.589,3.589,0,0,1,7.6-.391a3.743,3.743,0,0,1-2.02.547,3.556,3.556,0,0,1-2.785-1.2A4.575,4.575,0,0,1,1.727-4.2Zm1.453.172a3.616,3.616,0,0,0,.652,2.258,2.088,2.088,0,0,0,1.746.852,2.075,2.075,0,0,0,1.75-.863A3.955,3.955,0,0,0,7.977-4.3a3.61,3.61,0,0,0-.66-2.254,2.1,2.1,0,0,0-1.754-.863,2.075,2.075,0,0,0-1.727.852A3.925,3.925,0,0,0,3.18-4.133ZM16.156-2.242a1.064,1.064,0,0,0-.441-.91,4.249,4.249,0,0,0-1.539-.559,7.277,7.277,0,0,1-1.742-.562,2.479,2.479,0,0,1-.953-.781,1.869,1.869,0,0,1-.309-1.078,2.193,2.193,0,0,1,.879-1.758A3.432,3.432,0,0,1,14.3-8.609a3.532,3.532,0,0,1,2.332.742,2.357,2.357,0,0,1,.895,1.9H16.07a1.3,1.3,0,0,0-.5-1.023,1.888,1.888,0,0,0-1.27-.43,1.976,1.976,0,0,0-1.234.344,1.082,1.082,0,0,0-.445.9.877.877,0,0,0,.414.789,5.1,5.1,0,0,0,1.5.508,7.8,7.8,0,0,1,1.754.578,2.558,2.558,0,0,1,1,.809A1.988,1.988,0,0,1,17.6-2.344,2.163,2.163,0,0,1,16.7-.527a3.8,3.8,0,0,1-2.352.684,4.257,4.257,0,0,1-1.8-.359,2.922,2.922,0,0,1-1.223-1A2.42,2.42,0,0,1,10.883-2.6h1.445a1.5,1.5,0,0,0,.582,1.152,2.258,2.258,0,0,0,1.434.426,2.331,2.331,0,0,0,1.316-.332A1.02,1.02,0,0,0,16.156-2.242ZM19.1-4.3a4.993,4.993,0,0,1,.488-2.234A3.643,3.643,0,0,1,20.949-8.07a3.7,3.7,0,0,1,1.988-.539,3.565,3.565,0,0,1,2.793,1.2A4.6,4.6,0,0,1,26.8-4.234v.1a5.036,5.036,0,0,1-.473,2.215A3.589,3.589,0,0,1,24.973-.391a3.743,3.743,0,0,1-2.02.547,3.556,3.556,0,0,1-2.785-1.2A4.575,4.575,0,0,1,19.1-4.2Zm1.453.172a3.616,3.616,0,0,0,.652,2.258,2.088,2.088,0,0,0,1.746.852,2.075,2.075,0,0,0,1.75-.863A3.955,3.955,0,0,0,25.352-4.3a3.61,3.61,0,0,0-.66-2.254,2.1,2.1,0,0,0-1.754-.863,2.075,2.075,0,0,0-1.727.852A3.925,3.925,0,0,0,20.555-4.133Z" transform="translate(1073 1943)" fill="#12263f"/><rect width="195" height="75" rx="10" transform="translate(457 1899)" fill="#361d90" opacity="0.1"/><path d="M-24.09-3.609A4.185,4.185,0,0,1-25.422-.824a4.365,4.365,0,0,1-2.98.98,4.008,4.008,0,0,1-3.23-1.445,5.815,5.815,0,0,1-1.215-3.867V-6.25a6.481,6.481,0,0,1,.566-2.789,4.231,4.231,0,0,1,1.605-1.848,4.47,4.47,0,0,1,2.406-.645,4.11,4.11,0,0,1,2.906,1.012,4.235,4.235,0,0,1,1.273,2.8H-25.6a3.268,3.268,0,0,0-.848-1.975A2.565,2.565,0,0,0-28.27-10.3a2.684,2.684,0,0,0-2.254,1.063,4.882,4.882,0,0,0-.816,3.026v1.1a5.018,5.018,0,0,0,.773,2.948A2.5,2.5,0,0,0-28.4-1.07a2.886,2.886,0,0,0,1.918-.566A3.143,3.143,0,0,0-25.6-3.609Zm1.438-.7a4.993,4.993,0,0,1,.488-2.234A3.643,3.643,0,0,1-20.8-8.07a3.7,3.7,0,0,1,1.988-.539,3.565,3.565,0,0,1,2.793,1.2,4.6,4.6,0,0,1,1.066,3.18v.1a5.036,5.036,0,0,1-.473,2.215A3.589,3.589,0,0,1-16.781-.391,3.743,3.743,0,0,1-18.8.156a3.556,3.556,0,0,1-2.785-1.2A4.575,4.575,0,0,1-22.652-4.2Zm1.453.172a3.616,3.616,0,0,0,.652,2.258,2.088,2.088,0,0,0,1.746.852,2.075,2.075,0,0,0,1.75-.863A3.955,3.955,0,0,0-16.4-4.3a3.61,3.61,0,0,0-.66-2.254,2.1,2.1,0,0,0-1.754-.863,2.075,2.075,0,0,0-1.727.852A3.925,3.925,0,0,0-21.2-4.133Zm9.422-4.32.047,1.063A3.08,3.08,0,0,1-9.2-8.609q2.68,0,2.7,3.023V0H-7.941V-5.594a1.946,1.946,0,0,0-.418-1.352,1.675,1.675,0,0,0-1.277-.437,2.086,2.086,0,0,0-1.234.375,2.546,2.546,0,0,0-.828.984V0h-1.445V-8.453ZM6.785-4.133A5.062,5.062,0,0,1,5.9-1.023,2.829,2.829,0,0,1,3.512.156,3.1,3.1,0,0,1,1.09-.82V3.25H-.355v-11.7H.965l.07.938A2.977,2.977,0,0,1,3.488-8.609,2.882,2.882,0,0,1,5.9-7.461a5.117,5.117,0,0,1,.887,3.2ZM5.34-4.3A3.735,3.735,0,0,0,4.73-6.555a1.963,1.963,0,0,0-1.672-.828A2.125,2.125,0,0,0,1.09-6.219V-2.18A2.129,2.129,0,0,0,3.074-1.023a1.954,1.954,0,0,0,1.652-.824A4.077,4.077,0,0,0,5.34-4.3Zm7.367-2.859A4.331,4.331,0,0,0,12-7.211,1.9,1.9,0,0,0,10.066-6V0H8.621V-8.453h1.406l.023.977a2.251,2.251,0,0,1,2.016-1.133,1.477,1.477,0,0,1,.641.109ZM15.605,0H14.16V-8.453h1.445ZM14.043-10.7a.863.863,0,0,1,.215-.594.807.807,0,0,1,.637-.242.819.819,0,0,1,.641.242.854.854,0,0,1,.219.594.826.826,0,0,1-.219.586.834.834,0,0,1-.641.234.821.821,0,0,1-.637-.234A.834.834,0,0,1,14.043-10.7Zm8.8,8.453a1.064,1.064,0,0,0-.441-.91,4.249,4.249,0,0,0-1.539-.559,7.277,7.277,0,0,1-1.742-.562,2.479,2.479,0,0,1-.953-.781,1.869,1.869,0,0,1-.309-1.078,2.193,2.193,0,0,1,.879-1.758,3.432,3.432,0,0,1,2.246-.719,3.532,3.532,0,0,1,2.332.742,2.357,2.357,0,0,1,.895,1.9H22.754a1.3,1.3,0,0,0-.5-1.023,1.888,1.888,0,0,0-1.27-.43,1.976,1.976,0,0,0-1.234.344,1.082,1.082,0,0,0-.445.9.877.877,0,0,0,.414.789,5.1,5.1,0,0,0,1.5.508,7.8,7.8,0,0,1,1.754.578,2.558,2.558,0,0,1,1,.809,1.988,1.988,0,0,1,.324,1.152,2.163,2.163,0,0,1-.906,1.816,3.8,3.8,0,0,1-2.352.684A4.257,4.257,0,0,1,19.23-.2a2.922,2.922,0,0,1-1.223-1A2.42,2.42,0,0,1,17.566-2.6h1.445a1.5,1.5,0,0,0,.582,1.152,2.258,2.258,0,0,0,1.434.426,2.331,2.331,0,0,0,1.316-.332A1.02,1.02,0,0,0,22.84-2.242ZM31.387,0a3.036,3.036,0,0,1-.2-.891A3.225,3.225,0,0,1,28.777.156a2.984,2.984,0,0,1-2.051-.707,2.287,2.287,0,0,1-.8-1.793,2.39,2.39,0,0,1,1-2.051,4.733,4.733,0,0,1,2.824-.73H31.16v-.664A1.623,1.623,0,0,0,30.707-7a1.821,1.821,0,0,0-1.336-.449,2.108,2.108,0,0,0-1.3.391,1.151,1.151,0,0,0-.523.945H26.1a2,2,0,0,1,.449-1.223,3.066,3.066,0,0,1,1.219-.934,4.1,4.1,0,0,1,1.691-.344,3.342,3.342,0,0,1,2.289.73,2.635,2.635,0,0,1,.859,2.012v3.891a4.757,4.757,0,0,0,.3,1.852V0Zm-2.4-1.1a2.54,2.54,0,0,0,1.289-.352,2.127,2.127,0,0,0,.883-.914V-4.1H30.027q-2.656,0-2.656,1.555a1.316,1.316,0,0,0,.453,1.063A1.742,1.742,0,0,0,28.988-1.1Z" transform="translate(523 1943)" fill="#361d90"/><rect width="195" height="75" rx="10" transform="translate(1036 1795)" fill="#9d39e3" opacity="0.1"/><path d="M-47.508,0h-1.5V-11.375h1.5Zm3.883-8.453.047,1.063a3.08,3.08,0,0,1,2.531-1.219q2.68,0,2.7,3.023V0h-1.445V-5.594a1.946,1.946,0,0,0-.418-1.352,1.675,1.675,0,0,0-1.277-.437,2.086,2.086,0,0,0-1.234.375,2.546,2.546,0,0,0-.828.984V0h-1.445V-8.453ZM-36.516-4.3a4.952,4.952,0,0,1,.922-3.129A2.915,2.915,0,0,1-33.18-8.609a2.932,2.932,0,0,1,2.352,1.016V-12h1.445V0h-1.328l-.07-.906A2.943,2.943,0,0,1-33.2.156a2.887,2.887,0,0,1-2.395-1.2,5.008,5.008,0,0,1-.926-3.141Zm1.445.164a3.749,3.749,0,0,0,.594,2.25,1.92,1.92,0,0,0,1.641.813A2.108,2.108,0,0,0-30.828-2.3V-6.187a2.125,2.125,0,0,0-1.992-1.2,1.929,1.929,0,0,0-1.656.82A4.128,4.128,0,0,0-35.07-4.133ZM-23.633.156a3.693,3.693,0,0,1-2.8-1.129,4.19,4.19,0,0,1-1.078-3.02v-.266a5.073,5.073,0,0,1,.48-2.246,3.748,3.748,0,0,1,1.344-1.547,3.378,3.378,0,0,1,1.871-.559A3.166,3.166,0,0,1-21.25-7.523a4.7,4.7,0,0,1,.914,3.109v.6h-5.727a3,3,0,0,0,.73,2.02,2.3,2.3,0,0,0,1.777.77,2.517,2.517,0,0,0,1.3-.312,3.259,3.259,0,0,0,.93-.828l.883.688A3.55,3.55,0,0,1-23.633.156Zm-.18-7.578a1.928,1.928,0,0,0-1.469.637A3.1,3.1,0,0,0-26.016-5h4.234v-.109a2.753,2.753,0,0,0-.594-1.707A1.815,1.815,0,0,0-23.812-7.422Zm12.289,3.289a5.062,5.062,0,0,1-.883,3.109A2.829,2.829,0,0,1-14.8.156,3.1,3.1,0,0,1-17.219-.82V3.25h-1.445v-11.7h1.32l.07.938A2.977,2.977,0,0,1-14.82-8.609a2.882,2.882,0,0,1,2.41,1.148,5.117,5.117,0,0,1,.887,3.2ZM-12.969-4.3a3.735,3.735,0,0,0-.609-2.258,1.963,1.963,0,0,0-1.672-.828,2.125,2.125,0,0,0-1.969,1.164V-2.18a2.129,2.129,0,0,0,1.984,1.156,1.954,1.954,0,0,0,1.652-.824A4.077,4.077,0,0,0-12.969-4.3ZM-6.18.156a3.693,3.693,0,0,1-2.8-1.129,4.19,4.19,0,0,1-1.078-3.02v-.266A5.073,5.073,0,0,1-9.574-6.5,3.748,3.748,0,0,1-8.23-8.051a3.378,3.378,0,0,1,1.871-.559A3.166,3.166,0,0,1-3.8-7.523a4.7,4.7,0,0,1,.914,3.109v.6H-8.609a3,3,0,0,0,.73,2.02,2.3,2.3,0,0,0,1.777.77,2.517,2.517,0,0,0,1.3-.312,3.259,3.259,0,0,0,.93-.828l.883.688A3.55,3.55,0,0,1-6.18.156Zm-.18-7.578a1.928,1.928,0,0,0-1.469.637A3.1,3.1,0,0,0-8.562-5h4.234v-.109a2.753,2.753,0,0,0-.594-1.707A1.815,1.815,0,0,0-6.359-7.422ZM.156-8.453.2-7.391A3.08,3.08,0,0,1,2.734-8.609q2.68,0,2.7,3.023V0H3.992V-5.594a1.946,1.946,0,0,0-.418-1.352A1.675,1.675,0,0,0,2.3-7.383a2.086,2.086,0,0,0-1.234.375,2.546,2.546,0,0,0-.828.984V0H-1.211V-8.453ZM7.266-4.3a4.952,4.952,0,0,1,.922-3.129A2.915,2.915,0,0,1,10.6-8.609a2.932,2.932,0,0,1,2.352,1.016V-12H14.4V0H13.07L13-.906A2.943,2.943,0,0,1,10.586.156a2.887,2.887,0,0,1-2.395-1.2,5.008,5.008,0,0,1-.926-3.141Zm1.445.164A3.749,3.749,0,0,0,9.3-1.883a1.92,1.92,0,0,0,1.641.813A2.108,2.108,0,0,0,12.953-2.3V-6.187a2.125,2.125,0,0,0-1.992-1.2,1.929,1.929,0,0,0-1.656.82A4.128,4.128,0,0,0,8.711-4.133ZM18.211,0H16.766V-8.453h1.445ZM16.648-10.7a.863.863,0,0,1,.215-.594.807.807,0,0,1,.637-.242.819.819,0,0,1,.641.242.854.854,0,0,1,.219.594.826.826,0,0,1-.219.586.834.834,0,0,1-.641.234.821.821,0,0,1-.637-.234A.834.834,0,0,1,16.648-10.7ZM24.031.156a3.693,3.693,0,0,1-2.8-1.129,4.19,4.19,0,0,1-1.078-3.02v-.266a5.073,5.073,0,0,1,.48-2.246A3.748,3.748,0,0,1,21.98-8.051a3.378,3.378,0,0,1,1.871-.559,3.166,3.166,0,0,1,2.563,1.086,4.7,4.7,0,0,1,.914,3.109v.6H21.6a3,3,0,0,0,.73,2.02,2.3,2.3,0,0,0,1.777.77,2.517,2.517,0,0,0,1.3-.312,3.259,3.259,0,0,0,.93-.828l.883.688A3.55,3.55,0,0,1,24.031.156Zm-.18-7.578a1.928,1.928,0,0,0-1.469.637A3.1,3.1,0,0,0,21.648-5h4.234v-.109a2.753,2.753,0,0,0-.594-1.707A1.815,1.815,0,0,0,23.852-7.422Zm6.516-1.031.047,1.063a3.08,3.08,0,0,1,2.531-1.219q2.68,0,2.7,3.023V0H34.2V-5.594a1.946,1.946,0,0,0-.418-1.352,1.675,1.675,0,0,0-1.277-.437,2.086,2.086,0,0,0-1.234.375,2.546,2.546,0,0,0-.828.984V0H29V-8.453ZM39.789-10.5v2.047h1.578v1.117H39.789v5.249A1.173,1.173,0,0,0,40-1.325a.888.888,0,0,0,.719.254,3.5,3.5,0,0,0,.688-.094V0A4.215,4.215,0,0,1,40.3.156,1.8,1.8,0,0,1,38.836-.43a2.517,2.517,0,0,1-.492-1.664V-7.336H36.8V-8.453h1.539V-10.5ZM46.563.156a3.693,3.693,0,0,1-2.8-1.129,4.19,4.19,0,0,1-1.078-3.02v-.266a5.073,5.073,0,0,1,.48-2.246,3.748,3.748,0,0,1,1.344-1.547,3.378,3.378,0,0,1,1.871-.559,3.166,3.166,0,0,1,2.563,1.086,4.7,4.7,0,0,1,.914,3.109v.6H44.133a3,3,0,0,0,.73,2.02,2.3,2.3,0,0,0,1.777.77,2.517,2.517,0,0,0,1.3-.312,3.259,3.259,0,0,0,.93-.828l.883.688A3.55,3.55,0,0,1,46.563.156Zm-.18-7.578a1.928,1.928,0,0,0-1.469.637A3.1,3.1,0,0,0,44.18-5h4.234v-.109a2.753,2.753,0,0,0-.594-1.707A1.815,1.815,0,0,0,46.383-7.422Z" transform="translate(1157 1839)" fill="#12263f"/><rect width="195" height="75" rx="10" transform="translate(365 1795)" fill="#361d90" opacity="0.1"/><path d="M-24.02-10.148h-3.656V0h-1.492V-10.148h-3.648v-1.227h8.8Zm4.961,2.992a4.331,4.331,0,0,0-.711-.055A1.9,1.9,0,0,0-21.7-6V0h-1.445V-8.453h1.406l.023.977A2.251,2.251,0,0,1-19.7-8.609a1.477,1.477,0,0,1,.641.109ZM-12.824,0a3.036,3.036,0,0,1-.2-.891A3.225,3.225,0,0,1-15.434.156a2.984,2.984,0,0,1-2.051-.707,2.287,2.287,0,0,1-.8-1.793,2.39,2.39,0,0,1,1-2.051,4.733,4.733,0,0,1,2.824-.73h1.406v-.664A1.623,1.623,0,0,0-13.5-7a1.821,1.821,0,0,0-1.336-.449,2.107,2.107,0,0,0-1.3.391,1.151,1.151,0,0,0-.523.945h-1.453a2,2,0,0,1,.449-1.223,3.066,3.066,0,0,1,1.219-.934,4.1,4.1,0,0,1,1.691-.344,3.342,3.342,0,0,1,2.289.73,2.635,2.635,0,0,1,.859,2.012v3.891a4.757,4.757,0,0,0,.3,1.852V0Zm-2.4-1.1a2.54,2.54,0,0,0,1.289-.352,2.127,2.127,0,0,0,.883-.914V-4.1h-1.133q-2.656,0-2.656,1.555a1.316,1.316,0,0,0,.453,1.063A1.742,1.742,0,0,0-15.223-1.1Zm7.25-7.352.047,1.063A3.08,3.08,0,0,1-5.395-8.609q2.68,0,2.7,3.023V0H-4.137V-5.594a1.946,1.946,0,0,0-.418-1.352,1.675,1.675,0,0,0-1.277-.437,2.086,2.086,0,0,0-1.234.375,2.546,2.546,0,0,0-.828.984V0H-9.34V-8.453ZM-.863-4.3A4.961,4.961,0,0,1,.051-7.449,2.962,2.962,0,0,1,2.5-8.609,2.96,2.96,0,0,1,4.871-7.6l.063-.852H6.262V3.25H4.816V-.781A3.033,3.033,0,0,1,2.488.156,2.915,2.915,0,0,1,.047-1.035,5.072,5.072,0,0,1-.863-4.2Zm1.445.164A3.761,3.761,0,0,0,1.2-1.852a1.951,1.951,0,0,0,1.652.828A2.164,2.164,0,0,0,4.816-2.164V-6.3A2.171,2.171,0,0,0,2.863-7.422,1.965,1.965,0,0,0,1.2-6.59,4.094,4.094,0,0,0,.582-4.133ZM13.8-.836a3.07,3.07,0,0,1-2.477.992A2.628,2.628,0,0,1,9.266-.629a3.4,3.4,0,0,1-.715-2.324v-5.5H10v5.461Q10-1.07,11.559-1.07a2.163,2.163,0,0,0,2.2-1.234V-8.453h1.445V0H13.832ZM18.973,0H17.527V-8.453h1.445ZM17.41-10.7a.863.863,0,0,1,.215-.594.807.807,0,0,1,.637-.242.819.819,0,0,1,.641.242.854.854,0,0,1,.219.594.826.826,0,0,1-.219.586.834.834,0,0,1-.641.234.821.821,0,0,1-.637-.234A.834.834,0,0,1,17.41-10.7ZM22.855,0H21.41V-12h1.445Zm1.93-4.3a4.993,4.993,0,0,1,.488-2.234A3.643,3.643,0,0,1,26.633-8.07a3.7,3.7,0,0,1,1.988-.539,3.565,3.565,0,0,1,2.793,1.2,4.6,4.6,0,0,1,1.066,3.18v.1a5.036,5.036,0,0,1-.473,2.215A3.589,3.589,0,0,1,30.656-.391a3.743,3.743,0,0,1-2.02.547,3.556,3.556,0,0,1-2.785-1.2A4.575,4.575,0,0,1,24.785-4.2Zm1.453.172a3.616,3.616,0,0,0,.652,2.258,2.088,2.088,0,0,0,1.746.852,2.075,2.075,0,0,0,1.75-.863A3.955,3.955,0,0,0,31.035-4.3a3.61,3.61,0,0,0-.66-2.254,2.1,2.1,0,0,0-1.754-.863,2.075,2.075,0,0,0-1.727.852A3.925,3.925,0,0,0,26.238-4.133Z" transform="translate(439 1839)" fill="#361d90"/><g transform="translate(603 1507.999)"><g transform="translate(0 0.001)" clip-path="url(#i)"><path d="M80,40A40,40,0,1,1,40,0,40,40,0,0,1,80,40" transform="translate(0 -0.001)" fill="#edddd6"/><path d="M18.182,60.813A39.939,39.939,0,0,1,5.947,50.354c3.83-5.553,13.763-13.6,19.167-15.392,6.867-2.28-3.251,13.513-6.932,25.851" transform="translate(2.427 14.176)" fill="#7772d3"/><path d="M39.891,16.87a8.193,8.193,0,0,1,5.784,1.356,8.368,8.368,0,0,1,3.36,5.642c1.2,6.9-1.27,8.81,2.675,11.408s6.176,1.005,8.668,7.432S59.039,57.742,51.064,56s-27.317-7.014-27.317-7.014l-.9-28.583L32.528,17.8Z" transform="translate(9.324 6.854)" fill="#e56445"/><path d="M58.529,60a39.692,39.692,0,0,1-13.616,5.637,40.02,40.02,0,0,1-8.227.849c-1.21,0-2.411-.051-3.595-.162A40.1,40.1,0,0,1,8.08,54.448a49.673,49.673,0,0,1,3.664-8.254c5.963-10,14.671-10.948,14.671-10.948,9.326-2.737,17.288-3.226,25.748.893,3.8,1.845,5.637,12.543,6.366,23.86" transform="translate(3.297 13.515)" fill="#7772d3"/><path d="M53.355,58.118,53.1,62.459a39.415,39.415,0,0,1-9.179,3.132,40.01,40.01,0,0,1-8.227.849c-1.21,0-2.411-.051-3.595-.162A39.917,39.917,0,0,1,16.326,61.43c-.172-.094-.344-.189-.507-.291A37.036,37.036,0,0,1,10.5,57.5,190.348,190.348,0,0,1,23.258,35.579l11.283-2.35L48.9,35.682Z" transform="translate(4.284 13.559)" fill="#46467f"/><path d="M23.336,34.9S18.848,49.491,15.9,60.457A38.731,38.731,0,0,1,10.3,56.6l9.531-18.978Z" transform="translate(4.205 14.24)" fill="#7772d3"/><path d="M18.106,26.173s-3.843-6.231-3.543-8.912c.739-6.612,10.016-11.194,19.281-8.08S45,23.8,43.555,28.814c-3.726,12.9-14.988,8.423-14.988,8.423S11.06,33.98,18.106,26.173" transform="translate(5.936 3.339)" fill="#e56445"/><path d="M19.272,31.616l.018.239.521,4.51L20.2,39.9s-.245.845,3.865.287c5.507-.77,7.123-3.272,7.123-3.272l-.351-8.332-1.654.438Z" transform="translate(7.864 11.665)" fill="#fca397"/><path d="M19.285,31.725l.521,4.51c2.665-.517,7.477-2.025,9.157-6.394a3.474,3.474,0,0,0,.221-.931L19.3,31.654Z" transform="translate(7.87 11.797)"/><path d="M17.734,16.729s-4.316,12.14-2,18.627,8.277,5.02,11.793,3.486a11.964,11.964,0,0,0,5.035-3.864,5.1,5.1,0,0,0,5.483-2.387c2.033-3.292.391-6.793-1.59-7.481s-4.172.862-4.172.862l1.552-3.55s-8.77-16.863-16.1-5.694" transform="translate(6.143 5.266)" fill="#fca397"/><path d="M28.053,27.419a.429.429,0,0,1-.334-.7l2.936-3.636a.429.429,0,0,1,.667.539L28.387,27.26a.429.429,0,0,1-.334.159" transform="translate(11.273 9.355)"/><path d="M31.057,25.583l-2.268-.166a.429.429,0,0,1-.4-.459.444.444,0,0,1,.459-.4l2.236.165a.429.429,0,0,1-.03.856" transform="translate(11.585 10.022)"/><path d="M31.535,17.806S29.931,3.7,39.621,5c10.266,1.381,1.011,17.938-5.548,17.2-2.919-.327-2.539-4.4-2.539-4.4" transform="translate(12.828 2.005)" fill="#e56445"/><path d="M19.979,38.408c-.318,0-.513-.008-.553-.01a.431.431,0,0,1-.407-.451.419.419,0,0,1,.449-.407A22,22,0,0,0,30.3,34.932a.429.429,0,0,1,.438.738,22.253,22.253,0,0,1-10.755,2.739" transform="translate(7.761 14.229)" fill="#f7734f"/><path d="M57.7,54.624A39.92,39.92,0,0,1,29.437,66.31c-1.21,0-2.411-.052-3.595-.163.738-4.119,1.536-6.94,1.536-6.94L37.519,33.552s10.089.224,16.85,10.57c1.459,2.239,2.625,5.989,3.329,10.5" transform="translate(10.546 13.691)" fill="#7772d3"/><path d="M39.3,65.588a40.021,40.021,0,0,1-8.227.849c-1.211,0-2.412-.051-3.595-.163a39.2,39.2,0,0,1-5.638-.918c3.595-15.195,8.308-32.118,8.308-32.118l9.006.442Z" transform="translate(8.912 13.563)" fill="#7772d3"/><path d="M36.518,19.914a.43.43,0,0,1-.427-.387c-.607-6.128-4.7-8.3-4.745-8.326a.429.429,0,0,1,.393-.763c.186.1,4.554,2.416,5.207,9a.429.429,0,0,1-.386.469l-.042,0" transform="translate(12.697 4.239)" fill="#fff"/><path d="M21.774,12.069a9.611,9.611,0,0,0-1.666,4.925l-.2,3.04L32.493,23.7l.256-6.091Z" transform="translate(8.124 4.924)" fill="#e56445"/><path d="M22.31,14.561A6.573,6.573,0,0,0,20.7,16.817a32.9,32.9,0,0,0-1.022,3.857l-3.643-.408.415-6.36L21.368,10.9l2.968.332-.459,4.1Z" transform="translate(6.545 4.446)" fill="#e56445"/></g></g><g transform="translate(601 1506)" fill="none" stroke="#361d90" stroke-width="3"><circle cx="41.5" cy="41.5" r="41.5" stroke="none"/><circle cx="41.5" cy="41.5" r="40" fill="none"/></g><g transform="translate(520 1604)"><g clip-path="url(#i)"><path d="M0,40A39.785,39.785,0,0,0,5.379,60.044c.13.222.266.446.4.669.317.532.652,1.065,1,1.579.145.214.291.429.455.644a39.97,39.97,0,0,0,21.93,15.581c.189.052.386.1.575.155A40.025,40.025,0,0,0,73.179,62.326c.677-.987,1.3-2.016,1.878-3.064A40,40,0,1,0,0,40" transform="translate(0 0)" fill="#edddd6"/><path d="M61.254,32.474S65.539,9.738,48.9,5.576s-17.638,19.45-17.638,19.45S13.158,28.472,13.039,46.078c-.148,22,21.121,18.306,21.121,18.306L54.3,56.178s20.177-10.988,6.952-23.7" transform="translate(-4.108 2.075)"/><path d="M4.844,50.173a39.979,39.979,0,0,0,21.93,15.581c.189.052.386.1.575.155A40.024,40.024,0,0,0,70.781,49.564c-5.371-7.343-12.106-12.9-16.688-14.877-6.779-2.918-17.528-4.874-27.456-2.033-.027.008-.061.008-.094.017a30.055,30.055,0,0,0-8.59,3.972A43.187,43.187,0,0,0,4.844,50.173" transform="translate(2.398 12.762)" fill="#f7734f"/><path d="M34.7,27.995v.244l-.2,4.581-.146,3.594s.307.835-3.875.565c-5.6-.386-7.411-2.794-7.411-2.794l-.239-8.421,1.7.324Z" transform="translate(13.152 10.515)" fill="#fca397"/><path d="M33,28.14l-.2,4.582c-2.723-.331-7.681-1.51-9.684-5.794A3.519,3.519,0,0,1,22.828,26l10.16,2.066Z" transform="translate(14.851 10.613)"/><path d="M39.435,12.953s5.213,11.93,3.334,18.632-7.984,5.647-11.638,4.351A12.1,12.1,0,0,1,25.782,32.4a5.149,5.149,0,0,1-5.694-2.016c-2.284-3.174-.877-6.818,1.07-7.653s4.267.572,4.267.572l-1.816-3.467s7.642-17.62,15.827-6.883" transform="translate(10.197 3.871)" fill="#fca397"/><path d="M39.372,12.263a9.933,9.933,0,0,1-6.008,9.232c-6.384,2.885-10.651,2.312-10.651,2.312l.415-8.277L31.12,6.847l7.146,2.277Z" transform="translate(8.643 2.794)"/><path d="M34.448,18l-.024,3.615L31.21,18.441Z" transform="translate(1.605 7.345)"/><path d="M35.688,47.557c.317.532.652,1.065,1,1.579.145.214.291.429.455.644A39.975,39.975,0,0,0,59.077,65.36c.189.052.386.1.575.155L59.1,32.234l-.162.025c-.027.008-.061.008-.094.017-1.974.335-14.9,2.891-21.846,13.067a20.167,20.167,0,0,0-1.312,2.214" transform="translate(-29.905 13.156)" fill="#f7734f"/><path d="M30.651,35.052a20.576,20.576,0,0,0,4.565-.49.429.429,0,1,0-.206-.832c-.076.018-7.638,1.824-12.829-1.962a.429.429,0,1,0-.506.693,15.211,15.211,0,0,0,8.975,2.591" transform="translate(14.184 12.932)" fill="#7772d3"/><path d="M35.49,24.481a.429.429,0,0,0,.291-.745L32.1,20.353a.429.429,0,1,0-.58.631L35.2,24.369a.426.426,0,0,0,.29.113" transform="translate(-0.114 8.26)"/><path d="M32.9,23.463a.415.415,0,0,0,.172-.037l2.2-.963a.429.429,0,1,0-.345-.786l-2.2.963a.429.429,0,0,0,.173.822" transform="translate(-1.249 8.832)"/><path d="M11.7,43.191c.044.051,4.141,4.444,3.364,12.344.246-.159.483-.325.721-.5.068-.044.127-.1.194-.149.5-7.843-3.61-12.228-3.663-12.287a.441.441,0,0,0-.61-.015.433.433,0,0,0-.007.61" transform="translate(47.678 17.332)" fill="#7772d3"/></g></g><g transform="translate(518 1602)" fill="none"><path d="M41.5,0A41.5,41.5,0,1,1,0,41.5,41.5,41.5,0,0,1,41.5,0Z" stroke="none"/><path d="M 41.5 3 C 36.30121231079102 3 31.259521484375 4.01751708984375 26.51498794555664 6.0242919921875 C 21.9307861328125 7.963241577148438 17.81313323974609 10.73965454101562 14.27639007568359 14.27639007568359 C 10.73965454101562 17.81313323974609 7.963241577148438 21.9307861328125 6.0242919921875 26.51498794555664 C 4.01751708984375 31.259521484375 3 36.30121231079102 3 41.5 C 3 46.69878768920898 4.01751708984375 51.740478515625 6.0242919921875 56.48501586914062 C 7.963241577148438 61.0692138671875 10.73965454101562 65.18686676025391 14.27639007568359 68.72361755371094 C 17.81313323974609 72.26034545898438 21.9307861328125 75.03675842285156 26.51498794555664 76.9757080078125 C 31.259521484375 78.98248291015625 36.30121231079102 80 41.5 80 C 46.69878768920898 80 51.740478515625 78.98248291015625 56.48501586914062 76.9757080078125 C 61.0692138671875 75.03675842285156 65.18686676025391 72.26034545898438 68.72361755371094 68.72361755371094 C 72.26034545898438 65.18686676025391 75.03675842285156 61.0692138671875 76.9757080078125 56.48501586914062 C 78.98248291015625 51.740478515625 80 46.69878768920898 80 41.5 C 80 36.30121231079102 78.98248291015625 31.259521484375 76.9757080078125 26.51498794555664 C 75.03675842285156 21.9307861328125 72.26034545898438 17.81313323974609 68.72361755371094 14.27639007568359 C 65.18686676025391 10.73965454101562 61.0692138671875 7.963241577148438 56.48501586914062 6.0242919921875 C 51.740478515625 4.01751708984375 46.69878768920898 3 41.5 3 M 41.5 0 C 64.41981506347656 0 83 18.58018493652344 83 41.5 C 83 64.41981506347656 64.41981506347656 83 41.5 83 C 18.58018493652344 83 0 64.41981506347656 0 41.5 C 0 18.58018493652344 18.58018493652344 0 41.5 0 Z" stroke="none" fill="#361d90"/></g><g transform="translate(520 1792.5)"><g transform="translate(0 0)" clip-path="url(#i)"><path d="M80,40A40,40,0,1,1,40,0,39.788,39.788,0,0,1,80,40" transform="translate(0 0)" fill="#edddd6"/><path d="M76.037,37.44A40.012,40.012,0,0,1,6.428,52.515c11.7-14.321,24.324-15.847,24.324-15.847a8.226,8.226,0,0,1,0-2.746,3.226,3.226,0,0,1,1.442-.97l.283-.111s.635-.111,1.631-.266c2-.317,5.448-.824,8.125-1.021.815-.069,1.562-.1,2.17-.094a4.014,4.014,0,0,1,1.442.2c.335.155.721,1.184.721,1.184a49.422,49.422,0,0,1,11.789,0,79.685,79.685,0,0,1,17.683,4.6" transform="translate(2.623 12.839)" fill="#7c6053"/><path d="M25.64,19.9s-6.994-2.245-7.032,3.013c-.044,6.092,7.173,5.475,7.173,5.475Z" transform="translate(7.594 7.928)" fill="#f27e64"/><path d="M22.436,25.17a.427.427,0,0,1-.349-.179l-2.6-3.639a.429.429,0,1,1,.7-.5l2.6,3.639a.428.428,0,0,1-.1.6.423.423,0,0,1-.249.08" transform="translate(7.919 8.438)"/><path d="M19.75,23.531a.429.429,0,0,1-.046-.856l1.916-.211a.429.429,0,0,1,.093.853l-1.915.211-.048,0" transform="translate(7.886 9.167)"/><path d="M36.764,29.5l.715,7.058a14.934,14.934,0,0,1-5.993,2.1c-4.595.507-6.4-2.078-6.4-2.078l-.738-8.284Z" transform="translate(9.936 11.548)" fill="#f27e64"/><path d="M36.932,29.278s-1.671,5.923-6.969,5.63c-4.269-.237-6.031-6.1-6.031-6.1Z" transform="translate(9.767 11.759)"/><path d="M21.8,17.6S20.059,30.8,24.3,36.179a8.764,8.764,0,0,0,12.99,1.276,10.849,10.849,0,0,0,3.337-6.289s4.52.47,5.662-3.288c1.2-3.946-1.85-6.756-4.086-6.729s-2.459.453-2.459.453l.273-4.12S25.12,3.742,21.8,17.6" transform="translate(8.754 4.656)" fill="#f27e64"/><path d="M35.442,23.975a.429.429,0,0,1-.308-.727l3.151-3.258a.429.429,0,0,1,.617.6l-3.151,3.257a.427.427,0,0,1-.308.131" transform="translate(14.29 8.105)"/><path d="M38.351,23.592a.436.436,0,0,1-.224-.063L35.963,22.2a.429.429,0,1,1,.451-.731L38.577,22.8a.429.429,0,0,1-.225.794" transform="translate(14.594 8.735)"/><path d="M35.691,19.439s-1.024,4.116-1.555,4-.249-6.483,1.229-6.876.325,2.874.325,2.874" transform="translate(13.83 6.747)"/><path d="M41.165,22.633a16.318,16.318,0,0,1-7.617-2.376,11.585,11.585,0,0,1-3.733-4.619A7.893,7.893,0,0,0,25.2,17.29c-2.678,1.812-2.666,7.049-2.666,7.049S17.064,15.7,19.346,12.464s6.362-.81,6.362-.81-.955-5.761,7.159-3.871a14.111,14.111,0,0,1,10.247,8.73s2.726-.36,3.175,2.16a11.588,11.588,0,0,1-.47,5.142,2.967,2.967,0,0,0-3.039-.321l-1.8.758Z" transform="translate(7.668 3.021)"/><path d="M25.252,32.807s1.56,1.48,5.169,1.57,6.773-2.828,6.773-2.828l2.325,4.267-5.749,3.51-9.636-.81V34.2Z" transform="translate(9.85 12.876)" fill="#7c6053"/><path d="M29.532,38.418a7.909,7.909,0,0,1-6.052-2.887.428.428,0,0,1,.693-.5A6.955,6.955,0,0,0,31.9,37.19a.429.429,0,1,1,.251.821,8.95,8.95,0,0,1-2.615.407" transform="translate(9.549 14.224)" fill="#fff"/></g></g><g transform="translate(517 1791)" fill="none" stroke="#361d90" stroke-width="3"><circle cx="41.5" cy="41.5" r="41.5" stroke="none"/><circle cx="41.5" cy="41.5" r="40" fill="none"/></g><g transform="translate(1020 1697.5)"><g transform="translate(0 0)" clip-path="url(#i)"><path d="M80,40A40.009,40.009,0,0,1,26.08,77.5a38.409,38.409,0,0,1-6.271-2.976A40,40,0,1,1,80,40" transform="translate(0 0)" fill="#edddd6"/><path d="M51.917,49.223,23.615,64.9a38.423,38.423,0,0,1-6.273-2.976,39.9,39.9,0,0,1-11.3-9.857c2.968-6.3,10.011-17.235,24.183-20.693a15.007,15.007,0,0,1,7.61-.017c10.587,2.891,14.078,17.862,14.078,17.862" transform="translate(2.466 12.599)" fill="#7c6053"/><path d="M69.619,46.264A40.022,40.022,0,0,1,20.341,65.052a38.47,38.47,0,0,1-6.271-2.976C15.116,50.21,16.2,40.25,17,38.379c1.433-3.32,11.033-5.653,17.562-6.871,3.5-.652,6.118-.987,6.118-.987s12.886.515,23.343,9.257a32.028,32.028,0,0,1,5.594,6.485" transform="translate(5.74 12.452)" fill="#7c6053"/><path d="M22.588,8.479s-4.549,5.146-2.049,10.82S25.722,8.993,25.722,8.993Z" transform="translate(8.073 3.459)" fill="#ada9c4"/><path d="M36.586,24.9l.173,10.208S34.968,38.076,29,38.663c-4.442.436-6.022-.542-6.022-.542l.532-5.18.527-5.053,10.743-2.554Z" transform="translate(9.376 10.16)" fill="#f27e64"/><path d="M34.687,25.209c-.023.279,1.642,1.157,1.483,1.538-2.2,5.138-10.384,7.72-12.951,7.993l.724-6.977Z" transform="translate(9.473 10.285)"/><path d="M24.836,9.271a9.631,9.631,0,0,0-2.962,4.422c-1.335,3.94-4.027,13.138-2.263,18.778,2.292,7.329,8.9,5.957,12.83,4.4a13.127,13.127,0,0,0,5.692-4.083,5.555,5.555,0,0,0,6.125-2.417c2.368-3.579.7-7.551-1.449-8.406s-4.622.776-4.622.776l1.849-3.886s-7.44-15.9-15.2-9.587" transform="translate(7.764 3.177)" fill="#f27e64"/><path d="M33.146,22.991a.429.429,0,0,1-.256-.773l3.727-2.778a.429.429,0,1,1,.513.688L33.4,22.906a.433.433,0,0,1-.256.084" transform="translate(13.348 7.896)"/><path d="M37,22.306a.411.411,0,0,1-.1-.011l-3.041-.728a.431.431,0,0,1-.318-.518.425.425,0,0,1,.517-.317l3.043.728a.429.429,0,0,1-.1.846" transform="translate(13.681 8.453)"/><path d="M37.455,23.326s-1.059,4.249-1.873,3.731-1.577-6.644-.969-9.386,1.049-4.121,1.049-4.121-11.15-.991-14.09-3.641,3.269-4.361,9.621-3.158,8.855,3.589,8.855,3.589,3.979-.593,5.466,1.835-1.9,11.651-1.9,11.651-1-2.315-6.161-.5" transform="translate(8.495 2.594)" fill="#ada9c4"/><path d="M17.53,22.392s3.116-3.451,4.7-2.933S24.394,22.3,24.394,22.3s1.882-2.606,3.958-1.874,6.527,1.005,6.574,1.726-1.24.977-1.24.977-10.477,1.211-16.155-.734" transform="translate(7.152 7.917)" fill="#ada9c4"/><path d="M38.249,18.41S38.062,25.3,38.2,28.457s-8.646,8.086-14.711,5.364-4.4-10.668-4.4-10.668l5.405.5a10.366,10.366,0,0,1,2.661-1,6.96,6.96,0,0,1,3.3.48Z" transform="translate(7.701 7.511)" fill="#ada9c4"/><path d="M23.588,24.018a.428.428,0,0,1-.044-.855,3.484,3.484,0,0,0,2.52-1.553.429.429,0,0,1,.767.383,4.281,4.281,0,0,1-3.2,2.022l-.045,0" transform="translate(9.449 8.72)"/><path d="M26.963,36.506a23.888,23.888,0,0,1-5.5-.634.43.43,0,0,1,.217-.832c.1.027,10.613,2.662,15.864-3.557a.429.429,0,0,1,.655.553c-3.058,3.626-7.637,4.469-11.233,4.469" transform="translate(8.625 12.783)" fill="#fff"/></g></g><g transform="translate(1018 1696)" fill="none" stroke="#9d39e3" stroke-width="3"><circle cx="41.5" cy="41.5" r="41.5" stroke="none"/><circle cx="41.5" cy="41.5" r="40" fill="none"/></g><g transform="translate(602 1897)"><g clip-path="url(#i)"><path d="M0,40A39.964,39.964,0,0,0,29.238,78.534c.814.231,1.647.437,2.488.608a40.605,40.605,0,0,0,12.465.644c.9-.094,1.794-.222,2.677-.377,1.167-.206,2.308-.455,3.441-.755a38.33,38.33,0,0,0,4.477-1.484A40,40,0,1,0,0,40" transform="translate(0 0)" fill="#edddd6"/><path d="M17.908,65.514a40.2,40.2,0,0,0,17.632.876c1.164-.207,2.308-.455,3.438-.756a37.831,37.831,0,0,0,4.479-1.484l-2.84-28.6L25.131,31.9l-6.159,1.828Z" transform="translate(11.329 13.018)" fill="#f7734f"/><path d="M44,16.438s5.875-7.242,4.289-8.2a2.691,2.691,0,0,0-3.092.5S33.221,6.855,28.849,8.1s-7.295,8.4-7.295,8.4-2.192-.2-3.119,2.785,5.521,17.689,9.639,16.92S44,16.438,44,16.438" transform="translate(5.608 3.132)"/><path d="M23.63,26.249l-.2,10s1.746,2.912,7.586,3.506c4.351.442,5.9-.513,5.9-.513l-.505-5.078-.5-4.951L25.394,26.677Z" transform="translate(10.1 10.713)" fill="#fca397"/><path d="M23.785,26.552a3.3,3.3,0,0,0,.272.97c2.137,5.041,8.232,6.242,10.746,6.518l-.5-4.951Z" transform="translate(11.709 10.837)"/><path d="M41.794,13.308s4.994,12.645,2.785,19.57-8.542,5.6-12.307,4.108a12.623,12.623,0,0,1-5.45-3.889,5.379,5.379,0,0,1-5.868-2.318c-2.264-3.4-.662-7.148,1.4-7.947s4.43.756,4.43.756L25.021,19.9s8.631-18.1,16.773-6.593" transform="translate(6.908 3.868)" fill="#fca397"/><path d="M40.835,13.745s-3.892-1.566-5.553-.194-3.617,12.966-9.455,10.474-2.817-9.919-2.817-9.919,14.681-12.573,17.825-.36" transform="translate(7.868 3.432)"/><path d="M3.461,31.874s1.828,16.868,3.8,33.771a40.049,40.049,0,0,0,24.82-19.511c-3.175-3.329-8.254-8.9-12.637-10.674A57.15,57.15,0,0,0,3.461,31.874" transform="translate(43.046 13.009)" fill="#507849"/><path d="M32.389,37.5a18.676,18.676,0,0,0,4.77-.615.43.43,0,0,0-.239-.825c-.086.025-8.561,2.4-13.042-2.858a.429.429,0,1,0-.653.556A11.668,11.668,0,0,0,32.389,37.5" transform="translate(9.977 13.487)" fill="#fff"/><path d="M32.964,42.767A40.085,40.085,0,0,0,59.224,66.13c.815.231,1.647.438,2.488.608C62.931,53.551,63.575,30.4,63.575,30.4s-17.331-.945-30.611,12.363" transform="translate(-29.988 12.402)" fill="#507849"/><path d="M36.481,24.652a.428.428,0,0,0,.308-.727l-3.15-3.263a.429.429,0,1,0-.617.6l3.15,3.263a.424.424,0,0,0,.308.131" transform="translate(-3.234 8.38)"/><path d="M34.425,23.348a.417.417,0,0,0,.108-.014l2.719-.71a.429.429,0,0,0-.215-.831l-2.72.71a.429.429,0,0,0,.108.845" transform="translate(-5.439 8.889)"/></g></g><g transform="translate(600 1895)" fill="none" stroke="#361d90" stroke-width="3"><circle cx="41.5" cy="41.5" r="41.5" stroke="none"/><circle cx="41.5" cy="41.5" r="40" fill="none"/></g><g transform="translate(915 1507.5)"><g transform="translate(0 0)" clip-path="url(#i)"><path d="M80,40A40,40,0,1,1,40,0,39.9,39.9,0,0,1,80,40" transform="translate(0 0)" fill="#edddd6"/><path d="M31.231,20.81s6.448-3.054,7.156,2C39.207,28.673,32.179,29,32.179,29Z" transform="translate(12.746 8.12)" fill="#f27e64"/><path d="M33.809,25.605a.436.436,0,0,1-.2-.051.428.428,0,0,1-.177-.58l2.043-3.836a.429.429,0,0,1,.758.4l-2.043,3.834a.429.429,0,0,1-.379.228" transform="translate(13.623 8.535)"/><path d="M34.257,23.666a.429.429,0,0,1-.01-.858l1.873-.041a.437.437,0,0,1,.438.42.429.429,0,0,1-.42.438l-1.871.041Z" transform="translate(13.806 9.292)"/><path d="M71.306,47.155A40.01,40.01,0,0,1,61.7,57.88c-.249.206-.5.394-.755.575a40.044,40.044,0,0,1-38.9,4.9c-.266-.111-.532-.222-.8-.344A39.957,39.957,0,0,1,6.964,52.534,21.638,21.638,0,0,1,16.9,39.81c13.625-7.662,34.029-7.662,43.106-3.354,5.578,2.642,9.258,7.379,11.3,10.7" transform="translate(2.842 13.695)" fill="#7772d3"/><path d="M40.117,20.8s4.262-6.874,3.4-9.809-4.7-.058-4.7-.058-.873-6.321-5.58-5.095C26.972,7.468,20.748,18.507,20.748,18.507s-3.192-.8-4.272,2c-1.256,3.257-.153,6.91,1.859,10.161s7.464.569,7.464.569Z" transform="translate(6.507 2.317)"/><path d="M23.715,31.411l.228,7.529a14.186,14.186,0,0,0,6.2,1.381c4.607-.1,6.092-2.128,6.092-2.128l-.407-9.767Z" transform="translate(9.679 11.602)" fill="#f27e64"/><path d="M23.712,31.015s2.913,5.658,8.111,4.675c4.189-.794,4.017-6.727,4.017-6.727Z" transform="translate(9.678 11.821)"/><path d="M39.715,17.926s2.305,13.093-.028,18.211c-2.618,5.741-9.319,4.972-11.721,3.27a14.49,14.49,0,0,1-4.638-6.013s-4.293,1.029-5.872-2.443c-1.659-3.647.918-6.741,3.075-7s2.425.123,2.425.123l-.789-3.931S34.754,5.01,39.715,17.926" transform="translate(6.908 5.187)" fill="#f27e64"/><path d="M21.7,24.513a9.941,9.941,0,0,0,5.97-2.419c3.715-2.954,3.127-7.831,3.127-7.831s6.762,3.877,8.442,8.987,1.656-12.23-5.823-11.6S15.963,17.16,21.7,24.513" transform="translate(8.161 4.747)"/><path d="M21.974,25.924a.423.423,0,0,1-.266-.093L18.258,23.1a.429.429,0,0,1,.534-.673l3.449,2.733a.429.429,0,0,1-.266.766" transform="translate(7.385 9.114)"/><path d="M18.8,26.043a.429.429,0,0,1-.272-.762l1.914-1.557a.429.429,0,0,1,.542.665l-1.914,1.559a.424.424,0,0,1-.27.1" transform="translate(7.498 9.643)"/><path d="M20.7,21.639s1.511,3.833,2.008,3.655-.589-6.275-2.062-6.465.054,2.809.054,2.809" transform="translate(8.165 7.681)"/><path d="M30.62,38.64a20.549,20.549,0,0,1-7.753-1.77.429.429,0,0,1,.37-.774c.107.052,10.7,5.017,14.687-2.318a.429.429,0,1,1,.753.411c-1.883,3.461-5.05,4.451-8.057,4.451" transform="translate(9.233 13.694)" fill="#ffbf69"/><path d="M18.877,51.253l-.97,5.088c-.265-.111-.531-.222-.8-.342l.935-4.909a.433.433,0,0,1,.506-.344.419.419,0,0,1,.327.507" transform="translate(6.983 20.708)" fill="#ffbf69"/></g></g><g transform="translate(913 1506)" fill="none" stroke="#9d39e3" stroke-width="3"><circle cx="41.5" cy="41.5" r="41.5" stroke="none"/><circle cx="41.5" cy="41.5" r="40" fill="none"/></g><g transform="translate(996.5 1603.5)"><g transform="translate(0 0)" clip-path="url(#i)"><path d="M80,40a39.833,39.833,0,0,1-9.034,25.317A39.963,39.963,0,0,1,40,80a40.459,40.459,0,0,1-7.036-.617,37.7,37.7,0,0,1-5.293-1.331A40,40,0,1,1,80,40" transform="translate(0 0)" fill="#edddd6"/><path d="M32.128,13.885a16.634,16.634,0,0,0-16.811-.161c-9.11,5.059-6.254,14.444-6.254,14.444s-7.143,8.955-3.8,17.852,18.178,11.427,24.769,1.393-3.875-18.98-3.875-18.98,8.49-.045,5.975-14.549" transform="translate(1.783 4.699)" fill="#e56445"/><path d="M53.62,49.34a40.194,40.194,0,0,1-11.1,9.4,42.583,42.583,0,0,1,4.667-19.568A111.937,111.937,0,0,0,53.62,49.34" transform="translate(17.346 15.982)" fill="#fca397"/><path d="M46.406,23.594s3.29-10.175,2.841-12.749S38,4.95,29.426,8.948s-9.153,15.275-7.22,19.94c4.98,12.011,15.33,6.484,15.33,6.484s16.493-5.026,8.87-11.778" transform="translate(8.686 2.893)" fill="#e56445"/><path d="M59.635,55.762a39.934,39.934,0,0,1-27.65,11.1,40.471,40.471,0,0,1-7.036-.618,37.555,37.555,0,0,1-5.293-1.331c.436-8.484,1.012-17.235,1.723-23.12.455-3.766.97-6.357,1.545-6.965a7.037,7.037,0,0,1,2.968-1.494A32.592,32.592,0,0,1,34.61,32.2a37.66,37.66,0,0,1,10.972,1.433,20.98,20.98,0,0,1,8.6,4.718,11.013,11.013,0,0,1,2.333,3.664c1.5,3.457,2.479,8.33,3.123,13.743" transform="translate(8.02 13.137)" fill="#507849"/><path d="M41.5,28.792l.008.252L41.5,33.8l.01,3.733s.339.853-3.81.746c-5.562-.168-7.451-2.589-7.451-2.589l-.6-8.724,1.694.265Z" transform="translate(12.097 11.003)" fill="#fca397"/><path d="M40.925,29.1l-.013,4.394c-2.622-.207-7.414-1.139-9.5-5.16a3.327,3.327,0,0,1-.313-.872l9.809,1.571Z" transform="translate(12.687 11.204)"/><path d="M44.2,14.562s5.466,11.215,3.935,17.705-7.42,5.725-10.97,4.631A11.588,11.588,0,0,1,31.9,33.726a4.937,4.937,0,0,1-5.533-1.7c-2.312-2.948-1.112-6.494.721-7.371s4.107.377,4.107.377l-1.877-3.247S35.935,4.609,44.2,14.562" transform="translate(10.239 4.675)" fill="#fca397"/><path d="M30.266,26.131a.425.425,0,0,1-.3-.124l-3.219-3.181a.429.429,0,0,1,.6-.61L30.567,25.4a.428.428,0,0,1-.3.734" transform="translate(10.86 9.013)"/><path d="M26.978,24.781a.429.429,0,0,1-.079-.85l2.136-.4a.428.428,0,0,1,.158.842l-2.134.4a.53.53,0,0,1-.08.007" transform="translate(10.832 9.597)"/><path d="M30.558,25.615s4.9-2.73,6.574-6.384,1.683-5.457,1.683-5.457.814,2.329,2.65,2.82a13.949,13.949,0,0,0,2.971.514l1.277,3.307-1.035-7.956S39.659,10,39,10.022s-8.927,1.805-9.39,2.323-2.861,7.072-2.861,7.072l-.08,2.924Z" transform="translate(10.88 4.089)" fill="#e56445"/><path d="M29.051,65.483a37.5,37.5,0,0,1-5.293-1.329A39.652,39.652,0,0,1,9.6,56.072a61.6,61.6,0,0,1,7.24-11.427A72.787,72.787,0,0,1,27.027,34.067l.47,2.174a68.694,68.694,0,0,1,1.547,14.492c0,4.89.007,9.593.007,14.75" transform="translate(3.918 13.898)" fill="#fca397"/><path d="M37.673,36.4a12.637,12.637,0,0,1-8.2-3.075.429.429,0,0,1,.6-.614,11.548,11.548,0,0,0,12.282,1.878.429.429,0,0,1,.322.8A13.243,13.243,0,0,1,37.673,36.4" transform="translate(11.973 13.295)" fill="#fff"/></g></g><g transform="translate(995 1602)" fill="none" stroke="#9d39e3" stroke-width="3"><circle cx="41.5" cy="41.5" r="41.5" stroke="none"/><circle cx="41.5" cy="41.5" r="40" fill="none"/></g><g transform="translate(1000 1792.5)"><g transform="translate(0 0)" clip-path="url(#i)"><path d="M80,40A40,40,0,1,1,40,0,39.823,39.823,0,0,1,80,40" transform="translate(0 0)" fill="#edddd6"/><path d="M26.242,12.968s5.383-7.532,19.153-.077,7.93,41.692,7.93,41.692L27.406,51.247Z" transform="translate(10.706 3.917)"/><path d="M32.92,26.192l.611,9.855S32,38.983,26.484,39.785c-4.107.6-5.552-1.529-5.552-1.529L21.4,29.57l9.866-2.891Z" transform="translate(8.54 10.69)" fill="#fca397"/><path d="M32.81,25.766a3.317,3.317,0,0,1-.217.967c-1.815,5.051-9.148,7.548-11.519,7.914l.265-4.9Z" transform="translate(8.598 10.516)"/><path d="M19.511,13.887s-4.206,12.656-1.819,19.4,8.335,5.2,11.844,3.6a12,12,0,0,0,5.005-4.039,4.982,4.982,0,0,0,5.469-2.5c2-3.434.327-7.074-1.666-7.786s-4.169.908-4.169.908l1.519-3.7S26.75,2.233,19.511,13.887" transform="translate(6.919 4.036)" fill="#fca397"/><path d="M29.984,24.961a.42.42,0,0,1-.26-.089.429.429,0,0,1-.08-.6l2.906-3.795a.429.429,0,1,1,.68.522l-2.9,3.795a.428.428,0,0,1-.341.168" transform="translate(12.058 8.289)"/><path d="M32.984,23.038l-2.274-.166a.428.428,0,1,1,.062-.855l2.242.165a.429.429,0,0,1-.03.856" transform="translate(12.367 8.985)"/><path d="M17.886,17.214a.429.429,0,0,1-.113-.843l2.06-.559a.429.429,0,1,1,.224.828L18,17.2a.4.4,0,0,1-.113.015" transform="translate(7.122 6.447)"/><path d="M20.96,38.287s-1.06-5.237.318-5.552,3.013.583,6.233-.217,4.9-2,5.928-2.064.71,6.535.71,6.535L26.2,40.349Z" transform="translate(8.392 12.429)" fill="#507849"/><path d="M38.773,23.624a6.261,6.261,0,0,0-2.706-.328,4.9,4.9,0,0,0-2.027.945l-1.422,1.978.8-4.051a27.97,27.97,0,0,0-2.582-1.188l.532-3.495L29.946,20.63a21.393,21.393,0,0,0-5.015-1.269,24.934,24.934,0,0,0-2.537-.161l.467-3.8L21.434,19.2a12.985,12.985,0,0,0-2.858.328l-1.281,3.92S16.98,12.881,21.562,9.979,34.484,7.063,38.337,12.06s.436,11.564.436,11.564" transform="translate(7.054 3.267)"/><path d="M66.9,53.465a39.991,39.991,0,0,1-61.375-3.7c3.6-4.462,11.393-12.587,21.7-14.74C40.686,32.2,59.8,35.266,66.9,53.465" transform="translate(2.252 13.922)" fill="#507849"/><path d="M26.683,34.838a.429.429,0,1,1,0-.858,12.031,12.031,0,0,0,4.494-1.053.43.43,0,0,1,.365.779,12.68,12.68,0,0,1-4.859,1.132" transform="translate(10.711 13.422)" fill="#fff"/></g></g><g transform="translate(998 1791)" fill="none" stroke="#9d39e3" stroke-width="3"><circle cx="41.5" cy="41.5" r="41.5" stroke="none"/><circle cx="41.5" cy="41.5" r="40" fill="none"/></g><g transform="translate(915 1896)"><g transform="translate(0 0)" clip-path="url(#i)"><path d="M80,40a39.984,39.984,0,0,1-2.754,14.619A39.137,39.137,0,0,1,71.687,64.4c-.4.532-.824,1.046-1.27,1.553-.308.369-.627.729-.952,1.09a39.749,39.749,0,0,1-7.627,6.477c-.859.558-1.733,1.09-2.634,1.578A40.03,40.03,0,0,1,17.87,73.326c-.163-.111-.325-.222-.489-.344a36.061,36.061,0,0,1-4.152-3.268c-.146-.13-.293-.258-.429-.4-.6-.549-1.176-1.115-1.733-1.7-.283-.3-.566-.6-.841-.91-.034-.042-.077-.086-.111-.128A40,40,0,1,1,80,40" transform="translate(0 0)" fill="#edddd6"/><path d="M66.258,54.13a39.607,39.607,0,0,1-7.627,6.477c-.857.558-1.733,1.09-2.633,1.58a40.027,40.027,0,0,1-41.334-1.768c-.163-.111-.327-.222-.49-.342a36.227,36.227,0,0,1-4.152-3.269c-.145-.128-.291-.258-.429-.394-.6-.549-1.174-1.115-1.732-1.7,1.509-4.555,4.932-10.389,7.6-14.567a18.224,18.224,0,0,1,13.993-8.373c7.292-.532,16.241.558,22.676,1.828a10.053,10.053,0,0,1,6.613,5.242A136.9,136.9,0,0,1,66.258,54.13" transform="translate(3.207 12.906)" fill="#f7734f"/><path d="M35.451,8.323s-.355-2.26,1.8-1.336,1.232,3.185,0,2.877a3.013,3.013,0,0,1-1.8-1.54" transform="translate(14.455 2.76)" fill="#7772d3"/><path d="M41.262,19.069s-.338,6.1-3.082,6.375S31.4,22.257,31.4,22.257l1.892-6.86Z" transform="translate(12.81 6.282)"/><path d="M26.534,19.085s-8.955-2.877-10.29-6.678S31.83,14.36,31.83,14.36Z" transform="translate(6.597 4.532)" fill="#5c5cc6"/><path d="M36.7,26.043l-.694,9.69s-1.75,2.733-7.347,3.138c-4.17.3-5.623-.653-5.623-.653l.622-4.838.615-4.717,10.118-2.132Z" transform="translate(9.399 10.625)" fill="#f49282"/><path d="M34.214,26.39a3.145,3.145,0,0,1-.286.919c-2.182,4.758-8.04,5.735-10.449,5.929l.615-4.717Z" transform="translate(9.579 10.766)"/><path d="M23.593,13.427S18.47,25.369,20.387,32.047s8.007,5.584,11.645,4.266a12.065,12.065,0,0,0,5.317-3.565,5.144,5.144,0,0,0,5.673-2.05c2.257-3.183.829-6.812-1.121-7.633s-4.255.6-4.255.6l1.791-3.473S31.694,2.656,23.593,13.427" transform="translate(8.142 4.05)" fill="#f49282"/><path d="M32.867,24.523a.429.429,0,0,1-.248-.779l4.335-3.06a.428.428,0,0,1,.494.7l-4.335,3.06a.417.417,0,0,1-.246.079" transform="translate(13.234 8.406)"/><path d="M36.475,23.841a.512.512,0,0,1-.111-.014l-2.829-.756a.429.429,0,0,1,.221-.829l2.83.756a.429.429,0,0,1-.111.843" transform="translate(13.552 9.068)"/><path d="M22.056,15.554s.705-.955,3.091-.949a5.157,5.157,0,0,1,3.764,1.7s.2,4.324,3.424,6.485,4.456,1.271,4.456,1.271l2.36-.817,1.756-3.423-6.739-7.395-8.1-3.457-4.011,4.462Z" transform="translate(8.998 3.658)"/><path d="M21.836,14.045s3.379-9.6,15.355-7.548,7.972,17.283,7.972,17.283L39.7,22.007Z" transform="translate(8.909 2.533)" fill="#7772d3"/><path d="M19.361,11.293s4.193.153,15,5.155a73.939,73.939,0,0,1,6.974,3.74s-12.437-5.224-17.27-5.164A6.767,6.767,0,0,0,21,15.739Z" transform="translate(7.899 4.607)" fill="#5c5cc6"/><path d="M26.82,36.456a17.412,17.412,0,0,1-3.758-.377.429.429,0,1,1,.2-.835c.072.017,7.145,1.639,12.616-2.412a.429.429,0,0,1,.511.69,16,16,0,0,1-9.567,2.934" transform="translate(9.274 13.361)" fill="#46467f"/></g></g><g transform="translate(913 1895)" fill="none" stroke="#9d39e3" stroke-width="3"><circle cx="41.5" cy="41.5" r="41.5" stroke="none"/><circle cx="41.5" cy="41.5" r="40" fill="none"/></g><g transform="translate(722.181 1679.364)"><g transform="translate(0 0)" clip-path="url(#r)"><path d="M152.152,76.068a76.009,76.009,0,0,1-32.7,62.493,75.523,75.523,0,0,1-43.368,13.574c-.589,0-1.192,0-1.8-.016a76.069,76.069,0,1,1,77.864-76.051" transform="translate(0 0.002)" fill="#edddd6"/><path d="M106.93,84.633A76.486,76.486,0,0,1,92.652,92.45a75.961,75.961,0,0,1-29.092,5.76c-.586,0-1.192,0-1.794-.019A75.724,75.724,0,0,1,13.843,79.722a76.189,76.189,0,0,1-6.379-6.2c5.35-11.6,17.767-33.484,37.185-38.738.23-.064.458-.112.669-.179,22.467-5.677,52.949-.375,59.017,4.177,2.5,2.057,2.938,22.467,2.595,45.85" transform="translate(12.523 53.929)" fill="#7c6053"/><path d="M28.725,35.764s-12.645-15.636-7.34-21.84,13.507,0,13.507,0,.455-7.34,8.631-6.582,13.113,9.474,13.113,9.474,7.193-7.2,12.12,0,1.516,18.948,1.516,18.948,5.688-.841,4.169,5.832S63.985,55.149,63.985,55.149Z" transform="translate(33.7 12.226)"/><path d="M48.417,27.114l.238,17.634s-3.112,5.112-13.416,6.089c-7.677.728-10.4-.972-10.4-.972l.951-8.947.937-8.722L45.3,27.848Z" transform="translate(41.679 45.493)" fill="#fca397"/><path d="M44.707,27.388a5.793,5.793,0,0,1-.49,1.708C40.39,37.957,29.631,40,25.2,40.459l.94-8.722Z" transform="translate(42.275 45.953)"/><path d="M27.69,18.209s-8.955,22.234-5.141,34.467,14.993,9.967,21.65,7.388a22.24,22.24,0,0,0,9.654-6.794,9.489,9.489,0,0,0,10.377-4.014c4.03-5.964,1.251-12.594-2.381-14.027s-7.822,1.28-7.822,1.28l3.157-6.478s-15-32.019-29.494-11.823" transform="translate(36.246 19.339)" fill="#fca397"/><path d="M34.51,28.552a.817.817,0,0,1-.485-1.473l6.644-4.914a.816.816,0,1,1,.969,1.312L35,28.391a.8.8,0,0,1-.485.161" transform="translate(56.533 36.922)"/><path d="M40.5,26.2a.792.792,0,0,1-.193-.024L35.059,24.9a.816.816,0,0,1,.386-1.585L40.7,24.589A.816.816,0,0,1,40.5,26.2" transform="translate(57.779 39.079)"/><path d="M24.294,26.172a7.441,7.441,0,0,1,6.263-3.661,9.516,9.516,0,0,1,7.008,2.975s-1.826,7.431,4.2,11.287,10.647,2.691,10.647,2.691l4.319-1.607,3.1-6.381L47.1,18.12,30.739,9.765l-8.178,7.626Z" transform="translate(37.854 16.384)"/><path d="M74.357,58.835a76.368,76.368,0,0,1-20.8,21.637,76.607,76.607,0,0,1-14.276,7.814L50.958,34.622a101.354,101.354,0,0,1,23.4,24.213" transform="translate(65.901 58.09)" fill="#7c6053"/><path d="M34.5,41.21a40.192,40.192,0,0,1-10.173-1.3.815.815,0,1,1,.45-1.567,39.623,39.623,0,0,0,12.265,1.141c7.479-.557,14.618-5.873,14.691-5.926a.815.815,0,0,1,.98,1.3c-.305.23-7.581,5.661-15.55,6.253-.908.067-1.8.1-2.662.1" transform="translate(39.821 56.031)" fill="#ffbf69"/></g></g></g></svg>