<svg xmlns="http://www.w3.org/2000/svg" width="76.499" height="76.499" viewBox="0 0 76.499 76.499"><g transform="translate(-967.574 -1683.061)"><path d="M1776.074,1245.325a4.1,4.1,0,1,0-4.1-4.1,4.1,4.1,0,0,0,4.1,4.1m0-6.888a2.788,2.788,0,1,1-2.788,2.788,2.791,2.791,0,0,1,2.788-2.788" transform="translate(-769.967 460.91)" fill="#361d90"/><path d="M1814.04,1253.934a3.717,3.717,0,1,0-3.717-3.717,3.721,3.721,0,0,0,3.717,3.717m0-6.123a2.405,2.405,0,1,1-2.405,2.405,2.408,2.408,0,0,1,2.405-2.405" transform="translate(-797.342 454.219)" fill="#361d90"/><path d="M1739.705,1253.934a3.717,3.717,0,1,0-3.717-3.717,3.722,3.722,0,0,0,3.717,3.717m0-6.123a2.405,2.405,0,1,1-2.405,2.405,2.408,2.408,0,0,1,2.405-2.405" transform="translate(-744.279 454.219)" fill="#361d90"/><path d="M1772.821,1292.108v-11.37a4.268,4.268,0,0,0-4.264-4.264h-9.511a4.269,4.269,0,0,0-4.264,4.264v11.37a4.268,4.268,0,0,0,3.171,4.117v12.828a1.97,1.97,0,0,0,1.968,1.968h2.569a1.957,1.957,0,0,1,2.624,0h2.569a1.97,1.97,0,0,0,1.968-1.968v-12.83a4.266,4.266,0,0,0,3.17-4.116m-16.728,0v-11.37a2.956,2.956,0,0,1,2.952-2.952h9.511a2.955,2.955,0,0,1,2.952,2.952v11.37a2.955,2.955,0,0,1-1.858,2.74v-13.126h-1.312v7.215h-9.074v-7.215h-1.312v13.121a2.95,2.95,0,0,1-1.859-2.735m11.589,17.6h-2.569a.656.656,0,0,1-.656-.656v-14.6h-1.312v14.6a.657.657,0,0,1-.656.656h-2.569a.657.657,0,0,1-.656-.656v-18.8h9.074v18.8a.657.657,0,0,1-.656.656" transform="translate(-757.694 432.822)" fill="#361d90"/><path d="M1726.811,1308.83v-12.955H1725.5v12.955a.657.657,0,0,1-.656.656h-2.569a.657.657,0,0,1-.656-.656v-24.052h-1.312v11.481a2.95,2.95,0,0,1-1.859-2.735v-9.73a2.955,2.955,0,0,1,2.952-2.952h5.215v-1.312H1721.4a4.269,4.269,0,0,0-4.264,4.264v9.73a4.268,4.268,0,0,0,3.171,4.117v11.188a1.97,1.97,0,0,0,1.968,1.968h2.569a1.955,1.955,0,0,1,2.624,0h1.771v-1.312h-1.771a.657.657,0,0,1-.656-.656" transform="translate(-730.821 430.641)" fill="#361d90"/><path d="M1820.7,1279.53h-5.214v1.312h5.214a2.955,2.955,0,0,1,2.952,2.952v9.73a2.949,2.949,0,0,1-1.859,2.735v-11.481h-1.312v24.052a.657.657,0,0,1-.656.656h-2.569a.657.657,0,0,1-.656-.656v-12.955h-1.312v12.955a.657.657,0,0,1-.656.656h-1.771v1.312h1.771a1.955,1.955,0,0,1,2.624,0h2.569a1.97,1.97,0,0,0,1.968-1.968v-11.188a4.268,4.268,0,0,0,3.171-4.117v-9.73a4.269,4.269,0,0,0-4.264-4.264" transform="translate(-799.156 430.641)" fill="#361d90"/><path d="M1689.9,1261.3a38.249,38.249,0,1,1,38.249-38.249A38.293,38.293,0,0,1,1689.9,1261.3m0-75.2a36.949,36.949,0,1,0,36.949,36.949A36.991,36.991,0,0,0,1689.9,1186.1" transform="translate(-684.077 498.264)" fill="#361d90"/></g></svg>