<svg xmlns="http://www.w3.org/2000/svg" xmlns:xlink="http://www.w3.org/1999/xlink" width="76.499" height="76.499" viewBox="0 0 76.499 76.499"><defs><clipPath id="a"><rect width="41.618" height="41.619" fill="#361d90" stroke="#9d39e3" stroke-width="1"/></clipPath><clipPath id="b"><path d="M293.953,1281.665a19.231,19.231,0,1,1,16.6-9.547l1.16,1.16a20.838,20.838,0,1,0-5.667,6.093l-1.142-1.142a19.109,19.109,0,0,1-10.953,3.436" transform="translate(-273.144 -1241.638)" fill="#361d90" stroke="#9d39e3" stroke-width="1"/></clipPath><clipPath id="c"><rect width="76.498" height="76.499" fill="#361d90" stroke="#9d39e3" stroke-width="1"/></clipPath><clipPath id="d"><path d="M254.256,1261.3a38.249,38.249,0,1,1,38.249-38.249,38.292,38.292,0,0,1-38.249,38.249m0-75.2a36.949,36.949,0,1,0,36.949,36.949,36.991,36.991,0,0,0-36.949-36.949" transform="translate(-216.007 -1184.797)" fill="#361d90" stroke="#9d39e3" stroke-width="1"/></clipPath></defs><g transform="translate(-556.726 -1683.061)"><g transform="translate(573 1699)" style="mix-blend-mode:multiply;isolation:isolate"><g clip-path="url(#a)"><g clip-path="url(#b)"><rect width="41.618" height="41.619" fill="#361d90" stroke="#9d39e3" stroke-width="1"/></g></g></g><g transform="translate(556.726 1683.061)" style="mix-blend-mode:multiply;isolation:isolate"><g clip-path="url(#c)"><g clip-path="url(#d)"><rect width="76.498" height="76.499" fill="#361d90" stroke="#9d39e3" stroke-width="1"/></g></g></g><text transform="translate(593.5 1729.5)" fill="none" stroke="#361d90" stroke-width="1" font-size="24" font-family="Roboto-Black, Roboto" font-weight="800"><tspan x="-8.174" y="0">A</tspan></text></g></svg>