<svg xmlns="http://www.w3.org/2000/svg" xmlns:xlink="http://www.w3.org/1999/xlink" width="137" height="137" viewBox="0 0 137 137"><defs><clipPath id="a"><rect width="65" height="65" transform="translate(-0.001 0)" fill="#12263f"/></clipPath></defs><g transform="translate(-311 -2213)"><g transform="translate(311 2213)" fill="#fff" stroke="#361d90" stroke-width="4"><circle cx="68.5" cy="68.5" r="68.5" stroke="none"/><circle cx="68.5" cy="68.5" r="66.5" fill="none"/></g><g transform="translate(347.334 2249.334)"><g transform="translate(-0.333 -0.333)"><g clip-path="url(#a)"><path d="M42.107,33.542a15.8,15.8,0,0,0-4.758-11.316V5.974A5.98,5.98,0,0,0,31.375,0H5.978A5.98,5.98,0,0,0,0,5.974v5.318a.943.943,0,1,0,1.886,0V5.974A4.092,4.092,0,0,1,5.978,1.886h25.4a4.092,4.092,0,0,1,4.087,4.087V20.642a15.769,15.769,0,0,0-1.886-1.156V5.974a2.2,2.2,0,0,0-2.2-2.2H24.849a2.2,2.2,0,0,0-2.089,1.508L22.324,6.6a.313.313,0,0,1-.3.215H14.955a.313.313,0,0,1-.3-.215l-.436-1.315a2.2,2.2,0,0,0-2.089-1.508H5.978a2.2,2.2,0,0,0-2.2,2.2V58.416a2.2,2.2,0,0,0,2.2,2.2h25.4a2.2,2.2,0,0,0,2.2-2.2V47.6a15.768,15.768,0,0,0,1.886-1.156V58.416A4.092,4.092,0,0,1,31.375,62.5H5.978A4.092,4.092,0,0,1,1.89,58.416V15A.943.943,0,1,0,0,15V58.416a5.98,5.98,0,0,0,5.974,5.974h25.4a5.98,5.98,0,0,0,5.974-5.974V44.858a15.8,15.8,0,0,0,4.758-11.316m-1.886,0A13.878,13.878,0,1,1,26.343,19.6,13.923,13.923,0,0,1,40.22,33.542M31.69,58.416a.315.315,0,0,1-.314.314H5.978a.315.315,0,0,1-.314-.314V5.974a.315.315,0,0,1,.314-.314h6.154a.313.313,0,0,1,.3.215l.436,1.315A2.2,2.2,0,0,0,14.955,8.7h7.071A2.2,2.2,0,0,0,24.115,7.19l.436-1.315a.313.313,0,0,1,.3-.215h6.526a.315.315,0,0,1,.314.314V18.656a15.64,15.64,0,0,0-5.347-.938,15.824,15.824,0,0,0,0,31.647,15.642,15.642,0,0,0,5.347-.938v9.988Z" transform="translate(0.301 0.305)" fill="#12263f"/><path d="M100.042,131.254a11.533,11.533,0,0,0,0,23.066,11.362,11.362,0,0,0,4.244-.819.943.943,0,1,0-.7-1.751,9.5,9.5,0,0,1-3.544.683,9.639,9.639,0,1,1,6.4-2.463.943.943,0,0,0,1.261,1.4,11.536,11.536,0,0,0-7.663-20.119" transform="translate(-73.398 -108.94)" fill="#12263f"/><path d="M138.491,163.253h2.031a.642.642,0,0,1,.639.645.943.943,0,0,0,1.886,0,2.531,2.531,0,0,0-2.525-2.531h-.072v-.639a.943.943,0,1,0-1.886,0v.639h-.072a2.532,2.532,0,0,0-2.526,2.531v1.047a2.532,2.532,0,0,0,2.526,2.532h2.031a.643.643,0,0,1,.639.646v1.047a.643.643,0,0,1-.639.645h-2.031a.643.643,0,0,1-.639-.645.943.943,0,1,0-1.886,0,2.532,2.532,0,0,0,2.526,2.531h.072v.638a.943.943,0,0,0,1.886,0V171.7h.072a2.531,2.531,0,0,0,2.525-2.531v-1.047a2.531,2.531,0,0,0-2.525-2.532h-2.031a.643.643,0,0,1-.639-.645V163.9a.643.643,0,0,1,.639-.645" transform="translate(-112.862 -132.687)" fill="#12263f"/><path d="M268.614,179.544a.943.943,0,0,0,1.334,0,6.819,6.819,0,0,0,0-9.647.943.943,0,1,0-1.334,1.334,4.933,4.933,0,0,1,0,6.98.943.943,0,0,0,0,1.334" transform="translate(-223.038 -140.873)" fill="#12263f"/><path d="M285.816,168.569a.942.942,0,0,0,.668-.277,10.831,10.831,0,0,0,0-15.325.943.943,0,0,0-1.334,1.334,8.944,8.944,0,0,1,0,12.657.944.944,0,0,0,.667,1.611" transform="translate(-236.801 -126.783)" fill="#12263f"/></g></g><g transform="translate(-0.333 -0.333)"><g clip-path="url(#a)"><path d="M303.157,156.963a.941.941,0,0,0,.667-.277,14.969,14.969,0,0,0,0-21.182.943.943,0,0,0-1.334,1.334,13.084,13.084,0,0,1,0,18.514.944.944,0,0,0,.667,1.611" transform="translate(-251.234 -112.249)" fill="#12263f"/><path d="M240.494,40.12H244a2.2,2.2,0,0,0,2.2-2.2V33.526H257.8a3.124,3.124,0,0,0,2.911,2.119,3.062,3.062,0,1,0,0-6.124A3.126,3.126,0,0,0,257.8,31.64H246.205V27.355a.315.315,0,0,1,.314-.314h4.13a3.125,3.125,0,0,0,2.912,2.119,3.062,3.062,0,0,0,0-6.124,3.127,3.127,0,0,0-2.912,2.119h-4.13a2.2,2.2,0,0,0-2.2,2.2V37.919a.315.315,0,0,1-.314.314h-3.51a.943.943,0,0,0,0,1.886M259.693,32a1.175,1.175,0,1,1,0,1.176,1.179,1.179,0,0,1,0-1.176m-7.149-6.487a1.176,1.176,0,1,1,0,1.176,1.179,1.179,0,0,1,0-1.176" transform="translate(-199.079 -18.868)" fill="#12263f"/><path d="M260.711,279.622a3.126,3.126,0,0,0-2.911,2.119H246.205v-4.393a2.2,2.2,0,0,0-2.2-2.2h-3.51a.943.943,0,1,0,0,1.886H244a.315.315,0,0,1,.314.314v10.564a2.2,2.2,0,0,0,2.2,2.2h4.131a3.124,3.124,0,0,0,2.911,2.119,3.062,3.062,0,0,0,0-6.124,3.126,3.126,0,0,0-2.912,2.119h-4.13a.314.314,0,0,1-.314-.314v-4.285H257.8a3.125,3.125,0,0,0,2.912,2.119,3.062,3.062,0,0,0,0-6.124m-8.167,8.96a1.175,1.175,0,1,1,0,1.176,1.178,1.178,0,0,1,0-1.176m9.186-5.311a1.176,1.176,0,1,1,0-1.175,1.18,1.18,0,0,1,0,1.175" transform="translate(-199.079 -228.706)" fill="#12263f"/></g></g><g transform="translate(-0.333 -0.333)"><g clip-path="url(#a)"><path d="M51.884,79.89H64.534a.943.943,0,1,0,0-1.886H51.884a.943.943,0,1,0,0,1.886" transform="translate(-42.095 -64.619)" fill="#12263f"/><path d="M51.884,103.054h4.594a.943.943,0,1,0,0-1.886H51.884a.943.943,0,1,0,0,1.886" transform="translate(-42.095 -83.899)" fill="#12263f"/><path d="M64.534,310.73H51.884a.943.943,0,0,0,0,1.886H64.534a.943.943,0,0,0,0-1.886" transform="translate(-42.095 -258.322)" fill="#12263f"/><path d="M51.884,289.452h4.594a.943.943,0,0,0,0-1.886H51.884a.943.943,0,0,0,0,1.886" transform="translate(-42.095 -239.042)" fill="#12263f"/></g></g></g></g></svg>