<svg xmlns="http://www.w3.org/2000/svg" xmlns:xlink="http://www.w3.org/1999/xlink" width="137" height="137" viewBox="0 0 137 137"><defs><clipPath id="a"><rect width="64.782" height="64.813" fill="#361d90"/></clipPath></defs><g transform="translate(-1152 -2213)"><g transform="translate(1152 2213)" fill="#fff" stroke="#361d90" stroke-width="4"><circle cx="68.5" cy="68.5" r="68.5" stroke="none"/><circle cx="68.5" cy="68.5" r="66.5" fill="none"/></g><g transform="translate(1188 2249)"><g clip-path="url(#a)"><path d="M243.2,0a.949.949,0,0,0,0,1.9,21.129,21.129,0,0,1,16.926,33.662,21.35,21.35,0,0,1-8.613,6.864l.3-.624a.949.949,0,0,0-1.716-.813l-1.234,2.6a.949.949,0,0,0,.452,1.264l2.6,1.234a.99.99,0,0,0,1.265-.451.949.949,0,0,0-.451-1.265l-.44-.21A23.036,23.036,0,0,0,243.2,0" transform="translate(-201.365)" fill="#361d90"/><path d="M84.331,47.563a17.963,17.963,0,1,0-35.926,0c0,.251.007.5.017.754q-.472-.025-.949-.025A18.055,18.055,0,0,0,36.4,80.533a.95.95,0,1,0,1.176-1.492,16.049,16.049,0,1,1,9.9,3.431,15.855,15.855,0,0,1-6.886-1.555.949.949,0,1,0-.818,1.714,17.732,17.732,0,0,0,7.7,1.741,18.022,18.022,0,0,0,17.963-18.04c0-.253-.007-.5-.017-.754q.475.025.949.025A18.022,18.022,0,0,0,84.331,47.563M64.668,61.109a13.655,13.655,0,0,0,10.7-23.772.949.949,0,1,0-1.261,1.419,11.734,11.734,0,0,1-10.2,20.3,18.116,18.116,0,0,0-9-9.145,11.758,11.758,0,0,1,11.462-14.1,11.524,11.524,0,0,1,5.04,1.148.949.949,0,1,0,.824-1.71,13.4,13.4,0,0,0-5.865-1.336,13.64,13.64,0,0,0-13.6,13.653,13.837,13.837,0,0,0,.09,1.559,17.79,17.79,0,0,0-2.528-.6c-.019-.319-.029-.64-.029-.959A16.064,16.064,0,1,1,66.368,63.7c-.376,0-.754-.014-1.129-.04a17.892,17.892,0,0,0-.572-2.554" transform="translate(-24.53 -24.54)" fill="#361d90"/><path d="M226.515,91.867v-.98a.949.949,0,0,0-1.9,0v.928h-1.492v-.928a.949.949,0,0,0-1.9,0v.928h-1.194a.949.949,0,0,0,0,1.9h.225v8.133h-.225a.949.949,0,1,0,0,1.9h1.194v.928a.949.949,0,0,0,1.9,0v-.928h1.492v.928a.949.949,0,1,0,1.9,0V103.7a2.809,2.809,0,0,0,2.287-2.757v-1.3a2.793,2.793,0,0,0-.711-1.864,2.829,2.829,0,0,0,.711-1.878V94.651a2.838,2.838,0,0,0-2.287-2.784m-3.742,1.847h3.2a.933.933,0,0,1,.928.937v1.244a.933.933,0,0,1-.928.936h-3.819V93.714Zm4.131,7.227a.907.907,0,0,1-.905.906h-3.842V98.73H226a.907.907,0,0,1,.9.906Z" transform="translate(-182.104 -74.758)" fill="#361d90"/><path d="M22.943,154.918a21.136,21.136,0,0,1-8.9-40.266l-.2.413a.948.948,0,0,0,.452,1.264.99.99,0,0,0,1.265-.451l1.233-2.6a.949.949,0,0,0-.451-1.264l-2.6-1.234a.949.949,0,1,0-.814,1.716l.621.295a23.035,23.035,0,0,0,9.387,44.029.949.949,0,1,0,0-1.9" transform="translate(0 -92.003)" fill="#361d90"/><path d="M82.575,180.36a13.6,13.6,0,1,0-13.6,13.653,13.641,13.641,0,0,0,13.6-13.653m-25.293,0a11.7,11.7,0,1,1,11.7,11.754,11.739,11.739,0,0,1-11.7-11.754" transform="translate(-46.035 -138.569)" fill="#361d90"/><path d="M116.872,215.59v-.947h.268a2.854,2.854,0,0,0,2.846-2.855v-1.257a2.854,2.854,0,0,0-2.846-2.855h-2.435a.953.953,0,0,1-.947-.956v-1.256a.953.953,0,0,1,.947-.957h2.435a.953.953,0,0,1,.947.957.949.949,0,1,0,1.9,0,2.854,2.854,0,0,0-2.846-2.856h-.268v-.947a.949.949,0,0,0-1.9,0v.947h-.268a2.854,2.854,0,0,0-2.846,2.856v1.256a2.854,2.854,0,0,0,2.846,2.855h2.434a.953.953,0,0,1,.948.957v1.257a.953.953,0,0,1-.948.956h-2.434a.953.953,0,0,1-.947-.956.949.949,0,0,0-1.9,0,2.854,2.854,0,0,0,2.846,2.855h.268v.947a.949.949,0,0,0,1.9,0" transform="translate(-92.979 -166.834)" fill="#361d90"/></g></g></g></svg>