<svg id="Grupo_90538" data-name="Grupo 90538" xmlns="http://www.w3.org/2000/svg" xmlns:xlink="http://www.w3.org/1999/xlink" width="89" height="69.158" viewBox="0 0 89 69.158">
  <defs>
    <clipPath id="clip-path">
      <rect id="Rectángulo_38121" data-name="Rectángulo 38121" width="89" height="69.158" fill="none"/>
    </clipPath>
  </defs>
  <path id="Trazado_129338" data-name="Trazado 129338" d="M0,9.474V26.423l5.348.572,9.239,5.051-1.2-5.587,2.188-.8V9.154Z" transform="translate(0 6.017)" fill="#d1fffa"/>
  <path id="Trazado_129339" data-name="Trazado 129339" d="M44.446,9.347l-.283,15.618L46.7,27.01l-1.341,4.909,9.38-5.587,5.229-.036V9.347Z" transform="translate(29.027 6.144)" fill="#d1fffa"/>
  <g id="Grupo_90537" data-name="Grupo 90537" transform="translate(0 0)">
    <g id="Grupo_90536" data-name="Grupo 90536" clip-path="url(#clip-path)">
      <path id="Trazado_129340" data-name="Trazado 129340" d="M59.386,8.48a1.434,1.434,0,1,1,0,2.867H46.542a.8.8,0,0,0-.8.8v12.5a.8.8,0,0,0,.8.8h1.342a1.4,1.4,0,0,1,1.16.6,1.43,1.43,0,0,1,.2,1.293l-.713,2.154c1.856-1.16,4.176-2.6,6.182-3.828a1.4,1.4,0,0,1,.762-.215h3.911a1.434,1.434,0,1,1,0,2.867H55.873c-4.06,2.5-9.214,5.7-9.214,5.7a1.346,1.346,0,0,1-.746.215,1.435,1.435,0,0,1-1.359-1.889l1.359-4.077a3.683,3.683,0,0,1-3.049-3.613v-12.5A3.678,3.678,0,0,1,46.542,8.48Z" transform="translate(28.172 5.574)"/>
      <path id="Trazado_129341" data-name="Trazado 129341" d="M76.794,47.565a1.434,1.434,0,0,1,0,2.867H6.095a1.434,1.434,0,1,1,0-2.867h.663v-9.33A9.761,9.761,0,0,1,16.5,28.49h14.02a9.761,9.761,0,0,1,9.745,9.745v9.33h2.353v-9.33a9.746,9.746,0,0,1,9.728-9.745H66.386a9.746,9.746,0,0,1,9.728,9.745v9.33Zm-3.547,0v-9.33a6.878,6.878,0,0,0-6.861-6.878H52.349a6.878,6.878,0,0,0-6.861,6.878v9.33h3.58V40.339a1.434,1.434,0,1,1,2.867,0v7.226H66.8V40.339a1.434,1.434,0,1,1,2.867,0v7.226Zm-35.847,0v-9.33a6.882,6.882,0,0,0-6.878-6.878H16.5a6.882,6.882,0,0,0-6.878,6.878v9.33H13.2V40.339a1.442,1.442,0,0,1,2.884,0v7.226H30.954V40.339a1.434,1.434,0,1,1,2.867,0v7.226Z" transform="translate(3.058 18.725)"/>
      <path id="Trazado_129342" data-name="Trazado 129342" d="M57.052,37.1v9.33h-3.58V39.2a1.434,1.434,0,1,0-2.867,0v7.226H35.74V39.2a1.434,1.434,0,1,0-2.867,0v7.226h-3.58V37.1a6.878,6.878,0,0,1,6.861-6.878H50.191A6.878,6.878,0,0,1,57.052,37.1" transform="translate(19.253 19.862)" fill="#361d90"/>
      <path id="Trazado_129343" data-name="Trazado 129343" d="M41.015,17.86a8.46,8.46,0,1,1-2.5.381,8.473,8.473,0,0,1,2.5-.381m5.6,8.469a5.593,5.593,0,1,0-5.6,5.585,5.6,5.6,0,0,0,5.6-5.585" transform="translate(21.402 11.739)"/>
      <path id="Trazado_129344" data-name="Trazado 129344" d="M39.878,19.6a5.585,5.585,0,1,1-5.585,5.585A5.6,5.6,0,0,1,39.878,19.6" transform="translate(22.54 12.882)" fill="#fff0bf"/>
      <path id="Trazado_129345" data-name="Trazado 129345" d="M53.523,4.557V21.611a4.555,4.555,0,0,1-4.557,4.557h-4.74L35.856,38.15v4.425a1.434,1.434,0,0,1-2.867,0V38.15L24.62,26.168H19.9a4.595,4.595,0,0,1-4.574-4.557V4.557A4.58,4.58,0,0,1,19.9,0H48.965a4.566,4.566,0,0,1,4.557,4.557M50.656,21.611V4.557a1.7,1.7,0,0,0-1.69-1.69H19.9a1.7,1.7,0,0,0-1.707,1.69V21.611A1.7,1.7,0,0,0,19.9,23.3h5.469a1.446,1.446,0,0,1,1.177.613L34.431,35.2,42.3,23.914A1.469,1.469,0,0,1,43.48,23.3h5.486a1.7,1.7,0,0,0,1.69-1.69" transform="translate(10.071 0)"/>
      <path id="Trazado_129346" data-name="Trazado 129346" d="M49.519,3.42V20.474a1.7,1.7,0,0,1-1.69,1.69H42.343a1.469,1.469,0,0,0-1.177.613L33.294,34.063,25.406,22.777a1.446,1.446,0,0,0-1.177-.613H18.76a1.7,1.7,0,0,1-1.707-1.69V3.42A1.7,1.7,0,0,1,18.76,1.73H47.828a1.7,1.7,0,0,1,1.69,1.69m-5.436,8a1.443,1.443,0,0,0-1.442-1.442H23.931a1.442,1.442,0,0,0,0,2.884H42.641a1.443,1.443,0,0,0,1.442-1.442m0,6.132a1.443,1.443,0,0,0-1.442-1.442H23.931a1.434,1.434,0,0,0,0,2.867H42.641a1.429,1.429,0,0,0,1.442-1.425M37.338,5.293A1.439,1.439,0,0,0,35.9,3.868h-5.22a1.434,1.434,0,0,0,0,2.867H35.9a1.443,1.443,0,0,0,1.442-1.442" transform="translate(11.208 1.137)" fill="#a6fff6"/>
      <path id="Trazado_129347" data-name="Trazado 129347" d="M40.479,6.71a1.442,1.442,0,0,1,0,2.884H21.768a1.442,1.442,0,0,1,0-2.884Z" transform="translate(13.371 4.41)"/>
      <path id="Trazado_129348" data-name="Trazado 129348" d="M40.479,10.41a1.434,1.434,0,1,1,0,2.867H21.768a1.434,1.434,0,0,1,0-2.867Z" transform="translate(13.371 6.842)"/>
      <path id="Trazado_129349" data-name="Trazado 129349" d="M31.059,3.02a1.434,1.434,0,1,1,0,2.867h-5.22a1.434,1.434,0,0,1,0-2.867Z" transform="translate(16.046 1.985)"/>
      <path id="Trazado_129350" data-name="Trazado 129350" d="M35.429,37.1v9.33h-3.58V39.2a1.434,1.434,0,1,0-2.867,0v7.226H14.116V39.2a1.442,1.442,0,0,0-2.884,0v7.226H7.653V37.1a6.882,6.882,0,0,1,6.878-6.878h14.02A6.882,6.882,0,0,1,35.429,37.1" transform="translate(5.03 19.862)" fill="#e33ffd"/>
      <path id="Trazado_129351" data-name="Trazado 129351" d="M20.479,17.943a8.369,8.369,0,1,1-1.094-.083,5.967,5.967,0,0,1,1.094.083m4.491,8.386a5.585,5.585,0,1,0-5.585,5.585,5.588,5.588,0,0,0,5.585-5.585" transform="translate(7.186 11.739)"/>
      <path id="Trazado_129352" data-name="Trazado 129352" d="M18.248,19.6a5.585,5.585,0,1,1-5.585,5.585A5.588,5.588,0,0,1,18.248,19.6" transform="translate(8.323 12.882)" fill="#fff0bf"/>
      <path id="Trazado_129353" data-name="Trazado 129353" d="M17.951,12.143v12.5a3.668,3.668,0,0,1-3.033,3.613l1.359,4.077A1.427,1.427,0,0,1,15.8,33.9a1.331,1.331,0,0,1-.878.315A1.4,1.4,0,0,1,14.156,34S9,30.8,4.942,28.3H1.428a1.434,1.434,0,0,1,0-2.867H5.356a1.308,1.308,0,0,1,.746.215c2.005,1.226,4.342,2.668,6.2,3.828l-.713-2.154a1.426,1.426,0,0,1,.182-1.293,1.453,1.453,0,0,1,1.177-.6h1.342a.807.807,0,0,0,.8-.8v-12.5a.807.807,0,0,0-.8-.8H1.428a1.434,1.434,0,0,1,0-2.867h12.86a3.664,3.664,0,0,1,3.663,3.663" transform="translate(0.002 5.574)"/>
    </g>
  </g>
</svg>
