<svg xmlns="http://www.w3.org/2000/svg" xmlns:xlink="http://www.w3.org/1999/xlink" width="65.279" height="65.309" viewBox="0 0 65.279 65.309"><defs><clipPath id="a"><rect width="65.279" height="65.308" fill="none"/></clipPath></defs><g clip-path="url(#a)"><path d="M10.1,139.789H60.065l6.153,12.75a2.549,2.549,0,0,1-.148,2.52,2.52,2.52,0,0,1-2.224,1.26H6.4a2.437,2.437,0,0,1-2.224-1.26,2.381,2.381,0,0,1-.148-2.52Z" transform="translate(-2.463 -92.272)" fill="#b9bbbb"/><path d="M22.473,76.162V47.177A3.8,3.8,0,0,1,26.254,43.4h42.4a3.8,3.8,0,0,1,3.781,3.781V76.162Z" transform="translate(-14.834 -28.645)" fill="#f6f7f7" fill-rule="evenodd"/><path d="M58.042,71.747H82.431a1.077,1.077,0,0,1,1.038,1.112V88.8a1.077,1.077,0,0,1-1.038,1.112H58.042A1.14,1.14,0,0,1,56.93,88.8V72.859a1.14,1.14,0,0,1,1.112-1.112" transform="translate(-37.578 -47.359)" fill="#ff697b" fill-rule="evenodd"/><path d="M87.679,88.961A.94.94,0,0,1,88.2,88a1.009,1.009,0,0,1,1.112,0l4.374,2.446a1.08,1.08,0,0,1,.519.964,1.122,1.122,0,0,1-.519,1.038L89.31,94.892a1.076,1.076,0,0,1-1.631-.964Z" transform="translate(-57.875 -57.976)" fill="#fff" fill-rule="evenodd"/><path d="M58.042,3.706H82.431a1.077,1.077,0,0,1,1.038,1.112V20.756a1.077,1.077,0,0,1-1.038,1.112H58.042a1.14,1.14,0,0,1-1.112-1.112V4.818a1.14,1.14,0,0,1,1.112-1.112" transform="translate(-37.578 -2.446)" fill="#ff697b" fill-rule="evenodd"/><path d="M87.679,20.92a1.076,1.076,0,0,1,1.631-.963L93.684,22.4a1.122,1.122,0,0,1,.519,1.038,1.081,1.081,0,0,1-.519.964L89.31,26.851a1.01,1.01,0,0,1-1.112,0,.94.94,0,0,1-.519-.964Z" transform="translate(-57.875 -13.063)" fill="#fff" fill-rule="evenodd"/><path d="M61.383,155.134H3.932A3.712,3.712,0,0,1,.6,153.217a3.562,3.562,0,0,1-.149-3.729l3.452-7.275a1.26,1.26,0,0,1,2.277,1.08L2.7,150.633a1.152,1.152,0,0,0,.044,1.258,1.283,1.283,0,0,0,1.191.723H61.383a1.261,1.261,0,0,0,1.159-.677,1.337,1.337,0,0,0,.065-1.321l-5.8-12.013H7.639a1.26,1.26,0,1,1,0-2.52H57.6a1.26,1.26,0,0,1,1.135.712l6.153,12.75a3.921,3.921,0,0,1-3.507,5.589" transform="translate(0 -89.825)" fill="#434a53"/><path d="M20.025,74.974a1.26,1.26,0,0,1-1.26-1.26V44.729a5.047,5.047,0,0,1,5.041-5.041h3.039a1.26,1.26,0,1,1,0,2.521H23.806a2.523,2.523,0,0,0-2.52,2.52V73.714a1.26,1.26,0,0,1-1.26,1.26m49.963-5.411a1.261,1.261,0,0,1-1.26-1.26V44.729a2.523,2.523,0,0,0-2.52-2.52H63.243a1.26,1.26,0,0,1,0-2.521h2.965a5.047,5.047,0,0,1,5.041,5.041V68.3a1.261,1.261,0,0,1-1.26,1.26" transform="translate(-12.386 -26.197)" fill="#434a53"/><path d="M74.527,154.741H34.2a1.26,1.26,0,1,1,0-2.52H74.527a1.26,1.26,0,1,1,0,2.52" transform="translate(-21.742 -100.478)" fill="#434a53"/><path d="M89.125,171.1H79.563a1.26,1.26,0,1,1,0-2.52h9.562a1.26,1.26,0,1,1,0,2.52" transform="translate(-51.686 -111.275)" fill="#434a53"/><path d="M79.983,88.722H55.593a2.4,2.4,0,0,1-2.372-2.373V70.412a2.4,2.4,0,0,1,2.372-2.372H79.983a2.339,2.339,0,0,1,2.3,2.372V86.35a2.339,2.339,0,0,1-2.3,2.373M55.741,70.56V86.35L79.759,86.2V70.56Z" transform="translate(-35.13 -44.912)" fill="#434a53"/><path d="M79.983,20.682H55.593a2.4,2.4,0,0,1-2.372-2.371V2.372A2.4,2.4,0,0,1,55.593,0H79.983a2.338,2.338,0,0,1,2.3,2.371V18.311a2.338,2.338,0,0,1-2.3,2.371M55.741,2.521V18.311l24.018-.148V2.521Z" transform="translate(-35.13 -0.001)" fill="#434a53"/><path d="M86.316,25.833a2.355,2.355,0,0,1-1.212-.346,2.1,2.1,0,0,1-1.133-2.044V21.885a1.26,1.26,0,1,1,2.52,0v1.2l4.128-2.227-4.16-2.139a1.277,1.277,0,0,1-1.227.988,1.24,1.24,0,0,1-1.261-1.235,2.336,2.336,0,0,1,3.542-2.042l4.338,2.425A2.375,2.375,0,0,1,93.017,21a2.327,2.327,0,0,1-1.13,2.044L87.479,25.5a2.243,2.243,0,0,1-1.162.328" transform="translate(-55.428 -10.618)" fill="#434a53"/><path d="M86.316,93.853a2.355,2.355,0,0,1-1.212-.346,2.261,2.261,0,0,1-1.133-2.046V89.905a1.26,1.26,0,1,1,2.52,0V91.19l4.128-2.309-4.163-2.141a1.286,1.286,0,0,1-1.223.978A1.231,1.231,0,0,1,83.972,86.5a2.342,2.342,0,0,1,3.54-2.045l4.34,2.428a2.334,2.334,0,0,1,1.165,2.062,2.364,2.364,0,0,1-1.13,2.119l-4.408,2.465a2.243,2.243,0,0,1-1.162.328" transform="translate(-55.428 -55.51)" fill="#434a53"/></g></svg>