<svg xmlns="http://www.w3.org/2000/svg" xmlns:xlink="http://www.w3.org/1999/xlink" width="131" height="131" viewBox="0 0 131 131"><defs><clipPath id="a"><rect width="65.333" height="53.706" fill="none"/></clipPath></defs><g transform="translate(-386 -2548)"><g transform="translate(386 2548)" fill="#fff" stroke="#9d39e3" stroke-width="4"><circle cx="65.5" cy="65.5" r="65.5" stroke="none"/><circle cx="65.5" cy="65.5" r="63.5" fill="none"/></g><g transform="translate(419 2587)"><g transform="translate(0 0)" clip-path="url(#a)"><path d="M63.451,5.693V43.524a1.3,1.3,0,0,1-1.3,1.3H5.693a1.293,1.293,0,0,1-1.294-1.3V5.693a1.3,1.3,0,0,1,1.294-1.3H62.151a1.3,1.3,0,0,1,1.3,1.3" transform="translate(-1.256 -1.255)" fill="#97cec8"/><path d="M62.192,42.269a1.3,1.3,0,0,1-1.3,1.3H4.439a1.3,1.3,0,0,1-1.3-1.3V4.438a1.3,1.3,0,0,1,1.3-1.3H60.895a1.3,1.3,0,0,1,1.3,1.3ZM60.895,0H4.439A4.444,4.444,0,0,0,0,4.438V42.269a4.444,4.444,0,0,0,4.439,4.438H60.895a4.442,4.442,0,0,0,4.438-4.438V4.438A4.442,4.442,0,0,0,60.895,0" transform="translate(0 0)" fill="#606161"/><path d="M42.7,4.393l5.968,0L26.725,44.819H5.694a1.292,1.292,0,0,1-1.294-1.3V36.156Z" transform="translate(-1.257 -1.255)" fill="#c0e5e2"/><path d="M76.094,62.932a.942.942,0,1,1-.942-.943.943.943,0,0,1,.942.943" transform="translate(-21.197 -17.706)" fill="#f04b48"/><path d="M49.337,70.339H37.715l1.256-2.481,1.257-2.475h6.6l1.257,2.475Z" transform="translate(-10.773 -18.675)" fill="#606161"/><path d="M51.222,74.363h-16.8v-.786a1.257,1.257,0,0,1,1.256-1.257H49.966a1.257,1.257,0,0,1,1.257,1.257Z" transform="translate(-9.831 -20.657)" fill="#3e803d"/><path d="M48.583,67.858h-9.11l1.257-2.475h6.6Z" transform="translate(-11.275 -18.675)" fill="#4f4f4f"/></g></g></g></svg>