<svg xmlns="http://www.w3.org/2000/svg" xmlns:xlink="http://www.w3.org/1999/xlink" width="131" height="131" viewBox="0 0 131 131"><defs><clipPath id="a"><rect width="73.492" height="49.852" fill="none"/></clipPath></defs><g transform="translate(-736 -2548)"><g transform="translate(736 2548)" fill="#fff" stroke="#9d39e3" stroke-width="4"><circle cx="65.5" cy="65.5" r="65.5" stroke="none"/><circle cx="65.5" cy="65.5" r="63.5" fill="none"/></g><g transform="translate(765 2588.998)"><g transform="translate(0 0.001)" clip-path="url(#a)"><path d="M36.7,28.51V42.33L11.187,43.46,10.056,54.033H5.539A5.562,5.562,0,0,1,0,48.465V31.75a5.561,5.561,0,0,1,1.04-3.24Z" transform="translate(0 -9.352)" fill="#636464"/><path d="M79.86,31.752V48.465a5.551,5.551,0,0,1-5.544,5.566h-54.9v-8.7H43.059V28.506H78.815a5.524,5.524,0,0,1,1.045,3.246" transform="translate(-6.368 -9.351)" fill="#5b595a"/><rect width="47.396" height="10.877" transform="translate(13.046 35.975)" fill="#fff"/><path d="M54.6,49.074v3H77.926a.431.431,0,0,1,.429.431V62.518a.431.431,0,0,1-.429.431H54.6v3H79.7A1.642,1.642,0,0,0,81.342,64.3V50.718A1.642,1.642,0,0,0,79.7,49.074Z" transform="translate(-17.91 -16.097)" fill="#4a494a"/><path d="M18.387,52.073H41.6v-3H16.609a1.642,1.642,0,0,0-1.64,1.644V64.3a1.642,1.642,0,0,0,1.64,1.646H41.6v-3H18.387a.432.432,0,0,1-.431-.432V52.505a.432.432,0,0,1,.431-.432" transform="translate(-4.91 -16.097)" fill="#5b595a"/><path d="M46.116,4.465v13.84H28.731V5.52a1.057,1.057,0,0,1,1.058-1.055Z" transform="translate(-9.424 -1.465)" fill="#5d9cb4"/><path d="M71.037,4.465H54.6v13.84H72.089V5.52a1.055,1.055,0,0,0-1.052-1.055" transform="translate(-17.91 -1.465)" fill="#448599"/><path d="M44.66,0V3H28.328a1.056,1.056,0,0,0-1.054,1.052V16.841H24.283V3.086A3.077,3.077,0,0,1,27.357,0Z" transform="translate(-7.965 0)" fill="#666766"/><path d="M75.079,3.086V16.842H72.088V4.054A1.055,1.055,0,0,0,71.04,3H54.607V0h17.4a3.034,3.034,0,0,1,1.463.372c.007.007.013.007.02.013A3.088,3.088,0,0,1,74.7,1.6a.015.015,0,0,0,.007.011,3.1,3.1,0,0,1,.37,1.47" transform="translate(-17.912 0)" fill="#5b595a"/><path d="M90.407,30.542a.9.9,0,1,1-.9-.906.9.9,0,0,1,.9.906" transform="translate(-29.063 -9.721)" fill="#fff"/><path d="M96.2,30.542a.9.9,0,1,1-.9-.906.9.9,0,0,1,.9.906" transform="translate(-30.962 -9.721)" fill="#f15523"/><path d="M37.2,25.063v2.316H1.548a5.512,5.512,0,0,1,4.5-2.316Z" transform="translate(-0.508 -8.221)" fill="#757576"/><path d="M90.358,27.376H54.6V25.061H85.859a5.5,5.5,0,0,1,4.5,2.315" transform="translate(-17.91 -8.221)" fill="#4a494a"/><rect width="37.652" height="0.799" transform="translate(17.866 38.203)" fill="#5b595a"/><rect width="37.652" height="0.8" transform="translate(17.866 40.413)" fill="#5b595a"/><rect width="37.652" height="0.799" transform="translate(17.866 42.626)" fill="#5b595a"/></g></g></g></svg>