<svg xmlns="http://www.w3.org/2000/svg" width="131" height="131" viewBox="0 0 131 131"><g transform="translate(-1083 -2548)"><g transform="translate(1083 2548)" fill="#fff" stroke="#9d39e3" stroke-width="4"><circle cx="65.5" cy="65.5" r="65.5" stroke="none"/><circle cx="65.5" cy="65.5" r="63.5" fill="none"/></g><g transform="translate(1120.692 2589)"><rect width="1.895" height="1.895" transform="translate(37.893)"/><rect width="1.895" height="1.895" transform="translate(39.788)"/><rect width="1.895" height="1.895" transform="translate(35.999 1.895)"/><rect width="1.895" height="1.895" transform="translate(37.893 1.895)"/><rect width="1.895" height="1.895" transform="translate(39.788 1.895)"/><rect width="1.895" height="1.895" transform="translate(41.683 1.895)"/><rect width="1.895" height="1.895" transform="translate(43.577 1.895)"/><rect width="1.895" height="1.895" transform="translate(45.472 1.895)"/><rect width="1.895" height="1.895" transform="translate(47.367 3.789)"/><rect width="1.895" height="1.895" transform="translate(47.367 5.684)"/><rect width="1.895" height="1.894" transform="translate(45.472 7.579)"/><rect width="1.895" height="1.895" transform="translate(9.473 9.473)"/><rect width="1.895" height="1.895" transform="translate(11.368 9.473)"/><rect width="1.895" height="1.895" transform="translate(13.263 9.473)"/><rect width="1.895" height="1.895" transform="translate(17.052 9.473)"/><rect width="1.895" height="1.895" transform="translate(20.841 9.473)"/><rect width="1.895" height="1.895" transform="translate(24.631 9.473)"/><rect width="1.895" height="1.895" transform="translate(28.42 9.473)"/><rect width="1.895" height="1.895" transform="translate(32.209 9.473)"/><rect width="1.895" height="1.895" transform="translate(35.999 9.473)"/><rect width="1.895" height="1.895" transform="translate(39.788 9.473)"/><rect width="1.895" height="1.895" transform="translate(41.683 9.473)"/><rect width="1.895" height="1.895" transform="translate(43.577 9.473)"/><rect width="1.895" height="1.895" transform="translate(7.579 11.368)"/><rect width="1.895" height="1.895" transform="translate(15.157 11.368)"/><rect width="1.895" height="1.895" transform="translate(18.947 11.368)"/><rect width="1.895" height="1.895" transform="translate(22.736 11.368)"/><rect width="1.895" height="1.895" transform="translate(26.525 11.368)"/><rect width="1.895" height="1.895" transform="translate(30.314 11.368)"/><rect width="1.895" height="1.895" transform="translate(34.104 11.368)"/><rect width="1.895" height="1.895" transform="translate(37.893 11.368)"/><rect width="1.895" height="1.894" transform="translate(5.684 13.263)"/><rect width="1.895" height="1.895" transform="translate(5.684 15.157)"/><rect width="1.895" height="1.895" transform="translate(1.895 17.052)"/><rect width="1.895" height="1.895" transform="translate(3.789 17.052)"/><rect width="1.895" height="1.895" transform="translate(5.684 17.052)"/><rect width="1.895" height="1.895" transform="translate(7.579 17.052)"/><rect width="1.895" height="1.895" transform="translate(9.473 17.052)"/><rect width="1.895" height="1.895" transform="translate(11.368 17.052)"/><rect width="1.895" height="1.895" transform="translate(13.263 17.052)"/><rect width="1.895" height="1.895" transform="translate(15.157 17.052)"/><rect width="1.895" height="1.895" transform="translate(17.052 17.052)"/><rect width="1.895" height="1.895" transform="translate(18.947 17.052)"/><rect width="1.895" height="1.895" transform="translate(20.841 17.052)"/><rect width="1.895" height="1.895" transform="translate(22.736 17.052)"/><rect width="1.895" height="1.895" transform="translate(24.631 17.052)"/><rect width="1.895" height="1.895" transform="translate(26.525 17.052)"/><rect width="1.895" height="1.895" transform="translate(28.42 17.052)"/><rect width="1.895" height="1.895" transform="translate(30.314 17.052)"/><rect width="1.895" height="1.895" transform="translate(32.209 17.052)"/><rect width="1.895" height="1.895" transform="translate(34.104 17.052)"/><rect width="1.895" height="1.895" transform="translate(35.999 17.052)"/><rect width="1.895" height="1.895" transform="translate(37.893 17.052)"/><rect width="1.895" height="1.895" transform="translate(39.788 17.052)"/><rect width="1.895" height="1.895" transform="translate(41.683 17.052)"/><rect width="1.895" height="1.895" transform="translate(43.577 17.052)"/><rect width="1.895" height="1.895" transform="translate(45.472 17.052)"/><rect width="1.895" height="1.895" transform="translate(47.367 17.052)"/><rect width="1.895" height="1.895" transform="translate(49.261 17.052)"/><rect width="1.895" height="1.895" transform="translate(51.156 17.052)"/><rect width="1.895" height="1.895" transform="translate(0 18.947)"/><rect width="1.895" height="1.894" transform="translate(1.895 18.947)" fill="#f2f2f2"/><rect width="1.895" height="1.894" transform="translate(3.789 18.947)" fill="#f2f2f2"/><rect width="1.895" height="1.894" transform="translate(5.684 18.947)" fill="#f2f2f2"/><rect width="1.895" height="1.894" transform="translate(7.579 18.947)" fill="#f2f2f2"/><rect width="1.895" height="1.894" transform="translate(9.473 18.947)" fill="#f2f2f2"/><rect width="1.895" height="1.894" transform="translate(11.368 18.947)" fill="#f2f2f2"/><rect width="1.895" height="1.894" transform="translate(13.263 18.947)" fill="#f2f2f2"/><rect width="1.895" height="1.894" transform="translate(15.157 18.947)" fill="#f2f2f2"/><rect width="1.895" height="1.894" transform="translate(17.052 18.947)" fill="#f2f2f2"/><rect width="1.895" height="1.894" transform="translate(18.947 18.947)" fill="#f2f2f2"/><rect width="1.895" height="1.894" transform="translate(20.841 18.947)" fill="#f2f2f2"/><rect width="1.895" height="1.894" transform="translate(22.736 18.947)" fill="#f2f2f2"/><rect width="1.895" height="1.894" transform="translate(24.631 18.947)" fill="#f2f2f2"/><rect width="1.895" height="1.894" transform="translate(26.525 18.947)" fill="#f2f2f2"/><rect width="1.895" height="1.894" transform="translate(28.42 18.947)" fill="#f2f2f2"/><rect width="1.895" height="1.894" transform="translate(30.314 18.947)" fill="#f2f2f2"/><rect width="1.895" height="1.894" transform="translate(32.209 18.947)" fill="#f2f2f2"/><rect width="1.895" height="1.894" transform="translate(34.104 18.947)" fill="#f2f2f2"/><rect width="1.895" height="1.894" transform="translate(35.999 18.947)" fill="#f2f2f2"/><rect width="1.895" height="1.894" transform="translate(37.893 18.947)" fill="#f2f2f2"/><rect width="1.895" height="1.894" transform="translate(39.788 18.947)" fill="#f2f2f2"/><rect width="1.895" height="1.894" transform="translate(41.683 18.947)" fill="#f2f2f2"/><rect width="1.895" height="1.894" transform="translate(43.577 18.947)" fill="#f2f2f2"/><rect width="1.895" height="1.894" transform="translate(45.472 18.947)" fill="#f2f2f2"/><rect width="1.895" height="1.894" transform="translate(47.367 18.947)" fill="#f2f2f2"/><rect width="1.895" height="1.894" transform="translate(49.261 18.947)" fill="#f2f2f2"/><rect width="1.895" height="1.894" transform="translate(51.156 18.947)" fill="#f2f2f2"/><rect width="1.895" height="1.895" transform="translate(53.051 18.947)"/><rect width="1.895" height="1.895" transform="translate(0 20.841)"/><rect width="1.895" height="1.895" transform="translate(1.895 20.841)" fill="#f2f2f2"/><rect width="1.895" height="1.895" transform="translate(3.789 20.841)"/><rect width="1.895" height="1.895" transform="translate(5.684 20.841)"/><rect width="1.895" height="1.895" transform="translate(7.579 20.841)"/><rect width="1.895" height="1.895" transform="translate(9.473 20.841)"/><rect width="1.895" height="1.895" transform="translate(11.368 20.841)"/><rect width="1.895" height="1.895" transform="translate(13.263 20.841)"/><rect width="1.895" height="1.895" transform="translate(15.157 20.841)"/><rect width="1.895" height="1.895" transform="translate(17.052 20.841)"/><rect width="1.895" height="1.895" transform="translate(18.947 20.841)"/><rect width="1.895" height="1.895" transform="translate(20.841 20.841)"/><rect width="1.895" height="1.895" transform="translate(22.736 20.841)"/><rect width="1.895" height="1.895" transform="translate(24.631 20.841)"/><rect width="1.895" height="1.895" transform="translate(26.525 20.841)"/><rect width="1.895" height="1.895" transform="translate(28.42 20.841)"/><rect width="1.895" height="1.895" transform="translate(30.314 20.841)"/><rect width="1.895" height="1.895" transform="translate(32.209 20.841)"/><rect width="1.895" height="1.895" transform="translate(34.104 20.841)"/><rect width="1.895" height="1.895" transform="translate(35.999 20.841)"/><rect width="1.895" height="1.895" transform="translate(37.893 20.841)"/><rect width="1.895" height="1.895" transform="translate(39.788 20.841)"/><rect width="1.895" height="1.895" transform="translate(41.683 20.841)"/><rect width="1.895" height="1.895" transform="translate(43.577 20.841)"/><rect width="1.895" height="1.895" transform="translate(45.472 20.841)"/><rect width="1.895" height="1.895" transform="translate(47.367 20.841)"/><rect width="1.895" height="1.895" transform="translate(49.261 20.841)"/><rect width="1.895" height="1.895" transform="translate(51.156 20.841)" fill="#6f6f6f"/><rect width="1.895" height="1.895" transform="translate(53.051 20.841)"/><rect width="1.895" height="1.895" transform="translate(0 22.736)"/><rect width="1.895" height="1.895" transform="translate(1.895 22.736)" fill="#f2f2f2"/><rect width="1.895" height="1.895" transform="translate(3.789 22.736)"/><rect width="1.895" height="1.895" transform="translate(5.684 22.736)" fill="#f2f2f2"/><rect width="1.895" height="1.895" transform="translate(7.579 22.736)" fill="#f2f2f2"/><rect width="1.895" height="1.895" transform="translate(9.473 22.736)"/><rect width="1.895" height="1.895" transform="translate(11.368 22.736)" fill="#f2f2f2"/><rect width="1.895" height="1.895" transform="translate(13.263 22.736)" fill="#f2f2f2"/><rect width="1.895" height="1.895" transform="translate(15.157 22.736)"/><rect width="1.895" height="1.895" transform="translate(17.052 22.736)" fill="#f2f2f2"/><rect width="1.895" height="1.895" transform="translate(18.947 22.736)" fill="#f2f2f2"/><rect width="1.895" height="1.895" transform="translate(20.841 22.736)"/><rect width="1.895" height="1.895" transform="translate(22.736 22.736)" fill="#f2f2f2"/><rect width="1.895" height="1.895" transform="translate(24.631 22.736)" fill="#f2f2f2"/><rect width="1.895" height="1.895" transform="translate(26.525 22.736)"/><rect width="1.895" height="1.895" transform="translate(28.42 22.736)" fill="#f2f2f2"/><rect width="1.895" height="1.895" transform="translate(30.314 22.736)" fill="#f2f2f2"/><rect width="1.895" height="1.895" transform="translate(32.209 22.736)"/><rect width="1.895" height="1.895" transform="translate(34.104 22.736)" fill="#f2f2f2"/><rect width="1.895" height="1.895" transform="translate(35.999 22.736)" fill="#f2f2f2"/><rect width="1.895" height="1.895" transform="translate(37.893 22.736)"/><rect width="1.895" height="1.895" transform="translate(39.788 22.736)" fill="#f2f2f2"/><rect width="1.895" height="1.895" transform="translate(41.683 22.736)" fill="#f2f2f2"/><rect width="1.895" height="1.895" transform="translate(43.577 22.736)"/><rect width="1.895" height="1.895" transform="translate(45.472 22.736)" fill="#f2f2f2"/><rect width="1.895" height="1.895" transform="translate(47.367 22.736)" fill="#f2f2f2"/><rect width="1.895" height="1.895" transform="translate(49.261 22.736)"/><rect width="1.895" height="1.895" transform="translate(51.156 22.736)" fill="#6f6f6f"/><rect width="1.895" height="1.895" transform="translate(53.051 22.736)"/><rect width="1.895" height="1.894" transform="translate(0 24.631)"/><rect width="1.895" height="1.894" transform="translate(1.895 24.631)" fill="#f2f2f2"/><rect width="1.895" height="1.894" transform="translate(3.789 24.631)"/><rect width="1.895" height="1.894" transform="translate(5.684 24.631)" fill="#a3a3a3"/><rect width="1.895" height="1.894" transform="translate(7.579 24.631)" fill="#a3a3a3"/><rect width="1.895" height="1.894" transform="translate(9.473 24.631)"/><rect width="1.895" height="1.894" transform="translate(11.368 24.631)" fill="#a3a3a3"/><rect width="1.895" height="1.894" transform="translate(13.263 24.631)" fill="#a3a3a3"/><rect width="1.895" height="1.894" transform="translate(15.157 24.631)"/><rect width="1.895" height="1.894" transform="translate(17.052 24.631)" fill="#a3a3a3"/><rect width="1.895" height="1.894" transform="translate(18.947 24.631)" fill="#a3a3a3"/><rect width="1.895" height="1.894" transform="translate(20.841 24.631)"/><rect width="1.895" height="1.894" transform="translate(22.736 24.631)" fill="#a3a3a3"/><rect width="1.895" height="1.894" transform="translate(24.631 24.631)" fill="#a3a3a3"/><rect width="1.895" height="1.894" transform="translate(26.525 24.631)"/><rect width="1.895" height="1.894" transform="translate(28.42 24.631)" fill="#a3a3a3"/><rect width="1.895" height="1.894" transform="translate(30.314 24.631)" fill="#a3a3a3"/><rect width="1.895" height="1.894" transform="translate(32.209 24.631)"/><rect width="1.895" height="1.894" transform="translate(34.104 24.631)" fill="#a3a3a3"/><rect width="1.895" height="1.894" transform="translate(35.999 24.631)" fill="#a3a3a3"/><rect width="1.895" height="1.894" transform="translate(37.893 24.631)"/><rect width="1.895" height="1.894" transform="translate(39.788 24.631)" fill="#a3a3a3"/><rect width="1.895" height="1.894" transform="translate(41.683 24.631)" fill="#a3a3a3"/><rect width="1.895" height="1.894" transform="translate(43.577 24.631)"/><rect width="1.895" height="1.894" transform="translate(45.472 24.631)" fill="#a3a3a3"/><rect width="1.895" height="1.894" transform="translate(47.367 24.631)" fill="#a3a3a3"/><rect width="1.895" height="1.894" transform="translate(49.261 24.631)"/><rect width="1.895" height="1.894" transform="translate(51.156 24.631)" fill="#6f6f6f"/><rect width="1.895" height="1.894" transform="translate(53.051 24.631)"/><rect width="1.895" height="1.895" transform="translate(0 26.525)"/><rect width="1.895" height="1.895" transform="translate(1.895 26.525)" fill="#f2f2f2"/><rect width="1.895" height="1.895" transform="translate(3.789 26.525)"/><rect width="1.895" height="1.895" transform="translate(5.684 26.525)"/><rect width="1.895" height="1.895" transform="translate(7.579 26.525)"/><rect width="1.895" height="1.895" transform="translate(9.473 26.525)"/><rect width="1.895" height="1.895" transform="translate(11.368 26.525)"/><rect width="1.895" height="1.895" transform="translate(13.263 26.525)"/><rect width="1.895" height="1.895" transform="translate(15.157 26.525)"/><rect width="1.895" height="1.895" transform="translate(17.052 26.525)"/><rect width="1.895" height="1.895" transform="translate(18.947 26.525)"/><rect width="1.895" height="1.895" transform="translate(20.841 26.525)"/><rect width="1.895" height="1.895" transform="translate(22.736 26.525)"/><rect width="1.895" height="1.895" transform="translate(24.631 26.525)"/><rect width="1.895" height="1.895" transform="translate(26.525 26.525)"/><rect width="1.895" height="1.895" transform="translate(28.42 26.525)"/><rect width="1.895" height="1.895" transform="translate(30.314 26.525)"/><rect width="1.895" height="1.895" transform="translate(32.209 26.525)"/><rect width="1.895" height="1.895" transform="translate(34.104 26.525)"/><rect width="1.895" height="1.895" transform="translate(35.999 26.525)"/><rect width="1.895" height="1.895" transform="translate(37.893 26.525)"/><rect width="1.895" height="1.895" transform="translate(39.788 26.525)"/><rect width="1.895" height="1.895" transform="translate(41.683 26.525)"/><rect width="1.895" height="1.895" transform="translate(43.577 26.525)"/><rect width="1.895" height="1.895" transform="translate(45.472 26.525)"/><rect width="1.895" height="1.895" transform="translate(47.367 26.525)"/><rect width="1.895" height="1.895" transform="translate(49.261 26.525)"/><rect width="1.895" height="1.895" transform="translate(51.156 26.525)" fill="#6f6f6f"/><rect width="1.895" height="1.895" transform="translate(53.051 26.525)"/><rect width="1.895" height="1.895" transform="translate(0 28.42)"/><rect width="1.895" height="1.895" transform="translate(1.895 28.42)" fill="#f2f2f2"/><rect width="1.895" height="1.895" transform="translate(3.789 28.42)"/><rect width="1.895" height="1.895" transform="translate(5.684 28.42)" fill="#f2f2f2"/><rect width="1.895" height="1.895" transform="translate(7.579 28.42)" fill="#f2f2f2"/><rect width="1.895" height="1.895" transform="translate(9.473 28.42)" fill="#f2f2f2"/><rect width="1.895" height="1.895" transform="translate(11.368 28.42)" fill="#f2f2f2"/><rect width="1.895" height="1.895" transform="translate(13.263 28.42)"/><rect width="1.895" height="1.895" transform="translate(15.157 28.42)" fill="#f2f2f2"/><rect width="1.895" height="1.895" transform="translate(17.052 28.42)" fill="#f2f2f2"/><rect width="1.895" height="1.895" transform="translate(18.947 28.42)"/><rect width="1.895" height="1.895" transform="translate(20.841 28.42)" fill="#f2f2f2"/><rect width="1.895" height="1.895" transform="translate(22.736 28.42)" fill="#f2f2f2"/><rect width="1.895" height="1.895" transform="translate(24.631 28.42)"/><rect width="1.895" height="1.895" transform="translate(26.525 28.42)" fill="#f2f2f2"/><rect width="1.895" height="1.895" transform="translate(28.42 28.42)" fill="#f2f2f2"/><rect width="1.895" height="1.895" transform="translate(30.314 28.42)"/><rect width="1.895" height="1.895" transform="translate(32.209 28.42)" fill="#f2f2f2"/><rect width="1.895" height="1.895" transform="translate(34.104 28.42)" fill="#f2f2f2"/><rect width="1.895" height="1.895" transform="translate(35.999 28.42)"/><rect width="1.895" height="1.895" transform="translate(37.893 28.42)" fill="#f2f2f2"/><rect width="1.895" height="1.895" transform="translate(39.788 28.42)" fill="#f2f2f2"/><rect width="1.895" height="1.895" transform="translate(41.683 28.42)"/><rect width="1.895" height="1.895" transform="translate(43.577 28.42)" fill="#f2f2f2"/><rect width="1.895" height="1.895" transform="translate(45.472 28.42)" fill="#f2f2f2"/><rect width="1.895" height="1.895" transform="translate(47.367 28.42)" fill="#f2f2f2"/><rect width="1.895" height="1.895" transform="translate(49.261 28.42)"/><rect width="1.895" height="1.895" transform="translate(51.156 28.42)" fill="#6f6f6f"/><rect width="1.895" height="1.895" transform="translate(53.051 28.42)"/><rect width="1.895" height="1.895" transform="translate(0 30.315)"/><rect width="1.895" height="1.895" transform="translate(1.895 30.315)" fill="#f2f2f2"/><rect width="1.895" height="1.895" transform="translate(3.789 30.315)"/><rect width="1.895" height="1.895" transform="translate(5.684 30.315)" fill="#a3a3a3"/><rect width="1.895" height="1.895" transform="translate(7.579 30.315)" fill="#a3a3a3"/><rect width="1.895" height="1.895" transform="translate(9.473 30.315)" fill="#a3a3a3"/><rect width="1.895" height="1.895" transform="translate(11.368 30.315)" fill="#a3a3a3"/><rect width="1.895" height="1.895" transform="translate(13.263 30.315)"/><rect width="1.895" height="1.895" transform="translate(15.157 30.315)" fill="#a3a3a3"/><rect width="1.895" height="1.895" transform="translate(17.052 30.315)" fill="#a3a3a3"/><rect width="1.895" height="1.895" transform="translate(18.947 30.315)"/><rect width="1.895" height="1.895" transform="translate(20.841 30.315)" fill="#a3a3a3"/><rect width="1.895" height="1.895" transform="translate(22.736 30.315)" fill="#a3a3a3"/><rect width="1.895" height="1.895" transform="translate(24.631 30.315)"/><rect width="1.895" height="1.895" transform="translate(26.525 30.315)" fill="#a3a3a3"/><rect width="1.895" height="1.895" transform="translate(28.42 30.315)" fill="#a3a3a3"/><rect width="1.895" height="1.895" transform="translate(30.314 30.315)"/><rect width="1.895" height="1.895" transform="translate(32.209 30.315)" fill="#a3a3a3"/><rect width="1.895" height="1.895" transform="translate(34.104 30.315)" fill="#a3a3a3"/><rect width="1.895" height="1.895" transform="translate(35.999 30.315)"/><rect width="1.895" height="1.895" transform="translate(37.893 30.315)" fill="#a3a3a3"/><rect width="1.895" height="1.895" transform="translate(39.788 30.315)" fill="#a3a3a3"/><rect width="1.895" height="1.895" transform="translate(41.683 30.315)"/><rect width="1.895" height="1.895" transform="translate(43.577 30.315)" fill="#a3a3a3"/><rect width="1.895" height="1.895" transform="translate(45.472 30.315)" fill="#a3a3a3"/><rect width="1.895" height="1.895" transform="translate(47.367 30.315)" fill="#a3a3a3"/><rect width="1.895" height="1.895" transform="translate(49.261 30.315)"/><rect width="1.895" height="1.895" transform="translate(51.156 30.315)" fill="#6f6f6f"/><rect width="1.895" height="1.895" transform="translate(53.051 30.315)"/><rect width="1.895" height="1.895" transform="translate(0 32.21)"/><rect width="1.895" height="1.895" transform="translate(1.895 32.21)" fill="#f2f2f2"/><rect width="1.895" height="1.895" transform="translate(3.789 32.21)"/><rect width="1.895" height="1.895" transform="translate(5.684 32.21)"/><rect width="1.895" height="1.895" transform="translate(7.579 32.21)"/><rect width="1.895" height="1.895" transform="translate(9.473 32.21)"/><rect width="1.895" height="1.895" transform="translate(11.368 32.21)"/><rect width="1.895" height="1.895" transform="translate(13.263 32.21)"/><rect width="1.895" height="1.895" transform="translate(15.157 32.21)"/><rect width="1.895" height="1.895" transform="translate(17.052 32.21)"/><rect width="1.895" height="1.895" transform="translate(18.947 32.21)"/><rect width="1.895" height="1.895" transform="translate(20.841 32.21)"/><rect width="1.895" height="1.895" transform="translate(22.736 32.21)"/><rect width="1.895" height="1.895" transform="translate(24.631 32.21)"/><rect width="1.895" height="1.895" transform="translate(26.525 32.21)"/><rect width="1.895" height="1.895" transform="translate(28.42 32.21)"/><rect width="1.895" height="1.895" transform="translate(30.314 32.21)"/><rect width="1.895" height="1.895" transform="translate(32.209 32.21)"/><rect width="1.895" height="1.895" transform="translate(34.104 32.21)"/><rect width="1.895" height="1.895" transform="translate(35.999 32.21)"/><rect width="1.895" height="1.895" transform="translate(37.893 32.21)"/><rect width="1.895" height="1.895" transform="translate(39.788 32.21)"/><rect width="1.895" height="1.895" transform="translate(41.683 32.21)"/><rect width="1.895" height="1.895" transform="translate(43.577 32.21)"/><rect width="1.895" height="1.895" transform="translate(45.472 32.21)"/><rect width="1.895" height="1.895" transform="translate(47.367 32.21)"/><rect width="1.895" height="1.895" transform="translate(49.261 32.21)"/><rect width="1.895" height="1.895" transform="translate(51.156 32.21)" fill="#6f6f6f"/><rect width="1.895" height="1.895" transform="translate(53.051 32.21)"/><rect width="1.895" height="1.894" transform="translate(0 34.104)"/><rect width="1.895" height="1.894" transform="translate(1.895 34.104)" fill="#f2f2f2"/><rect width="1.895" height="1.894" transform="translate(3.789 34.104)"/><rect width="1.895" height="1.894" transform="translate(5.684 34.104)" fill="#f2f2f2"/><rect width="1.895" height="1.894" transform="translate(7.579 34.104)" fill="#f2f2f2"/><rect width="1.895" height="1.894" transform="translate(9.473 34.104)"/><rect width="1.895" height="1.894" transform="translate(11.368 34.104)" fill="#f2f2f2"/><rect width="1.895" height="1.894" transform="translate(13.263 34.104)" fill="#f2f2f2"/><rect width="1.895" height="1.894" transform="translate(15.157 34.104)"/><rect width="1.895" height="1.894" transform="translate(17.052 34.104)" fill="#f2f2f2"/><rect width="1.895" height="1.894" transform="translate(18.947 34.104)" fill="#f2f2f2"/><rect width="1.895" height="1.894" transform="translate(20.841 34.104)"/><rect width="1.895" height="1.894" transform="translate(22.736 34.104)" fill="#f2f2f2"/><rect width="1.895" height="1.894" transform="translate(24.631 34.104)" fill="#f2f2f2"/><rect width="1.895" height="1.894" transform="translate(26.525 34.104)"/><rect width="1.895" height="1.894" transform="translate(28.42 34.104)" fill="#f2f2f2"/><rect width="1.895" height="1.894" transform="translate(30.314 34.104)" fill="#f2f2f2"/><rect width="1.895" height="1.894" transform="translate(32.209 34.104)"/><rect width="1.895" height="1.894" transform="translate(34.104 34.104)" fill="#f2f2f2"/><rect width="1.895" height="1.894" transform="translate(35.999 34.104)" fill="#f2f2f2"/><rect width="1.895" height="1.894" transform="translate(37.893 34.104)"/><rect width="1.895" height="1.894" transform="translate(39.788 34.104)" fill="#f2f2f2"/><rect width="1.895" height="1.894" transform="translate(41.683 34.104)" fill="#f2f2f2"/><rect width="1.895" height="1.894" transform="translate(43.577 34.104)"/><rect width="1.895" height="1.894" transform="translate(45.472 34.104)" fill="#f2f2f2"/><rect width="1.895" height="1.894" transform="translate(47.367 34.104)" fill="#f2f2f2"/><rect width="1.895" height="1.894" transform="translate(49.261 34.104)"/><rect width="1.895" height="1.894" transform="translate(51.156 34.104)" fill="#6f6f6f"/><rect width="1.895" height="1.894" transform="translate(53.051 34.104)"/><rect width="1.895" height="1.895" transform="translate(0 35.999)"/><rect width="1.895" height="1.895" transform="translate(1.895 35.999)" fill="#f2f2f2"/><rect width="1.895" height="1.895" transform="translate(3.789 35.999)"/><rect width="1.895" height="1.895" transform="translate(5.684 35.999)" fill="#a3a3a3"/><rect width="1.895" height="1.895" transform="translate(7.579 35.999)" fill="#a3a3a3"/><rect width="1.895" height="1.895" transform="translate(9.473 35.999)"/><rect width="1.895" height="1.895" transform="translate(11.368 35.999)" fill="#a3a3a3"/><rect width="1.895" height="1.895" transform="translate(13.263 35.999)" fill="#a3a3a3"/><rect width="1.895" height="1.895" transform="translate(15.157 35.999)"/><rect width="1.895" height="1.895" transform="translate(17.052 35.999)" fill="#a3a3a3"/><rect width="1.895" height="1.895" transform="translate(18.947 35.999)" fill="#a3a3a3"/><rect width="1.895" height="1.895" transform="translate(20.841 35.999)"/><rect width="1.895" height="1.895" transform="translate(22.736 35.999)" fill="#a3a3a3"/><rect width="1.895" height="1.895" transform="translate(24.631 35.999)" fill="#a3a3a3"/><rect width="1.895" height="1.895" transform="translate(26.525 35.999)"/><rect width="1.895" height="1.895" transform="translate(28.42 35.999)" fill="#a3a3a3"/><rect width="1.895" height="1.895" transform="translate(30.314 35.999)" fill="#a3a3a3"/><rect width="1.895" height="1.895" transform="translate(32.209 35.999)"/><rect width="1.895" height="1.895" transform="translate(34.104 35.999)" fill="#a3a3a3"/><rect width="1.895" height="1.895" transform="translate(35.999 35.999)" fill="#a3a3a3"/><rect width="1.895" height="1.895" transform="translate(37.893 35.999)"/><rect width="1.895" height="1.895" transform="translate(39.788 35.999)" fill="#a3a3a3"/><rect width="1.895" height="1.895" transform="translate(41.683 35.999)" fill="#a3a3a3"/><rect width="1.895" height="1.895" transform="translate(43.577 35.999)"/><rect width="1.895" height="1.895" transform="translate(45.472 35.999)" fill="#a3a3a3"/><rect width="1.895" height="1.895" transform="translate(47.367 35.999)" fill="#a3a3a3"/><rect width="1.895" height="1.895" transform="translate(49.261 35.999)"/><rect width="1.895" height="1.895" transform="translate(51.156 35.999)" fill="#6f6f6f"/><rect width="1.895" height="1.895" transform="translate(53.051 35.999)"/><rect width="1.895" height="1.895" transform="translate(0 37.893)"/><rect width="1.895" height="1.895" transform="translate(1.895 37.893)" fill="#f2f2f2"/><rect width="1.895" height="1.895" transform="translate(3.789 37.893)"/><rect width="1.895" height="1.895" transform="translate(5.684 37.893)"/><rect width="1.895" height="1.895" transform="translate(7.579 37.893)"/><rect width="1.895" height="1.895" transform="translate(9.473 37.893)"/><rect width="1.895" height="1.895" transform="translate(11.368 37.893)"/><rect width="1.895" height="1.895" transform="translate(13.263 37.893)"/><rect width="1.895" height="1.895" transform="translate(15.157 37.893)"/><rect width="1.895" height="1.895" transform="translate(17.052 37.893)"/><rect width="1.895" height="1.895" transform="translate(18.947 37.893)"/><rect width="1.895" height="1.895" transform="translate(20.841 37.893)"/><rect width="1.895" height="1.895" transform="translate(22.736 37.893)"/><rect width="1.895" height="1.895" transform="translate(24.631 37.893)"/><rect width="1.895" height="1.895" transform="translate(26.525 37.893)"/><rect width="1.895" height="1.895" transform="translate(28.42 37.893)"/><rect width="1.895" height="1.895" transform="translate(30.314 37.893)"/><rect width="1.895" height="1.895" transform="translate(32.209 37.893)"/><rect width="1.895" height="1.895" transform="translate(34.104 37.893)"/><rect width="1.895" height="1.895" transform="translate(35.999 37.893)"/><rect width="1.895" height="1.895" transform="translate(37.893 37.893)"/><rect width="1.895" height="1.895" transform="translate(39.788 37.893)"/><rect width="1.895" height="1.895" transform="translate(41.683 37.893)"/><rect width="1.895" height="1.895" transform="translate(43.577 37.893)"/><rect width="1.895" height="1.895" transform="translate(45.472 37.893)"/><rect width="1.895" height="1.895" transform="translate(47.367 37.893)"/><rect width="1.895" height="1.895" transform="translate(49.261 37.893)"/><rect width="1.895" height="1.895" transform="translate(51.156 37.893)" fill="#6f6f6f"/><rect width="1.895" height="1.895" transform="translate(53.051 37.893)"/><rect width="1.895" height="1.895" transform="translate(0 39.788)"/><rect width="1.895" height="1.894" transform="translate(1.895 39.788)" fill="#f2f2f2"/><rect width="1.895" height="1.894" transform="translate(3.789 39.788)"/><rect width="1.895" height="1.894" transform="translate(5.684 39.788)" fill="#f2f2f2"/><rect width="1.895" height="1.894" transform="translate(7.579 39.788)" fill="#f2f2f2"/><rect width="1.895" height="1.894" transform="translate(9.473 39.788)" fill="#f2f2f2"/><rect width="1.895" height="1.894" transform="translate(11.368 39.788)"/><rect width="1.895" height="1.894" transform="translate(13.263 39.788)" fill="#f2f2f2"/><rect width="1.895" height="1.894" transform="translate(15.157 39.788)" fill="#f2f2f2"/><rect width="1.895" height="1.894" transform="translate(17.052 39.788)"/><rect width="1.895" height="1.894" transform="translate(18.947 39.788)" fill="#f2f2f2"/><rect width="1.895" height="1.894" transform="translate(20.841 39.788)" fill="#f2f2f2"/><rect width="1.895" height="1.894" transform="translate(22.736 39.788)" fill="#f2f2f2"/><rect width="1.895" height="1.894" transform="translate(24.631 39.788)" fill="#f2f2f2"/><rect width="1.895" height="1.894" transform="translate(26.525 39.788)" fill="#f2f2f2"/><rect width="1.895" height="1.894" transform="translate(28.42 39.788)" fill="#f2f2f2"/><rect width="1.895" height="1.894" transform="translate(30.314 39.788)" fill="#f2f2f2"/><rect width="1.895" height="1.894" transform="translate(32.209 39.788)" fill="#f2f2f2"/><rect width="1.895" height="1.894" transform="translate(34.104 39.788)" fill="#f2f2f2"/><rect width="1.895" height="1.894" transform="translate(35.999 39.788)"/><rect width="1.895" height="1.894" transform="translate(37.893 39.788)" fill="#f2f2f2"/><rect width="1.895" height="1.894" transform="translate(39.788 39.788)" fill="#f2f2f2"/><rect width="1.895" height="1.894" transform="translate(41.683 39.788)"/><rect width="1.895" height="1.894" transform="translate(43.577 39.788)" fill="#f2f2f2"/><rect width="1.895" height="1.894" transform="translate(45.472 39.788)" fill="#f2f2f2"/><rect width="1.895" height="1.894" transform="translate(47.367 39.788)" fill="#f2f2f2"/><rect width="1.895" height="1.894" transform="translate(49.261 39.788)"/><rect width="1.895" height="1.894" transform="translate(51.156 39.788)" fill="#6f6f6f"/><rect width="1.895" height="1.895" transform="translate(53.051 39.788)"/><rect width="1.895" height="1.895" transform="translate(0 41.683)"/><rect width="1.895" height="1.895" transform="translate(1.895 41.683)" fill="#f2f2f2"/><rect width="1.895" height="1.895" transform="translate(3.789 41.683)"/><rect width="1.895" height="1.895" transform="translate(5.684 41.683)" fill="#a3a3a3"/><rect width="1.895" height="1.895" transform="translate(7.579 41.683)" fill="#a3a3a3"/><rect width="1.895" height="1.895" transform="translate(9.473 41.683)" fill="#a3a3a3"/><rect width="1.895" height="1.895" transform="translate(11.368 41.683)"/><rect width="1.895" height="1.895" transform="translate(13.263 41.683)" fill="#a3a3a3"/><rect width="1.895" height="1.895" transform="translate(15.157 41.683)" fill="#a3a3a3"/><rect width="1.895" height="1.895" transform="translate(17.052 41.683)"/><rect width="1.895" height="1.895" transform="translate(18.947 41.683)" fill="#a3a3a3"/><rect width="1.895" height="1.895" transform="translate(20.841 41.683)" fill="#a3a3a3"/><rect width="1.895" height="1.895" transform="translate(22.736 41.683)" fill="#a3a3a3"/><rect width="1.895" height="1.895" transform="translate(24.631 41.683)" fill="#a3a3a3"/><rect width="1.895" height="1.895" transform="translate(26.525 41.683)" fill="#a3a3a3"/><rect width="1.895" height="1.895" transform="translate(28.42 41.683)" fill="#a3a3a3"/><rect width="1.895" height="1.895" transform="translate(30.314 41.683)" fill="#a3a3a3"/><rect width="1.895" height="1.895" transform="translate(32.209 41.683)" fill="#a3a3a3"/><rect width="1.895" height="1.895" transform="translate(34.104 41.683)" fill="#a3a3a3"/><rect width="1.895" height="1.895" transform="translate(35.999 41.683)"/><rect width="1.895" height="1.895" transform="translate(37.893 41.683)" fill="#a3a3a3"/><rect width="1.895" height="1.895" transform="translate(39.788 41.683)" fill="#a3a3a3"/><rect width="1.895" height="1.895" transform="translate(41.683 41.683)"/><rect width="1.895" height="1.895" transform="translate(43.577 41.683)" fill="#a3a3a3"/><rect width="1.895" height="1.895" transform="translate(45.472 41.683)" fill="#a3a3a3"/><rect width="1.895" height="1.895" transform="translate(47.367 41.683)" fill="#a3a3a3"/><rect width="1.895" height="1.895" transform="translate(49.261 41.683)"/><rect width="1.895" height="1.895" transform="translate(51.156 41.683)" fill="#6f6f6f"/><rect width="1.895" height="1.895" transform="translate(53.051 41.683)"/><rect width="1.895" height="1.895" transform="translate(0 43.578)"/><rect width="1.895" height="1.895" transform="translate(1.895 43.578)" fill="#f2f2f2"/><rect width="1.895" height="1.895" transform="translate(3.789 43.578)"/><rect width="1.895" height="1.895" transform="translate(5.684 43.578)"/><rect width="1.895" height="1.895" transform="translate(7.579 43.578)"/><rect width="1.895" height="1.895" transform="translate(9.473 43.578)"/><rect width="1.895" height="1.895" transform="translate(11.368 43.578)"/><rect width="1.895" height="1.895" transform="translate(13.263 43.578)"/><rect width="1.895" height="1.895" transform="translate(15.157 43.578)"/><rect width="1.895" height="1.895" transform="translate(17.052 43.578)"/><rect width="1.895" height="1.895" transform="translate(18.947 43.578)"/><rect width="1.895" height="1.895" transform="translate(20.841 43.578)"/><rect width="1.895" height="1.895" transform="translate(22.736 43.578)"/><rect width="1.895" height="1.895" transform="translate(24.631 43.578)"/><rect width="1.895" height="1.895" transform="translate(26.525 43.578)"/><rect width="1.895" height="1.895" transform="translate(28.42 43.578)"/><rect width="1.895" height="1.895" transform="translate(30.314 43.578)"/><rect width="1.895" height="1.895" transform="translate(32.209 43.578)"/><rect width="1.895" height="1.895" transform="translate(34.104 43.578)"/><rect width="1.895" height="1.895" transform="translate(35.999 43.578)"/><rect width="1.895" height="1.895" transform="translate(37.893 43.578)"/><rect width="1.895" height="1.895" transform="translate(39.788 43.578)"/><rect width="1.895" height="1.895" transform="translate(41.683 43.578)"/><rect width="1.895" height="1.895" transform="translate(43.577 43.578)"/><rect width="1.895" height="1.895" transform="translate(45.472 43.578)"/><rect width="1.895" height="1.895" transform="translate(47.367 43.578)"/><rect width="1.895" height="1.895" transform="translate(49.261 43.578)"/><rect width="1.895" height="1.895" transform="translate(51.156 43.578)" fill="#6f6f6f"/><rect width="1.895" height="1.895" transform="translate(53.051 43.578)"/><rect width="1.895" height="1.895" transform="translate(0 45.472)"/><rect width="1.895" height="1.894" transform="translate(1.895 45.472)" fill="#f2f2f2"/><rect width="1.895" height="1.894" transform="translate(3.789 45.472)" fill="#6f6f6f"/><rect width="1.895" height="1.894" transform="translate(5.684 45.472)" fill="#6f6f6f"/><rect width="1.895" height="1.894" transform="translate(7.579 45.472)" fill="#6f6f6f"/><rect width="1.895" height="1.894" transform="translate(9.473 45.472)" fill="#6f6f6f"/><rect width="1.895" height="1.894" transform="translate(11.368 45.472)" fill="#6f6f6f"/><rect width="1.895" height="1.894" transform="translate(13.263 45.472)" fill="#6f6f6f"/><rect width="1.895" height="1.894" transform="translate(15.157 45.472)" fill="#6f6f6f"/><rect width="1.895" height="1.894" transform="translate(17.052 45.472)" fill="#6f6f6f"/><rect width="1.895" height="1.894" transform="translate(18.947 45.472)" fill="#6f6f6f"/><rect width="1.895" height="1.894" transform="translate(20.841 45.472)" fill="#6f6f6f"/><rect width="1.895" height="1.894" transform="translate(22.736 45.472)" fill="#6f6f6f"/><rect width="1.895" height="1.894" transform="translate(24.631 45.472)" fill="#6f6f6f"/><rect width="1.895" height="1.894" transform="translate(26.525 45.472)" fill="#6f6f6f"/><rect width="1.895" height="1.894" transform="translate(28.42 45.472)" fill="#6f6f6f"/><rect width="1.895" height="1.894" transform="translate(30.314 45.472)" fill="#6f6f6f"/><rect width="1.895" height="1.894" transform="translate(32.209 45.472)" fill="#6f6f6f"/><rect width="1.895" height="1.894" transform="translate(34.104 45.472)" fill="#6f6f6f"/><rect width="1.895" height="1.894" transform="translate(35.999 45.472)" fill="#6f6f6f"/><rect width="1.895" height="1.894" transform="translate(37.893 45.472)" fill="#6f6f6f"/><rect width="1.895" height="1.894" transform="translate(39.788 45.472)" fill="#6f6f6f"/><rect width="1.895" height="1.894" transform="translate(41.683 45.472)" fill="#6f6f6f"/><rect width="1.895" height="1.894" transform="translate(43.577 45.472)" fill="#6f6f6f"/><rect width="1.895" height="1.894" transform="translate(45.472 45.472)" fill="#6f6f6f"/><rect width="1.895" height="1.894" transform="translate(47.367 45.472)" fill="#6f6f6f"/><rect width="1.895" height="1.894" transform="translate(49.261 45.472)" fill="#6f6f6f"/><rect width="1.895" height="1.894" transform="translate(51.156 45.472)" fill="#6f6f6f"/><rect width="1.895" height="1.895" transform="translate(53.051 45.472)"/><rect width="1.895" height="1.895" transform="translate(1.895 47.367)"/><rect width="1.895" height="1.895" transform="translate(3.789 47.367)"/><rect width="1.895" height="1.895" transform="translate(5.684 47.367)"/><rect width="1.895" height="1.895" transform="translate(7.579 47.367)"/><rect width="1.895" height="1.895" transform="translate(9.473 47.367)"/><rect width="1.895" height="1.895" transform="translate(11.368 47.367)"/><rect width="1.895" height="1.895" transform="translate(13.263 47.367)"/><rect width="1.895" height="1.895" transform="translate(15.157 47.367)"/><rect width="1.895" height="1.895" transform="translate(17.052 47.367)"/><rect width="1.895" height="1.895" transform="translate(18.947 47.367)"/><rect width="1.895" height="1.895" transform="translate(20.841 47.367)"/><rect width="1.895" height="1.895" transform="translate(22.736 47.367)"/><rect width="1.895" height="1.895" transform="translate(24.631 47.367)"/><rect width="1.895" height="1.895" transform="translate(26.525 47.367)"/><rect width="1.895" height="1.895" transform="translate(28.42 47.367)"/><rect width="1.895" height="1.895" transform="translate(30.314 47.367)"/><rect width="1.895" height="1.895" transform="translate(32.209 47.367)"/><rect width="1.895" height="1.895" transform="translate(34.104 47.367)"/><rect width="1.895" height="1.895" transform="translate(35.999 47.367)"/><rect width="1.895" height="1.895" transform="translate(37.893 47.367)"/><rect width="1.895" height="1.895" transform="translate(39.788 47.367)"/><rect width="1.895" height="1.895" transform="translate(41.682 47.367)"/><rect width="1.895" height="1.895" transform="translate(43.577 47.367)"/><rect width="1.895" height="1.895" transform="translate(45.472 47.367)"/><rect width="1.895" height="1.895" transform="translate(47.367 47.367)"/><rect width="1.895" height="1.895" transform="translate(49.261 47.367)"/><rect width="1.895" height="1.895" transform="translate(51.156 47.367)"/></g></g></svg>