<svg xmlns="http://www.w3.org/2000/svg" xmlns:xlink="http://www.w3.org/1999/xlink" width="131" height="131" viewBox="0 0 131 131"><defs><clipPath id="a"><rect width="62.713" height="64.112" fill="none"/></clipPath></defs><g transform="translate(-4369 8940)"><g transform="translate(4369 -8940)" fill="#fff" stroke="#9d39e3" stroke-width="4"><circle cx="65.5" cy="65.5" r="65.5" stroke="none"/><circle cx="65.5" cy="65.5" r="63.5" fill="none"/></g><g transform="translate(4403 -8906)"><g clip-path="url(#a)"><path d="M705.891,37.455h3.355a.926.926,0,0,1,.926,1.181l-2.6,12.055a1.55,1.55,0,0,1-1.435,1.18h-3.355a.925.925,0,0,1-.926-1.18l2.6-12.055a1.551,1.551,0,0,1,1.435-1.181" transform="translate(-647.487 -34.555)" fill="#111" fill-rule="evenodd"/><path d="M71.22,49.664c-1.006,0-2.353,2.947-3.008,6.582s-.371,6.582.635,6.582,2.352-2.947,3.008-6.582.371-6.582-.635-6.582" transform="translate(-62.606 -45.819)" fill="#6ea2a2" fill-rule="evenodd"/><path d="M261.794,242.416c-2.169,1.256-5.918,3.019-6.541,5.753l-1.948,8.551c.32.086.415.362.543.578.235.4.245.833-.359.843l-10.7.177.857-15.676Z" transform="translate(-223.993 -223.646)" fill="#6f6f6f" fill-rule="evenodd"/><path d="M299.88,428.805c.3.516.6.691-.035.7l-6.574.117c.1-.731.63-.833,1.328-.852l4.4-.12c.277-.008.672-.1.876.153" transform="translate(-270.564 -395.442)" fill="#8f8f8f" fill-rule="evenodd"/><path d="M334.113,268.4a5.943,5.943,0,0,0-2.61,3.34l-2.1,8.952-3.7.089,2.351-9.363c.519-2.067,1.6-2.543,6.062-3.018" transform="translate(-300.482 -247.618)" fill="gray" fill-rule="evenodd"/><path d="M336.861,304.837l-1.891,8.249-3.105.08,1.865-7.982c.324-1.386,1.139-1.371,1.8-1.534,1.865-.459,1.535.291,1.33,1.186" transform="translate(-306.169 -280.012)" fill="#a9a9a9" fill-rule="evenodd"/><path d="M321.561,433.085l4.269-.1a.182.182,0,0,1,.145.09c.029.051.01.094-.042.095l-4.268.1a.183.183,0,0,1-.145-.09c-.029-.051-.01-.094.042-.095" transform="translate(-296.612 -399.463)" fill="#ccc" fill-rule="evenodd"/><path d="M26.951,25.109,19.043,57.926c1.326,2.224,2.155,4.471-.027,5.2-3.289,1.1-12.953,1.188-16.8.7-2.843-.363-2.207-3.463-.468-5.22L3.038,57.3l8.836-36.668-1.857-.869c-2.826-1.322-5.067-2.553-4.328-5.672l2-8.418A7.653,7.653,0,0,1,14.7,0H60.045C62.2,0,62.451,1.54,61.993,3.488L59.349,14.713c-.735,3.12-.869,5.051-3.988,5.051h-22.7c-3.246,0-4.621,1.189-5.3,3.765Z" transform="translate(-0.241 -0.001)" fill="#414141" fill-rule="evenodd"/><path d="M385.663,104.371l-1.025,4.349H352.885c-.71,0-.74-.582-.063-1.293l1.677-1.763a4.227,4.227,0,0,1,2.523-1.293Z" transform="translate(-325.053 -96.29)" fill="#8ab3b3" fill-rule="evenodd"/><path d="M397.7,113.539l-.857,3.64H365.958c-.512,0-.537-.423-.046-.932l1.548-1.6a3.1,3.1,0,0,1,1.818-.932Z" transform="translate(-337.254 -104.748)" fill="#6ea2a2" fill-rule="evenodd"/><path d="M49.646,332.9l6.823-28.313c2.344-1.791,9.684-1.548,9.384,1.145a11.91,11.91,0,0,1-.289,1.481L59.1,332.953Z" transform="translate(-45.802 -279.948)" fill="#688c8c" fill-rule="evenodd"/><path d="M53.514,344.577l6.257-25.968c2.016-1.135,5.892-1.834,7.969-.218.63.49.187,1.9-.349,4.045l-5.554,22.207Z" transform="translate(-49.371 -292.863)" fill="#6ea2a2" fill-rule="evenodd"/><path d="M188.77,359.308c-.118.513-.273,1.1-.437,1.753l-.148.592h-2.51a1.056,1.056,0,0,1-1.066-1.172,1.314,1.314,0,0,1,1.278-1.172Z" transform="translate(-170.312 -331.488)" fill="#7ec8c8" fill-rule="evenodd"/><path d="M173.647,421.96l-.586,2.344H170.6a1.056,1.056,0,0,1-1.066-1.172,1.314,1.314,0,0,1,1.278-1.172Z" transform="translate(-156.4 -389.289)" fill="#7ec8c8" fill-rule="evenodd"/><path d="M158.521,484.607l-.586,2.344h-2.418a1.056,1.056,0,0,1-1.066-1.172,1.314,1.314,0,0,1,1.279-1.172Z" transform="translate(-142.487 -447.085)" fill="#7ec8c8" fill-rule="evenodd"/><path d="M143.4,547.253l-.586,2.345h-2.373a1.056,1.056,0,0,1-1.066-1.172,1.315,1.315,0,0,1,1.279-1.172Z" transform="translate(-128.575 -504.881)" fill="#7ec8c8" fill-rule="evenodd"/><path d="M128.272,609.9l-.586,2.345h-2.327a1.056,1.056,0,0,1-1.066-1.172,1.314,1.314,0,0,1,1.278-1.172Z" transform="translate(-114.665 -562.676)" fill="#7ec8c8" fill-rule="evenodd"/><path d="M19.19,740.242l-.147.61c1.326,2.224,2.155,4.471-.027,5.2-3.289,1.1-12.953,1.188-16.8.7-2.843-.363-2.207-3.463-.468-5.22l1.277-1.29Z" transform="translate(-0.241 -682.927)" fill="#575757" fill-rule="evenodd"/><path d="M26.71,168.648,18.8,201.466c1.326,2.224,2.155,4.471-.027,5.2-3.289,1.1-12.953,1.188-16.8.7-2.611-.333-2.35-3.113-.842-4.805C.7,203.4.5,204.112,1,204.613c.51.516,1.636.736,4.1.687l10.35-.2c2.007-.039,3.2-.283,3.2-1.387,0-.777-.5-1.476-1.437-2.835l8.33-34.64c.128-.532.757-2.408-3.048-2.33-2.666.054-7.945.194-10.866.273,0,0-1.856-.873-1.856-.873-2.6-1.217-4.707-2.357-4.449-4.964,1.754,1.314,4.757,1.967,9.87,1.835s39.024,0,39.024,0c1.443,0,4.109-.024,5.514-4.588l-.628,2.665c-.735,3.12-.869,5.051-3.988,5.051h-22.7c-3.246,0-4.621,1.189-5.3,3.765Z" transform="translate(0 -143.54)" fill="#252525" fill-rule="evenodd"/><path d="M84.562,9.456a8.184,8.184,0,0,1,1.019-1.694c1.1-1.646,2.154-5.126,11.495-5.126h38.868c2.035,0,3.72-.348,3.655,1.559l.166-.707c.459-1.948.21-3.487-1.947-3.487H92.476a7.654,7.654,0,0,0-7.017,5.672Z" transform="translate(-78.015 -0.001)" fill="#666" fill-rule="evenodd"/><path d="M150.112,1.684C150,.669,149.412,0,147.99,0H102.647a7.655,7.655,0,0,0-7.017,5.672l-.043.183C96.909,3.447,97.6,1.3,104.508,1.169s43.14,0,43.14,0a4.636,4.636,0,0,1,1.9.191c.329.134.507.19.565.325" transform="translate(-88.185)" fill="#838383" fill-rule="evenodd"/><path d="M74.421,68.9l16.943-.043a4.015,4.015,0,0,0,2.968-1.765c.739-.855,2.115-2.193,2.719-2.781,1.442-1.406,2.106-1.424,4.966-1.424h27.624l.15-.635H101.91c-2.927,0-4.237.138-5.294,1.222L92.9,67.28a3.6,3.6,0,0,1-2.365,1.2l-16.03.055Zm.335-1.413.087-.364,14.55-.05a4.267,4.267,0,0,0,2.7-1.495l3.377-3.514c1.049-1.091,2.366-1.222,5.294-1.222h29.357l-.15.635h-29.1c-2.86,0-3.524.018-4.966,1.424-.6.589-1.98,1.926-2.719,2.781a4.015,4.015,0,0,1-2.968,1.765Z" transform="translate(-68.659 -56.132)" fill-rule="evenodd"/><path d="M346.206,331.006l-1.5,6.546-1.824.058,1.329-5.779c.57-2.481,2.245-1.915,2-.825" transform="translate(-316.333 -304.521)" fill="#b9b9b9" fill-rule="evenodd"/><path d="M211.132,13.75c-5-.025-9.124-.036-14.067-.036-9.155,0-22.676.039-29.521.07-1.386.006-2.437.039-3.23.111a12.02,12.02,0,0,0-2.439.441c.821,0,22.634.049,34.322.037l15.073-.017a2.331,2.331,0,0,0-.136-.606" transform="translate(-149.34 -12.652)" fill="#a2a2a2" fill-rule="evenodd"/><path d="M33.648,777.323c2.785-.022,5.553-.077,6.834.032.612.052.623.232.623.3,0,.053-.094.165-.458.214-1.12.152-3.891.216-7,.24-2.986.024-5.816.088-7.006-.037-.451-.047-.45-.238-.45-.3s.145-.177.74-.238c1.272-.131,3.91-.194,6.716-.216" transform="translate(-24.164 -717.105)" fill="#707070" fill-rule="evenodd"/></g></g></g></svg>