<svg xmlns="http://www.w3.org/2000/svg" xmlns:xlink="http://www.w3.org/1999/xlink" width="131" height="131" viewBox="0 0 131 131"><defs><clipPath id="a"><rect width="71.706" height="78.927" fill="none"/></clipPath><clipPath id="b"><rect width="71.705" height="78.927" transform="translate(0 0)" fill="none"/></clipPath><clipPath id="c"><rect width="9.653" height="67.054" transform="translate(20.565)" fill="none"/></clipPath><clipPath id="d"><path d="M29.789,9.386a29.816,29.816,0,0,0-4.422-6.44A15.276,15.276,0,0,0,22.163,0L20.589.915l8.044,10.869,1.574-.915a4.012,4.012,0,0,0-.418-1.483" fill="none"/></clipPath><linearGradient id="e" x1="-1.286" y1="5.363" x2="-1.216" y2="5.363" gradientUnits="objectBoundingBox"><stop offset="0" stop-color="#f1f0ec"/><stop offset="1" stop-color="#edece8"/></linearGradient><clipPath id="f"><rect width="5.996" height="7.355" transform="translate(23.793 2.946)" fill="none"/></clipPath><clipPath id="g"><rect width="26.559" height="75.111" transform="translate(1.631 1.779)" fill="none"/></clipPath><clipPath id="h"><path d="M27.8,10.637a28.134,28.134,0,0,0-4.173-6.078A14.419,14.419,0,0,0,20.6,1.779L1.631,12.814a14.447,14.447,0,0,1,3.024,2.78,28.162,28.162,0,0,1,4.173,6.079,3.785,3.785,0,0,1,.395,1.4L28.191,12.037a3.77,3.77,0,0,0-.4-1.4" fill="none"/></clipPath><linearGradient id="i" x1="0.057" y1="2.596" x2="0.087" y2="2.596" gradientUnits="objectBoundingBox"><stop offset="0" stop-color="#4d4848"/><stop offset="0.496" stop-color="#494444"/><stop offset="0.909" stop-color="#3f3b3b"/><stop offset="1" stop-color="#3c3838"/></linearGradient><clipPath id="j"><rect width="23.141" height="17.114" transform="translate(4.655 4.559)" fill="none"/></clipPath><clipPath id="k"><rect width="9.653" height="67.054" transform="translate(0 11.873)" fill="none"/></clipPath><clipPath id="l"><path d="M9.224,21.259A29.84,29.84,0,0,0,4.8,14.819a15.276,15.276,0,0,0-3.2-2.946l-1.574.915L8.068,23.657l1.574-.915a4.012,4.012,0,0,0-.418-1.483" fill="none"/></clipPath><linearGradient id="m" x1="0.16" y1="4.572" x2="0.23" y2="4.572" xlink:href="#e"/><clipPath id="n"><rect width="5.996" height="7.355" transform="translate(3.228 14.819)" fill="none"/></clipPath><clipPath id="o"><path d="M19.089,19.2a1.526,1.526,0,0,0-.773,1.15.481.481,0,0,0,.17.453l.1.066a.987.987,0,0,0,1.511-.783.928.928,0,0,0-.405-.836l-.1-.066a.37.37,0,0,0-.212-.061.666.666,0,0,0-.291.077" fill="none"/></clipPath><radialGradient id="p" cx="0.875" cy="0.079" r="0.933" gradientTransform="matrix(1.221, 0, 0, -1, 2.231, 54.172)" gradientUnits="objectBoundingBox"><stop offset="0" stop-color="#bce868"/><stop offset="0.361" stop-color="#a8d05a"/><stop offset="0.725" stop-color="#9abf51"/><stop offset="1" stop-color="#96ba4e"/></radialGradient><clipPath id="r"><rect width="4.825" height="4.824" transform="translate(17.088 17.373)" fill="none"/></clipPath><clipPath id="s"><path d="M21.913,19.784A2.412,2.412,0,1,1,19.5,17.372a2.412,2.412,0,0,1,2.412,2.412" fill="none"/></clipPath><radialGradient id="t" cx="0.5" cy="0.5" r="0.5" gradientTransform="matrix(1, 0, 0, -1, 0.001, 25.515)" gradientUnits="objectBoundingBox"><stop offset="0" stop-color="#beff3d"/><stop offset="0.046" stop-color="#9cd132"/><stop offset="0.099" stop-color="#7ba627"/><stop offset="0.157" stop-color="#5e7e1e"/><stop offset="0.219" stop-color="#445c16"/><stop offset="0.287" stop-color="#2f3f0f"/><stop offset="0.362" stop-color="#1d2709"/><stop offset="0.449" stop-color="#101505"/><stop offset="0.552" stop-color="#060902"/><stop offset="0.689" stop-color="#010200"/><stop offset="1"/></radialGradient><clipPath id="u"><rect width="12.182" height="24.966" transform="translate(12.913 19.516)" fill="none"/></clipPath><clipPath id="v"><path d="M18.351,38.652a3.711,3.711,0,0,0,.919.155c.1-.066.2-.136.3-.209a4.075,4.075,0,0,1-1.116-.158l-.017,0c-.081,0-.165.187-.084.215m-.929-1.237a4.906,4.906,0,0,0,2.672.757c.077-.066.153-.136.229-.206a5.01,5.01,0,0,1-2.782-.756.045.045,0,0,0-.025-.007c-.073,0-.161.167-.094.212m.94-2.016a.137.137,0,0,0-.023.149,2.142,2.142,0,0,0,1.394.751,8.158,8.158,0,0,0,2,.028c.054-.074.106-.152.158-.228a8.056,8.056,0,0,1-2.076-.016,2.065,2.065,0,0,1-1.341-.723.042.042,0,0,0-.032-.015.112.112,0,0,0-.082.054m2.184-.13c-.091-.018-.181.2-.09.215a5.029,5.029,0,0,0,1.869-.064c.046-.077.091-.155.136-.233a5.014,5.014,0,0,1-1.915.082m.846-.661c-.1.018-.156.233-.053.215a10.461,10.461,0,0,0,1.54-.422c.04-.079.078-.159.116-.239a10.4,10.4,0,0,1-1.6.446m-4.872-.515a3.863,3.863,0,0,0,4.521,3.122q.1-.115.195-.234a3.845,3.845,0,0,1-4.554-3.023c-.007-.03-.023-.043-.042-.043a.165.165,0,0,0-.12.178m4.287.042c-.1.021-.153.237-.049.214a6.109,6.109,0,0,0,2.753-1.417c.035-.1.07-.19.1-.286a6.014,6.014,0,0,1-2.806,1.489m-4.989-2.143c-.861,3.236,1.017,5.174,1.183,5.08.07-.042.109-.163.061-.2a4.823,4.823,0,0,1-1.089-4.9c.018-.066-.006-.1-.041-.1s-.093.041-.114.118m1.845-.5a3.524,3.524,0,0,0,.355,3.67.05.05,0,0,0,.069,0,.13.13,0,0,0,.044-.041.138.138,0,0,0,.026-.149,3.285,3.285,0,0,1-.353-3.464c.03-.077,0-.118-.036-.118s-.078.031-.1.1m1.476,0c-1.03,1.117.852,3.018,1.179,2.829.076-.044.112-.179.052-.2a2.318,2.318,0,0,1-1.358-2.09c0-.217.315-.618.485-.517.742.245-.049,3.907,4.328.323.107-.088.074-.26-.033-.173-3.1,2.535-3.46,1.349-3.753.4-.113-.368-.269-.781-.535-.781a.534.534,0,0,0-.365.216m4.72-.645a8.863,8.863,0,0,1-1.6,1.19c-.1.046-.123.258-.009.2A9.151,9.151,0,0,0,23.9,31.015c.084-.073.077-.195.016-.195a.09.09,0,0,0-.055.026m-4.384-.418a2.578,2.578,0,0,0-1.243,2.8c.269,1.124,1.617,2.195,1.812,2.083.078-.045.112-.181.052-.2a3.508,3.508,0,0,1-1.7-2.019,2.249,2.249,0,0,1,1.047-2.453c.552-.172.715.371.934.914s.5,1.1,1.307.905c.1-.025.149-.24.044-.214-.768.186-1.011-.362-1.22-.91-.181-.474-.336-.948-.781-.948a.825.825,0,0,0-.248.042M24,30.057a4.736,4.736,0,0,1-1.688,1.079.754.754,0,0,1-.761-.156c-.07-.059-.2.139-.127.2a.844.844,0,0,0,.853.169,4.992,4.992,0,0,0,1.776-1.135c.079-.078.066-.188.008-.188a.093.093,0,0,0-.061.033m-4.049-1.02a2.968,2.968,0,0,0-1.973,1.693c-.078.135.038.208.116.072.618-1.078,1.333-1.506,1.794-1.548.346-.031.59.43.848.918a5.658,5.658,0,0,0,.427.721c.056.076.2-.106.14-.183A5.544,5.544,0,0,1,20.883,30c-.263-.5-.511-.967-.892-.967l-.042,0M22.9,29.3c-.1-.006-.173.211-.077.217a2.5,2.5,0,0,0,1.552-.838c0-.068,0-.136,0-.2A2.448,2.448,0,0,1,22.9,29.3m-2.094-1.193c-.089.125-.013.136.074.282a4.578,4.578,0,0,1,.333.775,3.893,3.893,0,0,0,.413.906c.489.7,1.6.252,2.484-.515.106-.091.067-.26-.039-.168-.823.71-1.856,1.142-2.3.5a3.86,3.86,0,0,1-.4-.88,4.678,4.678,0,0,0-.342-.8c-.039-.066-.086-.159-.145-.159-.023,0-.048.015-.075.052M17.89,29.387a5.413,5.413,0,0,0-1.456,4.063c.009.123.173.014.165-.11a5.075,5.075,0,0,1,1.362-3.818c.654-.744,1.6-1.531,2.3-1.512.1,0,.172-.214.075-.216h-.029a4.181,4.181,0,0,0-2.417,1.594m1.416-2.035a8.519,8.519,0,0,0-3.028,3.393c-.066.139.063.185.131.044a8.155,8.155,0,0,1,2.91-3.249c2.367-1.588,1.974,1.135,3.1,1.847.075.048.194-.156.117-.2-.835-.531-.812-2.352-1.933-2.352a2.481,2.481,0,0,0-1.293.522m.686-1.461a9.253,9.253,0,0,0-3.236,2.753c-2.468,2.894-3.3,9.346,1.257,9.9.083-.049.114-.2.042-.206-4.4-.551-3.582-6.8-1.225-9.563A9.009,9.009,0,0,1,19.964,26.1c.1-.039.129-.214.052-.214a.057.057,0,0,0-.024.005m.667-.141c-.1,0-.169.219-.07.217,1.118-.03,1.615,1.213,2.107,2.131.214.4.731.548,1.366-.043.1-.1.057-.258-.047-.161-.9.843-1.192-.029-1.677-.9A1.918,1.918,0,0,0,20.7,25.749h-.046m-2.218-.934a16.115,16.115,0,0,0-3.7,4.376c-.037.063-.365.58-.248.582a.146.146,0,0,0,.063-.023.164.164,0,0,0,.059-.065,15.88,15.88,0,0,1,3.86-4.7c.087-.07.083-.2.021-.2a.088.088,0,0,0-.052.023m-4.567,8.236c-.57,2.867.356,4.9,1.86,5.973a3.194,3.194,0,0,0,1.724.569,4.143,4.143,0,0,0,.709-.207,3.532,3.532,0,0,1-2.312-.565c-1.468-1.049-2.376-3.024-1.821-5.811.687-3.458,3.993-8.206,7.084-8.133,1.945.046,1.592,2.208,2.585,2.361a1.6,1.6,0,0,0,.606-.075c-.009-.066-.018-.132-.028-.2a1.331,1.331,0,0,1-.491.055c-.907-.139-.636-2.316-2.6-2.362h-.074c-3.148,0-6.533,4.808-7.245,8.391m5.241-8.645c-.111.054-.123.253-.016.2a4.885,4.885,0,0,1,2.658-.595,1.917,1.917,0,0,1,1.627,1.612c.023.113.184-.021.161-.134a2.01,2.01,0,0,0-1.7-1.694,2.662,2.662,0,0,0-.4-.028,5.812,5.812,0,0,0-2.333.635" fill="none"/></clipPath><linearGradient id="w" x1="-0.576" y1="2.954" x2="-0.519" y2="2.954" gradientUnits="objectBoundingBox"><stop offset="0" stop-color="#55b8ff"/><stop offset="0.517" stop-color="#55b8ff"/><stop offset="0.524" stop-color="#478bd5"/><stop offset="0.527" stop-color="#4178c4"/><stop offset="1" stop-color="#4178c4"/></linearGradient><clipPath id="y"><path d="M11.39,49.311v5.313l9.892-5.711.009-5.318Z" fill="none"/></clipPath><linearGradient id="z" x1="-0.66" y1="2.556" x2="-0.589" y2="2.556" gradientUnits="objectBoundingBox"><stop offset="0" stop-color="#343131"/><stop offset="0.297" stop-color="#343133"/><stop offset="0.51" stop-color="#34343d"/><stop offset="0.696" stop-color="#343a4c"/><stop offset="0.867" stop-color="#354162"/><stop offset="1" stop-color="#36497a"/></linearGradient><clipPath id="aa"><path d="M19.561,44.593v5.344l6.96,12.056.025-21.433Z" fill="none"/></clipPath><linearGradient id="ab" x1="-0.834" y1="1.748" x2="-0.776" y2="1.748" gradientUnits="objectBoundingBox"><stop offset="0" stop-color="#302e2d"/><stop offset="0.291" stop-color="#302f2f"/><stop offset="0.502" stop-color="#303239"/><stop offset="0.688" stop-color="#313749"/><stop offset="0.859" stop-color="#333f5f"/><stop offset="1" stop-color="#354878"/></linearGradient><clipPath id="ac"><path d="M18.937,51.695,11.39,56.052V68.837a.365.365,0,0,0,.393.019l12.711-7.34a.361.361,0,0,0,.134-.492L19.434,51.83a.362.362,0,0,0-.5-.135" fill="none"/></clipPath><linearGradient id="ad" x1="-0.398" y1="1.372" x2="-0.348" y2="1.372" gradientUnits="objectBoundingBox"><stop offset="0" stop-color="#3858a8"/><stop offset="0.103" stop-color="#3858a8"/><stop offset="0.225" stop-color="#395cab"/><stop offset="0.356" stop-color="#3d69b7"/><stop offset="0.49" stop-color="#437eca"/><stop offset="0.626" stop-color="#4c9ce5"/><stop offset="0.729" stop-color="#55b8ff"/><stop offset="0.734" stop-color="#51adf5"/><stop offset="0.744" stop-color="#4991db"/><stop offset="0.756" stop-color="#3b63b2"/><stop offset="0.759" stop-color="#3858a8"/><stop offset="1" stop-color="#3858a8"/></linearGradient></defs><g transform="translate(-4719 8940)"><g transform="translate(4719 -8940)" fill="#fff" stroke="#9d39e3" stroke-width="4"><circle cx="65.5" cy="65.5" r="65.5" stroke="none"/><circle cx="65.5" cy="65.5" r="63.5" fill="none"/></g><g transform="translate(4749 -8914)"><g clip-path="url(#a)"><g clip-path="url(#b)"><g style="isolation:isolate"><g clip-path="url(#c)"><path d="M30.207,10.869l-1.742.625.179,53.235a1.83,1.83,0,0,1-1.082,1.508l1.574-.914a1.831,1.831,0,0,0,1.082-1.509Z" fill="#d2d1ce"/><g clip-path="url(#d)"><rect width="14.222" height="15.015" transform="matrix(0.866, -0.5, 0.5, 0.866, 15.486, 2.946)" fill="url(#e)"/></g><g opacity="0.5" style="mix-blend-mode:screen;isolation:isolate"><g clip-path="url(#f)"><path d="M25.367,2.946l-1.574.915a29.84,29.84,0,0,1,4.422,6.44l1.574-.915a29.84,29.84,0,0,0-4.422-6.44" fill="#f1f0ec"/></g></g><path d="M28.633,11.784C28.639,9.567,23.2,2.421,20.59.915L20.565,66.3c2.61,1.506,8.073.656,8.079-1.567Z" fill="#b6b5b3"/></g></g><g style="isolation:isolate"><g clip-path="url(#g)"><path d="M9.222,23.073l0,52.393A1.727,1.727,0,0,1,8.2,76.89L27.167,65.854a1.721,1.721,0,0,0,1.021-1.424l0-52.393L17.422,13.045Z" fill="#3a3737"/><g clip-path="url(#h)"><rect width="33.649" height="31.721" transform="matrix(0.866, -0.5, 0.5, 0.866, -7.589, 7.102)" fill="url(#i)"/></g><g opacity="0.3" style="mix-blend-mode:screen;isolation:isolate"><g clip-path="url(#j)"><path d="M23.623,4.559,4.655,15.6a28.134,28.134,0,0,1,4.173,6.078L27.8,10.637a28.158,28.158,0,0,0-4.173-6.078" fill="#4f4a4a"/></g></g></g></g><g style="isolation:isolate"><g clip-path="url(#k)"><path d="M9.642,22.743,7,22.957,8.079,76.6A1.83,1.83,0,0,1,7,78.111L8.571,77.2a1.829,1.829,0,0,0,1.082-1.508Z" fill="#d2d1ce"/><g clip-path="url(#l)"><rect width="14.222" height="15.015" transform="translate(-5.079 14.819) rotate(-30)" fill="url(#m)"/></g><g opacity="0.5" style="mix-blend-mode:screen;isolation:isolate"><g clip-path="url(#n)"><path d="M4.8,14.819l-1.574.915a29.816,29.816,0,0,1,4.422,6.44l1.574-.915A29.84,29.84,0,0,0,4.8,14.819" fill="#f1f0ec"/></g></g><path d="M8.068,23.657C8.074,21.44,2.634,14.294.025,12.788L0,78.169c2.61,1.506,8.073.656,8.079-1.567Z" fill="#b6b5b3"/></g></g><path d="M19.967,19.5a1.847,1.847,0,0,1-.89,1.4c-.492.284-.891.116-.891-.376a1.846,1.846,0,0,1,.891-1.4c.491-.284.89-.116.89.376" fill="#282626"/></g><g clip-path="url(#o)"><rect width="1.809" height="2.208" transform="translate(18.302 19.121)" fill="url(#p)"/></g><g clip-path="url(#b)"><g style="mix-blend-mode:screen;isolation:isolate"><g clip-path="url(#r)"><g clip-path="url(#s)"><rect width="4.824" height="4.825" transform="translate(17.089 17.372)" fill="url(#t)"/></g></g></g><path d="M25.095,37.448,12.913,44.481V26.549l12.182-7.033Z" fill="#3858a8"/><g opacity="0.3" style="mix-blend-mode:multiply;isolation:isolate"><g clip-path="url(#u)"><path d="M24.617,19.792v17.38l-11.7,6.757v.553l12.182-7.034V19.516Z" fill="#3858a8"/></g></g></g><g clip-path="url(#v)"><rect width="17.504" height="19.241" transform="matrix(0.866, -0.5, 0.5, 0.866, 6.453, 27.728)" fill="url(#w)"/></g><g clip-path="url(#b)"><path d="M22.5,47.794,11.39,54.033V70.728l15.131-8.735Z" fill="#304263"/></g><g clip-path="url(#y)"><rect width="14.089" height="14.502" transform="translate(6.614 46.352) rotate(-30)" fill="url(#z)"/></g><g clip-path="url(#aa)"><rect width="17.28" height="21.878" transform="matrix(0.848, -0.53, 0.53, 0.848, 9.93, 46.577)" fill="url(#ab)"/></g><g clip-path="url(#ac)"><rect width="20.111" height="21.607" transform="matrix(0.871, -0.492, 0.492, 0.871, 3.991, 55.824)" fill="url(#ad)"/></g><g clip-path="url(#b)"><path d="M21.8,58.594a.2.2,0,0,1-.177-.1.206.206,0,0,1,.074-.28L48.25,42.879a.205.205,0,0,1,.205.356L21.9,58.567a.214.214,0,0,1-.1.027" fill="#e9e5e0"/><path d="M68.107,22.524c-2.224-1.279-5.163-.993-8.273.8C53.515,26.976,48.39,35.852,48.41,43.115c.011,3.551,1.232,6.206,3.44,7.477a6.086,6.086,0,0,0,3.072.788,10.576,10.576,0,0,0,5.2-1.59C66.441,46.142,71.565,37.265,71.545,30c-.011-3.552-1.232-6.208-3.438-7.478" fill="#8bc6b5"/><path d="M54.847,51.59a6.153,6.153,0,0,1-3.112-.8C49.5,49.5,48.26,46.812,48.249,43.213c-.02-7.366,5.178-16.371,11.589-20.073,3.155-1.822,6.131-2.111,8.384-.815,2.236,1.287,3.474,3.98,3.484,7.58.021,7.366-5.178,16.371-11.588,20.073a10.718,10.718,0,0,1-5.271,1.612m5.2-28.095c-6.3,3.636-11.4,12.48-11.384,19.716.01,3.448,1.174,6.014,3.28,7.225,2.121,1.221,4.952.932,7.974-.813,6.3-3.636,11.4-12.481,11.383-19.716-.009-3.449-1.174-6.016-3.278-7.226s-4.952-.932-7.975.814" fill="#e9e5e0"/><path d="M60.988,28.893c-1.195.45-2.643,1.687-4.428,3.78-3.329,3.9-4.489,12.73,1.73,13.508.1.012.059.222-.059.291a.1.1,0,0,1-.059.015c-6.377-.8-5.2-9.912-1.716-14,1.831-2.147,3.326-3.419,4.57-3.889.151-.057.114.234-.038.3m-.93,1.77a12.008,12.008,0,0,0-4.277,4.791c-.094.2.088.262.184.063a11.531,11.531,0,0,1,4.111-4.59c3.344-2.243,2.789,1.6,4.373,2.609.107.069.274-.221.167-.289-1.52-.965-1.03-4.948-4.558-2.584M58.336,41.706a.21.21,0,0,0,.062-.058.2.2,0,0,0,.037-.211,4.64,4.64,0,0,1-.5-4.893c.08-.2-.117-.233-.2-.03a4.98,4.98,0,0,0,.5,5.184.071.071,0,0,0,.1.008m2.541-8.358c.489-.043.834.608,1.2,1.3a8,8,0,0,0,.6,1.018c.079.107.279-.15.2-.26a7.755,7.755,0,0,1-.591-1c-.384-.727-.747-1.414-1.319-1.363-.722.065-1.832.727-2.787,2.391-.11.192.053.294.163.1.874-1.524,1.883-2.129,2.535-2.188m-2.719.38c.923-1.051,2.261-2.164,3.249-2.136.136,0,.243-.3.106-.307-1.063-.031-2.482,1.143-3.455,2.251A7.645,7.645,0,0,0,56,39.276c.012.175.244.02.232-.156a7.171,7.171,0,0,1,1.925-5.392M55.35,37.187c.054-.2-.165-.172-.219.029-1.217,4.572,1.437,7.31,1.67,7.175.1-.057.154-.23.087-.28-.789-.585-2.547-3.136-1.538-6.924m-2.095-3.1a.184.184,0,0,0,.088-.032.237.237,0,0,0,.084-.092,22.433,22.433,0,0,1,5.452-6.632c.151-.121.109-.368-.043-.248A22.751,22.751,0,0,0,53.6,33.261c-.052.089-.515.819-.35.822m1.929,12.782c-2.074-1.483-3.357-4.272-2.574-8.21.971-4.885,5.642-11.592,10.008-11.488,2.748.065,2.248,3.119,3.652,3.335a2.264,2.264,0,0,0,.855-.106c-.013-.093-.025-.186-.039-.277a1.86,1.86,0,0,1-.694.078c-1.281-.2-.9-3.271-3.668-3.337-4.477-.107-9.325,6.753-10.339,11.854-.8,4.049.5,6.917,2.627,8.436a4.5,4.5,0,0,0,2.435.805,5.887,5.887,0,0,0,1-.292,5,5,0,0,1-3.265-.8m4.6-20.363c-.156.076-.174.357-.023.288a6.894,6.894,0,0,1,3.754-.84,2.7,2.7,0,0,1,2.3,2.277c.033.159.26-.031.228-.19a2.836,2.836,0,0,0-2.4-2.392,7.064,7.064,0,0,0-3.853.857m.539,10.034c1.049.346-.069,5.518,6.114.455.152-.124.1-.368-.046-.244-4.373,3.581-4.888,1.906-5.3.559-.221-.721-.562-1.569-1.271-.8-1.455,1.578,1.2,4.264,1.665,4,.108-.063.158-.254.074-.288a3.276,3.276,0,0,1-1.919-2.952c-.006-.306.445-.873.685-.73m.774,5.373c.109-.063.158-.255.073-.288a4.946,4.946,0,0,1-2.407-2.851,3.171,3.171,0,0,1,1.479-3.465c1.569-.49.911,3.116,3.165,2.569.148-.035.212-.338.063-.3C61.3,38.1,62.1,34.442,60.3,35.007c-1.009.315-2.172,2.225-1.756,3.96.381,1.588,2.284,3.1,2.56,2.942m-4.75-1.915c-.033-.16-.26.029-.228.189.626,3.079,3.078,4.728,6.385,4.411.094-.108.186-.219.277-.331-3.742.439-5.919-1.738-6.434-4.269m4.428,3a2.91,2.91,0,0,1-1.894-1.022c-.036-.042-.108-.017-.162.056a.192.192,0,0,0-.031.21A3.023,3.023,0,0,0,60.661,43.3a11.484,11.484,0,0,0,2.828.04c.076-.106.15-.214.223-.322a11.4,11.4,0,0,1-2.933-.023m2.226-2.083c-.146.025-.221.329-.075.3a15.015,15.015,0,0,0,2.175-.6c.055-.112.11-.225.164-.338a14.852,14.852,0,0,1-2.264.63m-1.195.933c-.129-.026-.256.278-.128.3a7.068,7.068,0,0,0,2.641-.091c.065-.108.129-.218.192-.328a7.129,7.129,0,0,1-2.7.115m3.328-8.429c-.135-.008-.245.3-.109.306a3.527,3.527,0,0,0,2.192-1.183c0-.1,0-.192.006-.288a3.458,3.458,0,0,1-2.089,1.165m-2.96,6.827c-.147.031-.215.335-.068.3a8.642,8.642,0,0,0,3.888-2c.049-.134.1-.268.145-.4a8.486,8.486,0,0,1-3.965,2.1m-4.614,4.345c-.106-.07-.274.218-.167.288a6.92,6.92,0,0,0,3.775,1.071q.162-.142.322-.292a7.082,7.082,0,0,1-3.93-1.067m9.122-10.1A6.687,6.687,0,0,1,64.3,36.007a1.071,1.071,0,0,1-1.077-.22c-.1-.084-.277.2-.178.28a1.192,1.192,0,0,0,1.2.238,7.016,7.016,0,0,0,2.509-1.6c.146-.143.072-.361-.074-.219m-.2,1.115a12.613,12.613,0,0,1-2.262,1.681c-.147.064-.173.365-.013.283a12.818,12.818,0,0,0,2.329-1.727c.149-.128.1-.366-.054-.237m.3-2.059c-1.163,1-2.621,1.614-3.254.709a5.474,5.474,0,0,1-.565-1.243,6.653,6.653,0,0,0-.483-1.123c-.077-.13-.176-.335-.31-.151s-.018.193.1.4a6.515,6.515,0,0,1,.47,1.095,5.534,5.534,0,0,0,.584,1.28c.69.987,2.253.356,3.509-.728.15-.129.1-.366-.055-.237M60.427,46.548a5.577,5.577,0,0,1-1.575-.224c-.122-.042-.265.258-.144.3a5.231,5.231,0,0,0,1.3.219c.141-.093.281-.192.42-.295m6.349-14.894c.147-.137.08-.364-.067-.226-2.2,2.053-1.818-3.109-4.741-3.03-.139,0-.238.311-.1.307,1.58-.043,2.281,1.713,2.977,3.01.3.56,1.032.775,1.929-.061" fill="#0f5e70"/></g></g></g></g></svg>